<?xml version="1.0" encoding="UTF-8" standalone="no"?>
<!DOCTYPE svg PUBLIC "-//W3C//DTD SVG 1.1//EN" "http://www.w3.org/Graphics/SVG/1.1/DTD/svg11.dtd">
<svg width="4657.5308537137225" height="4553.2975275907265" version="1.1" xmlns="http://www.w3.org/2000/svg" xmlns:xlink="http://www.w3.org/1999/xlink">
	<title/>
	<defs>
		<marker id="point" markerWidth="6" markerHeight="6" markerUnits="userSpaceOnUse" orient="auto" refX="0" refY="0"/>
	</defs>
	<marker id="point" markerWidth="6" markerHeight="6" markerUnits="userSpaceOnUse" orient="auto" refX="0" refY="0"/>
	<path d="M4621.113649 2480.643028L4591.744178 2525.016883L4562.302082 2572.893609L4530.819676 2626.830189L4495.431071 2689.411993L4454.408713 2763.253928L4406.215021 2851.005477L4349.573462 2955.357632L4283.56543 3079.049662L4207.761957 3224.873732L4122.402622 3395.675947L4114.97159 3410.956347L4107.578024 3426.241377L4100.221636 3441.530689L4092.90213 3456.82394L4085.619206 3472.120787L4078.372559 3487.420895L4071.161878 3502.723929L4063.986846 3518.029556L4056.84714 3533.337449L4049.742434 3548.647283M4588.652295 2422.931094L4557.894205 2469.340725L4525.678755 2522.134467L4490.427521 2583.174143L4450.663845 2654.345954L4405.04613 2737.561477L4352.411645 2834.761612L4291.834327 2947.922009L4222.701475 3079.058494L4144.815986 3230.231164L4058.532885 3403.546165L4046.743672 3427.845084L4035.049528 3452.153825L4023.449291 3476.471158L4011.941766 3500.795875L4000.525725 3525.126782L3989.199903 3549.462706L3977.963005 3573.80249L3966.813699 3598.144993L3955.750623 3622.489094L3944.772379 3646.833684M4554.387019 2357.076459L4521.421617 2406.083071L4484.372574 2465.26081L4442.383361 2535.56291L4394.701235 2617.960339L4340.701363 2713.4431L4279.91772 2823.022449L4212.082934 2947.733419L4137.179898 3088.637074L4055.508683 3246.82208L3967.772983 3423.405329L3950.301142 3459.612839L3933.042555 3495.837623L3915.99351 3532.076042L3899.15013 3568.324536L3882.508371 3604.579617L3866.064028 3640.83787L3849.812728 3677.095951L3833.749938 3713.350583L3817.870962 3749.59856L3802.170943 3785.836742M4508.876551 2281.468867L4473.290016 2333.792004L4430.558545 2401.13177L4380.703429 2483.262528L4323.854791 2579.970244L4260.254434 2691.053447L4190.262706 2816.324517L4114.369757 2955.611136L4033.211664 3108.757735L3947.591922 3275.62686L3858.508757 3456.100368L3834.641414 3505.968807L3811.185974 3555.862334L3788.133156 3605.772515L3765.473084 3655.691135L3743.195289 3705.610191L3721.28871 3755.521887L3699.741704 3805.418633L3678.542047 3855.293042L3657.676945 3905.137933L3637.133049 3954.946327M4470.849683 2191.456814L4432.17464 2247.047311L4382.701912 2322.435261L4323.464055 2416.22951L4255.61103 2527.044703L4180.385963 2653.501901L4099.103357 2794.229279L4013.128225 2947.86292L3923.854807 3113.047705L3832.683711 3288.438323L3740.996472 3472.700414L3707.418444 3542.674571L3674.661852 3612.684515L3642.702426 3682.70988L3611.513593 3752.730948L3581.066481 3822.728638L3551.329953 3892.684511L3522.270643 3962.580778L3493.853023 4032.40032L3466.039478 4102.126716L3438.790399 4171.744269M4015.892603 2687.791732L3988.113019 2731.183186L3963.918981 2772.178508L3940.272315 2814.948582L3914.246904 2863.669117L3883.064823 2922.517166L3844.161947 2995.670919L3795.290679 3087.312325L3734.672183 3201.631791L3661.217929 3342.833857L3574.850847 3515.142481L3527.635738 3613.536951L3482.095819 3711.979708L3438.16842 3810.423413L3395.781764 3908.822444L3354.855075 4007.133002L3315.298837 4105.313253L3277.015188 4203.323529L3239.898467 4301.126557L3203.835892 4398.687724L3168.708393 4495.975365M4042.305647 2673.632484L4014.52896 2716.983697L3990.335876 2757.959268L3966.68809 2800.7215L3940.658598 2849.438116L3909.467544 2908.278696L3870.5473 2981.414629L3821.644311 3073.022039L3760.969931 3187.286866L3687.419776 3328.410871L3600.891469 3500.61713L3554.899015 3596.122522L3510.470596 3691.674959L3467.548345 3787.230129L3426.066344 3882.745336L3385.950712 3978.17957L3347.119815 4073.493623L3309.484587 4168.650247L3272.948974 4263.614344L3237.410493 4358.353179L3202.760912 4452.836626M4497.171174 2179.39613L4458.515595 2234.870676L4409.066752 2310.138019L4349.853071 2403.806495L4282.019422 2514.490289L4206.802874 2640.810048L4125.510863 2781.393573L4039.500297 2934.876594L3950.156284 3099.903656L3858.869324 3275.129109L3767.010016 3459.218244L3734.536926 3526.63563L3702.8205 3594.08805L3671.838818 3661.556824L3641.56798 3729.023858L3611.982112 3796.471638L3583.053384 3863.883226L3554.752048 3931.242268L3527.046483 3998.533005L3499.903255 4065.74029L3473.287191 4132.849616M4535.249623 2270.433064L4499.675888 2322.624839L4456.958071 2389.832405L4407.114592 2471.826489L4350.2719 2568.390005L4286.667197 2679.319092L4216.655128 2804.424418L4140.718805 2943.532583L4059.48563 3096.487501L3973.74843 3263.151664L3884.492332 3443.407243L3861.685241 3490.870555L3839.248765 3538.358L3817.174835 3585.862096L3795.454891 3633.375548L3774.079889 3680.891247L3753.0403 3728.402259L3732.32611 3775.90183L3711.926833 3823.383378L3691.831509 3870.840496L3672.028719 3918.266953M4580.789674 2346.962974L4547.830575 2395.825742L4510.78692 2454.862443L4468.80035 2525.019666L4421.11559 2607.262778L4367.10436 2702.577363L4306.295966 2811.97152L4238.416746 2936.478392L4163.44113 3077.15836L4081.657806 3235.100494L3993.755195 3411.422999L3977.322596 3445.336675L3961.075998 3479.26648L3945.012326 3513.209331L3929.128376 3547.162207L3913.420818 3581.122146L3897.886196 3615.086245L3882.520925 3649.051656L3867.321296 3683.01559L3852.283472 3716.975311L3837.403494 3750.928138M4615.066654 2413.490887L4584.31075 2459.752997L4552.095694 2512.410534L4516.841815 2573.314475L4477.070546 2644.341588L4431.437482 2727.395624L4378.775817 2824.411476L4318.153643 2937.360762L4248.949936 3068.257324L4170.955797 3219.161262L4084.509581 3392.18052L4073.750522 3414.261449L4063.069563 3436.350936L4052.46583 3458.448038L4041.938425 3480.551825L4031.486428 3502.661378L4021.108896 3524.775794L4010.804862 3546.894178L4000.573337 3569.015651L3990.41331 3591.139344L3980.323745 3613.264402M4647.530854 2471.775547L4618.160373 2515.995575L4588.715168 2563.731846L4557.226624 2617.528843L4521.827276 2679.961028L4480.787103 2753.63418L4432.564758 2841.1907L4375.878082 2945.316835L4309.800144 3068.749607L4233.88977 3214.281463L4148.368746 3384.761123L4141.974622 3397.851659L4135.607878 3410.945699L4129.26833 3424.043023L4122.95579 3437.143415L4116.670067 3450.24666L4110.410968 3463.352547L4104.178297 3476.460865L4097.971853 3489.571404L4091.791435 3502.683956L4085.636837 3515.798317M3721.951661 3149.260308L3706.25638 3162.728496L3690.106024 3174.057276L3673.785551 3183.203348L3657.585889 3190.120577L3641.803368 3194.758904L3626.739173 3197.063528L3612.698781 3196.974324L3599.991386 3194.425505L3588.929299 3189.345502L3579.827304 3181.657066L3573.23851 3171.678525L3569.4469 3159.963211L3568.360785 3146.784238L3569.882698 3132.417701L3573.909502 3117.143213L3580.332794 3101.244536L3589.0396 3085.010297L3599.913342 3068.734787L3612.835046 3052.718829L3627.684788 3037.270689M3721.951661 3149.260308L3707.746116 3161.438871L3693.119804 3171.667707L3678.33199 3179.9073L3663.646893 3186.115814L3649.333194 3190.248175L3635.663576 3192.255373L3622.914242 3192.083968L3611.364434 3189.675804L3601.295927 3184.967902L3592.992507 3177.89254L3586.956563 3168.74511L3583.447836 3158.033732L3582.384235 3146.008465L3583.67893 3132.921863L3587.240434 3119.029431L3592.972935 3104.59014L3600.776857 3089.867016L3610.549648 3075.127789L3622.186765 3060.645591L3635.58286 3046.699698M3721.951661 3149.260308L3709.235709 3160.149765L3696.133396 3169.279898L3682.878145 3176.615236L3669.707405 3182.118453L3656.862248 3185.749602L3644.58697 3187.465542L3633.1287 3187.21952L3622.736996 3184.960931L3613.663435 3180.635225L3606.161187 3174.183975L3600.681881 3165.878554L3597.461266 3156.181292L3596.426819 3145.31874L3597.502195 3133.519498L3600.607307 3121.01458L3605.658581 3108.037839L3612.56941 3094.826437L3621.250782 3081.621362L3631.612066 3068.667983L3643.561967 3056.216637M1509.870925 4530.037127L1536.405764 4485.950814L1564.843424 4441.948634L1595.040307 4398.06509L1626.857559 4354.336107L1660.161981 4310.79907L1694.82666 4267.492857L1730.731368 4224.457878L1767.762762 4181.736118L1805.814433 4139.371183L1844.786825 4097.408351M1611.223994 4446.510735L1616.275915 4437.762458L1621.386413 4429.024107L1626.554936 4420.295741L1631.780933 4411.57742L1637.063853 4402.869202L1642.403146 4394.171149L1647.798265 4385.483321L1653.248664 4376.805778L1658.753797 4368.138582L1664.313121 4359.481794L1669.926096 4350.835478L1675.592181 4342.199694L1681.31084 4333.574507L1687.081538 4324.959979L1692.903743 4316.356175L1698.776926 4307.763158L1704.700559 4299.180994L1710.674119 4290.609748L1716.697084 4282.049484L1722.768937 4273.500269L1728.889161 4264.96217L1735.057246 4256.435253L1741.272682 4247.919586L1747.534965 4239.415237L1753.843592 4230.922273L1760.198065 4222.440764L1766.59789 4213.970778L1773.042576 4205.512386L1779.531634 4197.065657L1786.064582 4188.630662L1792.640939 4180.207472L1799.26023 4171.796158L1805.921982 4163.396793L1812.625728 4155.009448L1819.371002 4146.634198L1826.157346 4138.271115L1832.984302 4129.920272L1839.851419 4121.581746L1846.758249 4113.25561L1853.704347 4104.94194L1860.689274 4096.640811L1867.712595 4088.352301L1874.773878 4080.076486M1523.329365 4539.961849L1550.776155 4490.428137L1580.781515 4440.931163L1613.135509 4391.522344L1647.634332 4342.255552L1684.082256 4293.187164L1722.293005 4244.37613L1762.090638 4195.88404L1803.310016 4147.775208L1845.796952 4100.116762L1889.408115 4052.978735M1561.511481 4505.008167L1587.368639 4458.085966L1615.54644 4411.148405L1645.853815 4364.248619L1678.105151 4317.442155L1712.121812 4270.787012L1747.73324 4224.343697L1784.777674 4178.175285L1823.102561 4132.347497L1862.564724 4086.928778L1903.030323 4041.990392M1641.74917 4425.321812L1646.622773 4416.696329L1651.552307 4408.080312L1656.537272 4399.473816L1661.577168 4390.876897L1666.671499 4382.28961L1671.819765 4373.712014L1677.021471 4365.144164L1682.27612 4356.586119L1687.583219 4348.037937L1692.942273 4339.499675L1698.352792 4330.971392L1703.814284 4322.453148L1709.326261 4313.945002L1714.888237 4305.447013L1720.499726 4296.959243L1726.160245 4288.481751L1731.869315 4280.014599L1737.626455 4271.557849L1743.431191 4263.111561L1749.283048 4254.675799L1755.181555 4246.250625L1761.126243 4237.836103L1767.116646 4229.432295L1773.152301 4221.039266L1779.232747 4212.657081L1785.357527 4204.285804L1791.526185 4195.9255L1797.738271 4187.576236L1803.993336 4179.238077L1810.290933 4170.91109L1816.630622 4162.595342L1823.011962 4154.290901L1829.434517 4145.997834L1835.897856 4137.71621L1842.401549 4129.446097L1848.94517 4121.187566L1855.528297 4112.940685L1862.150511 4104.705525L1868.811396 4096.482157L1875.51054 4088.270652L1882.247534 4080.071082L1889.021975 4071.883518M1689.583706 4374.055352L1694.598439 4365.333589L1699.668477 4356.621713L1704.793326 4347.919785L1709.972493 4339.227863L1715.205485 4330.546008L1720.491813 4321.874281L1725.830986 4313.212743L1731.222515 4304.561454L1736.665912 4295.920479L1742.160691 4287.289877L1747.706367 4278.669713L1753.302458 4270.06005L1758.948483 4261.460951L1764.643961 4252.87248L1770.388417 4244.294702L1776.181373 4235.727681L1782.022359 4227.171484L1787.910902 4218.626176L1793.846535 4210.091823L1799.828791 4201.568493L1805.857208 4193.056251L1811.931324 4184.555167L1818.050681 4176.065307L1824.214825 4167.586742L1830.423303 4159.119539L1836.675664 4150.663768L1842.971464 4142.2195L1849.310257 4133.786805L1855.691603 4125.365753L1862.115065 4116.956417L1868.580209 4108.558867L1875.086603 4100.173178L1881.633819 4091.799421L1888.221433 4083.437669L1894.849024 4075.087998L1901.516172 4066.750481M1634.384573 4341.243059L1631.733761 4343.326481L1629.235345 4345.208878L1626.898257 4346.88432L1624.7315 4348.346878L1622.744137 4349.590627L1620.945281 4350.609639L1619.344089 4351.397982L1617.949749 4351.949717L1616.771473 4352.258896L1615.818486 4352.319559L1615.21924 4351.157407L1615.672445 4349.072085L1617.138076 4346.117141L1619.574245 4342.345704L1622.937514 4337.810602L1627.183281 4332.564502L1632.26623 4326.660075L1638.140848 4320.150177L1644.76199 4313.088058L1652.08549 4305.527595L1655.82629 4301.757992L1659.481161 4298.123234L1663.04239 4294.629826L1666.502414 4291.28432L1669.853809 4288.093309L1673.089274 4285.063424L1676.201626 4282.201327L1679.183784 4279.513712L1682.028763 4277.007296L1684.729659 4274.688815M1804.206757 4197.916315L1810.626336 4194.516398L1817.086925 4191.141336L1823.588091 4187.791191L1830.1294 4184.46602L1836.710423 4181.165885L1843.330735 4177.890844L1849.989915 4174.640956L1856.687544 4171.416281L1863.423207 4168.216876L1870.196494 4165.0428L1877.006997 4161.894111L1883.854313 4158.770867L1890.738041 4155.673124L1897.657786 4152.600941L1904.613155 4149.554373L1911.603759 4146.533477L1918.629212 4143.53831L1925.689134 4140.568927L1932.783147 4137.625383M1767.224178 4257.956587L1775.554775 4252.47361L1783.907225 4247.009074L1792.281223 4241.56305L1800.676468 4236.135611L1809.092665 4230.726827L1817.529522 4225.33677L1825.986754 4219.965512L1834.464078 4214.613125L1842.961217 4209.27968L1851.477898 4203.965251L1860.013853 4198.669908L1868.568818 4193.393725L1877.142532 4188.136774L1885.734741 4182.899127L1894.345192 4177.680857L1902.973637 4172.482036L1911.619834 4167.302738M1920.837839 4162.921239L1917.800698 4169.860777L1914.808785 4176.811727L1911.862313 4183.774033L1908.961491 4190.747639L1906.106528 4197.732487L1903.29763 4204.728523M1943.56086 4130.964088L1946.984154 4131.962485L1950.451266 4132.984155L1953.961965 4134.029081L1957.516014 4135.097245L1961.113179 4136.18863L1964.753223 4137.303217M1525.215988 4517.915914L1551.593257 4473.746555L1579.863725 4429.661115L1609.885741 4385.693999L1641.522209 4341.881044L1674.641487 4298.259544L1709.118013 4254.868294L1744.832715 4211.747624L1781.673218 4168.939447L1819.533908 4126.487302L1858.31587 4084.436406M1626.625095 4434.532489L1631.650622 4425.768416L1636.73434 4417.014233L1641.875707 4408.269999L1647.074185 4399.535775L1652.329233 4390.811619L1657.640314 4382.097592L1663.006891 4373.393754L1668.428428 4364.700166L1673.904392 4356.016891L1679.434249 4347.343988L1685.017471 4338.681521L1690.653526 4330.029553L1696.34189 4321.388146L1702.082038 4312.757364L1707.873447 4304.13727L1713.715598 4295.52793L1719.607973 4286.929407L1725.550059 4278.341768L1731.541343 4269.765077L1737.581316 4261.199401L1743.669473 4252.644807L1749.805311 4244.101361L1755.988329 4235.569131L1762.218031 4227.048185L1768.493924 4218.538591L1774.815518 4210.040418L1781.182326 4201.553736L1787.593865 4193.078613L1794.049655 4184.615121L1800.549221 4176.16333L1807.09209 4167.723311L1813.677794 4159.295136L1820.305867 4150.878877L1826.975848 4142.474607L1833.687281 4134.082399L1840.439711 4125.702326L1847.232689 4117.334462L1854.06577 4108.978883L1860.938511 4100.635663L1867.850475 4092.304878L1874.801228 4083.986603L1881.79034 4075.680916L1888.817386 4067.387894M1657.186262 4413.40744L1662.03512 4404.76637L1666.939537 4396.134729L1671.899024 4387.512575L1676.913091 4378.899961L1681.981252 4370.296946L1687.103017 4361.703585L1692.277902 4353.119936L1697.505419 4344.546056L1702.785084 4335.982004L1708.116414 4327.427838L1713.498926 4318.883615L1718.932139 4310.349397L1724.415575 4301.825241L1729.948755 4293.311209L1735.531205 4284.80736L1741.162449 4276.313755L1746.842016 4267.830455L1752.569437 4259.357523L1758.344243 4250.895019L1764.16597 4242.443006L1770.034154 4234.001548L1775.948335 4225.570707L1781.908055 4217.150547L1787.912858 4208.741132L1793.962292 4200.342526L1800.055906 4191.954796L1806.193255 4183.578005L1812.373892 4175.21222L1818.597378 4166.857508L1824.863273 4158.513934L1831.171143 4150.181567L1837.520554 4141.860473L1843.911078 4133.550722L1850.342289 4125.25238L1856.813764 4116.965518L1863.325084 4108.690205L1869.875832 4100.42651L1876.465595 4092.174505L1883.093965 4083.934259L1889.760533 4075.705845L1896.464899 4067.489334L1903.206661 4059.284799M1704.97278 4362.150105L1709.96226 4353.412336L1715.006696 4344.684418L1720.105606 4335.966409L1725.258506 4327.258369L1730.464913 4318.560359L1735.724347 4309.87244L1741.036327 4301.194673L1746.400373 4292.527118L1751.816007 4283.86984L1757.282752 4275.222898L1762.800132 4266.586358L1768.367674 4257.960281L1773.984906 4249.344731L1779.651356 4240.739774L1785.366556 4232.145472L1791.13004 4223.561892L1796.941342 4214.989099L1802.800001 4206.427159L1808.705556 4197.876138L1814.65755 4189.336103L1820.655526 4180.807121L1826.699033 4172.289261L1832.787619 4163.78259L1838.920837 4155.287177L1845.098242 4146.803092L1851.319391 4138.330404L1857.583846 4129.869182L1863.891168 4121.419499L1870.240925 4112.981424L1876.632686 4104.55503L1883.066023 4096.140389L1889.540511 4087.737573L1896.05573 4079.346655L1902.61126 4070.967709L1909.206686 4062.600808L1915.841596 4054.246029M1679.302793 4281.077873L1672.666721 4289.220769L1666.076206 4297.376145L1659.531791 4305.543931L1653.034025 4313.724056L1646.583459 4321.91645L1640.180651 4330.121042L1633.826161 4338.337765M1657.381026 4301.763999L1651.162609 4309.349647L1644.9842 4316.946167L1638.84625 4324.553503L1632.749216 4332.171597L1626.693558 4339.800393L1629.813784 4337.608928M1776.183971 4245.530183L1784.857847 4239.658224L1793.553528 4233.805127L1802.270697 4227.970973L1811.009044 4222.155838L1819.768265 4216.359802L1828.548059 4210.582943L1837.348131 4204.825342L1846.168192 4199.087076L1855.007956 4193.368226L1863.867142 4187.66887L1872.745476 4181.989089L1881.642686 4176.328962L1890.558506 4170.68857L1899.492674 4165.067992L1908.444931 4159.467309L1917.415025 4153.886602L1926.402707 4148.32595L1935.40773 4142.785435M1785.345291 4231.748169L1793.582907 4226.227449L1801.843014 4220.725186L1810.125304 4215.241453L1818.429474 4209.776322L1826.755225 4204.329866L1835.102265 4198.902158L1843.470303 4193.493271L1851.859055 4188.103277L1860.26824 4182.732249L1868.697584 4177.380261L1877.146814 4172.047385L1885.615663 4166.733696L1894.103867 4161.439267L1902.611169 4156.164171L1911.137312 4150.908482L1919.682047 4145.672273L1928.245124 4140.45562M1807.269307 4205.507939L1814.415328 4201.35748L1821.59359 4197.229075L1828.803713 4193.122791L1836.045323 4189.038691L1843.318047 4184.976841L1850.621519 4180.937306L1857.955376 4176.92015M1849.116324 4092.967249L1857.737678 4084.627121L1866.36994 4076.293158L1873.973693 4068.377205L1881.592009 4060.466807L1889.694328 4052.660757L1897.808929 4044.861636L1905.935655 4037.069482L1908.412077 4035.273447L1910.934711 4033.500027L1913.503374 4031.749251L1916.117882 4030.021149M1876.652827 4075.250863L1880.988267 4072.277335L1885.371205 4069.32826L1889.801311 4066.40369L1894.278252 4063.503678L1898.801699 4060.628278L1903.371318 4057.77754L1907.98678 4054.951518L1912.647751 4052.150263L1917.3539 4049.373827L1922.104896 4046.622259M1507.625438 4535.070374L1513.917356 4532.454984L1520.245522 4529.858987L1516.911155 4536.573841L1513.625748 4543.297528L1520.249253 4540.332405L1526.902285 4537.38495L1533.584461 4534.455198L1543.302433 4525.799074L1553.020406 4517.14727L1562.73838 4508.499811L1572.456354 4499.856721M1598.928218 4457.542763L1608.560759 4450.403824L1618.201112 4443.277142L1627.849137 4436.162776L1637.504699 4429.060785L1647.167665 4421.97123L1656.837907 4414.89417L1666.157147 4404.99528L1675.483729 4395.096654L1684.817532 4385.198295L1694.158436 4375.300204L1703.506325 4365.402382M1885.348639 4213.765562L1895.761064 4203.945691L1906.174507 4194.129141L1916.588952 4184.315936L1927.004381 4174.506098L1937.42078 4164.699653L1947.838133 4154.896623L1958.256423 4145.097034L1968.675638 4135.300909L1958.048209 4143.458571L1947.423981 4151.628909L1936.803006 4159.811849L1926.185337 4168.007317L1934.873592 4157.741817L1943.577606 4147.476494L1937.451627 4150.278325L1931.342778 4153.095268L1925.25122 4155.927291L1919.177119 4158.774364M1541.400333 4523.34882L1546.153057 4514.703777L1550.968002 4506.068576L1555.844588 4497.443275L1560.78224 4488.82793L1565.780377 4480.222598L1570.838425 4471.627338L1575.955804 4463.042208L1581.13194 4454.467265L1586.366258 4445.90257L1591.658183 4437.348182L1597.007142 4428.80416L1602.412565 4420.270564L1607.873882 4411.747455L1613.390525 4403.234893L1618.961929 4394.732941L1624.58753 4386.24166L1630.266768 4377.761111L1635.999084 4369.291357L1641.783921 4360.832462L1647.620727 4352.384489L1653.508952 4343.9475L1659.448047 4335.521561L1665.437469 4327.106736L1671.476676 4318.70309L1677.565132 4310.310688L1683.702301 4301.929596L1689.887653 4293.55988L1696.120661 4285.201608L1702.400802 4276.854845L1708.727555 4268.51966L1715.100406 4260.196121L1721.518841 4251.884296L1727.982353 4243.584253L1734.490438 4235.296062L1741.042596 4227.019794L1747.638332 4218.755517L1754.277154 4210.503302L1760.958574 4202.263221L1767.682111 4194.035346L1774.447284 4185.819747L1781.253619 4177.616498L1788.100647 4169.425671L1794.987902 4161.24734L1801.914922 4153.081579L1808.881251 4144.928461L1815.886436 4136.788063L1822.930029 4128.660458L1830.011588 4120.545722L1837.130672 4112.443933L1844.286847 4104.355165L1851.479683 4096.279498L1858.708755 4088.217007L1865.973641 4080.167772L1873.273925 4072.131871L1880.609195 4064.109382L1887.979042 4056.100387L1895.383064 4048.104964M1576.072011 4493.746386L1580.869809 4485.019569L1585.728518 4476.302458L1590.647581 4467.59511L1595.626438 4458.897582L1600.664532 4450.209933L1605.761306 4441.532219L1610.916202 4432.864499L1616.128664 4424.206833L1621.398138 4415.559278L1626.724068 4406.921896L1632.105903 4398.294744L1637.543091 4389.677885L1643.035082 4381.071378L1648.58133 4372.475285L1654.181287 4363.889668L1659.834411 4355.314587L1665.540161 4346.750106L1671.297996 4338.196288L1677.107381 4329.653195L1682.967782 4321.120891L1688.878668 4312.599441L1694.839511 4304.088908L1700.849785 4295.589358L1706.908968 4287.100855L1713.016541 4278.623467L1719.171989 4270.157258L1725.374799 4261.702296L1731.624462 4253.258647L1737.920473 4244.826379L1744.262329 4236.405561L1750.649533 4227.996259L1757.081591 4219.598544L1763.55801 4211.212485L1770.078304 4202.838151L1776.641991 4194.475613L1783.248591 4186.124941L1789.897629 4177.786206L1796.588634 4169.45948L1803.321138 4161.144836L1810.094679 4152.842345L1816.908797 4144.552081L1823.763038 4136.274118L1830.656951 4128.008529L1837.59009 4119.755388L1844.562012 4111.514771L1851.572279 4103.286754L1858.620457 4095.071411L1865.706117 4086.86882L1872.828833 4078.679058L1879.988184 4070.502201L1887.183753 4062.338329L1894.415128 4054.187519L1901.681899 4046.04985L1908.983663 4037.925401Z" style="fill: none; stroke: black; stroke-width: 15; marker-start: url(#point)"/>
</svg>
