<?xml version="1.0" encoding="UTF-8" standalone="no"?>
<!DOCTYPE svg PUBLIC "-//W3C//DTD SVG 1.1//EN" "http://www.w3.org/Graphics/SVG/1.1/DTD/svg11.dtd">
<svg width="4313.861" height="2504.85" version="1.1" xmlns="http://www.w3.org/2000/svg" xmlns:xlink="http://www.w3.org/1999/xlink">
	<title/>
	<defs>
		<marker id="point" markerWidth="6" markerHeight="6" markerUnits="userSpaceOnUse" orient="auto" refX="0" refY="0"/>
	</defs>
	<marker id="point" markerWidth="6" markerHeight="6" markerUnits="userSpaceOnUse" orient="auto" refX="0" refY="0"/>
	<path d="M4279.554 1949.484C4141.225 2018.657 4018.842 2122.467 3459.898 2420.92C3413.551 2445.667 3367.094 2470.307 3320.498 2494.728M4278.21 1868.486C4139.881 1937.659 3970.355 2080.04 3411.411 2378.493C3338.052 2417.664 3264.42 2456.564 3190.39 2494.755M4278.336 1775.366C4140.007 1844.54 3897.624 2025.492 3338.68 2323.945C3229.998 2381.977 3120.719 2439.413 3010.433 2494.831M4273.137 1659.043C4134.807 1728.216 3806.71 1964.883 3247.766 2263.336C3098.947 2342.799 2949.008 2421.146 2796.897 2494.724M4278.284 1527.047C4139.955 1596.22 3721.858 1880.03 3162.913 2178.483C2955.229 2289.378 2745.361 2398.1 2530.457 2494.719M3749.425 1648.355C3611.095 1717.528 3594.578 1770.934 3035.634 2069.387C2745.187 2224.473 2450.471 2375.309 2143.68 2494.735M3773.731 1658.701C3635.402 1727.875 3618.885 1781.28 3059.941 2079.733C2777.851 2230.358 2491.733 2376.973 2194.438 2494.696M4302.591 1537.394C4164.261 1606.567 3746.164 1890.377 3187.22 2188.83C2986.936 2295.773 2784.621 2400.696 2577.717 2494.691M4297.443 1669.389C4159.114 1738.563 3831.017 1975.229 3272.073 2273.683C3130.261 2349.404 2987.431 2424.113 2842.675 2494.647M4302.643 1785.713C4164.313 1854.886 3921.931 2035.839 3362.986 2334.292C3261.041 2388.726 3158.57 2442.637 3055.236 2494.85M4302.517 1878.832C4164.187 1948.006 3994.662 2090.387 3435.718 2388.84C3368.943 2424.495 3301.942 2459.925 3234.621 2494.801M4303.861 1959.83C4165.532 2029.004 4043.149 2132.813 3484.205 2431.266C3444.427 2452.506 3404.569 2473.666 3364.612 2494.676M3331.236 1852.943C3273.457 1852.943 3226.618 1804.82 3226.618 1745.458C3226.618 1686.096 3273.457 1637.974 3331.236 1637.974M3331.236 1852.943C3278.96 1852.943 3236.582 1809.063 3236.582 1754.934C3236.582 1700.806 3278.96 1656.926 3331.236 1656.926M3331.236 1852.943C3284.462 1852.943 3246.545 1813.305 3246.545 1764.41C3246.545 1715.515 3284.462 1675.877 3331.236 1675.877M1464.518 605.029C1598.304 470.419 1736.495 340.271 1873.273 208.72M1554.258 656.188L1894.592 329.125M1460.377 657.979C1608.886 505.469 1764.428 360.016 1917.78 212.42M1496.904 669.267C1637.048 524.729 1784.581 387.536 1929.616 247.945M1578.44 679.595L1904.728 365.946M1629.826 677.369L1912.231 404.13M1638.453 423.986C1630.639 416.151 1625.867 404.719 1625.268 390.884C1625.903 363.074 1643.418 340.333 1669.345 338.779C1682.116 338.225 1692.973 342.463 1700.787 350.298M1790.628 528.146L1873.376 715.047M1736.775 592.258L1845.781 731.687M1851.827 742.74L1816.734 789.838M1881.529 724.99L1884.089 784.084L1884.089 784.084M1477.67 614.141C1611.456 479.531 1749.646 349.383 1886.424 217.832M1567.41 665.3L1907.743 338.236M1591.591 688.707L1917.879 375.057M1642.978 686.48L1925.382 413.242M1694.649 355.363L1640.422 409.552L1640.422 409.552M1673.547 347.694L1637.396 383.82L1639.852 388.302M1748.342 583.589L1870.634 732.222M1760.923 571.451L1869.929 710.88M1786.189 560.641L1821.998 624.654M1877.681 206.843L1894.543 216.56L1910.185 206.752L1933.894 222.195L1941.956 260.222M1898.498 308.76L1932.604 407.103L1932.604 407.103M1460.107 611.209L1467.3 629.293L1455.346 643.364L1467.222 669.046L1503.696 682.488M1542.667 652.083L1590.389 691.044L1640.168 690.141M1804.606 770.642L1886.782 788.251L1849.992 764.729L1870.028 759.932L1854.195 730.283M1477.713 663.19L1923.007 228.876L1923.007 228.876M1509.28 677.814L1934.291 267.77Z" style="fill: none; stroke: black; stroke-width: 15; marker-start: url(#point)"/>
</svg>
