<?xml version="1.0" encoding="UTF-8" standalone="no"?>
<!DOCTYPE svg PUBLIC "-//W3C//DTD SVG 1.1//EN" "http://www.w3.org/Graphics/SVG/1.1/DTD/svg11.dtd">
<svg width="5814.936" height="2507.092" version="1.1" xmlns="http://www.w3.org/2000/svg" xmlns:xlink="http://www.w3.org/1999/xlink">
	<title/>
	<defs>
		<marker id="point" markerWidth="6" markerHeight="6" markerUnits="userSpaceOnUse" orient="auto" refX="0" refY="0"/>
	</defs>
	<marker id="point" markerWidth="6" markerHeight="6" markerUnits="userSpaceOnUse" orient="auto" refX="0" refY="0"/>
	<path d="M2946.425 418.984L3165.613 225.602M2921.172 355.103L3122.177 176.873M2887.208 299.638L3076.091 133.529M2695.529 308.034L2781.627 469.454M2746.804 280.526L2854.116 481.342M2793.955 249.583L2916.419 480.704M2840.151 216.44L2962.614 447.561M2695.058 305.167L2722.231 108.607M2627.323 340.323L2659.15 100.475M2559.668 380.275L2597.556 98M2497.525 380.352L2535.414 98.078M2614.337 517.108L2761.279 427.411M2562.677 492.279L2729.272 385.439M2516.885 462.544L2703.716 347.805M2486.418 425.157L2676.217 309.746M2450.584 595.576L2515.945 635.825M2460.054 549.47L2543.966 597.924M2474.444 508.948L2578.529 565.973M2484.231 467.395L2626.52 539.42M2526.226 726.366L2445.589 629.717M2495.219 738.727L2433.133 659.741M2464.718 754.633L2417.265 694.197M2432.855 765.201L2399.146 723.683M2720.706 586.591L2826.032 594.281M2722.792 549.417L2855.392 557.107M2721.589 513.34L2881.463 527.091M2718.85 477.046L2924.181 490.798M2588.124 708.995L2672.462 622.026M2539.069 713.184L2646.979 598.359M2512.425 692.53L2620.334 577.705M2484.713 672.849L2592.623 558.024M2744.709 651.372L2694.542 489.67M2711.427 665.346L2661.26 503.644M2678.489 680.833L2628.323 519.131M1361.682 1766.755L1759.472 1766.755M1454.875 1724.634L1787.803 1724.634M1432.497 1787.969L1736.816 1787.969M847.488 1459.422L847.488 551.359M847.488 1837.218L847.488 2299.902M868.917 1497.994L868.917 589.93M868.917 1823.274L868.917 2426.708M174.539 1766.755L1116.435 1766.755M395.202 1724.634L1183.518 1724.634M342.217 1787.969L1062.788 1787.969M2201.929 1186.316C2427.533 1109.984 2655.586 1041.129 2882.838 969.908M2274.1 1293.999L2839.405 1117.082M2167.646 1243.473C2419.804 1155.275 2675.913 1078.94 2930.76 998.97M2202.358 1276.593C2440.658 1192.669 2683.148 1121.129 2924.174 1045.497M2288.163 1333.823L2830.185 1164.113M2347.128 1360.078L2817.244 1211.202M2498.614 1080.296C2494.221 1067.123 2495.259 1051.611 2502.328 1035.736C2518.604 1004.854 2551.004 989.113 2580.996 1001.875C2595.65 1008.4 2605.474 1019.236 2609.866 1032.409M2611.255 1282.451L2599.608 1538.693M2514.886 1324.328L2559.301 1541.942M2559.906 1557.74L2494.132 1591.005M2603.202 1554.424L2573.008 1622.234L2573.008 1622.234M2211.603 1203.91C2437.206 1127.578 2665.259 1058.724 2892.511 987.502M2283.773 1311.594L2849.078 1134.676M2297.836 1351.417L2839.858 1181.707M2356.802 1377.673L2826.917 1228.796M2600.138 1034.664L2508.903 1065.186L2508.903 1065.186M2580.726 1014.241L2519.903 1034.589L2520.153 1040.997M2532.73 1321.064L2586.917 1556.45M2553.654 1314.47L2598.069 1532.083M2588.083 1316.467L2592.483 1408.409M2888.839 970.266L2902.342 990.617L2925.401 988.354L2943.39 1018.968L2931.165 1066.193M2855.188 1096.393L2838.464 1225.943L2838.464 1225.943M2193.516 1190.789L2191.475 1215.126L2170.175 1224.242L2169.142 1259.735L2202.588 1295.245M2263.378 1282.901L2295.178 1353.369L2351.597 1380.212M2491.252 1562.655L2573.7 1628.421L2545.54 1581.412L2570.73 1587.236L2569.537 1545.073M2184.202 1259.028L2927.422 1020.379L2927.422 1020.379M2211.477 1293.12L2918.331 1070.382M1260 1706.071C1260 1931.522 1077.236 2114.286 851.786 2114.286C626.335 2114.286 443.572 1931.522 443.572 1706.071C443.572 1480.621 626.335 1297.857 851.786 1297.857C1077.236 1297.857 1260 1480.621 1260 1706.071L1260 1706.071M1240.714 1696.429C1240.714 1916.554 1062.268 2095 842.143 2095C622.018 2095 443.571 1916.554 443.571 1696.429C443.571 1476.304 622.018 1297.857 842.143 1297.857C1062.268 1297.857 1240.714 1476.304 1240.714 1696.429L1240.714 1696.429M1221.429 1686.786C1221.429 1901.585 1047.299 2075.714 832.5 2075.714C617.701 2075.714 443.571 1901.585 443.571 1686.786C443.571 1471.986 617.701 1297.857 832.5 1297.857C1047.299 1297.857 1221.429 1471.986 1221.429 1686.786L1221.429 1686.786M2982.857 1766.755L3396.709 1766.755M2888.87 1724.634L3396.667 1724.634M1892.892 1503.424L1968.625 1418.726M1875.398 1473.939L1942.714 1396.167M1828.949 1476.741L1915.793 1376.614M1908.822 1522.488L1971.934 1520.141M1932.753 1486.204L1999.311 1485.786M1963.943 1450.213L2023.754 1454.907M1836.071 1662.524L1936.805 1546.005M1818.577 1630.765L1897.257 1537.083M1695.174 1567.944L1840.109 1563.325M1739.562 1529.388L1860.668 1526.697M1793.48 1493.396L1885.111 1495.818M3278.875 958.862L2921.242 719.621L1687.188 1108.171L2510.987 1769.218M3333.408 929.457L2938.423 660.737L1614.457 1077.817M2103.291 2486.399C2176.359 2366.167 2253.123 2248.18 2333.437 2132.66C2626.794 1710.71 2967.684 1321.833 3347.587 975.749L4292.73 123.229M3227.712 1021.174L2914.391 810.318L1764.331 1172.217L2532.06 1787.92M3388.921 841.6L2988.021 571.314L1516.497 1035.215L2498.82 1824.455M2031.313 2494.292C2120.616 2340.101 2202.094 2204.107 2239.24 2154.573C2265.177 2119.986 2410.95 1902.573 2519.56 1777.737M1958.239 2494.428C2056.907 2323.183 2150.221 2166.195 2190.753 2112.146C2216.69 2077.56 2347.31 1881.36 2455.92 1756.524M1854.214 2494.352C1963.938 2302.841 2073.222 2117.339 2118.022 2057.598C2143.959 2023.011 2280.64 1838.934 2389.25 1714.097M1728.512 2494.627C1849.162 2282.918 1977.566 2063.054 2027.108 1996.989C2053.045 1962.402 2213.824 1766.075 2322.58 1641.366M1594.534 2496.26C1727.489 2261.466 1885.898 1987.289 1942.255 1912.136C1968.192 1877.549 2123.056 1699.532 2231.667 1574.696M1406.299 2495.179C1547.276 2244.555 1749.661 1890.138 1814.976 1803.04C1840.913 1768.453 1995.777 1590.436 2104.387 1465.6M3367.979 853.869L2982.154 593.814L1565.97 1040.155L2511.351 1799.522M2982.92 1787.969L3394.777 1787.969M3331.674 824.016L4221.304 10.36M3258.943 769.468L4081.903 16.421M3168.029 708.859L3936.441 16.421M3057.462 645.435L3736.431 16.421M2822.197 635.054C2942.083 524.481 2921.612 540.624 2921.612 540.624L3512.177 4.299M3307.367 813.67L4196.998 0.014M3234.636 759.121L4057.597 6.075M3143.723 698.512L3912.135 6.074M3033.156 635.088L3712.125 6.074M2797.89 624.708C2917.776 514.134 2897.305 530.277 2897.305 530.277L3487.085-5.334M3380.161 866.443L4279.708 48.196M3355.855 856.096L4255.401 37.85M2077.601 2481.866C2148.782 2364.76 2223.5 2249.804 2301.617 2137.206C2594.567 1714.95 2935.508 1326.015 3315.767 980.295L4260.91 127.775M2000.931 2494.441C2092.598 2335.954 2176.947 2194.881 2214.934 2144.226C2240.87 2109.639 2386.643 1892.227 2495.253 1767.39M1928.019 2494.351C2028.855 2319.143 2125.106 2156.927 2166.447 2101.8C2192.383 2067.213 2323.004 1871.014 2431.614 1746.177M1823.958 2494.392C1935.66 2299.239 2048.106 2108.072 2093.715 2047.251C2119.652 2012.665 2256.333 1828.587 2364.944 1703.75M1698.296 2494.655C1820.636 2279.8 1952.449 2053.787 2002.802 1986.642C2028.738 1952.055 2189.517 1755.729 2298.274 1631.02M1564.276 2496.427C1698.419 2259.371 1860.747 1978.068 1917.949 1901.79C1943.886 1867.203 2098.75 1689.186 2207.36 1564.35M1375.619 2496.165C1516.797 2245.023 1724.363 1881.113 1790.67 1792.693C1816.606 1758.106 1971.47 1580.089 2080.081 1455.253M3227.712 993.9L2914.391 783.044L1764.331 1144.943L2532.06 1760.646M4059.103 2089.006L4181.013 2387.771L4097.036 2496.671M5359.468 45.843L5460.127 138.11M5385.634 29.653L5486.293 121.92M5412.374 15.405L5494.461 90.53M4521.531 1191.846L4567.289 1303.985L4351.583 1639.235L4206.009 1357.803M4498.867 1204.647L4537.605 1300.151L4354.234 1585.908L4230.928 1346.243M4476.186 1217.443L4507.651 1295.716L4357.775 1530.204L4257.536 1333.806M4453.161 1232.226L4477.318 1293.183L4361.104 1476.147L4284.044 1323.23M4429.826 1245.374L4446.726 1289.135L4363.938 1420.933L4309.9 1311.195M4187.675 777.532L4077.143 704.286L3671.428 830L3942.265 1043.88M4169.104 796.439L4074.918 734.286L3729.204 840.962L3959.987 1022.451M4150.532 815.366L4073.279 764.703L3789.719 851.657L3979.011 999.594M4129.757 834.123L4069.521 795.007L3848.422 862.143L3996.018 976.36M4110.669 853.599L4067.332 825.95L3908.26 873.404L4014.449 954.137M5473.471 227.293L5503.209 220.535M5468.299 199.544L5528.039 185.644M5455.28 174.868L5545.019 152.396M5448.219 147.568L5533.672 123.668M5447.115 357.055L5502.954 396.607M5456.277 325.637L5536.402 386.617M5464.288 296.334L5564.412 374.457M5462.842 257.647L5565.824 338.628M5573.509 156.189L5475.994 267.988M5598.324 177.561L5500.809 289.36M5624.126 196.058L5526.611 307.857M5650.898 213.601L5553.383 325.4M5758.473 119.407L5597.868 13.843M5735.347 154.965L5574.742 49.4M5716.086 191.286L5555.481 85.721M5698.219 228.686L5537.614 123.121M5713.163 436.533L5674.266 226.46M5678.413 474.413L5638.087 260.055M5627.166 414.097L5599.697 271.167M5588.963 414.062L5571.495 321.132M5453.374 478.484L5514.534 473.139M5428.74 448.994L5558.471 439.364M5441.424 415.187L5569.727 404.128M5570.394 571.419L5682.674 496.724M5528.651 559.313L5662.36 467.476M5506.505 532.837L5640.213 440.999M5483.071 507.106L5616.78 415.268M4412.634 1597.937C4412.634 1625.211 4412.634 2484.582 4412.634 2484.582M5637.077 578.712L5459.686 562.019M5633.488 617.776L5466.811 601.083M5633.4 655.79L5432.437 632.668M5634.921 694.081L5489.672 681.673M5571.114 687.132L5462.059 776.847M5615.234 712.491L5429.512 848.614M5649.489 741.755L5459.221 882.423M5629.617 814.79L5490.561 915.219M5610.463 812.301L5655.219 846.494M5644.671 783.146L5688.223 816.137M5668.633 744.481L5724.233 783.481M5691.131 704.538L5764.804 756.76M5531.004 900.28L5524.524 963.22M5577.454 867.147L5572.489 913.021M5608.794 844.495L5604.457 868.612M4467.182 1519.145L4467.182 2478.521M5130.639 724.707C5041.732 815.841 4945.699 900.02 4843.705 976.223C4668.918 1106.811 4477.548 1213.389 4284.621 1315.285C4172.37 1374.57 4058.984 1432.585 3939.655 1475.893C3850.93 1508.093 3759.207 1532.023 3666.061 1547.274M4632.728 1129.67L4632.728 1240.37M4673.442 1109.477L4673.442 1243.421M4714.156 1087.867L4714.156 1243.603M4757.014 1061.98L4757.014 1245.918M4810.584 1032.603L4810.584 1236.493M4870.584 982.45L4870.584 1210.343M4939.156 924.616L4939.156 1183.439M5020.584 846.933L5020.584 1128.696M4589.871 1154.58L4589.871 1245.461M5100.891 782.222L5100.891 1043.506M5153.446 752.875C5062.96 842.366 4967.085 926.407 4866.512 1004.39C4751.364 1081.329 4675.215 1166.13 4556.27 1244.375M4212.421 1389.849C4184.213 1404.454 4155.752 1418.57 4127.056 1432.19C4069.738 1459.393 4011.443 1484.627 3951.776 1506.197C3863.016 1538.286 3771.306 1562.213 3678.183 1577.579M4258.803 1565.681L4258.803 2486.479M4307.578 1648.538L4307.578 2493.58M4283.047 1613.657L4283.047 2497.092M4239.181 1998.723L4209.753 1987.527M4237.016 2030.34L4189.405 2014.598M4237.799 2061.751L4158.369 2035.402M4239.802 2095.18L4127.037 2058.224M4179.325 2110.773L4186.657 2077.624M4134.736 2123.982L4146.615 2066.588M4095.148 2125.851L4107.026 2059.367M4053.462 2079.329L4250.199 1956.781M4222.469 2103.593L4101.87 2155.74M4247.346 2142.949L4114.625 2196.611M4244.934 2189.946L4131.91 2239.062M4250.376 2236.366L4143.414 2282.451M4247.996 2286.592L4189.863 2278.237M4240.987 2321.535L4166.188 2310.149M4237.233 2355.846L4174.556 2344.461M4239.447 2390.553L4178.285 2380.683M4212.124 2403.542L4172.31 2421.605M4244.37 2432.833L4116.458 2488.517M4248.773 2469.245L4196.659 2494.193M4552.896 1392.151L4552.896 2472.657M3655.454 1501.817C3710.453 1388.134 3774.141 1278.655 3845.781 1174.653C3955.219 1015.774 4083.253 869.717 4226.433 740.416L4613.033 395.406C4732.056 289.187 4857.916 189.073 4999.634 115.828C5059.154 85.066 5122.061 57.904 5188.763 51.587C5222.113 48.428 5256.15 50.619 5288.307 60.009C5320.464 69.399 5350.7 86.143 5374.338 109.88C5409.403 145.091 5428.455 194.547 5431.046 244.172C5433.638 293.797 5420.569 343.474 5398.387 387.941C5354.023 476.875 5276.11 543.492 5201.855 609.55C5080.025 717.932 4962.565 831.632 4833.098 930.766C4659.83 1063.439 4467.227 1168.374 4274.015 1269.828C4161.625 1328.842 4048.343 1387.044 3929.048 1430.436C3840.345 1462.7 3748.614 1486.633 3655.454 1501.817M5280.219 689.321C5294.807 755.111 5307.372 821.338 5317.896 887.89C5402.088 1420.305 5355.708 1973.505 5170.547 2490.078M5489.829 1749.094C5489.829 1876.025 5386.93 1978.923 5259.999 1978.923C5133.067 1978.923 5030.169 1876.025 5030.169 1749.094C5030.169 1622.163 5133.067 1519.264 5259.999 1519.264C5386.93 1519.264 5489.829 1622.163 5489.829 1749.094L5489.829 1749.094M5470.542 1739.451C5470.542 1861.057 5371.961 1959.638 5250.356 1959.638C5128.75 1959.638 5030.169 1861.057 5030.169 1739.451C5030.169 1617.845 5128.75 1519.264 5250.356 1519.264C5371.961 1519.264 5470.542 1617.845 5470.542 1739.451L5470.542 1739.451M5451.257 1729.808C5451.257 1846.088 5356.993 1940.352 5240.713 1940.352C5124.433 1940.352 5030.169 1846.088 5030.169 1729.808C5030.169 1613.528 5124.433 1519.264 5240.713 1519.264C5356.993 1519.264 5451.257 1613.528 5451.257 1729.808L5451.257 1729.808M5799.994 788.473L5477.029 1078.222M5804.936 784.04L5799.995 788.473M5800.001 857.507L5527.355 1101.072M5799.995 929.988L5577.729 1124.958M5799.989 1013.196L5623.672 1155.405M5800.002 1109.47L5687.38 1200.342M5800.005 755.871L5447.438 1074.267M5800.007 817.944L5499.757 1087.313M5800.002 886.903L5550.084 1110.163M5799.999 959.013L5600.457 1134.05M5800.004 1040.606L5646.4 1164.497M5800.006 1136.897L5710.108 1209.433M3462.401 1661.766C3524.251 1535.025 3595.874 1412.973 3676.438 1297.024C3799.511 1119.898 3943.496 957.065 4104.514 812.913L4539.277 428.276C4673.128 309.858 4814.668 198.245 4974.041 116.587C5040.977 82.292 5111.721 52.011 5186.732 44.967C5224.238 41.445 5262.515 43.888 5298.678 54.357C5334.841 64.825 5368.844 83.492 5395.428 109.956C5434.861 149.211 5456.287 204.348 5459.201 259.672C5462.115 314.997 5447.418 370.379 5422.472 419.954C5372.582 519.102 5284.961 593.371 5201.456 667.016C5064.448 787.846 4932.354 914.606 4786.758 1025.126C4591.904 1173.037 4556.957 1236.598 4339.673 1349.704C4213.282 1415.497 4043.146 1510.303 3908.989 1552.267C3807.784 1583.924 3567.166 1644.838 3462.401 1661.766M5311.856 881.959L5297.75 829.94M5268.291 867.792L5238.725 759.328M5227.084 856.451L5195.358 734.72M5186.769 845.989L5153.743 708.687M3942.857 1311.429C3982.32 1229.963 4028.012 1151.516 4079.403 1076.997C4157.926 963.135 4249.783 858.476 4352.495 765.843L4629.854 518.625C4715.254 442.505 4805.559 370.771 4907.213 318.293C4949.919 296.246 4995.05 276.78 5042.897 272.252C5066.821 269.988 5091.236 271.558 5114.305 278.287C5137.374 285.017 5159.068 297.016 5176.038 314.031C5201.203 339.263 5214.909 374.71 5216.81 410.295C5218.711 445.881 5209.377 481.519 5193.483 513.415C5161.696 577.206 5105.763 624.947 5052.293 672.071C4964.584 749.37 4879.581 829.906 4787.735 902.24C4664.624 999.197 4529.583 1080.993 4386.631 1145.196L4139.142 1260.28L3942.857 1311.429M4027.71 1246.779C4063.512 1172.907 4104.962 1101.773 4151.581 1034.204C4222.817 930.951 4306.147 836.049 4399.321 752.059L4650.934 527.889C4728.41 458.863 4810.339 393.828 4902.545 346.234C4941.289 326.236 4982.23 308.574 5025.636 304.465C5047.339 302.41 5069.488 303.833 5090.416 309.939C5111.344 316.044 5131.023 326.931 5146.416 342.369C5169.231 365.254 5181.655 397.399 5183.375 429.669C5185.094 461.938 5176.626 494.254 5162.21 523.176C5133.378 581.019 5082.653 624.305 5034.158 667.029C4954.594 737.125 4877.478 810.151 4794.159 875.739C4682.469 963.66 4559.965 1037.83 4430.289 1096.044L4205.774 1200.399L4027.71 1246.779M4104.481 1190.21C4136.774 1123.615 4174.161 1059.49 4216.205 998.581C4280.459 905.495 4355.618 819.944 4439.652 744.236L4666.59 542.153C4736.472 479.925 4810.375 421.309 4893.528 378.397C4928.475 360.362 4965.4 344.429 5004.55 340.72C5024.125 338.866 5044.103 340.149 5062.979 345.656C5081.854 351.163 5099.604 360.985 5113.484 374.913C5134.049 395.548 5145.244 424.529 5146.79 453.621C5148.335 482.713 5140.697 511.845 5127.697 537.916C5101.697 590.059 5055.961 629.076 5012.235 667.584C4940.477 730.777 4870.918 796.606 4795.771 855.729C4695.026 934.99 4584.536 1001.852 4467.583 1054.327L4265.084 1148.4L4104.481 1190.21M4178.768 1133.067C4207.717 1073.408 4241.229 1015.963 4278.915 961.4C4336.514 878.005 4403.885 801.365 4479.208 733.549L4682.63 552.518C4745.275 496.768 4811.529 444.27 4886.053 405.82C4917.381 389.657 4950.479 375.371 4985.573 372.044C5003.12 370.381 5021.028 371.53 5037.948 376.467C5054.868 381.405 5070.778 390.211 5083.217 402.698C5101.636 421.19 5111.66 447.155 5113.04 473.219C5114.419 499.282 5107.573 525.38 5095.922 548.735C5072.622 595.445 5031.642 630.393 4992.459 664.882C4928.14 721.497 4865.785 780.467 4798.425 833.429C4708.112 904.437 4609.072 964.333 4504.244 1011.339L4322.729 1095.613L4178.768 1133.067M4267.661 1064.377C4292.491 1013.259 4321.232 964.041 4353.549 917.295C4402.952 845.835 4460.731 780.171 4525.325 722.078L4699.785 566.973C4753.515 519.204 4810.348 474.24 4874.245 441.285C4901.115 427.427 4929.499 415.17 4959.597 412.314C4974.646 410.886 4990.005 411.871 5004.517 416.106C5019.028 420.341 5032.673 427.897 5043.337 438.611C5059.113 454.462 5067.695 476.714 5068.87 499.047C5070.046 521.38 5064.173 543.74 5054.185 563.75C5034.208 603.769 4999.086 633.705 4965.5 663.245C4910.343 711.758 4856.86 762.28 4799.093 807.653C4721.629 868.495 4636.69 919.813 4546.797 960.083L4391.125 1032.286L4267.661 1064.377M4356.554 995.687C4377.342 952.952 4401.4 911.809 4428.448 872.734C4469.807 812.988 4518.172 758.096 4572.236 709.544L4718.271 579.885C4763.252 539.947 4810.839 502.378 4864.306 474.817C4886.801 463.22 4910.559 452.955 4935.754 450.561C4948.352 449.364 4961.209 450.187 4973.356 453.733C4985.503 457.279 4996.925 463.607 5005.847 472.581C5019.03 485.841 5026.196 504.447 5027.171 523.119C5028.146 541.791 5023.229 560.484 5014.872 577.21C4998.159 610.663 4968.785 635.681 4940.693 660.363C4894.528 700.923 4849.752 743.154 4801.398 781.079C4736.544 831.946 4665.446 874.844 4590.21 908.502L4459.902 968.861L4356.554 995.687M4453.529 918.915C4470.046 885.037 4489.157 852.425 4510.638 821.456C4543.498 774.084 4581.917 730.573 4624.856 692.101L4740.859 589.326C4776.597 557.663 4814.415 527.907 4856.862 506.043C4874.736 496.837 4893.606 488.675 4913.621 486.769C4923.628 485.816 4933.843 486.468 4943.493 489.287C4953.142 492.105 4962.214 497.136 4969.295 504.271C4979.738 514.793 4985.409 529.548 4986.172 544.352C4986.936 559.157 4983.028 573.975 4976.396 587.232C4963.129 613.746 4939.83 633.568 4917.541 653.118C4880.875 685.277 4845.299 718.749 4806.892 748.805C4755.36 789.131 4698.885 823.134 4639.134 849.808L4535.623 897.651L4453.529 918.915M5498.932 545.074L5407.597 439.262M5475.804 565.24L5384.47 459.428M5455.225 586.713L5363.891 480.901M5435.406 609.218L5344.072 503.405M5374.6 562.516L5302.056 566.88M5397.768 592.718L5291.653 594.939M5413.645 620.829L5323.958 623.051M5239.49 747.256L5320.814 633.569M5214.445 729.529L5295.769 615.842M5185.872 714.586L5231.481 652.328M5162.189 700.625L5197.085 649.796M4283.047 11.73L4283.047 674.918M4307.578 7.171L4307.578 642.825M4258.803 8.093L4258.803 692.697M5775.088 721.398L5794.152 642.792M5727.474 718.925L5773.184 540.161M5673.96 716.293L5720.451 531.532M5633.388 667.443L5666.978 525.046M5089.726 41.81L5009.188 10.253M5080.657 78.173L4971.501 33.096M5031.919 101.741L4977.848 73.904M5686.144 495.504L5796.524 548.386M5690.564 447.625L5796.658 497.65M5706.479 406.548L5795.43 449.43M5720.772 364.492L5795.437 400.231M5654.938 2.67L5632.417 23.798M5730.125 2.764L5671.891 58.178M5788.464 15.731L5713.085 91.144M5790.074 60.837L5724.982 206.96M5798.887 142.415L5769.508 205.681M5794.267 219.782L5682.585 230.758M5795.407 272.996L5688.011 283.972M5788.071 331.036L5697.818 334.869M5565.851 49.174L5563.404-2.345M5532.892 98.809L5529.016-1.281M5501.209 107.087L5497.334-0.146M5466.596 31.077L5465.578-0.442M5325.881 60.704L5392.374 12.03M5291.67 49.741L5353.878 3.924M5251.632 39.811L5303.839 2.566M5239.055 13.417L5252.691 3.314M5215.714 42.857L5208.571 4.286M5181.429 45.714L5174.286 2.857M5148.571 51.429L5140 7.143M5115.714 58.571L5105.714 10M5521.818 719.354L5463.455 650.231M5490.611 743.123L5406.534 639.714M5462.545 768.762L5354.896 626.782M5435.362 795.774L5327.714 653.794M5271.194 827.274L5464.142 792.894M5263.553 784.84L5402.93 761.174M5252.508 744.545L5376.885 723.022M5239.676 704.428L5344.767 687.191M5183.943 946.547L5292.947 987.005M5182.51 911.61L5303.637 956.614M5184.114 879.824L5311.301 926.343M5178.417 845.973L5317.727 895.523M5302.11 1043.806L5346.699 1019.943M5225.978 1046.425L5334.964 982.409M5192.492 1027.255L5256.022 991.271M5188.001 991.239L5221.226 974.953M5313.129 924.586L5400.018 1054.976M5330.705 871.132L5436.879 1029.38M5353.337 832.502L5470.226 1001.464M5391.795 816.598C5430.757 872.918 5368.163 784.029 5485.954 950.71M4412.634 15.353L4412.634 555.851M4467.182 9.292C4467.182 9.292 4464.151 440.693 4464.151 513.424M4552.896 5.007C4552.896 5.007 4549.865 366.727 4549.865 427.71M4660.585 381.539L4660.585 424.216M4694.871 355.472L4694.871 405.283M4731.299 325.466L4731.299 366.717M4617.728 421.895L4617.728 463.146M4574.871 458.324L4574.871 499.574M4525.584 503.849L4525.584 539.763M4480.584 544.563L4480.584 580.477M4433.442 585.278L4433.442 621.192M4382.013 628.135L4382.013 664.049M4328.442 673.135L4328.442 709.049M4619.871 1766.755L5796.832 1766.755M4352.581 1724.634L5796.71 1724.634M4620.051 1787.969L5791.336 1787.969M4939.787-3.448C4970.312 57.053 4962.46 49.874 4989.049 112.033M5180.994 708.607C5195.583 774.397 5208.146 840.624 5218.671 907.176C5302.863 1439.591 5262.527 1968.612 5077.367 2485.186M4914.921 2.42C4945.447 62.921 4939.75 64.342 4966.338 126.502M5158.266 699.515C5172.854 765.306 5185.418 831.533 5195.942 898.085C5280.135 1430.499 5238.288 1968.588 5053.127 2485.161M4885.51 3.507C4916.035 64.007 4918.886 78.251 4945.476 140.41M5130.991 717.698C5145.58 783.488 5158.144 849.715 5168.668 916.267C5252.861 1448.682 5211.014 1973.17 5025.853 2489.744M669.684 440.651C726.389 324.741 786.906 210.74 846.206 96.145M738.643 453.97L886.253 169.002M749.45 249.453L953.772 437.633L967.972 487.827M678.593 475.646C740.864 344.993 809.206 217.346 875.669 88.797M704.577 474.928C763.205 351.236 828.197 230.658 891.055 109.081M759.328 463.753L900.829 190.492M791.925 451.086L914.007 213.435M742.086 286.07C735.343 282.734 729.772 276.417 726.361 267.641C720.691 249.597 726.996 231.128 743.348 224.459C751.449 221.311 759.365 221.666 766.109 225.002M862.829 319.861L956.961 422.101M842.173 372.911L942.833 438.846M941.744 450.525L942.732 482.032M964.384 426.72L978.951 464.205L978.951 464.205Z" style="fill: none; stroke: black; stroke-width: 15; marker-start: url(#point)"/>
</svg>
