<?xml version="1.0"?>
<!DOCTYPE svg PUBLIC "-//W3C//DTD SVG 1.1//EN" "http://www.w3.org/Graphics/SVG/1.1/DTD/svg11.dtd">
<svg xmlns="http://www.w3.org/2000/svg" xmlns:xlink="http://www.w3.org/1999/xlink" version="1.1">
  <g id="black up">
    <path d="M2946.425,418.984 L3165.613,225.602 M2921.172,355.103 L3122.177,176.873 M2887.208,299.638 L3076.091,133.529 M2695.529,308.034 L2781.627,469.454 M2746.804,280.526 L2854.116,481.342 M2793.955,249.583 L2916.419,480.704 M2840.151,216.44 L2962.614,447.561 M2695.058,305.167 L2722.231,108.607 M2627.323,340.323 L2659.15,100.475 M2559.668,380.275 L2597.556,98 M2497.525,380.352 L2535.414,98.078 M2614.337,517.108 L2761.279,427.411 M2562.677,492.279 L2729.272,385.439 M2516.885,462.544 L2703.716,347.805 M2486.418,425.157 L2676.217,309.746 M2450.584,595.576 L2515.945,635.825 M2460.054,549.47 L2543.966,597.924 M2474.444,508.948 L2578.529,565.973 M2484.231,467.395 L2626.52,539.42 M2526.226,726.366 L2445.589,629.717 M2495.219,738.727 L2433.133,659.741 M2464.718,754.633 L2417.265,694.197 M2432.855,765.201 L2399.146,723.683 M2720.706,586.591 L2826.032,594.281 M2722.792,549.417 L2855.392,557.107 M2721.589,513.34 L2881.463,527.091 M2718.85,477.046 L2924.181,490.798 M2588.124,708.995 L2672.462,622.026 M2539.069,713.184 L2646.979,598.359 M2512.425,692.53 L2620.334,577.705 M2484.713,672.849 L2592.623,558.024 M2744.709,651.372 L2694.542,489.67 M2711.427,665.346 L2661.26,503.644 M2678.489,680.833 L2628.323,519.131" fill-opacity="0" stroke="#000000" stroke-width="25" stroke-linecap="round"/>
    <path d="M1361.682,1766.755 L1759.472,1766.755" fill-opacity="0" stroke="#000000" stroke-width="25" stroke-linecap="round"/>
    <path d="M1454.875,1724.634 L1787.803,1724.634" fill-opacity="0" stroke="#000000" stroke-width="25" stroke-linecap="round"/>
    <path d="M1432.497,1787.969 L1736.816,1787.969" fill-opacity="0" stroke="#000000" stroke-width="25" stroke-linecap="round"/>
    <path d="M847.488,1459.422 L847.488,551.359" fill-opacity="0" stroke="#000000" stroke-width="25" stroke-linecap="round"/>
    <path d="M847.488,1837.218 L847.488,2299.902" fill-opacity="0" stroke="#000000" stroke-width="25" stroke-linecap="round"/>
    <path d="M868.917,1497.994 L868.917,589.93" fill-opacity="0" stroke="#000000" stroke-width="25" stroke-linecap="round"/>
    <path d="M868.917,1823.274 L868.917,2426.708" fill-opacity="0" stroke="#000000" stroke-width="25" stroke-linecap="round"/>
    <path d="M174.539,1766.755 L1116.435,1766.755" fill-opacity="0" stroke="#000000" stroke-width="25" stroke-linecap="round"/>
    <path d="M395.202,1724.634 L1183.518,1724.634" fill-opacity="0" stroke="#000000" stroke-width="25" stroke-linecap="round"/>
    <path d="M342.217,1787.969 L1062.788,1787.969" fill-opacity="0" stroke="#000000" stroke-width="25" stroke-linecap="round"/>
    <g>
      <g>
        <path d="M2201.929,1186.316 C2427.533,1109.984 2655.586,1041.129 2882.838,969.908" fill-opacity="0" stroke="#000000" stroke-width="26.414" stroke-linecap="round"/>
        <path d="M2274.1,1293.999 L2839.405,1117.082" fill-opacity="0" stroke="#000000" stroke-width="26.414" stroke-linecap="round"/>
        <path d="M2167.646,1243.473 C2419.804,1155.275 2675.913,1078.94 2930.76,998.97" fill-opacity="0" stroke="#000000" stroke-width="26.414" stroke-linecap="round"/>
        <path d="M2202.358,1276.593 C2440.658,1192.669 2683.148,1121.129 2924.174,1045.497" fill-opacity="0" stroke="#000000" stroke-width="26.414" stroke-linecap="round"/>
        <path d="M2288.163,1333.823 L2830.185,1164.113" fill-opacity="0" stroke="#000000" stroke-width="26.414" stroke-linecap="round"/>
        <path d="M2347.128,1360.078 L2817.244,1211.202" fill-opacity="0" stroke="#000000" stroke-width="26.414" stroke-linecap="round"/>
        <path d="M2498.614,1080.296 C2494.221,1067.123 2495.259,1051.611 2502.328,1035.736 C2518.604,1004.854 2551.004,989.113 2580.996,1001.875 C2595.65,1008.4 2605.474,1019.236 2609.866,1032.409" fill-opacity="0" stroke="#000000" stroke-width="26.414" stroke-linecap="round"/>
        <path d="M2611.255,1282.451 L2599.608,1538.693" fill-opacity="0" stroke="#000000" stroke-width="26.414" stroke-linecap="round"/>
        <path d="M2514.886,1324.328 L2559.301,1541.942" fill-opacity="0" stroke="#000000" stroke-width="26.414" stroke-linecap="round"/>
        <path d="M2559.906,1557.74 L2494.132,1591.005" fill-opacity="0" stroke="#000000" stroke-width="26.414" stroke-linecap="round"/>
        <path d="M2603.202,1554.424 L2573.008,1622.234 L2573.008,1622.234" fill-opacity="0" stroke="#000000" stroke-width="26.414" stroke-linecap="round"/>
        <path d="M2211.603,1203.91 C2437.206,1127.578 2665.259,1058.724 2892.511,987.502" fill-opacity="0" stroke="#000000" stroke-width="26.414" stroke-linecap="round"/>
        <path d="M2283.773,1311.594 L2849.078,1134.676" fill-opacity="0" stroke="#000000" stroke-width="26.414" stroke-linecap="round"/>
        <path d="M2297.836,1351.417 L2839.858,1181.707" fill-opacity="0" stroke="#000000" stroke-width="26.414" stroke-linecap="round"/>
        <path d="M2356.802,1377.673 L2826.917,1228.796" fill-opacity="0" stroke="#000000" stroke-width="26.414" stroke-linecap="round"/>
        <path d="M2600.138,1034.664 L2508.903,1065.186 L2508.903,1065.186" fill-opacity="0" stroke="#000000" stroke-width="26.414" stroke-linecap="round"/>
        <path d="M2580.726,1014.241 L2519.903,1034.589 L2520.153,1040.997" fill-opacity="0" stroke="#000000" stroke-width="26.414" stroke-linecap="round"/>
        <path d="M2532.73,1321.064 L2586.917,1556.45" fill-opacity="0" stroke="#000000" stroke-width="26.414" stroke-linecap="round"/>
        <path d="M2553.654,1314.47 L2598.069,1532.083" fill-opacity="0" stroke="#000000" stroke-width="26.414" stroke-linecap="round"/>
        <path d="M2588.083,1316.467 L2592.483,1408.409" fill-opacity="0" stroke="#000000" stroke-width="26.414" stroke-linecap="round"/>
        <path d="M2888.839,970.266 L2902.342,990.617 L2925.401,988.354 L2943.39,1018.968 L2931.165,1066.193" fill-opacity="0" stroke="#000000" stroke-width="26.414" stroke-linecap="round"/>
        <path d="M2855.188,1096.393 L2838.464,1225.943 L2838.464,1225.943" fill-opacity="0" stroke="#000000" stroke-width="26.414" stroke-linecap="round"/>
        <path d="M2193.516,1190.789 L2191.475,1215.126 L2170.175,1224.242 L2169.142,1259.735 L2202.588,1295.245" fill-opacity="0" stroke="#000000" stroke-width="26.414" stroke-linecap="round"/>
        <path d="M2263.378,1282.901 L2295.178,1353.369 L2351.597,1380.212" fill-opacity="0" stroke="#000000" stroke-width="26.414" stroke-linecap="round"/>
        <path d="M2491.252,1562.655 L2573.7,1628.421 L2545.54,1581.412 L2570.73,1587.236 L2569.537,1545.073" fill-opacity="0" stroke="#000000" stroke-width="26.414" stroke-linecap="round"/>
      </g>
      <path d="M2184.202,1259.028 L2927.422,1020.379 L2927.422,1020.379" fill-opacity="0" stroke="#000000" stroke-width="25" stroke-linecap="round"/>
      <path d="M2211.477,1293.12 L2918.331,1070.382" fill-opacity="0" stroke="#000000" stroke-width="25" stroke-linecap="round"/>
    </g>
    <path d="M1260,1706.071 C1260,1931.522 1077.236,2114.286 851.786,2114.286 C626.335,2114.286 443.572,1931.522 443.572,1706.071 C443.572,1480.621 626.335,1297.857 851.786,1297.857 C1077.236,1297.857 1260,1480.621 1260,1706.071 z" fill-opacity="0" stroke="#000000" stroke-width="26.181" stroke-linecap="round"/>
    <path d="M1240.714,1696.429 C1240.714,1916.554 1062.268,2095 842.143,2095 C622.018,2095 443.571,1916.554 443.571,1696.429 C443.571,1476.304 622.018,1297.857 842.143,1297.857 C1062.268,1297.857 1240.714,1476.304 1240.714,1696.429 z" fill-opacity="0" stroke="#000000" stroke-width="26.815" stroke-linecap="round"/>
    <path d="M1221.429,1686.786 C1221.429,1901.585 1047.299,2075.714 832.5,2075.714 C617.701,2075.714 443.571,1901.585 443.571,1686.786 C443.571,1471.986 617.701,1297.857 832.5,1297.857 C1047.299,1297.857 1221.429,1471.986 1221.429,1686.786 z" fill-opacity="0" stroke="#000000" stroke-width="27.479" stroke-linecap="round"/>
    <path d="M2982.857,1766.755 L3396.709,1766.755" fill-opacity="0" stroke="#000000" stroke-width="25" stroke-linecap="round"/>
    <path d="M2888.87,1724.634 L3396.667,1724.634" fill-opacity="0" stroke="#000000" stroke-width="25" stroke-linecap="round"/>
    <path d="M1892.892,1503.424 L1968.625,1418.726 M1875.398,1473.939 L1942.714,1396.167 M1828.949,1476.741 L1915.793,1376.614" fill-opacity="0" stroke="#000000" stroke-width="25" stroke-linecap="round"/>
    <path d="M1908.822,1522.488 L1971.934,1520.141 M1932.753,1486.204 L1999.311,1485.786 M1963.943,1450.213 L2023.754,1454.907" fill-opacity="0" stroke="#000000" stroke-width="25" stroke-linecap="round"/>
    <path d="M1836.071,1662.524 L1936.805,1546.005 M1818.577,1630.765 L1897.257,1537.083" fill-opacity="0" stroke="#000000" stroke-width="25" stroke-linecap="round"/>
    <path d="M1695.174,1567.944 L1840.109,1563.325 M1739.562,1529.388 L1860.668,1526.697 M1793.48,1493.396 L1885.111,1495.818" fill-opacity="0" stroke="#000000" stroke-width="25" stroke-linecap="round"/>
    <path d="M3278.875,958.862 L2921.242,719.621 L1687.188,1108.171 L2510.987,1769.218" fill-opacity="0" stroke="#000000" stroke-width="25" stroke-linecap="round"/>
    <path d="M3333.408,929.457 L2938.423,660.737 L1614.457,1077.817" fill-opacity="0" stroke="#000000" stroke-width="25" stroke-linecap="round"/>
    <path d="M2103.291,2486.399 C2176.359,2366.167 2253.123,2248.18 2333.437,2132.66 C2626.794,1710.71 2967.684,1321.833 3347.587,975.749 L4292.73,123.229" fill-opacity="0" stroke="#000000" stroke-width="25" stroke-linecap="round"/>
    <path d="M3227.712,1021.174 L2914.391,810.318 L1764.331,1172.217 L2532.06,1787.92" fill-opacity="0" stroke="#000000" stroke-width="25" stroke-linecap="round"/>
    <path d="M3388.921,841.6 L2988.021,571.314 L1516.497,1035.215 L2498.82,1824.455" fill-opacity="0" stroke="#000000" stroke-width="25" stroke-linecap="round"/>
    <path d="M2031.313,2494.292 C2120.616,2340.101 2202.094,2204.107 2239.24,2154.573 C2265.177,2119.986 2410.95,1902.573 2519.56,1777.737" fill-opacity="0" stroke="#000000" stroke-width="25" stroke-linecap="round"/>
    <path d="M1958.239,2494.428 C2056.907,2323.183 2150.221,2166.195 2190.753,2112.146 C2216.69,2077.56 2347.31,1881.36 2455.92,1756.524" fill-opacity="0" stroke="#000000" stroke-width="25" stroke-linecap="round"/>
    <path d="M1854.214,2494.352 C1963.938,2302.841 2073.222,2117.339 2118.022,2057.598 C2143.959,2023.011 2280.64,1838.934 2389.25,1714.097" fill-opacity="0" stroke="#000000" stroke-width="25" stroke-linecap="round"/>
    <path d="M1728.512,2494.627 C1849.162,2282.918 1977.566,2063.054 2027.108,1996.989 C2053.045,1962.402 2213.824,1766.075 2322.58,1641.366" fill-opacity="0" stroke="#000000" stroke-width="25" stroke-linecap="round"/>
    <path d="M1594.534,2496.26 C1727.489,2261.466 1885.898,1987.289 1942.255,1912.136 C1968.192,1877.549 2123.056,1699.532 2231.667,1574.696" fill-opacity="0" stroke="#000000" stroke-width="25" stroke-linecap="round"/>
    <path d="M1406.299,2495.179 C1547.276,2244.555 1749.661,1890.138 1814.976,1803.04 C1840.913,1768.453 1995.777,1590.436 2104.387,1465.6" fill-opacity="0" stroke="#000000" stroke-width="25" stroke-linecap="round"/>
    <path d="M3367.979,853.869 L2982.154,593.814 L1565.97,1040.155 L2511.351,1799.522" fill-opacity="0" stroke="#000000" stroke-width="25" stroke-linecap="round"/>
    <path d="M2982.92,1787.969 L3394.777,1787.969" fill-opacity="0" stroke="#000000" stroke-width="25" stroke-linecap="round"/>
    <path d="M3331.674,824.016 L4221.304,10.36" fill-opacity="0" stroke="#000000" stroke-width="25" stroke-linecap="round"/>
    <path d="M3258.943,769.468 L4081.903,16.421" fill-opacity="0" stroke="#000000" stroke-width="25" stroke-linecap="round"/>
    <path d="M3168.029,708.859 L3936.441,16.421" fill-opacity="0" stroke="#000000" stroke-width="25" stroke-linecap="round"/>
    <path d="M3057.462,645.435 L3736.431,16.421" fill-opacity="0" stroke="#000000" stroke-width="25" stroke-linecap="round"/>
    <path d="M2822.197,635.054 C2942.083,524.481 2921.612,540.624 2921.612,540.624 L3512.177,4.299" fill-opacity="0" stroke="#000000" stroke-width="25" stroke-linecap="round"/>
    <path d="M3307.367,813.67 L4196.998,0.014" fill-opacity="0" stroke="#000000" stroke-width="25" stroke-linecap="round"/>
    <path d="M3234.636,759.121 L4057.597,6.075" fill-opacity="0" stroke="#000000" stroke-width="25" stroke-linecap="round"/>
    <path d="M3143.723,698.512 L3912.135,6.074" fill-opacity="0" stroke="#000000" stroke-width="25" stroke-linecap="round"/>
    <path d="M3033.156,635.088 L3712.125,6.074" fill-opacity="0" stroke="#000000" stroke-width="25" stroke-linecap="round"/>
    <path d="M2797.89,624.708 C2917.776,514.134 2897.305,530.277 2897.305,530.277 L3487.085,-5.334" fill-opacity="0" stroke="#000000" stroke-width="25" stroke-linecap="round"/>
    <path d="M3380.161,866.443 L4279.708,48.196" fill-opacity="0" stroke="#000000" stroke-width="25" stroke-linecap="round"/>
    <path d="M3355.855,856.096 L4255.401,37.85" fill-opacity="0" stroke="#000000" stroke-width="25" stroke-linecap="round"/>
    <path d="M2077.601,2481.866 C2148.782,2364.76 2223.5,2249.804 2301.617,2137.206 C2594.567,1714.95 2935.508,1326.015 3315.767,980.295 L4260.91,127.775" fill-opacity="0" stroke="#000000" stroke-width="25" stroke-linecap="round"/>
    <path d="M2000.931,2494.441 C2092.598,2335.954 2176.947,2194.881 2214.934,2144.226 C2240.87,2109.639 2386.643,1892.227 2495.253,1767.39" fill-opacity="0" stroke="#000000" stroke-width="25" stroke-linecap="round"/>
    <path d="M1928.019,2494.351 C2028.855,2319.143 2125.106,2156.927 2166.447,2101.8 C2192.383,2067.213 2323.004,1871.014 2431.614,1746.177" fill-opacity="0" stroke="#000000" stroke-width="25" stroke-linecap="round"/>
    <path d="M1823.958,2494.392 C1935.66,2299.239 2048.106,2108.072 2093.715,2047.251 C2119.652,2012.665 2256.333,1828.587 2364.944,1703.75" fill-opacity="0" stroke="#000000" stroke-width="25" stroke-linecap="round"/>
    <path d="M1698.296,2494.655 C1820.636,2279.8 1952.449,2053.787 2002.802,1986.642 C2028.738,1952.055 2189.517,1755.729 2298.274,1631.02" fill-opacity="0" stroke="#000000" stroke-width="25" stroke-linecap="round"/>
    <path d="M1564.276,2496.427 C1698.419,2259.371 1860.747,1978.068 1917.949,1901.79 C1943.886,1867.203 2098.75,1689.186 2207.36,1564.35" fill-opacity="0" stroke="#000000" stroke-width="25" stroke-linecap="round"/>
    <path d="M1375.619,2496.165 C1516.797,2245.023 1724.363,1881.113 1790.67,1792.693 C1816.606,1758.106 1971.47,1580.089 2080.081,1455.253" fill-opacity="0" stroke="#000000" stroke-width="25" stroke-linecap="round"/>
    <path d="M3227.712,993.9 L2914.391,783.044 L1764.331,1144.943 L2532.06,1760.646" fill-opacity="0" stroke="#000000" stroke-width="25" stroke-linecap="round"/>
    <path d="M4059.103,2089.006 L4181.013,2387.771 L4097.036,2496.671" fill-opacity="0" stroke="#000000" stroke-width="25" stroke-linecap="round"/>
    <path d="M5359.468,45.843 L5460.127,138.11 M5385.634,29.653 L5486.293,121.92 M5412.374,15.405 L5494.461,90.53" fill-opacity="0" stroke="#000000" stroke-width="25" stroke-linecap="round"/>
    <path d="M4521.531,1191.846 L4567.289,1303.985 L4351.583,1639.235 L4206.009,1357.803" fill-opacity="0" stroke="#000000" stroke-width="25" stroke-linecap="round"/>
    <path d="M4498.867,1204.647 L4537.605,1300.151 L4354.234,1585.908 L4230.928,1346.243" fill-opacity="0" stroke="#000000" stroke-width="25" stroke-linecap="round"/>
    <path d="M4476.186,1217.443 L4507.651,1295.716 L4357.775,1530.204 L4257.536,1333.806" fill-opacity="0" stroke="#000000" stroke-width="25" stroke-linecap="round"/>
    <path d="M4453.161,1232.226 L4477.318,1293.183 L4361.104,1476.147 L4284.044,1323.23" fill-opacity="0" stroke="#000000" stroke-width="25" stroke-linecap="round"/>
    <path d="M4429.826,1245.374 L4446.726,1289.135 L4363.938,1420.933 L4309.9,1311.195" fill-opacity="0" stroke="#000000" stroke-width="25" stroke-linecap="round"/>
    <path d="M4187.675,777.532 L4077.143,704.286 L3671.428,830 L3942.265,1043.88" fill-opacity="0" stroke="#000000" stroke-width="25" stroke-linecap="round"/>
    <path d="M4169.104,796.439 L4074.918,734.286 L3729.204,840.962 L3959.987,1022.451" fill-opacity="0" stroke="#000000" stroke-width="25" stroke-linecap="round"/>
    <path d="M4150.532,815.366 L4073.279,764.703 L3789.719,851.657 L3979.011,999.594" fill-opacity="0" stroke="#000000" stroke-width="25" stroke-linecap="round"/>
    <path d="M4129.757,834.123 L4069.521,795.007 L3848.422,862.143 L3996.018,976.36" fill-opacity="0" stroke="#000000" stroke-width="25" stroke-linecap="round"/>
    <path d="M4110.669,853.599 L4067.332,825.95 L3908.26,873.404 L4014.449,954.137" fill-opacity="0" stroke="#000000" stroke-width="25" stroke-linecap="round"/>
    <path d="M5473.471,227.293 L5503.209,220.535 M5468.299,199.544 L5528.039,185.644 M5455.28,174.868 L5545.019,152.396 M5448.219,147.568 L5533.672,123.668" fill-opacity="0" stroke="#000000" stroke-width="25" stroke-linecap="round"/>
    <path d="M5447.115,357.055 L5502.954,396.607 M5456.277,325.637 L5536.402,386.617 M5464.288,296.334 L5564.412,374.457 M5462.842,257.647 L5565.824,338.628" fill-opacity="0" stroke="#000000" stroke-width="25" stroke-linecap="round"/>
    <path d="M5573.509,156.189 L5475.994,267.988 M5598.324,177.561 L5500.809,289.36 M5624.126,196.058 L5526.611,307.857 M5650.898,213.601 L5553.383,325.4" fill-opacity="0" stroke="#000000" stroke-width="25" stroke-linecap="round"/>
    <path d="M5758.473,119.407 L5597.868,13.843 M5735.347,154.965 L5574.742,49.4 M5716.086,191.286 L5555.481,85.721 M5698.219,228.686 L5537.614,123.121" fill-opacity="0" stroke="#000000" stroke-width="25" stroke-linecap="round"/>
    <path d="M5713.163,436.533 L5674.266,226.46 M5678.413,474.413 L5638.087,260.055 M5627.166,414.097 L5599.697,271.167 M5588.963,414.062 L5571.495,321.132" fill-opacity="0" stroke="#000000" stroke-width="25" stroke-linecap="round"/>
    <path d="M5453.374,478.484 L5514.534,473.139 M5428.74,448.994 L5558.471,439.364 M5441.424,415.187 L5569.727,404.128" fill-opacity="0" stroke="#000000" stroke-width="25" stroke-linecap="round"/>
    <path d="M5570.394,571.419 L5682.674,496.724 M5528.651,559.313 L5662.36,467.476 M5506.505,532.837 L5640.213,440.999 M5483.071,507.106 L5616.78,415.268" fill-opacity="0" stroke="#000000" stroke-width="25" stroke-linecap="round"/>
    <path d="M4412.634,1597.937 C4412.634,1625.211 4412.634,2484.582 4412.634,2484.582" fill-opacity="0" stroke="#000000" stroke-width="25" stroke-linecap="round"/>
    <path d="M5637.077,578.712 L5459.686,562.019 M5633.488,617.776 L5466.811,601.083 M5633.4,655.79 L5432.437,632.668 M5634.921,694.081 L5489.672,681.673" fill-opacity="0" stroke="#000000" stroke-width="25" stroke-linecap="round"/>
    <path d="M5571.114,687.132 L5462.059,776.847 M5615.234,712.491 L5429.512,848.614 M5649.489,741.755 L5459.221,882.423 M5629.617,814.79 L5490.561,915.219" fill-opacity="0" stroke="#000000" stroke-width="25" stroke-linecap="round"/>
    <path d="M5610.463,812.301 L5655.219,846.494 M5644.671,783.146 L5688.223,816.137 M5668.633,744.481 L5724.233,783.481 M5691.131,704.538 L5764.804,756.76" fill-opacity="0" stroke="#000000" stroke-width="25" stroke-linecap="round"/>
    <path d="M5531.004,900.28 L5524.524,963.22 M5577.454,867.147 L5572.489,913.021" fill-opacity="0" stroke="#000000" stroke-width="25" stroke-linecap="round"/>
    <path d="M5608.794,844.495 L5604.457,868.612" fill-opacity="0" stroke="#000000" stroke-width="25" stroke-linecap="round"/>
    <path d="M4467.182,1519.145 L4467.182,2478.521" fill-opacity="0" stroke="#000000" stroke-width="25" stroke-linecap="round"/>
    <path d="M5130.639,724.707 C5041.732,815.841 4945.699,900.02 4843.705,976.223 C4668.918,1106.811 4477.548,1213.389 4284.621,1315.285 C4172.37,1374.57 4058.984,1432.585 3939.655,1475.893 C3850.93,1508.093 3759.207,1532.023 3666.061,1547.274" fill-opacity="0" stroke="#000000" stroke-width="25" stroke-linecap="round"/>
    <path d="M4632.728,1129.67 L4632.728,1240.37" fill-opacity="0" stroke="#000000" stroke-width="25" stroke-linecap="round"/>
    <path d="M4673.442,1109.477 L4673.442,1243.421" fill-opacity="0" stroke="#000000" stroke-width="25" stroke-linecap="round"/>
    <path d="M4714.156,1087.867 L4714.156,1243.603" fill-opacity="0" stroke="#000000" stroke-width="25" stroke-linecap="round"/>
    <path d="M4757.014,1061.98 L4757.014,1245.918" fill-opacity="0" stroke="#000000" stroke-width="25" stroke-linecap="round"/>
    <path d="M4810.584,1032.603 L4810.584,1236.493" fill-opacity="0" stroke="#000000" stroke-width="25" stroke-linecap="round"/>
    <path d="M4870.584,982.45 L4870.584,1210.343" fill-opacity="0" stroke="#000000" stroke-width="25" stroke-linecap="round"/>
    <path d="M4939.156,924.616 L4939.156,1183.439" fill-opacity="0" stroke="#000000" stroke-width="25" stroke-linecap="round"/>
    <path d="M5020.584,846.933 L5020.584,1128.696" fill-opacity="0" stroke="#000000" stroke-width="25" stroke-linecap="round"/>
    <path d="M4589.871,1154.58 L4589.871,1245.461" fill-opacity="0" stroke="#000000" stroke-width="25" stroke-linecap="round"/>
    <path d="M5100.891,782.222 L5100.891,1043.506" fill-opacity="0" stroke="#000000" stroke-width="25" stroke-linecap="round"/>
    <path d="M5153.446,752.875 C5062.96,842.366 4967.085,926.407 4866.512,1004.39 C4751.364,1081.329 4675.215,1166.13 4556.27,1244.375 M4212.421,1389.849 C4184.213,1404.454 4155.752,1418.57 4127.056,1432.19 C4069.738,1459.393 4011.443,1484.627 3951.776,1506.197 C3863.016,1538.286 3771.306,1562.213 3678.183,1577.579" fill-opacity="0" stroke="#000000" stroke-width="25" stroke-linecap="round"/>
    <path d="M4258.803,1565.681 L4258.803,2486.479" fill-opacity="0" stroke="#000000" stroke-width="25" stroke-linecap="round"/>
    <path d="M4307.578,1648.538 L4307.578,2493.58" fill-opacity="0" stroke="#000000" stroke-width="25" stroke-linecap="round"/>
    <path d="M4283.047,1613.657 L4283.047,2497.092" fill-opacity="0" stroke="#000000" stroke-width="25" stroke-linecap="round"/>
    <path d="M4239.181,1998.723 L4209.753,1987.527 M4237.016,2030.34 L4189.405,2014.598 M4237.799,2061.751 L4158.369,2035.402 M4239.802,2095.18 L4127.037,2058.224" fill-opacity="0" stroke="#000000" stroke-width="25" stroke-linecap="round"/>
    <path d="M4179.325,2110.773 L4186.657,2077.624 M4134.736,2123.982 L4146.615,2066.588 M4095.148,2125.851 L4107.026,2059.367 M4053.462,2079.329 L4250.199,1956.781" fill-opacity="0" stroke="#000000" stroke-width="25" stroke-linecap="round"/>
    <path d="M4222.469,2103.593 L4101.87,2155.74 M4247.346,2142.949 L4114.625,2196.611 M4244.934,2189.946 L4131.91,2239.062 M4250.376,2236.366 L4143.414,2282.451" fill-opacity="0" stroke="#000000" stroke-width="25" stroke-linecap="round"/>
    <path d="M4247.996,2286.592 L4189.863,2278.237 M4240.987,2321.535 L4166.188,2310.149 M4237.233,2355.846 L4174.556,2344.461 M4239.447,2390.553 L4178.285,2380.683" fill-opacity="0" stroke="#000000" stroke-width="25" stroke-linecap="round"/>
    <path d="M4212.124,2403.542 L4172.31,2421.605 M4244.37,2432.833 L4116.458,2488.517 M4248.773,2469.245 L4196.659,2494.193" fill-opacity="0" stroke="#000000" stroke-width="25" stroke-linecap="round"/>
    <path d="M4552.896,1392.151 L4552.896,2472.657" fill-opacity="0" stroke="#000000" stroke-width="25" stroke-linecap="round"/>
    <path d="M3655.454,1501.817 C3710.453,1388.134 3774.141,1278.655 3845.781,1174.653 C3955.219,1015.774 4083.253,869.717 4226.433,740.416 L4613.033,395.406 C4732.056,289.187 4857.916,189.073 4999.634,115.828 C5059.154,85.066 5122.061,57.904 5188.763,51.587 C5222.113,48.428 5256.15,50.619 5288.307,60.009 C5320.464,69.399 5350.7,86.143 5374.338,109.88 C5409.403,145.091 5428.455,194.547 5431.046,244.172 C5433.638,293.797 5420.569,343.474 5398.387,387.941 C5354.023,476.875 5276.11,543.492 5201.855,609.55 C5080.025,717.932 4962.565,831.632 4833.098,930.766 C4659.83,1063.439 4467.227,1168.374 4274.015,1269.828 C4161.625,1328.842 4048.343,1387.044 3929.048,1430.436 C3840.345,1462.7 3748.614,1486.633 3655.454,1501.817" fill-opacity="0" stroke="#000000" stroke-width="25" stroke-linecap="round"/>
    <path d="M5280.219,689.321 C5294.807,755.111 5307.372,821.338 5317.896,887.89 C5402.088,1420.305 5355.708,1973.505 5170.547,2490.078" fill-opacity="0" stroke="#000000" stroke-width="25" stroke-linecap="round"/>
    <path d="M5489.829,1749.094 C5489.829,1876.025 5386.93,1978.923 5259.999,1978.923 C5133.067,1978.923 5030.169,1876.025 5030.169,1749.094 C5030.169,1622.163 5133.067,1519.264 5259.999,1519.264 C5386.93,1519.264 5489.829,1622.163 5489.829,1749.094 z" fill-opacity="0" stroke="#000000" stroke-width="46.502" stroke-linecap="round"/>
    <path d="M5470.542,1739.451 C5470.542,1861.057 5371.961,1959.638 5250.356,1959.638 C5128.75,1959.638 5030.169,1861.057 5030.169,1739.451 C5030.169,1617.845 5128.75,1519.264 5250.356,1519.264 C5371.961,1519.264 5470.542,1617.845 5470.542,1739.451 z" fill-opacity="0" stroke="#000000" stroke-width="48.538" stroke-linecap="round"/>
    <path d="M5451.257,1729.808 C5451.257,1846.088 5356.993,1940.352 5240.713,1940.352 C5124.433,1940.352 5030.169,1846.088 5030.169,1729.808 C5030.169,1613.528 5124.433,1519.264 5240.713,1519.264 C5356.993,1519.264 5451.257,1613.528 5451.257,1729.808 z" fill-opacity="0" stroke="#000000" stroke-width="50.761" stroke-linecap="round"/>
    <path d="M5799.994,788.473 L5477.029,1078.222" fill-opacity="0" stroke="#000000" stroke-width="25" stroke-linecap="round"/>
    <path d="M5804.936,784.04 L5799.995,788.473" fill-opacity="0" stroke="#000000" stroke-width="25" stroke-linecap="round"/>
    <path d="M5800.001,857.507 L5527.355,1101.072" fill-opacity="0" stroke="#000000" stroke-width="25" stroke-linecap="round"/>
    <path d="M5799.995,929.988 L5577.729,1124.958" fill-opacity="0" stroke="#000000" stroke-width="25" stroke-linecap="round"/>
    <path d="M5799.989,1013.196 L5623.672,1155.405" fill-opacity="0" stroke="#000000" stroke-width="25" stroke-linecap="round"/>
    <path d="M5800.002,1109.47 L5687.38,1200.342" fill-opacity="0" stroke="#000000" stroke-width="25" stroke-linecap="round"/>
    <path d="M5800.005,755.871 L5447.438,1074.267" fill-opacity="0" stroke="#000000" stroke-width="25" stroke-linecap="round"/>
    <path d="M5800.007,817.944 L5499.757,1087.313" fill-opacity="0" stroke="#000000" stroke-width="25" stroke-linecap="round"/>
    <path d="M5800.002,886.903 L5550.084,1110.163" fill-opacity="0" stroke="#000000" stroke-width="25" stroke-linecap="round"/>
    <path d="M5799.999,959.013 L5600.457,1134.05" fill-opacity="0" stroke="#000000" stroke-width="25" stroke-linecap="round"/>
    <path d="M5800.004,1040.606 L5646.4,1164.497" fill-opacity="0" stroke="#000000" stroke-width="25" stroke-linecap="round"/>
    <path d="M5800.006,1136.897 L5710.108,1209.433" fill-opacity="0" stroke="#000000" stroke-width="25" stroke-linecap="round"/>
    <path d="M3462.401,1661.766 C3524.251,1535.025 3595.874,1412.973 3676.438,1297.024 C3799.511,1119.898 3943.496,957.065 4104.514,812.913 L4539.277,428.276 C4673.128,309.858 4814.668,198.245 4974.041,116.587 C5040.977,82.292 5111.721,52.011 5186.732,44.967 C5224.238,41.445 5262.515,43.888 5298.678,54.357 C5334.841,64.825 5368.844,83.492 5395.428,109.956 C5434.861,149.211 5456.287,204.348 5459.201,259.672 C5462.115,314.997 5447.418,370.379 5422.472,419.954 C5372.582,519.102 5284.961,593.371 5201.456,667.016 C5064.448,787.846 4932.354,914.606 4786.758,1025.126 C4591.904,1173.037 4556.957,1236.598 4339.673,1349.704 C4213.282,1415.497 4043.146,1510.303 3908.989,1552.267 C3807.784,1583.924 3567.166,1644.838 3462.401,1661.766" fill-opacity="0" stroke="#000000" stroke-width="22.327" stroke-linecap="round"/>
    <path d="M5311.856,881.959 L5297.75,829.94 M5268.291,867.792 L5238.725,759.328 M5227.084,856.451 L5195.358,734.72 M5186.769,845.989 L5153.743,708.687" fill-opacity="0" stroke="#000000" stroke-width="25" stroke-linecap="round"/>
    <path d="M3942.857,1311.429 C3982.32,1229.963 4028.012,1151.516 4079.403,1076.997 C4157.926,963.135 4249.783,858.476 4352.495,765.843 L4629.854,518.625 C4715.254,442.505 4805.559,370.771 4907.213,318.293 C4949.919,296.246 4995.05,276.78 5042.897,272.252 C5066.821,269.988 5091.236,271.558 5114.305,278.287 C5137.374,285.017 5159.068,297.016 5176.038,314.031 C5201.203,339.263 5214.909,374.71 5216.81,410.295 C5218.711,445.881 5209.377,481.519 5193.483,513.415 C5161.696,577.206 5105.763,624.947 5052.293,672.071 C4964.584,749.37 4879.581,829.906 4787.735,902.24 C4664.624,999.197 4529.583,1080.993 4386.631,1145.196 L4139.142,1260.28 L3942.857,1311.429" fill-opacity="0" stroke="#000000" stroke-width="25" stroke-linecap="round"/>
    <path d="M4027.71,1246.779 C4063.512,1172.907 4104.962,1101.773 4151.581,1034.204 C4222.817,930.951 4306.147,836.049 4399.321,752.059 L4650.934,527.889 C4728.41,458.863 4810.339,393.828 4902.545,346.234 C4941.289,326.236 4982.23,308.574 5025.636,304.465 C5047.339,302.41 5069.488,303.833 5090.416,309.939 C5111.344,316.044 5131.023,326.931 5146.416,342.369 C5169.231,365.254 5181.655,397.399 5183.375,429.669 C5185.094,461.938 5176.626,494.254 5162.21,523.176 C5133.378,581.019 5082.653,624.305 5034.158,667.029 C4954.594,737.125 4877.478,810.151 4794.159,875.739 C4682.469,963.66 4559.965,1037.83 4430.289,1096.044 L4205.774,1200.399 L4027.71,1246.779" fill-opacity="0" stroke="#000000" stroke-width="25" stroke-linecap="round"/>
    <path d="M4104.481,1190.21 C4136.774,1123.615 4174.161,1059.49 4216.205,998.581 C4280.459,905.495 4355.618,819.944 4439.652,744.236 L4666.59,542.153 C4736.472,479.925 4810.375,421.309 4893.528,378.397 C4928.475,360.362 4965.4,344.429 5004.55,340.72 C5024.125,338.866 5044.103,340.149 5062.979,345.656 C5081.854,351.163 5099.604,360.985 5113.484,374.913 C5134.049,395.548 5145.244,424.529 5146.79,453.621 C5148.335,482.713 5140.697,511.845 5127.697,537.916 C5101.697,590.059 5055.961,629.076 5012.235,667.584 C4940.477,730.777 4870.918,796.606 4795.771,855.729 C4695.026,934.99 4584.536,1001.852 4467.583,1054.327 L4265.084,1148.4 L4104.481,1190.21" fill-opacity="0" stroke="#000000" stroke-width="25" stroke-linecap="round"/>
    <path d="M4178.768,1133.067 C4207.717,1073.408 4241.229,1015.963 4278.915,961.4 C4336.514,878.005 4403.885,801.365 4479.208,733.549 L4682.63,552.518 C4745.275,496.768 4811.529,444.27 4886.053,405.82 C4917.381,389.657 4950.479,375.371 4985.573,372.044 C5003.12,370.381 5021.028,371.53 5037.948,376.467 C5054.868,381.405 5070.778,390.211 5083.217,402.698 C5101.636,421.19 5111.66,447.155 5113.04,473.219 C5114.419,499.282 5107.573,525.38 5095.922,548.735 C5072.622,595.445 5031.642,630.393 4992.459,664.882 C4928.14,721.497 4865.785,780.467 4798.425,833.429 C4708.112,904.437 4609.072,964.333 4504.244,1011.339 L4322.729,1095.613 L4178.768,1133.067" fill-opacity="0" stroke="#000000" stroke-width="25" stroke-linecap="round"/>
    <path d="M4267.661,1064.377 C4292.491,1013.259 4321.232,964.041 4353.549,917.295 C4402.952,845.835 4460.731,780.171 4525.325,722.078 L4699.785,566.973 C4753.515,519.204 4810.348,474.24 4874.245,441.285 C4901.115,427.427 4929.499,415.17 4959.597,412.314 C4974.646,410.886 4990.005,411.871 5004.517,416.106 C5019.028,420.341 5032.673,427.897 5043.337,438.611 C5059.113,454.462 5067.695,476.714 5068.87,499.047 C5070.046,521.38 5064.173,543.74 5054.185,563.75 C5034.208,603.769 4999.086,633.705 4965.5,663.245 C4910.343,711.758 4856.86,762.28 4799.093,807.653 C4721.629,868.495 4636.69,919.813 4546.797,960.083 L4391.125,1032.286 L4267.661,1064.377" fill-opacity="0" stroke="#000000" stroke-width="25" stroke-linecap="round"/>
    <path d="M4356.554,995.687 C4377.342,952.952 4401.4,911.809 4428.448,872.734 C4469.807,812.988 4518.172,758.096 4572.236,709.544 L4718.271,579.885 C4763.252,539.947 4810.839,502.378 4864.306,474.817 C4886.801,463.22 4910.559,452.955 4935.754,450.561 C4948.352,449.364 4961.209,450.187 4973.356,453.733 C4985.503,457.279 4996.925,463.607 5005.847,472.581 C5019.03,485.841 5026.196,504.447 5027.171,523.119 C5028.146,541.791 5023.229,560.484 5014.872,577.21 C4998.159,610.663 4968.785,635.681 4940.693,660.363 C4894.528,700.923 4849.752,743.154 4801.398,781.079 C4736.544,831.946 4665.446,874.844 4590.21,908.502 L4459.902,968.861 L4356.554,995.687" fill-opacity="0" stroke="#000000" stroke-width="25" stroke-linecap="round"/>
    <path d="M4453.529,918.915 C4470.046,885.037 4489.157,852.425 4510.638,821.456 C4543.498,774.084 4581.917,730.573 4624.856,692.101 L4740.859,589.326 C4776.597,557.663 4814.415,527.907 4856.862,506.043 C4874.736,496.837 4893.606,488.675 4913.621,486.769 C4923.628,485.816 4933.843,486.468 4943.493,489.287 C4953.142,492.105 4962.214,497.136 4969.295,504.271 C4979.738,514.793 4985.409,529.548 4986.172,544.352 C4986.936,559.157 4983.028,573.975 4976.396,587.232 C4963.129,613.746 4939.83,633.568 4917.541,653.118 C4880.875,685.277 4845.299,718.749 4806.892,748.805 C4755.36,789.131 4698.885,823.134 4639.134,849.808 L4535.623,897.651 L4453.529,918.915" fill-opacity="0" stroke="#000000" stroke-width="25" stroke-linecap="round"/>
    <path d="M5498.932,545.074 L5407.597,439.262 M5475.804,565.24 L5384.47,459.428 M5455.225,586.713 L5363.891,480.901 M5435.406,609.218 L5344.072,503.405" fill-opacity="0" stroke="#000000" stroke-width="25" stroke-linecap="round"/>
    <path d="M5374.6,562.516 L5302.056,566.88 M5397.768,592.718 L5291.653,594.939 M5413.645,620.829 L5323.958,623.051" fill-opacity="0" stroke="#000000" stroke-width="25" stroke-linecap="round"/>
    <path d="M5239.49,747.256 L5320.814,633.569 M5214.445,729.529 L5295.769,615.842 M5185.872,714.586 L5231.481,652.328 M5162.189,700.625 L5197.085,649.796" fill-opacity="0" stroke="#000000" stroke-width="25" stroke-linecap="round"/>
    <path d="M4283.047,11.73 L4283.047,674.918" fill-opacity="0" stroke="#000000" stroke-width="25" stroke-linecap="round"/>
    <path d="M4307.578,7.171 L4307.578,642.825" fill-opacity="0" stroke="#000000" stroke-width="25" stroke-linecap="round"/>
    <path d="M4258.803,8.093 L4258.803,692.697" fill-opacity="0" stroke="#000000" stroke-width="25" stroke-linecap="round"/>
    <path d="M5775.088,721.398 L5794.152,642.792 M5727.474,718.925 L5773.184,540.161 M5673.96,716.293 L5720.451,531.532 M5633.388,667.443 L5666.978,525.046 M5089.726,41.81 L5009.188,10.253 M5080.657,78.173 L4971.501,33.096 M5031.919,101.741 L4977.848,73.904 M5686.144,495.504 L5796.524,548.386 M5690.564,447.625 L5796.658,497.65 M5706.479,406.548 L5795.43,449.43 M5720.772,364.492 L5795.437,400.231 M5654.938,2.67 L5632.417,23.798 M5730.125,2.764 L5671.891,58.178 M5788.464,15.731 L5713.085,91.144 M5790.074,60.837 L5724.982,206.96 M5798.887,142.415 L5769.508,205.681 M5794.267,219.782 L5682.585,230.758 M5795.407,272.996 L5688.011,283.972 M5788.071,331.036 L5697.818,334.869 M5565.851,49.174 L5563.404,-2.345 M5532.892,98.809 L5529.016,-1.281 M5501.209,107.087 L5497.334,-0.146 M5466.596,31.077 L5465.578,-0.442 M5325.881,60.704 L5392.374,12.03 M5291.67,49.741 L5353.878,3.924 M5251.632,39.811 L5303.839,2.566 M5239.055,13.417 L5252.691,3.314 M5215.714,42.857 L5208.571,4.286 M5181.429,45.714 L5174.286,2.857 M5148.571,51.429 L5140,7.143 M5115.714,58.571 L5105.714,10" fill-opacity="0" stroke="#000000" stroke-width="25" stroke-linecap="round"/>
    <path d="M5521.818,719.354 L5463.455,650.231 M5490.611,743.123 L5406.534,639.714 M5462.545,768.762 L5354.896,626.782 M5435.362,795.774 L5327.714,653.794" fill-opacity="0" stroke="#000000" stroke-width="25" stroke-linecap="round"/>
    <path d="M5271.194,827.274 L5464.142,792.894 M5263.553,784.84 L5402.93,761.174 M5252.508,744.545 L5376.885,723.022 M5239.676,704.428 L5344.767,687.191" fill-opacity="0" stroke="#000000" stroke-width="25" stroke-linecap="round"/>
    <path d="M5183.943,946.547 L5292.947,987.005 M5182.51,911.61 L5303.637,956.614 M5184.114,879.824 L5311.301,926.343 M5178.417,845.973 L5317.727,895.523" fill-opacity="0" stroke="#000000" stroke-width="25" stroke-linecap="round"/>
    <path d="M5302.11,1043.806 L5346.699,1019.943 M5225.978,1046.425 L5334.964,982.409 M5192.492,1027.255 L5256.022,991.271 M5188.001,991.239 L5221.226,974.953" fill-opacity="0" stroke="#000000" stroke-width="25" stroke-linecap="round"/>
    <path d="M5313.129,924.586 L5400.018,1054.976 M5330.705,871.132 L5436.879,1029.38 M5353.337,832.502 L5470.226,1001.464 M5391.795,816.598 C5430.757,872.918 5368.163,784.029 5485.954,950.71" fill-opacity="0" stroke="#000000" stroke-width="25" stroke-linecap="round"/>
    <path d="M4412.634,15.353 L4412.634,555.851" fill-opacity="0" stroke="#000000" stroke-width="25" stroke-linecap="round"/>
    <path d="M4467.182,9.292 C4467.182,9.292 4464.151,440.693 4464.151,513.424" fill-opacity="0" stroke="#000000" stroke-width="25" stroke-linecap="round"/>
    <path d="M4552.896,5.007 C4552.896,5.007 4549.865,366.727 4549.865,427.71" fill-opacity="0" stroke="#000000" stroke-width="25" stroke-linecap="round"/>
    <path d="M4660.585,381.539 L4660.585,424.216" fill-opacity="0" stroke="#000000" stroke-width="25" stroke-linecap="round"/>
    <path d="M4694.871,355.472 L4694.871,405.283" fill-opacity="0" stroke="#000000" stroke-width="25" stroke-linecap="round"/>
    <path d="M4731.299,325.466 L4731.299,366.717" fill-opacity="0" stroke="#000000" stroke-width="25" stroke-linecap="round"/>
    <path d="M4617.728,421.895 L4617.728,463.146" fill-opacity="0" stroke="#000000" stroke-width="25" stroke-linecap="round"/>
    <path d="M4574.871,458.324 L4574.871,499.574" fill-opacity="0" stroke="#000000" stroke-width="25" stroke-linecap="round"/>
    <path d="M4525.584,503.849 L4525.584,539.763" fill-opacity="0" stroke="#000000" stroke-width="25" stroke-linecap="round"/>
    <path d="M4480.584,544.563 L4480.584,580.477" fill-opacity="0" stroke="#000000" stroke-width="25" stroke-linecap="round"/>
    <path d="M4433.442,585.278 L4433.442,621.192" fill-opacity="0" stroke="#000000" stroke-width="25" stroke-linecap="round"/>
    <path d="M4382.013,628.135 L4382.013,664.049" fill-opacity="0" stroke="#000000" stroke-width="25" stroke-linecap="round"/>
    <path d="M4328.442,673.135 L4328.442,709.049" fill-opacity="0" stroke="#000000" stroke-width="25" stroke-linecap="round"/>
    <path d="M4619.871,1766.755 L5796.832,1766.755" fill-opacity="0" stroke="#000000" stroke-width="25" stroke-linecap="round"/>
    <path d="M4352.581,1724.634 L5796.71,1724.634" fill-opacity="0" stroke="#000000" stroke-width="25" stroke-linecap="round"/>
    <path d="M4620.051,1787.969 L5791.336,1787.969" fill-opacity="0" stroke="#000000" stroke-width="25" stroke-linecap="round"/>
    <path d="M4939.787,-3.448 C4970.312,57.053 4962.46,49.874 4989.049,112.033 M5180.994,708.607 C5195.583,774.397 5208.146,840.624 5218.671,907.176 C5302.863,1439.591 5262.527,1968.612 5077.367,2485.186 M4914.921,2.42 C4945.447,62.921 4939.75,64.342 4966.338,126.502 M5158.266,699.515 C5172.854,765.306 5185.418,831.533 5195.942,898.085 C5280.135,1430.499 5238.288,1968.588 5053.127,2485.161 M4885.51,3.507 C4916.035,64.007 4918.886,78.251 4945.476,140.41 M5130.991,717.698 C5145.58,783.488 5158.144,849.715 5168.668,916.267 C5252.861,1448.682 5211.014,1973.17 5025.853,2489.744" fill-opacity="0" stroke="#000000" stroke-width="25" stroke-linecap="round"/>
    <g>
      <path d="M669.684,440.651 C726.389,324.741 786.906,210.74 846.206,96.145" fill-opacity="0" stroke="#000000" stroke-width="28.885" stroke-linecap="round"/>
      <path d="M738.643,453.97 L886.253,169.002" fill-opacity="0" stroke="#000000" stroke-width="28.885" stroke-linecap="round"/>
      <path d="M749.45,249.453 L953.772,437.633 L967.972,487.827" fill-opacity="0" stroke="#000000" stroke-width="28.885" stroke-linecap="round"/>
      <path d="M678.593,475.646 C740.864,344.993 809.206,217.346 875.669,88.797" fill-opacity="0" stroke="#000000" stroke-width="28.885" stroke-linecap="round"/>
      <path d="M704.577,474.928 C763.205,351.236 828.197,230.658 891.055,109.081" fill-opacity="0" stroke="#000000" stroke-width="28.885" stroke-linecap="round"/>
      <path d="M759.328,463.753 L900.829,190.492" fill-opacity="0" stroke="#000000" stroke-width="28.885" stroke-linecap="round"/>
      <path d="M791.925,451.086 L914.007,213.435" fill-opacity="0" stroke="#000000" stroke-width="28.885" stroke-linecap="round"/>
      <path d="M742.086,286.07 C735.343,282.734 729.772,276.417 726.361,267.641 C720.691,249.597 726.996,231.128 743.348,224.459 C751.449,221.311 759.365,221.666 766.109,225.002" fill-opacity="0" stroke="#000000" stroke-width="28.885" stroke-linecap="round"/>
      <path d="M862.829,319.861 L956.961,422.101" fill-opacity="0" stroke="#000000" stroke-width="28.885" stroke-linecap="round"/>
      <path d="M842.173,372.911 L942.833,438.846" fill-opacity="0" stroke="#000000" stroke-width="28.885" stroke-linecap="round"/>
      <path d="M941.744,450.525 L942.732,482.032" fill-opacity="0" stroke="#000000" stroke-width="28.885" stroke-linecap="round"/>
      <path d="M964.384,426.72 L978.951,464.205 L978.951,464.205" fill-opacity="0" stroke="#000000" stroke-width="28.885" stroke-linecap="round"/>
    </g>
  </g>
</svg>
