<?xml version="1.0"?>
<!DOCTYPE svg PUBLIC "-//W3C//DTD SVG 1.1//EN" "http://www.w3.org/Graphics/SVG/1.1/DTD/svg11.dtd">
<svg xmlns="http://www.w3.org/2000/svg" xmlns:xlink="http://www.w3.org/1999/xlink" version="1.1">
  <g id="blue (">
    <path d="M1365.752,-0 C1368.195,35.409 1368.783,91.078 1364.566,126.265 C1347.697,267.013 1278.129,401.568 1160.588,494.605 C921.2,684.088 563.451,640.24 374.435,401.434 C278.199,279.848 256.336,161.443 258.637,5.609 M1401.302,-0 C1403.903,37.71 1404.428,93.364 1399.936,130.837 C1381.964,280.731 1307.869,424.026 1182.682,523.102 C927.753,724.858 546.796,678.156 345.533,423.842 C243.074,294.376 216.183,166.752 224.152,4.533 M1440.415,-0 C1443.182,40.144 1442.131,95.78 1437.346,135.672 C1418.208,295.239 1339.324,447.778 1206.049,553.241 C934.683,767.977 529.182,718.255 314.968,447.54 C205.928,309.74 176.132,181.701 183.79,14.069 M1481.683,-0 C1484.626,42.718 1481.995,98.335 1476.901,140.784 C1456.529,310.579 1372.582,472.892 1230.755,585.106 C942.01,813.564 510.561,760.649 282.655,472.593 C166.66,325.983 134.196,185.451 138.589,5.792 M1522.193,-0 C1525.321,45.438 1524.128,101.034 1518.708,146.186 C1497.031,326.791 1407.732,499.433 1256.866,618.784 C949.754,861.742 490.882,805.452 248.508,499.068 C125.163,343.148 95.924,203.099 91.081,7.795 M1568.102,-0 C1571.426,48.312 1568.644,103.886 1562.88,151.892 C1539.823,343.919 1444.869,527.475 1284.453,654.364 C957.936,912.64 470.093,852.784 212.434,527.037 C81.326,361.282 50.62,218.04 50.218,9.486 M1611.972,-0 C1615.502,51.348 1615.661,106.896 1609.532,157.919 C1585.019,362.008 1484.091,557.09 1313.587,691.942 C966.577,966.393 448.139,902.77 174.339,556.572 C35.033,380.432 2.696,221.22 0.768,7.827 M1662.992,0.717 C1666.74,55.27 1665.301,110.074 1658.788,164.28 C1632.736,381.105 1525.501,588.357 1344.346,731.614 C975.7,1023.14 424.962,955.541 134.124,587.752 C97.134,540.976 65.841,491.311 40.128,439.634 C27.272,413.795 15.81,387.454 5.729,360.718 M1715.246,-2.71 C1719.224,55.225 1717.693,113.427 1710.774,170.994 C1683.097,401.26 1569.206,621.356 1376.809,773.484 C985.328,1083.029 400.504,1011.231 91.685,620.656 C52.412,570.987 27.299,537.485 0,482.613 M1768.867,-0 C1773.088,61.504 1772.971,116.964 1765.623,178.076 C1736.232,422.525 1615.316,656.171 1411.058,817.658 C995.487,1146.21 374.701,1069.984 46.914,655.368 C26.074,629.008 17.647,621.067 0,593.203 M1830.039,-0 C1834.515,65.268 1831.274,120.694 1823.474,185.545 C1792.274,444.952 1663.949,692.889 1447.179,864.247 C1006.201,1212.844 347.79,1144.767 0,704.797 M1888.327,-0 C1893.073,69.236 1892.746,124.625 1884.469,193.42 C1851.362,468.596 1715.225,731.602 1485.262,913.367 C1456.027,936.475 1425.89,957.803 1394.987,977.371 C1364.084,996.938 1332.417,1014.744 1300.121,1030.807 C1267.825,1046.869 1234.9,1061.189 1201.485,1073.784 C1168.069,1086.379 1134.162,1097.25 1099.901,1106.413 C1065.639,1115.577 1031.023,1123.034 996.19,1128.802 C961.356,1134.571 926.305,1138.652 891.173,1141.062 C856.042,1143.472 820.829,1144.212 785.673,1143.3 C750.517,1142.389 715.417,1139.825 680.51,1135.628 C645.604,1131.43 610.89,1125.599 576.506,1118.153 C542.123,1110.707 508.069,1101.645 474.483,1090.986 C440.896,1080.327 407.776,1068.071 375.261,1054.236 C342.745,1040.401 310.833,1024.986 279.662,1008.012 C248.491,991.037 218.06,972.501 188.507,952.423 C158.955,932.345 130.279,910.725 102.619,887.58 C74.958,864.435 49.002,848.314 0,796.494 M1954.462,-0 C1959.491,73.419 1957.54,128.768 1948.76,201.718 C1913.641,493.517 1769.269,772.405 1525.401,965.138 C1494.401,989.637 1462.445,1012.25 1429.677,1032.996 C1396.91,1053.742 1363.331,1072.62 1329.086,1089.65 C1294.842,1106.68 1259.931,1121.861 1224.499,1135.214 C1189.067,1148.568 1153.114,1160.092 1116.786,1169.806 C1080.457,1179.521 1043.753,1187.426 1006.818,1193.542 C969.883,1199.657 932.718,1203.982 895.467,1206.536 C858.216,1209.09 820.88,1209.873 783.603,1208.905 C746.327,1207.937 709.11,1205.217 672.098,1200.765 C635.086,1196.313 598.279,1190.129 561.821,1182.232 C525.364,1174.336 489.257,1164.726 453.646,1153.422 C418.034,1142.119 382.917,1129.122 348.441,1114.451 C313.964,1099.78 280.128,1083.435 247.078,1065.435 C214.028,1047.435 181.763,1027.78 150.428,1006.489 C119.094,985.199 88.691,962.273 59.363,937.731 C44.699,925.459 19.619,904.236 5.511,891.159 M2021.195,6.044 C2026.524,83.872 2025.811,133.132 2016.501,210.461 C2014.173,229.793 2011.394,249.071 2008.164,268.278 C2004.934,287.484 2001.255,306.618 1997.128,325.66 C1993.001,344.702 1988.427,363.653 1983.408,382.494 C1978.389,401.335 1972.925,420.065 1967.019,438.666 C1961.113,457.267 1954.764,475.738 1947.976,494.062 C1941.188,512.385 1933.96,530.56 1926.295,548.568 C1918.63,566.576 1910.527,584.417 1901.99,602.071 C1893.453,619.726 1884.481,637.194 1875.077,654.457 C1865.673,671.72 1855.837,688.779 1845.571,705.613 C1835.305,722.447 1824.61,739.056 1813.487,755.423 C1802.364,771.79 1790.814,787.914 1778.84,803.776 C1766.866,819.638 1754.467,835.238 1741.645,850.557 C1728.824,865.875 1715.581,880.913 1701.918,895.651 C1688.255,910.389 1674.173,924.828 1659.674,938.947 C1645.174,953.066 1630.258,966.867 1614.927,980.329 C1599.596,993.792 1583.85,1006.917 1567.693,1019.685 C1534.546,1045.878 1500.436,1070.061 1465.51,1092.254 C1430.585,1114.446 1394.843,1134.648 1358.434,1152.88 C1322.025,1171.111 1284.948,1187.372 1247.351,1201.682 C1209.754,1215.991 1171.637,1228.35 1133.148,1238.778 C1094.658,1249.206 1055.797,1257.702 1016.711,1264.288 C977.626,1270.873 938.315,1275.547 898.929,1278.329 C859.542,1281.111 820.079,1282.002 780.687,1281.021 C741.295,1280.04 701.975,1277.187 662.874,1272.481 C623.772,1267.776 584.89,1261.219 546.375,1252.83 C507.859,1244.44 469.711,1234.219 432.077,1222.184 C394.444,1210.15 357.325,1196.303 320.869,1180.664 C284.413,1165.024 248.619,1147.592 213.636,1128.387 C178.653,1109.182 144.481,1088.203 111.266,1065.472 C78.052,1042.74 35.11,1009.707 3.96,983.489 M2098.724,-0 C2104.527,82.267 2100.917,138.374 2091.08,220.046 C2051.734,546.734 1888.595,858.78 1612.238,1077.139 C1577.116,1104.89 1540.973,1130.511 1503.966,1154.023 C1466.96,1177.535 1429.089,1198.938 1390.51,1218.254 C1351.932,1237.569 1312.646,1254.796 1272.809,1269.956 C1232.972,1285.117 1192.584,1298.21 1151.802,1309.257 C1111.02,1320.304 1069.844,1329.305 1028.43,1336.281 C987.016,1343.256 945.365,1348.207 903.632,1351.153 C861.9,1354.099 820.086,1355.042 778.348,1354 C736.611,1352.959 694.948,1349.935 653.519,1344.948 C612.089,1339.961 570.891,1333.012 530.083,1324.121 C489.274,1315.231 448.854,1304.399 408.98,1291.646 C369.106,1278.894 329.777,1264.221 291.151,1247.648 C252.524,1231.076 214.6,1212.604 177.534,1192.253 C140.469,1171.903 104.262,1149.673 69.071,1125.587 C51.475,1113.543 34.133,1101.035 17.065,1088.066 M2175.936,-0 C2182.079,87.144 2176.829,143.251 2166.407,229.763 C2124.716,575.814 1951.895,906.348 1659.142,1137.635 C1621.94,1167.026 1583.657,1194.161 1544.459,1219.063 C1505.261,1243.965 1465.148,1266.632 1424.285,1287.089 C1383.422,1307.545 1341.81,1325.79 1299.615,1341.845 C1257.42,1357.901 1214.641,1371.767 1171.445,1383.466 C1128.249,1395.165 1084.635,1404.697 1040.77,1412.084 C996.905,1419.471 952.788,1424.712 908.585,1427.831 C864.383,1430.95 820.095,1431.947 775.887,1430.842 C731.679,1429.738 687.551,1426.533 643.67,1421.249 C599.788,1415.966 556.153,1408.604 512.93,1399.185 C469.706,1389.767 426.895,1378.292 384.661,1364.783 C342.428,1351.275 300.772,1335.732 259.861,1318.177 C218.949,1300.622 178.781,1281.055 139.523,1259.499 C100.265,1237.942 61.917,1214.396 24.644,1188.881 M2254.112,-0 C2260.614,92.277 2256.741,148.383 2245.701,239.991 C2223.621,423.208 2166.827,602.315 2076.802,766.23 C2031.79,848.187 1973.509,935.279 1912.065,1008.255 C1896.705,1026.499 1884.596,1040.888 1868.375,1057.985 C1852.155,1075.083 1831.822,1094.888 1800.015,1123.966 M1734.927,1184.517 C1695.536,1215.634 1654.897,1244.428 1613.199,1270.915 C1571.5,1297.402 1528.743,1321.581 1485.115,1343.468 C1441.487,1365.355 1396.988,1384.95 1351.807,1402.268 C1306.627,1419.585 1260.764,1434.626 1214.407,1447.405 C1168.051,1460.184 1121.201,1470.701 1074.047,1478.971 C1026.892,1487.242 979.432,1493.266 931.856,1497.059 C884.28,1500.852 836.587,1502.413 788.967,1501.759 C741.346,1501.105 693.798,1498.234 646.51,1493.163 C599.223,1488.092 552.196,1480.821 505.619,1471.363 C459.041,1461.906 412.913,1450.264 367.422,1436.451 C321.932,1422.638 277.079,1406.655 233.053,1388.517 C189.027,1370.379 145.827,1350.087 103.642,1327.654 C61.457,1305.222 56.617,1299.883 16.651,1273.187 M2336.884,3.022 C2343.763,100.702 2340.835,153.783 2329.145,250.753 C2305.766,444.694 2245.641,634.284 2150.339,807.79 C2102.688,894.543 2046.243,977.275 1981.199,1054.52 M1820.424,1218.442 C1800.966,1235.489 1780.98,1252.125 1760.469,1268.326 C1718.774,1301.26 1675.868,1331.665 1631.935,1359.568 C1588.003,1387.47 1543.046,1412.869 1497.249,1435.79 C1451.452,1458.711 1404.816,1479.154 1357.526,1497.143 C1310.236,1515.132 1262.292,1530.668 1213.881,1543.775 C1165.469,1556.882 1116.591,1567.56 1067.43,1575.835 C1018.269,1584.109 968.827,1589.98 919.289,1593.472 C869.751,1596.964 820.117,1598.077 770.573,1596.835 C721.029,1595.594 671.576,1591.998 622.398,1586.073 C573.221,1580.149 524.319,1571.894 475.88,1561.336 C427.44,1550.777 379.462,1537.914 332.133,1522.771 C284.804,1507.628 238.122,1490.206 192.274,1470.529 C146.426,1450.851 101.412,1428.919 57.418,1404.757 C35.421,1392.676 37.186,1392.86 15.722,1379.667 M2430.726,-0 C2438.001,103.363 2429.304,159.462 2416.931,262.074 C2392.184,467.297 2328.554,667.914 2227.7,851.51 C2202.486,897.408 2174.946,942.244 2145.106,985.821 M1878.57,1286.037 C1857.98,1304.075 1836.83,1321.677 1815.125,1338.82 C1771.005,1373.664 1725.605,1405.833 1679.12,1435.354 C1632.634,1464.875 1585.064,1491.747 1536.606,1515.997 C1488.147,1540.247 1438.801,1561.875 1388.763,1580.907 C1338.725,1599.939 1287.995,1616.375 1236.771,1630.241 C1185.547,1644.108 1133.828,1655.404 1081.812,1664.158 C1029.795,1672.911 977.48,1679.121 925.064,1682.813 C872.648,1686.506 820.131,1687.682 767.709,1686.366 C715.287,1685.051 662.961,1681.245 610.927,1674.974 C558.893,1668.703 507.151,1659.967 455.898,1648.794 C404.645,1637.62 353.882,1624.008 303.803,1607.983 C253.725,1591.959 204.332,1573.523 155.822,1552.701 C107.312,1531.879 59.684,1508.671 13.136,1483.103 M2517.441,4.533 C2525.133,113.874 2522.347,165.434 2509.255,273.978 C2483.069,491.067 2415.752,703.281 2309.059,897.488 C2295.722,921.764 2281.771,945.758 2267.207,969.446 M1971.994,1330.593 C1930.801,1370.546 1918.526,1376.69 1872.603,1412.955 C1779.268,1486.661 1680.51,1549.051 1577.996,1600.346 M274.013,1697.594 C168.075,1663.691 112.055,1645.228 13.585,1591.137 M3307.693,4.727 L3352.751,57.706 M3234.937,4.425 L3312.065,99.897 M3173.359,8.503 L3273.887,139.285 M3113.61,7.602 L3239.929,171.799 M3892.625,705.85 L4045.197,661.402 M3880.058,674.017 L4032.63,629.569 M3943.342,619.753 L4018.637,598.034 M3766.229,738.444 L3769.367,760.126 M3797.616,715.384 L3803.785,752.218 M3828.648,694.196 L3836.332,741.636 M3862.501,663.991 L3868.67,729.614 M3728.563,768.94 L3884.325,624.568 M3699.177,736.836 L3844.226,605.321 M3668.06,708.358 L3813.108,576.843 M3635.524,680.978 L3780.572,549.464 M3787.269,542.963 L3950.576,650.971 M3811.107,506.549 L3951.686,597.89 M3843.125,475.416 L3994.31,577.363 M3870.696,446.209 L4012.79,539.066 M4176.02,633.548 L4134.63,442.18 M4133.524,642.949 L4092.135,451.58 M4093.304,655.662 L4051.915,464.294 M4053.326,670.154 L4011.938,478.785 M4203.336,751.546 L4248.77,708.541 M4177.219,724.602 L4242.35,666.445 M4149.68,700.833 L4237.54,616.917 M4120.937,678.048 L4239.101,568.374 M4170.609,557.193 L4240.092,559.407 M4161.281,513.16 L4241.37,516.889 M4155.797,473.516 L4238.917,475.73 M4081.878,424.583 L4180.151,432.859 M3976.966,510.769 L4100.488,393.124 M3951.238,483.987 L4074.76,366.342 M3924.059,460.382 L4035.46,351.828 M3895.67,437.765 L3997.98,339.818 M4241.16,372.311 L4224.073,301.959 M4230.286,459.471 L4193.501,311.841 M4196.988,473.917 L4169.295,364.168 M4006.155,324.383 L4156.124,396.655 M4035.382,298.252 L4159.592,356.887 M4062.637,270.41 L4171.695,322.985 M4091.562,244.831 L4182.437,288.315 M4218.793,280.849 L4243.375,236.514 M4190.999,266.354 L4239.824,184.138 M4162.902,254.796 L4217.789,157.427 M4134.104,244.358 L4169.293,184.87 M3748.243,1109.401 L3671.952,1116.013 M3732.847,1141.647 L3673.223,1148.259 M3714.125,1174.183 L3677.229,1179.279 M3693.71,1206.776 L3682.574,1210.356 M3744.123,1034.789 L3752.774,943.901 M3703.024,1093.278 L3720.247,918.819 M3665.105,1093.073 L3675.899,963.614 M3635.475,1021.592 L3637.698,964.99 M3613.041,957.953 L3694.717,932.857 M3601.173,919.19 L3678.564,891.952 M3586.413,882.793 L3640.232,866.268 M3570.027,846.755 L3600.275,840.945 M3551.054,772.425 L3601.413,805.808 M3572.646,744.48 L3640.146,795.006 M3591.095,715.655 L3684.31,787.609 M3608.469,685.848 L3723.112,772.802 M3761.416,1110.198 L3687.996,1228.073 M3788.689,1138.178 L3720.572,1240.9 M3813.499,1156.846 L3749.169,1260.325 M3839.187,1180.393 L3768.796,1292.206 M4090.699,2468.166 L4014.974,2393.844 M4062.545,2497.029 L3986.82,2422.706 M4005.992,2495.471 L3962.087,2452.968 M3937.878,2338.178 L3815.416,2404.341 M3958.029,2373.102 L3844.657,2439.265 M3980.453,2405.112 L3823.897,2494.003 M3970.279,2452.332 L3884.181,2495.766 M4141.879,2300.396 L3996.227,2310.545 M4144.43,2340.635 L3964.685,2350.785 M4150.313,2379.272 L3970.568,2389.422 M4141.936,2415.673 L4046.286,2423.55 M4111.238,2266.349 L4049.599,2129.097 M4080.976,2280.245 L4019.336,2142.992 M4052.945,2296.266 L3991.306,2159.013 M4025.381,2313.585 L3963.742,2176.332 M3887.523,2219.305 L3855.478,2277.914 M3945.583,2196.491 L3868.081,2325.559 M3972.537,2235.779 L3897.308,2348.937 M3991.449,2282.782 L3957.13,2336.845 M3746.98,2295.923 L3764.671,2362.853 M3776.947,2287.47 L3801.456,2379.402 M3805.138,2276.699 L3831.92,2379.995 M3833.076,2264.646 L3859.858,2370.215 M3649.174,2443.156 L3712.438,2495.356 M3659.385,2396.675 L3777.198,2496.605 M3681.788,2362.733 L3829.147,2480.846 M3702.928,2327.607 L3850.288,2445.721 M3905.703,1532.196 L3910.948,1712.038 M3846.046,1555.601 L3849.684,1741.872 M3791.255,1568.266 L3794.893,1778.644 M3745.898,1578.881 L3751.144,1803.724 M3717.448,1067.097 L3855.662,1177.889 M3741.948,1036.289 L3880.162,1147.081 M3762.96,1004.451 L3901.174,1115.243 M3782.788,971.502 L3921.002,1082.295 M3713.806,1359.007 L3752.583,1346.808 M3704.896,1324.835 L3770.947,1303.545 M3693.368,1292.611 L3754.873,1275.866 M3680.406,1260.638 L3735.85,1245.409 M5197.647,1064.182 C5220.826,1061.828 5233.738,1060.622 5257.539,1060.622 C5477.792,1060.622 5673.925,1163.894 5800.158,1324.656 M5800.148,2175.618 C5673.915,2336.376 5477.785,2439.643 5257.536,2439.643 C4876.729,2439.643 4568.025,2130.939 4568.025,1750.133 C4568.025,1738.232 4568.325,1726.403 4568.922,1714.651 M5800.044,2113.962 C5682.789,2288.458 5483.571,2403.278 5257.536,2403.278 C4896.814,2403.278 4604.391,2110.855 4604.391,1750.133 C4604.391,1727.588 4605.533,1705.309 4607.763,1683.352 M5800.007,2043.881 C5695.603,2236.281 5491.825,2366.912 5257.537,2366.912 C4916.898,2366.912 4640.756,2090.771 4640.756,1750.133 C4640.757,1728.843 4641.835,1707.805 4643.941,1687.071 M5800.131,1956.661 C5716.883,2175.246 5505.346,2330.547 5257.537,2330.547 C4936.983,2330.547 4677.123,2070.687 4677.123,1750.133 C4677.123,1710.063 4681.183,1670.943 4688.915,1633.159 M5800.168,1789.709 C5779.896,2071.703 5544.697,2294.181 5257.537,2294.181 C4957.067,2294.181 4713.488,2050.603 4713.488,1750.133 C4713.488,1712.574 4717.294,1675.904 4724.541,1640.488 C4728.165,1622.78 4732.649,1605.385 4737.947,1588.349 M5216.236,1245.071 C5233.303,1243.337 5240.013,1242.449 5257.537,1242.449 C5537.922,1242.449 5765.22,1469.747 5765.22,1750.133 C5765.22,2030.518 5537.922,2257.816 5257.537,2257.816 C4977.151,2257.816 4749.854,2030.518 4749.854,1750.133 C4749.854,1715.084 4753.405,1680.866 4760.167,1647.817 C4766.931,1614.768 4776.904,1582.889 4789.75,1552.52 M5117.381,1300.004 C5148.262,1290.543 5179.549,1284.332 5209.347,1281.248 C5225.192,1279.639 5241.268,1278.815 5257.537,1278.815 C5517.838,1278.815 5728.854,1489.831 5728.854,1750.133 C5728.854,2010.434 5517.838,2221.45 5257.537,2221.45 C4997.235,2221.45 4786.219,2010.434 4786.219,1750.133 C4786.219,1717.595 4789.516,1685.828 4795.794,1655.146 C4802.073,1624.464 4811.333,1594.869 4823.257,1566.675 C4829.22,1552.578 4835.849,1538.831 4843.104,1525.475 M5656.124,1750.133 C5656.124,1970.266 5477.67,2148.719 5257.537,2148.719 C5037.403,2148.719 4858.95,1970.266 4858.95,1750.133 C4858.95,1722.616 4861.738,1695.75 4867.048,1669.804 C4872.357,1643.856 4880.188,1618.828 4890.273,1594.985 C4900.358,1571.142 4912.697,1548.484 4927.022,1527.279 C4941.348,1506.074 4957.661,1486.322 4975.693,1468.289 C4993.726,1450.257 5013.478,1433.944 5034.683,1419.618 C5055.888,1405.293 5078.546,1392.954 5102.389,1382.869 C5126.232,1372.784 5151.261,1364.953 5177.208,1359.644 C5203.155,1354.334 5230.02,1351.546 5257.537,1351.546 C5477.67,1351.546 5656.124,1529.999 5656.124,1750.133 L5656.124,1750.133 L5656.124,1750.133 M5619.758,1750.133 C5619.758,1950.182 5457.586,2112.354 5257.537,2112.354 C5057.488,2112.354 4895.315,1950.182 4895.315,1750.133 C4895.315,1725.127 4897.85,1700.712 4902.675,1677.132 C4907.5,1653.553 4914.616,1630.807 4923.781,1609.14 C4932.945,1587.472 4944.159,1566.882 4957.177,1547.611 C4970.196,1528.341 4985.021,1510.391 5001.408,1494.004 C5017.795,1477.616 5035.745,1462.792 5055.016,1449.773 C5074.286,1436.754 5094.876,1425.541 5116.544,1416.377 C5138.212,1407.212 5160.957,1400.096 5184.537,1395.271 C5208.117,1390.445 5232.531,1387.911 5257.537,1387.911 C5457.586,1387.911 5619.758,1550.083 5619.758,1750.133 L5619.758,1750.133 M5583.393,1750.132 C5583.393,1930.098 5437.502,2075.988 5257.537,2075.988 C5077.572,2075.988 4931.681,1930.098 4931.681,1750.132 C4931.681,1727.637 4933.96,1705.674 4938.301,1684.461 C4942.642,1663.249 4949.044,1642.787 4957.289,1623.295 C4965.533,1603.802 4975.621,1585.279 4987.332,1567.943 C4999.044,1550.608 5012.38,1534.46 5027.122,1519.718 C5041.864,1504.976 5058.012,1491.64 5075.348,1479.928 C5092.683,1468.216 5111.207,1458.129 5130.699,1449.884 C5150.191,1441.64 5170.653,1435.238 5191.866,1430.897 C5213.078,1426.556 5235.041,1424.277 5257.537,1424.277 C5437.502,1424.277 5583.393,1570.167 5583.393,1750.132 L5583.393,1750.132 M5547.027,1750.132 C5547.027,1910.014 5417.418,2039.623 5257.537,2039.623 C5097.656,2039.623 4968.046,1910.014 4968.046,1750.132 C4968.046,1730.147 4970.072,1710.635 4973.928,1691.79 C4977.784,1672.945 4983.472,1654.767 4990.796,1637.45 C4998.121,1620.133 5007.082,1603.677 5017.487,1588.276 C5027.892,1572.875 5039.739,1558.529 5052.836,1545.432 C5065.933,1532.335 5080.279,1520.487 5095.68,1510.083 C5111.081,1499.678 5127.537,1490.717 5144.854,1483.392 C5162.171,1476.067 5180.35,1470.38 5199.194,1466.524 C5218.04,1462.668 5237.552,1460.642 5257.537,1460.642 C5417.418,1460.642 5547.027,1590.252 5547.027,1750.132 L5547.027,1750.132 L5547.027,1750.132 M5510.662,1750.132 C5510.662,1889.93 5397.334,2003.257 5257.537,2003.257 C5117.74,2003.257 5004.412,1889.93 5004.412,1750.132 C5004.412,1732.658 5006.183,1715.597 5009.555,1699.119 C5012.927,1682.641 5017.9,1666.747 5024.304,1651.605 C5030.708,1636.463 5038.544,1622.075 5047.642,1608.608 C5056.739,1595.142 5067.099,1582.598 5078.551,1571.146 C5090.002,1559.695 5102.546,1549.335 5116.012,1540.238 C5129.479,1531.14 5143.868,1523.304 5159.01,1516.9 C5174.151,1510.495 5190.046,1505.522 5206.523,1502.151 C5223.001,1498.779 5240.062,1497.008 5257.537,1497.008 C5397.334,1497.008 5510.662,1610.336 5510.662,1750.132 L5510.662,1750.132 M5088.234,1349.361 C5114.252,1338.356 5141.564,1329.811 5169.879,1324.017 C5198.193,1318.223 5227.51,1315.18 5257.537,1315.18 C5497.754,1315.18 5692.489,1509.915 5692.489,1750.133 C5692.489,1990.35 5497.754,2185.085 5257.537,2185.085 C5017.319,2185.085 4822.584,1990.35 4822.584,1750.133 C4822.584,1720.106 4825.627,1690.789 4831.421,1662.475 C4837.215,1634.16 4845.76,1606.848 4856.765,1580.83 C4867.77,1554.811 4881.235,1530.086 4896.867,1506.947 M5201.363,1100.36 C5223.32,1098.13 5234.991,1096.988 5257.536,1096.988 C5483.571,1096.988 5682.788,1211.807 5800.043,1386.302 M5205.081,1136.538 C5225.815,1134.432 5236.247,1133.353 5257.537,1133.353 C5491.825,1133.353 5695.603,1263.984 5800.007,1456.384 M5206.003,1171.862 C5498.356,1148.684 5716.176,1315.147 5800.128,1539.879 M5212.52,1208.893 C5230.809,1207.035 5238.76,1206.084 5257.539,1206.084 C5544.7,1206.084 5779.898,1428.562 5800.17,1710.556" fill-opacity="0" stroke="#003380" stroke-width="16.097" stroke-linecap="round"/>
  </g>
</svg>
