<?xml version="1.0" encoding="UTF-8" standalone="no"?>
<!DOCTYPE svg PUBLIC "-//W3C//DTD SVG 1.1//EN" "http://www.w3.org/Graphics/SVG/1.1/DTD/svg11.dtd">
<svg width="3740.015" height="2510.085" version="1.1" xmlns="http://www.w3.org/2000/svg" xmlns:xlink="http://www.w3.org/1999/xlink">
	<title/>
	<defs>
		<marker id="point" markerWidth="6" markerHeight="6" markerUnits="userSpaceOnUse" orient="auto" refX="0" refY="0"/>
	</defs>
	<marker id="point" markerWidth="6" markerHeight="6" markerUnits="userSpaceOnUse" orient="auto" refX="0" refY="0"/>
	<path d="M2225.695 2500.035C2274.217 2418.801 2315.107 2331.543 2347.081 2238.921C2363.096 2192.527 2376.534 2145.851 2387.471 2099.046C2398.409 2052.241 2406.847 2005.308 2412.865 1958.401C2418.882 1911.493 2422.479 1864.611 2423.735 1817.909C2424.991 1771.207 2423.905 1724.685 2420.557 1678.497M2350.384 2500.077C2389.271 2428.34 2422.77 2352.582 2450.181 2273.161C2467.424 2223.204 2481.89 2172.943 2493.664 2122.543C2505.438 2072.144 2514.522 2021.606 2520.999 1971.096C2524.237 1945.841 2526.824 1913.629 2528.77 1881.444C2530.716 1849.26 2532.021 1817.103 2532.696 1791.958M2481.207 2500.001C2511.323 2439.062 2537.902 2375.615 2560.602 2309.832C2597.713 2202.286 2622.871 2093.43 2636.808 1984.694C2650.746 1875.958 2653.462 1767.342 2645.691 1660.276M2618.788 2500.062C2640.928 2451.127 2660.986 2400.779 2678.818 2349.093C2718.741 2233.375 2745.804 2116.249 2760.793 1999.253C2775.783 1882.256 2778.7 1765.389 2770.333 1650.19C2768.242 1621.39 2767.32 1601.534 2765.705 1581.806C2764.09 1562.078 2761.782 1542.478 2756.919 1514.191M2763.951 2500.083C2778.775 2464.411 2792.585 2428.079 2805.337 2391.111C2826.803 2328.879 2844.811 2266.27 2859.467 2203.488C2866.795 2172.097 2864.714 2179.235 2870.379 2147.784M2917.418 2500.066C2925.506 2478.936 2933.267 2457.6 2940.694 2436.063C2986.844 2302.246 3009.552 2205.372 3026.871 2070.077M3079.89 2500.085C3081.764 2494.781 3083.62 2489.466 3085.457 2484.14C3135.047 2340.317 3168.656 2194.746 3187.263 2049.337C3191.915 2012.985 3187.057 2015.214 3189.849 1978.912M3252.154 2500.028C3298.924 2357.081 3331.122 2212.667 3349.574 2068.402C3359.565 1990.291 3365.527 1912.224 3367.591 1834.457C3369.655 1756.691 3367.821 1679.225 3362.221 1602.316C3351.022 1448.499 3324.757 1296.911 3284.479 1149.606M3434.933 2500.021C3476.317 2363.62 3505.48 2226.136 3523.042 2088.778C3533.768 2004.889 3540.167 1921.048 3542.38 1837.529C3544.592 1754.01 3542.619 1670.815 3536.601 1588.218C3524.566 1423.024 3496.352 1260.224 3453.089 1102.025C3431.457 1022.925 3406.064 944.976 3377.05 868.452C3348.035 791.929 3315.4 716.831 3279.285 643.435C3252.076 588.071 3222.465 533.169 3192.214 481.281C3181.901 463.609 3171.376 446.056 3160.643 428.626C3117.71 358.909 3071.439 291.169 3021.971 225.681C2962.545 147.013 2898.506 71.595 2830.098-0.093M3629.068 2500.01C3665.697 2370.228 3692.177 2239.735 3708.958 2109.41C3720.572 2019.224 3727.541 1929.119 3730.015 1839.387C3732.489 1749.654 3730.469 1660.295 3724.103 1571.6M252.872-0.027C210.298 17.345 168.343 36.2 127.092 56.494M810.899-0.055C593.491 21.716 382.72 82.915 188.684 178.364M2415.067 925.809C2387.252 880.617 2344.415 819.563 2312.364 777.11C2248.261 692.206 2175.868 613.14 2095.919 541.341C1936.021 397.743 1745.896 283.214 1531.407 209.189C1093.297 57.989 633.853 101.6 246.244 292.251M2303.091 971.411C2277.251 929.424 2249.401 888.627 2219.625 849.186C2160.074 770.303 2092.821 696.844 2018.547 630.135C1870 496.719 1693.371 390.307 1494.107 321.523C1087.05 181.012 660.164 221.514 300.016 398.64M2193.396 1002.143C2169.401 963.15 2160.681 953.118 2133.03 916.488C2077.729 843.228 2015.275 775.005 1946.301 713.05C1808.353 589.141 1644.325 490.309 1459.277 426.42C1081.217 295.892 684.737 333.492 350.233 497.989M1426.764 524.337C1075.774 403.13 707.676 438.023 397.112 590.731Z" style="fill: none; stroke: black; stroke-width: 15; marker-start: url(#point)"/>
</svg>
