<?xml version="1.0" encoding="UTF-8" standalone="no"?>
<!DOCTYPE svg PUBLIC "-//W3C//DTD SVG 1.1//EN" "http://www.w3.org/Graphics/SVG/1.1/DTD/svg11.dtd">
<svg width="4317.121287904951" height="5853.422034775514" version="1.1" xmlns="http://www.w3.org/2000/svg" xmlns:xlink="http://www.w3.org/1999/xlink">
	<title/>
	<defs>
		<marker id="point" markerWidth="6" markerHeight="6" markerUnits="userSpaceOnUse" orient="auto" refX="0" refY="0"/>
	</defs>
	<marker id="point" markerWidth="6" markerHeight="6" markerUnits="userSpaceOnUse" orient="auto" refX="0" refY="0"/>
	<path d="M3227.878274 4429.214553L3219.74303 4404.008569L3211.258404 4379.047994L3202.421365 4354.347372L3193.228805 4329.921586L3183.677542 4305.785864L3173.764319 4281.955787L3163.485813 4258.44729L3152.838633 4235.276668L3141.819325 4212.46058L3130.424376 4190.01605L3124.588228 4178.943574L3118.684853 4168.019261L3112.714355 4157.243992L3106.676843 4146.618645L3100.57243 4136.144101L3094.401236 4125.821238L3088.163385 4115.650933L3081.859006 4105.63406L3075.488233 4095.771493L3069.051205 4086.064099L3062.548341 4076.512465L3055.97962 4067.117688L3049.345214 4057.880604L3042.645302 4048.802045L3035.880064 4039.882835L3029.049685 4031.123793L3022.154353 4022.525729L3015.194261 4014.089447L3008.169602 4005.81574L3001.080575 3997.705394L2993.926959 3989.759316L2986.709374 3981.978146L2979.428022 3974.362644L2972.083106 3966.913558L2964.674831 3959.631624L2957.203405 3952.517565L2949.669038 3945.57209L2942.071942 3938.795897L2934.412328 3932.189666L2926.690412 3925.754064L2918.906387 3919.489769L2911.060447 3913.397438L2903.152816 3907.477685L2895.183719 3901.731106L2887.153379 3896.158279L2879.062022 3890.759763L2870.909875 3885.5361L2862.697164 3880.487812L2854.424117 3875.615401L2846.09096 3870.919347M3313.98586 4324.342766L3306.671883 4302.888838L3299.122837 4281.613095L3291.337035 4260.524009L3283.312761 4239.630226L3275.048271 4218.940566L3266.541793 4198.46403L3257.791532 4178.209801L3248.795667 4158.187242L3239.552355 4138.405904L3230.05973 4118.875523L3223.974963 4106.750411L3217.819865 4094.784135L3211.594543 4082.97775L3205.299107 4071.332315L3198.933678 4059.848887L3192.498381 4048.528525L3185.993345 4037.37229L3179.418708 4026.381237L3172.774613 4015.556425L3166.061207 4004.898906L3159.278877 3994.409831L3152.427636 3984.090058L3145.507647 3973.940645L3138.519075 3963.962647L3131.462088 3954.15711L3124.336861 3944.525076L3117.143571 3935.067578L3109.882398 3925.78564L3102.553526 3916.680279L3095.157142 3907.752501L3091.314074 3903.260977L3087.233091 3898.639082L3082.940878 3893.908137L3078.463881 3889.089286L3073.828277 3884.203465L3069.059952 3879.271375L3064.184476 3874.313463L3059.227089 3869.349897L3054.212684 3864.400553L3049.165795 3859.484998L3044.110766 3854.622619L3039.071229 3849.832206L3034.070625 3845.13236L3029.132023 3840.541357L3024.27814 3836.077153L3019.531342 3831.757393L3014.913667 3827.599425L3010.446846 3823.620314L3006.152325 3819.836866L3002.051298 3816.265651M3406.813245 4215.404765L3400.543982 4197.724555L3394.127484 4180.163899L3387.562914 4162.727237L3380.849427 4145.419087L3373.986168 4128.244048L3366.972276 4111.206797L3359.806881 4094.312091L3352.489109 4077.564771L3345.018078 4060.96976L3337.392901 4044.532064L3324.653603 4018.128615L3311.621562 3992.408925L3298.297662 3967.383337L3284.682902 3943.062239L3270.778381 3919.45604L3256.585296 3896.575138L3242.104933 3874.429898L3227.338659 3853.030618L3212.287915 3832.387498L3196.954212 3812.510615L3181.339343 3793.409645L3165.44468 3775.094588L3149.271911 3757.574931L3132.822768 3740.859904L3116.099019 3724.958448L3099.102465 3709.879181L3081.834931 3695.630364L3064.298263 3682.219873L3046.494321 3669.655164L3028.424976 3657.943241M3507.145947 4102.300727L3502.103351 4088.44264L3496.977914 4074.655931L3491.7693 4060.942617L3486.477172 4047.304742L3481.10119 4033.744379L3475.641013 4020.263631L3470.096297 4006.864627L3464.466698 3993.549531L3458.751868 3980.320531L3452.951462 3967.179849L3439.716522 3938.220449L3426.17715 3909.989693L3412.334143 3882.500144L3398.188423 3855.764474L3383.741031 3829.795433L3368.99312 3804.605811L3353.945943 3780.208409L3338.600847 3756.615998L3322.959263 3733.841284L3307.022704 3711.896863L3290.792859 3690.79475L3274.271339 3670.547578L3257.459859 3651.167359L3240.360187 3632.665831L3222.974133 3615.05441L3205.303544 3598.344146L3187.350297 3582.54568L3169.116293 3567.6692L3150.603451 3553.724394L3131.813702 3540.720411L3127.244599 3537.677283L3122.975446 3534.803344L3118.968647 3532.08351L3115.187054 3529.503258L3111.593922 3527.048567L3108.152881 3524.705879L3104.827901 3522.462055L3101.583273 3520.304341L3098.383583 3518.22035L3095.193703 3516.198041L3091.978779 3514.22571L3088.704229 3512.291992L3085.335743 3510.385869L3081.839289 3508.496676L3078.18113 3506.614132L3074.327839 3504.728367L3070.246325 3502.829962L3065.903867 3500.909993L3061.268152 3498.960092L3056.307319 3496.972506M3615.637818 3984.607754L3611.978161 3974.692131L3608.279971 3964.811564L3604.543152 3954.966734L3600.76761 3945.15833L3596.95325 3935.387047L3593.099977 3925.653587L3589.207695 3915.95866L3585.276309 3906.302985L3581.305722 3896.687285L3577.29584 3887.112292L3570.472768 3871.123683L3563.570675 3855.326497L3556.589629 3839.722599L3549.529704 3824.313869L3542.390985 3809.102201L3535.173566 3794.089503L3527.877551 3779.277693L3520.503051 3764.668701L3513.050188 3750.264465L3505.519089 3736.066933L3502.165707 3729.84306L3499.541541 3725.033169L3497.449581 3721.291752L3495.697078 3718.275504L3494.094173 3715.642635L3492.453069 3713.052472L3490.587725 3710.165346L3488.314101 3706.642764L3485.450957 3702.147896L3481.821199 3696.34635M3733.021701 3862.191759L3730.874735 3856.396173L3728.715863 3850.611863L3726.545076 3844.838957L3724.362366 3839.077581L3722.167721 3833.327864L3719.961134 3827.589935L3717.742596 3821.863925L3715.512095 3816.149964L3713.269624 3810.448184L3711.015173 3804.758717L3697.278383 3770.687521L3683.983407 3738.854769L3670.885812 3708.89795L3657.759703 3680.461456L3644.396423 3653.19683L3630.603702 3626.763256L3616.205284 3600.828288L3601.041076 3575.06888L3584.967874 3549.172749L3567.860695 3522.840113M3860.076067 3735.116335L3859.544623 3733.673658L3859.012581 3732.231609L3858.479937 3730.790194L3857.946685 3729.349419L3857.412822 3727.909289L3856.878343 3726.46981L3856.343242 3725.030989L3855.807516 3723.59283L3855.271159 3722.15534L3854.734167 3720.718524L3840.051707 3682.351584L3825.031354 3644.838494L3809.673657 3608.201015L3793.979357 3572.461457L3777.949373 3537.642633L3761.584787 3503.767803L3744.886838 3470.860624L3727.856906 3438.94508L3710.496503 3408.045415L3692.807262 3378.186057L3688.686108 3371.694906L3685.139278 3366.65029L3682.006853 3362.699939L3679.133645 3359.494569L3676.367815 3356.687166L3673.560026 3353.932561L3670.563146 3350.887324L3667.232498 3347.209957L3663.426667 3342.56143L3659.008881 3336.606041M3997.544859 3603.439382L3983.323993 3565.077262L3968.806373 3527.485406L3953.992463 3490.684494L3938.882879 3454.695796L3923.47838 3419.541137L3907.779856 3385.242858L3891.788321 3351.823775L3875.504908 3319.307131L3858.930853 3287.716537L3842.067495 3257.075915L3832.816866 3240.89069L3823.482127 3224.994868L3814.063521 3209.392318L3804.561298 3194.086915L3794.975712 3179.082536L3785.307026 3164.383058L3775.555504 3149.992352L3765.721421 3135.91428L3755.805053 3122.152689L3745.806681 3108.711407L3735.726728 3095.5944L3725.565354 3082.805277L3715.322859 3070.347776L3704.99955 3058.225596L3694.595735 3046.442392L3684.111726 3035.001768L3673.547835 3023.907271L3662.90438 3013.162387L3652.181678 3002.770538L3641.38005 2992.735068L3619.541646 2973.746206L3597.391291 2956.221085L3574.931553 2940.18329L3552.165006 2925.654702L3529.094215 2912.655323L3505.721736 2901.203121L3482.050104 2891.313869L3458.081825 2883.001009L3433.819375 2876.275531L3409.265186 2871.145867M4146.278344 3467.653395L4133.003156 3430.971681L4119.48833 3394.931257L4105.734273 3359.549577L4091.741494 3324.84462L4077.510597 3290.834873L4063.042274 3257.539313L4048.337303 3224.97738L4033.396541 3193.16895L4018.220921 3162.134301L4002.811442 3131.894073L3993.2859 3113.82503L3983.67381 3096.064971L3973.975428 3078.618751L3964.19102 3061.491255L3954.320856 3044.687395L3944.365214 3028.2121L3934.324381 3012.070314L3924.198648 2996.266986L3913.988312 2980.807072L3903.693676 2965.69552L3893.314832 2950.937526L3882.852408 2936.537777L3872.306717 2922.501173L3861.678074 2908.832579L3850.966798 2895.536823L3840.173214 2882.618685L3829.297648 2870.082889L3818.340429 2857.934098L3807.301891 2846.176902L3796.182367 2834.815811L3773.702058 2813.299283L3750.902067 2793.418927L3727.785212 2775.207061L3704.354327 2758.693899L3680.612241 2743.907274L3656.561779 2730.872383L3632.20575 2719.61154L3607.546941 2710.143943L3582.588106 2702.485481L3557.331964 2696.648546L3544.593096 2694.416097L3531.780976 2692.641976L3518.895918 2691.326695L3505.938235 2690.470528L3492.908236 2690.073507L3479.806226 2690.135428L3466.632506 2690.655843L3453.387372 2691.634067L3440.071117 2693.069176L3426.68403 2694.960008L3413.226193 2697.305509L3399.698142 2700.103654L3386.100156 2703.352595L3372.432505 2707.050256L3358.695456 2711.194343L3344.889268 2715.78235L3331.014196 2720.81156L3317.070486 2726.279054L3303.05838 2732.181717L3288.978113 2738.516246L3278.309248 2743.576815L3267.584698 2748.891876L3256.816915 2754.452527L3246.018109 2760.2494L3235.200244 2766.272664L3224.375039 2772.512045L3213.553963 2778.956837L3202.748231 2785.59592L3191.968809 2792.417774L3181.22641 2799.410501L3177.570141 2801.835242L3173.909667 2804.284787L3170.245003 2806.759053L3166.57616 2809.257955L3162.903154 2811.781407L3159.225996 2814.329324L3155.5447 2816.901621L3151.859281 2819.498212L3148.16975 2822.119009L3144.476121 2824.763925L3129.660283 2835.583864L3114.778692 2846.783999L3099.831496 2858.359292L3084.81884 2870.304633L3069.740859 2882.614847L3054.597682 2895.284699L3039.38943 2908.308907L3024.116218 2921.682145L3008.778152 2935.399056L2993.375331 2949.454253L2974.786443 2966.778444L2956.104408 2984.573575L2937.329355 3002.830239L2918.461395 3021.539035L2899.500624 3040.690579L2880.447123 3060.275517L2861.300959 3080.284544L2842.062183 3100.708407L2822.730832 3121.537924L2803.30693 3142.763991M4307.121288 3328.357846L4294.822365 3293.21079L4282.336675 3258.590752L4269.664383 3224.512123L4256.805723 3190.989754L4243.760988 3158.038956L4230.530536 3125.675485L4217.114779 3093.915533L4203.514184 3062.775716L4189.729271 3032.273054L4175.760605 3002.424952L4165.987287 2982.162041L4156.126487 2962.227102L4146.178436 2942.626188L4136.143374 2923.365421L4126.021549 2904.450981L4115.813219 2885.889106L4105.518648 2867.68608L4095.138109 2849.84823L4084.671881 2832.381915L4074.120251 2815.293523L4063.483424 2798.589271L4052.761853 2782.275749L4041.955825 2766.35937L4031.065634 2750.846535L4020.091579 2735.743625L4009.033963 2721.056989L3997.893094 2706.792933L3986.669284 2692.957708L3975.362849 2679.5575L3963.974109 2666.598413M260.067616 5718.698786L246.438073 5731.328335L232.812791 5743.923692L219.193074 5756.484577L205.580554 5769.010707L191.977303 5781.501802L178.386003 5793.957584L164.810196 5806.377775L151.254666 5818.762097L137.726042 5831.110275L124.233798 5843.422035M792.321899 5160.842361L726.949662 5225.641818L661.633499 5289.947218L596.425869 5353.712932L531.404481 5416.895283L466.688852 5479.45232L402.472467 5541.343609L339.090023 5602.530059L277.17129 5662.97375L218.032025 5722.637797L164.768857 5781.486215M2513.067068 3642.047518L2500.355757 3647.59686L2486.750092 3653.786796L2472.467384 3660.519551L2457.722582 3667.693292L2442.728008 3675.201845L2427.693169 3682.934563L2412.824647 3690.776364L2398.326081 3698.607902L2384.398258 3706.305902L2371.239317 3713.743607L2345.707774 3728.655196L2319.949602 3744.323235L2293.964733 3760.735928L2267.75299 3777.881217L2241.314084 3795.746814L2214.647618 3814.32023L2187.753079 3833.588811L2160.629842 3853.539764L2133.277164 3874.16019L2105.694186 3895.437111L2049.833217 3939.908402L1993.03757 3986.849429L1935.296047 4036.156339L1876.595538 4087.726467L1816.921044 4141.45901L1756.25571 4197.255628L1694.58089 4255.020967L1631.876246 4314.663123L1568.119876 4376.094032L1503.288517 4439.229799L1369.890469 4570.711691L1236.748796 4703.279651L1103.904969 4836.146109L971.525968 4968.627623L839.965998 5100.125282L709.89958 5230.108138L582.628726 5358.099386L460.858491 5483.664986L350.831675 5606.40442L267.964264 5725.943252M2422.436764 3761.31344L2410.781358 3766.159158L2399.072033 3771.189538L2387.308867 3776.403601L2375.491931 3781.800342L2363.62129 3787.378735L2351.697006 3793.137731L2339.719136 3799.07626L2327.68773 3805.193232L2315.602835 3811.487537L2303.46449 3817.958048L2279.027848 3831.42266L2254.377934 3845.577934L2229.514929 3860.414176L2204.438931 3875.92146L2179.149951 3892.089652L2153.647912 3908.908435L2127.932652 3926.367329L2102.003919 3944.455717L2075.861377 3963.16287L2049.504601 3982.477966L1996.146745 4022.888103L1941.924917 4065.598733L1886.832745 4110.522183L1830.862633 4157.571285L1774.005891 4206.659947L1716.252886 4257.703667L1657.593266 4310.620001L1598.016245 4365.32898L1537.510991 4421.753477L1476.067134 4479.81953L1349.925982 4600.988892L1224.539777 4723.457388L1100.126286 4846.480826L977.100199 4969.405648L856.178962 5091.65311L738.585147 5212.705622L626.444583 5332.095155L523.573452 5449.393523L436.903467 5564.204353L378.077994 5676.156524M2331.084409 3875.101294L2320.755997 3879.284013L2311.629046 3883.116741L2303.382268 3886.715292L2295.697632 3890.200407L2288.259742 3893.696794L2280.755433 3897.332538L2272.873588 3901.238856L2264.305206 3905.550209L2254.743722 3910.404753L2243.885615 3915.945129L2220.573135 3928.12719L2197.062155 3940.94004L2173.353179 3954.375659L2149.44665 3968.425827L2125.342952 3983.082137L2101.042406 3998.336016L2076.54528 4014.178746L2051.85178 4030.601475L2026.962062 4047.595241L2001.876226 4065.150987L1951.116492 4101.911891L1899.572416 4140.810497L1847.243279 4181.772714L1794.127936 4224.724516L1740.225055 4269.592419L1685.53341 4316.303916L1630.052281 4364.787883L1573.781948 4414.974941L1516.724342 4466.797795L1458.883888 4520.191527L1340.50096 4631.819047L1223.449961 4744.8972L1108.122112 4858.727976L995.157287 4972.69164L885.564357 5086.23405L780.923075 5198.855502L683.71397 5310.10109L597.807686 5419.552503L528.985073 5526.821127L484.806318 5631.54234M1450.280195 4559.973281L1339.911327 4662.782962L1231.450188 4767.14434L1125.425681 4872.406508L1022.63386 4977.985736L924.24421 5083.355363L831.953336 5188.036751L748.186887 5291.591337L676.303703 5393.613766L620.632559 5493.726035L585.981593 5591.572575Z" style="fill: none; stroke: black; stroke-width: 15; marker-start: url(#point)"/>
</svg>
