<?xml version="1.0" encoding="UTF-8" standalone="no"?>
<!DOCTYPE svg PUBLIC "-//W3C//DTD SVG 1.1//EN" "http://www.w3.org/Graphics/SVG/1.1/DTD/svg11.dtd">
<svg width="5810.011" height="2516.481" version="1.1" xmlns="http://www.w3.org/2000/svg" xmlns:xlink="http://www.w3.org/1999/xlink">
	<title/>
	<defs>
		<marker id="point" markerWidth="6" markerHeight="6" markerUnits="userSpaceOnUse" orient="auto" refX="0" refY="0"/>
	</defs>
	<marker id="point" markerWidth="6" markerHeight="6" markerUnits="userSpaceOnUse" orient="auto" refX="0" refY="0"/>
	<path d="M1399.528 526.829C1048.538 405.623 680.44 440.516 369.876 593.224M2166.161 1004.636C2142.165 965.642 2133.445 955.611 2105.794 918.981C2050.493 845.721 1988.039 777.497 1919.065 715.543C1781.117 591.634 1617.09 492.802 1432.041 428.913C1053.981 298.385 657.501 335.985 322.997 500.482M2275.855 973.903C2250.015 931.917 2222.165 891.12 2192.389 851.678C2132.838 772.796 2065.585 699.336 1991.312 632.628C1842.765 499.211 1666.136 392.799 1466.872 324.016C1059.814 183.504 632.929 224.007 272.781 401.133M2387.831 928.302C2360.016 883.11 2317.179 822.055 2285.128 779.603C2221.025 694.699 2148.632 615.633 2068.683 543.833C1908.785 400.235 1718.66 285.706 1504.172 211.682C1066.061 60.482 606.617 104.093 219.008 294.744M2504.938 881.507C2491.149 856.53 2496.052 868.302 2481.087 843.99C2451.157 795.366 2418.899 748.12 2384.411 702.445C2315.435 611.094 2237.54 526.026 2151.514 448.777C1979.463 294.279 1774.89 171.061 1544.101 91.427C1401.288 42.149 1256.368 12.111 1112.13-0.117M811.529-0.134C584.273 19.049 363.764 81.335 161.448 180.857M2641.047 851.639C2626.215 824.775 2610.745 798.257 2594.648 772.108C2562.455 719.812 2527.757 668.998 2490.661 619.874C2416.47 521.625 2332.686 430.133 2240.157 347.052C2080.069 203.31 1893.805 84.747 1685.755-0.07M231.821-0.045C187.124 18.017 143.103 37.711 99.856 58.987M2778.883 804.288C2762.936 775.407 2733.445 723.324 2716.137 695.212C2681.522 638.987 2644.215 584.356 2604.33 531.541C2524.559 425.912 2434.474 327.549 2334.988 238.229C2235.885 149.254 2127.452 69.252 2010.59-0.016M3408.454 2500.015C3449.437 2364.434 3478.352 2227.79 3495.807 2091.271C3506.533 2007.382 3512.931 1923.54 3515.144 1840.022C3517.357 1756.503 3515.384 1673.307 3509.366 1590.71C3497.33 1425.516 3469.116 1262.717 3425.853 1104.518C3404.222 1025.418 3378.828 947.469 3349.814 870.945C3320.8 794.421 3288.164 719.324 3252.049 645.927C3224.841 590.563 3195.23 535.661 3164.979 483.773C3154.665 466.101 3144.14 448.548 3133.407 431.119C3090.474 361.402 3044.203 293.661 2994.735 228.174C2934.633 148.61 2869.811 72.371 2800.524-0.048M3679.794 1403.014C3674.457 1359.035 3672.339 1353.831 3664.886 1310.294C3649.377 1220.807 3629.87 1133.7 3607.732 1052.235C3584.585 967.366 3557.392 883.746 3526.303 801.666C3495.214 719.586 3460.229 639.047 3421.497 560.34C3401.797 520.322 3381.439 481.405 3360.609 443.69C3339.388 405.289 3317.25 367.382 3294.212 330.007C3248.137 255.256 3198.465 182.629 3145.345 112.419C3116.424 74.192 3086.48 36.682 3055.54-0.065M2455.198 2500.006C2484.809 2439.829 2510.975 2377.212 2533.365 2312.325C2570.477 2204.778 2595.635 2095.922 2609.573 1987.186C2623.51 1878.45 2626.226 1742.634 2609.388 1629.523M2592.667 2500.085C2614.366 2451.926 2634.05 2402.403 2651.582 2351.585C2691.506 2235.868 2718.568 2118.742 2733.558 2001.745C2748.547 1884.749 2751.465 1767.882 2743.098 1652.683C2741.006 1623.883 2740.084 1604.026 2738.469 1584.298C2736.854 1564.57 2716.413 1508.703 2711.549 1480.417M2199.954 2500.019C2247.822 2419.497 2288.2 2333.083 2319.845 2241.414C2335.861 2195.02 2346.276 2172.522 2357.213 2125.717M2324.502 2500.066C2362.814 2429.07 2395.853 2354.151 2422.946 2275.654C2440.188 2225.697 2454.654 2175.436 2466.428 2125.036C2478.203 2074.636 2487.286 2024.099 2493.763 1973.589C2497.001 1948.334 2496.566 1964.478 2498.512 1932.293M3225.735 2500.018C3272.064 2357.888 3303.993 2214.317 3322.338 2070.894C3332.33 1992.784 3338.292 1914.717 3340.355 1836.95C3342.419 1759.184 3340.586 1681.718 3334.986 1604.809C3323.786 1450.992 3297.521 1299.404 3257.244 1152.099M2737.754 2500.072C2752.185 2465.204 2765.648 2429.707 2778.102 2393.603C2799.567 2331.372 2817.575 2268.762 2832.231 2205.981C2839.559 2174.59 2837.478 2181.728 2843.143 2150.277M2891.13 2500.076C2898.877 2479.757 2906.322 2459.249 2913.459 2438.556C2959.608 2304.739 2982.316 2207.865 2999.636 2072.57M3053.536 2500.078C3055.111 2495.604 3056.673 2491.122 3058.221 2486.632C3107.812 2342.81 3141.421 2197.239 3160.027 2051.83C3164.679 2015.478 3159.821 2017.707 3162.613 1981.405M3602.536 2500.004C3638.801 2371.046 3665.049 2241.391 3681.723 2111.903C3693.336 2021.717 3700.305 1931.612 3702.779 1841.879C3705.253 1752.147 3703.233 1662.787 3696.867 1574.093M3707.029 1400.521C3701.693 1356.543 3699.574 1351.338 3692.122 1307.801C3676.613 1218.314 3657.106 1131.207 3634.968 1049.742C3611.821 964.873 3584.628 881.253 3553.539 799.173C3522.45 717.094 3487.465 636.554 3448.733 557.847C3429.033 517.829 3408.674 478.912 3387.844 441.197C3366.624 402.796 3344.486 364.89 3321.448 327.514C3275.373 252.763 3225.7 180.137 3172.581 109.926C3144.314 72.564 3115.07 35.887 3084.873-0.063M3012.199 522.574C2972.225 457.657 2929.143 394.58 2883.084 333.601C2792.454 213.613 2694.572 106.022 2581.892 4.233M2843.299 567.628C2806.094 507.202 2795.996 491.346 2753.126 434.586C2667.388 321.064 2570.566 215.353 2463.639 119.362C2417.172 77.647 2368.796 37.768 2318.593-0.119M2806.119 801.796C2790.172 772.914 2760.68 720.831 2743.373 692.719C2708.758 636.494 2671.451 581.863 2631.565 529.049C2551.794 423.42 2461.71 325.056 2362.224 235.737C2264.288 147.809 2157.241 68.646 2041.953-0.056M2668.283 849.146C2653.451 822.283 2637.981 795.764 2621.884 769.616C2589.69 717.319 2554.993 666.506 2517.897 617.381C2443.706 519.132 2359.922 427.64 2267.393 344.559C2108.843 202.198 1924.616 84.534 1718.979-0.11M2532.174 879.014C2518.385 854.037 2523.288 865.809 2508.323 841.497C2478.393 792.873 2446.135 745.627 2411.646 699.952C2342.67 608.602 2264.775 523.533 2178.75 446.284C2006.698 291.786 1802.125 168.568 1571.337 88.935C1437.625 42.797 1302.066 13.525 1166.948-0.055M2984.963 525.067C2944.989 460.149 2901.907 397.073 2855.848 336.094C2764.483 215.132 2661.403 102.425 2547.636-0.025M2816.063 570.121C2778.858 509.695 2768.76 493.839 2725.891 437.078C2640.152 323.557 2543.33 217.845 2436.403 121.854C2388.914 79.222 2339.432 38.507 2288.042-0.123M3885.714 1363.316C3929.403 1273.088 3979.99 1186.2 4036.888 1103.662C4123.82 977.556 4225.516 861.637 4339.235 759.031L4646.306 485.214C4740.852 400.908 4840.838 321.476 4953.378 263.328C5000.658 238.899 5050.623 217.318 5103.604 212.296C5130.095 209.784 5157.13 211.523 5182.673 218.983C5208.215 226.443 5232.23 239.747 5251.001 258.607C5278.823 286.564 5293.934 325.822 5295.981 365.21C5298.028 404.598 5287.647 444.025 5270.033 479.315C5234.806 549.896 5172.953 602.757 5114 655.17C5017.238 741.195 4923.931 831.43 4821.101 910.102C4683.464 1015.404 4530.488 1098.683 4377.028 1179.198C4287.756 1226.036 4197.775 1272.228 4103.026 1306.665C4032.568 1332.273 3959.707 1351.267 3885.714 1363.316M3805.714 1417.602C3854.317 1317.181 3910.598 1220.476 3973.902 1128.611C4070.614 988.263 4183.756 859.247 4310.277 745.04L4651.909 440.285C4757.091 346.457 4868.321 258.037 4993.541 193.329C5046.14 166.148 5101.729 142.142 5160.672 136.556C5190.144 133.764 5220.222 135.699 5248.639 143.998C5277.056 152.296 5303.774 167.095 5324.66 188.075C5355.63 219.184 5372.454 262.873 5374.737 306.71C5377.021 350.547 5365.472 394.428 5345.873 433.706C5306.675 512.262 5237.843 571.101 5172.24 629.444C5064.584 725.184 4960.781 825.617 4846.376 913.181C4693.255 1030.377 4523.059 1123.067 4352.325 1212.681C4253.006 1264.81 4152.9 1316.221 4047.484 1354.549C3969.097 1383.05 3888.036 1404.19 3805.714 1417.602M4247.506 1946.269C4109.177 2015.443 3986.794 2119.252 3427.85 2417.705C3376.051 2445.364 3324.117 2472.887 3272.002 2500.121M3170.594 1001.845C3266.236 894.302 3289.521 878.596 3289.521 878.596L4223.353 34.635M4246.162 1865.271C4107.833 1934.445 3938.307 2076.826 3379.363 2375.279C3300.553 2417.36 3221.429 2459.128 3141.834 2500.041M3116.046 965.48C3211.688 857.937 3241.033 836.169 3241.033 836.169L4157.171 4.257M4246.288 1772.152C4107.958 1841.325 3865.576 2022.278 3306.632 2320.731C3192.377 2381.738 3077.462 2442.088 2961.411 2500.126M3040.284 920.023C3151.079 806.419 3168.302 781.621 3168.302 781.621L4025.548 2.86M4241.088 1655.828C4102.759 1725.002 3774.662 1961.669 3215.718 2260.122C3061.112 2342.675 2905.296 2424.024 2747.093 2500.072M2952.401 856.383C3048.043 748.84 3077.389 721.012 3077.389 721.012L3880.086 2.86M4246.236 1523.833C4107.906 1593.006 3689.809 1876.816 3130.865 2175.269C2917.004 2289.462 2700.827 2401.351 2479.22 2500.093M2852.396 792.744C2948.038 685.2 2992.536 636.159 2992.536 636.159L3680.076 2.86M3717.376 1645.14C3579.047 1714.314 3562.53 1767.719 3003.586 2066.172C2706.136 2224.998 2404.209 2379.366 2089.42 2500.104M2035.443 2506.481C2115.115 2372.982 2199.36 2242.212 2287.98 2114.478C2580.934 1692.224 2921.874 1303.29 3302.13 957.566L4247.273 105.047M3195.465 1032.147L2905.301 837.005L1840.241 1171.933L2551.228 1741.75M4572.297 791.624L4903.627 520.903M4590.479 811.827L4921.81 541.106M4606.642 834.05L4937.973 563.329M3660 1520C3714.998 1406.316 3778.687 1296.838 3850.326 1192.835C3959.765 1033.957 4087.799 887.899 4230.979 758.598L4617.579 413.588C4736.602 307.37 4862.461 207.256 5004.179 134.011C5063.7 103.249 5126.607 76.087 5193.308 69.769C5226.659 66.611 5260.695 68.802 5292.853 78.192C5325.009 87.582 5355.245 104.326 5378.884 128.063C5413.949 163.274 5433 212.73 5435.592 262.355C5438.184 311.98 5425.115 361.657 5402.933 406.124C5358.568 495.057 5280.655 561.675 5206.401 627.733C5084.571 736.115 4967.11 849.815 4837.644 948.949C4664.375 1081.622 4471.772 1186.557 4278.56 1288.01C4166.171 1347.025 4052.888 1405.227 3933.594 1448.619C3844.891 1480.883 3753.159 1504.816 3660 1520M4769.871 291.897L4769.871 336.001M4819.156 254.758L4819.156 304.569M4879.156 212.253L4879.156 254.931M1963.841 2499.948C2057.447 2337.935 2144.204 2192.594 2182.885 2141.012C2208.822 2106.425 2400.052 1846.586 2508.662 1721.75M1891.062 2499.67C1993.671 2321.218 2092.387 2154.607 2134.398 2098.585C2160.335 2063.999 2351.564 1810.221 2460.175 1685.384M1786.994 2499.77C1900.298 2301.662 2015.389 2105.75 2061.667 2044.037C2087.604 2009.45 2284.894 1767.794 2393.505 1642.958M1661.367 2500.014C1785.064 2282.631 1919.731 2051.467 1970.753 1983.428C1996.69 1948.841 2218.078 1694.936 2326.834 1570.227M1527.341 2501.851C1662.402 2263.036 1828.003 1975.782 1885.901 1898.575C1911.837 1863.988 2127.311 1628.393 2235.921 1503.557M1338.36 2502.223C1479.589 2250.859 1691.494 1878.993 1758.621 1789.479C1784.558 1754.892 2000.031 1519.297 2108.642 1394.46M2512.985 895.779C2632.871 785.206 2865.257 527.063 2865.257 527.063L3445.636-0.011M5525.948 2409.446L5596.14 2500.004M5568.94 2387.473L5653.835 2500.007M5616.484 2363.069L5717.181 2500.009M5661.815 2334.909L5779.674 2499.988M5706.202 2303.97L5800.007 2437.938M5755.761 2253.813L5800.011 2313.186M4268.442 730.992L4268.442 766.906Z" style="fill: none; stroke: black; stroke-width: 15; marker-start: url(#point)"/>
</svg>
