<?xml version="1.0" encoding="UTF-8" standalone="no"?>
<!DOCTYPE svg PUBLIC "-//W3C//DTD SVG 1.1//EN" "http://www.w3.org/Graphics/SVG/1.1/DTD/svg11.dtd">
<svg width="6227.447251277649" height="5880.623265966315" version="1.1" xmlns="http://www.w3.org/2000/svg" xmlns:xlink="http://www.w3.org/1999/xlink">
	<title/>
	<defs>
		<marker id="point" markerWidth="6" markerHeight="6" markerUnits="userSpaceOnUse" orient="auto" refX="0" refY="0"/>
	</defs>
	<marker id="point" markerWidth="6" markerHeight="6" markerUnits="userSpaceOnUse" orient="auto" refX="0" refY="0"/>
	<path d="M1424.75316 4587.322632L1314.371724 4690.129987L1205.968064 4794.488319L1100.09208 4899.747797L997.574959 5005.325309L899.644228 5110.694455L808.090472 5215.37658L725.48488 5318.932905L655.389993 5420.957708L602.359568 5521.072514L571.316355 5618.921204M2306.770657 3902.204272L2296.401076 3906.398466L2287.23855 3910.240985L2278.960549 3913.848065L2271.247782 3917.340831L2263.783584 3920.844346L2256.253512 3924.487024L2248.345165 3928.400388L2239.748243 3932.71918L2230.154875 3937.58181L2219.260215 3943.131139L2195.86994 3955.331421L2172.282904 3968.161158L2148.499618 3981.612375L2124.520538 3995.676893L2100.346054 4010.346353L2075.976501 4025.612229L2051.412153 4041.465849L2026.653229 4057.898411L2001.699894 4074.901002L1976.55226 4092.464616L1925.674211 4129.238443L1874.019126 4168.146643L1821.586359 4209.115536L1768.374866 4252.071508L1714.38344 4296.941469L1659.611032 4343.653295L1604.057144 4392.136221L1547.722363 4442.321211L1490.609026 4494.141283L1432.72211 4547.53181L1314.278051 4659.151783L1197.21773 4772.223131L1081.945978 4886.048885L969.128721 5000.009828L859.823886 5113.551933L755.70306 5226.17532L659.416322 5337.424694L575.131186 5446.881205L509.071941 5554.155605L469.208161 5658.88257M2397.770158 3788.422407L2386.07041 3793.281393L2374.317176 3798.324584L2362.510533 3803.551003L2350.650552 3808.95965L2338.7373 3814.549504L2326.770839 3820.319522L2314.751226 3826.26864L2302.678511 3832.395774L2290.552742 3838.69982L2278.373959 3845.179655L2253.858048 3858.661871L2229.130647 3872.833175L2204.191955 3887.683928L2179.04208 3903.204257L2153.681048 3919.384085L2128.108794 3936.213152L2102.325165 3953.681036L2076.329923 3971.777181L2050.122739 3990.490915L2023.703201 4009.811477L1970.224515 4050.230031L1915.889079 4092.945569L1860.690505 4137.870921L1804.621188 4184.919406L1747.672425 4234.005398L1689.83458 4285.044837L1631.097304 4337.955691L1571.449833 4392.658371L1510.881381 4449.076097L1449.38167 4507.135217L1323.151 4628.291465L1197.710817 4750.749372L1073.283044 4873.765699L950.294067 4996.687247L829.489212 5118.9352L712.155006 5239.991589L600.564367 5359.387794L498.872213 5476.694901L414.741468 5591.51572L360.974589 5703.47827M2488.027872 3669.175713L2475.270361 3674.73958L2461.616379 3680.944282L2447.283879 3687.691754L2432.488455 3694.879911L2417.443081 3702.402356L2402.357918 3710.148262L2387.440205 3718.002394L2372.89424 3725.845297L2358.921467 3733.553609L2345.720685 3741.00052L2320.109808 3755.928355L2294.27424 3771.610836L2268.213908 3788.036237L2241.928632 3805.192576L2215.418122 3823.067641L2188.681978 3841.649024L2161.719684 3860.924152L2134.530612 3880.880314L2107.114016 3901.504694L2079.469034 3922.784397L2023.489916 3967.258135L1966.583759 4014.197913L1908.739323 4063.500507L1849.943444 4115.063854L1790.181052 4168.787719L1729.435206 4224.57429L1667.687152 4282.328698L1604.916421 4341.959477L1541.10096 4403.378954L1476.217321 4466.503579L1342.733057 4597.966132L1209.53177 4730.519695L1076.651063 4863.37744L944.255468 4995.856008L812.701377 5127.356116L682.679811 5257.346134L555.554669 5385.348377L434.247207 5510.927813L325.777941 5633.682862L248.118233 5753.238012M2585.359708 3544.773812L2580.035923 3546.951111L2576.080397 3548.638076L2573.140653 3549.962453L2570.867341 3551.056196L2568.913023 3552.053848L2566.931416 3553.091561L2564.577115 3554.306758L2561.505805 3555.838437L2557.374964 3557.828094L2551.845074 3560.421284L2539.132465 3566.423863L2526.360694 3572.651021L2513.529812 3579.10128L2500.639862 3585.773127L2487.690882 3592.665015L2474.682899 3599.775369L2461.615937 3607.102581L2448.49001 3614.645015L2435.305127 3622.401011L2422.061286 3630.368879L2395.396655 3646.933272L2368.496074 3664.324213L2341.359284 3682.52737L2313.9859 3701.52813L2286.375411 3721.311633L2258.527173 3741.86282L2230.440412 3763.166469L2202.114217 3785.207237L2173.54754 3807.969692L2144.739194 3831.438358L2086.392415 3880.432022L2027.061312 3932.064955L1966.731186 3986.214919L1905.384935 4042.761848L1843.003016 4101.588622L1779.563402 4162.581739L1715.041562 4225.631887L1649.410437 4290.634425L1582.640431 4357.489777L1514.699409 4426.103751L1472.291992 4469.164034L1429.889405 4512.357872L1387.487144 4555.658142L1345.081214 4599.039046L1302.668131 4642.476036L1260.244921 4685.945735L1217.809121 4729.425861L1175.358788 4772.895162L1132.89251 4816.333343L1090.409422 4859.721011M792.956183 5160.214626L724.795738 5227.978971L656.674155 5295.227176L588.640649 5361.906503L520.769895 5427.966616L453.179843 5493.35929L386.067917 5558.038158L319.791291 5621.958476L255.065608 5685.076927L193.527614 5747.351431L139.54983 5808.740992M2707.872259 3405.427111L2701.438235 3408.11072L2694.988843 3410.858761L2688.524075 3413.671045L2682.043925 3416.547383L2675.548387 3419.487578L2669.037453 3422.491435L2662.511116 3425.558754L2655.969368 3428.68933L2649.412201 3431.882961L2642.839606 3435.139436L2629.648687 3441.839819L2616.396345 3448.78881L2603.08264 3455.984557L2589.707622 3463.425168L2576.271336 3471.108709L2562.773818 3479.033213L2549.215095 3487.196673L2535.595189 3495.597052L2521.91411 3504.23228L2508.171864 3513.100258L2480.504028 3531.525612L2452.591222 3550.856186L2424.433126 3571.074345L2396.029284 3592.16215L2367.379096 3614.10142L2338.481825 3636.873782L2309.336587 3660.460724L2279.942352 3684.843649L2250.297938 3710.00392L2220.402018 3735.922906L2168.079515 3782.503699L2114.990918 3831.204506L2061.126017 3881.931245L2006.47317 3934.591741L1951.019289 3989.096173L1894.749827 4045.357462L1837.648774 4103.291596L1779.698657 4162.817898L1720.880551 4223.859249L1661.174098 4286.342262M242.280371 5739.744445L228.120351 5753.004731L213.978257 5766.227572L199.858457 5779.412641L185.766617 5792.559612L171.710224 5805.668159L157.699384 5818.737959L143.748074 5831.76869L129.876173 5844.760031L116.112879 5857.711663L102.502736 5870.623266M2829.424632 3260.75355L2822.211518 3263.909368L2814.123218 3267.520909L2805.383413 3271.504687L2796.213316 3275.773474L2786.831134 3280.235619L2777.451708 3284.794665L2768.286352 3289.349272L2759.542904 3293.793416L2751.425994 3298.01688L2744.13755 3301.906015L2730.491368 3309.411048L2716.782138 3317.191618L2703.009923 3325.245398L2689.174774 3333.570013L2675.276738 3342.163042L2661.315853 3351.022019L2647.292149 3360.14444L2633.205646 3369.52776L2619.05636 3379.169399L2604.844294 3389.066744L2576.2315 3409.618344L2547.367338 3431.160811L2518.251544 3453.672292L2488.883716 3477.130643L2459.26331 3501.513499L2429.389636 3526.798348L2399.261861 3552.962599L2368.879001 3579.983647L2338.239926 3607.838934L2307.343356 3636.506005L2276.308274 3665.847722L2245.014604 3695.9511L2213.460626 3726.794558L2181.644473 3758.356806L2149.564131 3790.616874L2117.217437 3823.554155L2084.602085 3857.14843L2051.715626 3891.379895L2018.555471 3926.229186L1985.118897 3961.677402M4124.557965 3487.053898L4111.179122 3450.737697L4097.566 3415.059756L4083.718984 3380.037172L4069.638556 3345.687538L4055.325291 3312.028931L4040.779853 3279.079889L4026.002988 3246.859387L4010.995521 3215.386805L3995.75835 3184.681902L3980.292443 3154.764772L3970.675859 3136.780668L3960.973513 3119.106521L3951.185676 3101.74714L3941.312628 3084.707357L3931.354658 3067.99203L3921.31206 3051.606028L3911.185135 3035.554235L3900.974191 3019.841537L3890.679541 3004.472822L3880.301504 2989.452968L3869.840233 2974.78668L3859.296137 2960.47899L3848.669539 2946.534726L3837.960764 2932.95868L3827.170139 2919.755601L3816.297998 2906.930191L3805.344677 2894.487095L3794.310514 2882.430892L3783.195851 2870.766088L3772.001032 2859.497107L3749.372355 2838.163791L3726.427316 2818.46432L3703.168727 2800.430301L3679.599412 2784.091233L3655.722196 2769.474252L3631.539903 2756.603873L3607.055341 2745.501759L3582.2713 2736.186492L3557.190541 2728.673387L3531.815792 2722.97432L3519.019103 2720.807623L3506.149901 2719.097314L3493.208523 2717.843838L3480.1953 2717.04741L3467.110561 2716.708007L3453.954631 2716.825372L3440.727831 2717.39901L3427.43048 2718.428194L3414.062891 2719.911961L3400.625373 2721.849116L3387.118185 2724.238307L3373.541578 2727.077957L3359.895844 2730.366186L3346.181271 2734.1009L3332.39814 2738.279787L3318.54673 2742.900328L3304.62731 2747.959801L3290.640149 2753.455285L3276.585508 2759.383668L3262.463641 2765.741653L3251.764293 2770.818236L3241.009704 2776.148152L3230.212358 2781.722498L3219.3845 2787.531903L3208.538127 2793.566542L3197.684987 2799.816151L3186.836578 2806.270039L3176.004147 2812.917104L3165.198685 2819.745852L3154.430928 2826.74441L3150.765903 2829.171172L3147.096788 2831.622571L3143.423591 2834.098531L3139.74632 2836.598975L3136.064983 2839.123825L3132.379588 2841.673003L3128.690143 2844.246431L3124.996656 2846.844029L3121.299134 2849.465718L3117.597586 2852.111419L3102.750581 2862.933322L3087.838801 2874.133778L3072.862406 2885.707814L3057.82155 2897.650381L3042.716378 2909.956366L3027.547028 2922.620601L3012.313629 2935.637864L2997.016304 2949.002893L2981.655168 2962.710393L2966.230329 2976.755039L2947.404062 2994.264787L2928.484035 3012.254736L2909.470411 3030.715251L2890.363338 3049.636697L2871.162952 3069.009459L2851.86937 3088.823953L2832.482698 3109.070639L2813.003025 3129.740038L2793.430428 3150.822738L2773.764969 3172.309408M3864.116041 2618.289528L3858.726143 2613.76934L3854.104041 2610.063474L3850.040104 2606.978674L3846.329758 2604.329455L3842.772335 2601.93644L3839.170377 2599.62537L3835.329385 2597.226809L3831.058038 2594.57658L3826.168887 2591.516921L3820.479526 2587.8984L3807.772978 2580.110869L3795.045469 2572.866535L3782.307802 2566.167251L3769.570399 2560.013761L3756.843298 2554.405694L3744.13615 2549.341561L3731.458224 2544.818755L3718.818406 2540.833561L3706.225203 2537.381168L3693.686746 2534.455685L3680.594224 2531.966391L3667.427942 2530.003377L3654.188236 2528.567393L3640.875439 2527.658857L3627.489882 2527.277851L3614.031893 2527.424124L3600.501797 2528.097088L3586.899915 2529.295824L3573.226566 2531.019078L3559.482063 2533.265267L3545.666721 2536.032496L3531.780848 2539.318548L3517.824739 2543.120889L3503.798684 2547.436677L3489.70297 2552.262772L3475.537881 2557.595744L3461.303693 2563.431884L3447.00068 2569.76721L3432.629108 2576.597483L3418.189242 2583.918214L3410.830918 2587.822693L3403.478916 2591.83841L3396.133959 2595.963183L3388.796762 2600.194819L3381.468035 2604.531106L3374.148484 2608.969824L3366.838809 2613.50874L3359.539705 2618.145609L3352.251862 2622.878178L3344.975965 2627.704186L3337.5621 2632.725606L3330.131614 2637.860988L3322.684524 2643.109603L3315.220851 2648.470714L3307.740613 2653.943572L3300.243827 2659.527423L3292.73051 2665.221501L3285.200681 2671.025036L3277.654354 2676.937249L3270.091547 2682.957354L3254.916929 2695.317636L3239.676815 2708.099635L3224.371397 2721.296784L3209.000858 2734.902447L3193.565379 2748.909925L3178.065134 2763.312475L3162.500289 2778.103316L3146.871006 2793.27564L3131.177443 2808.822624L3115.419748 2824.737441L3106.813595 2833.554452L3098.188461 2842.477414L3089.544387 2851.505211L3080.881413 2860.636727L3072.199578 2869.870851L3063.49892 2879.206473L3054.779478 2888.642486L3046.04129 2898.177787L3037.284394 2907.811277L3028.508827 2917.541862M3388.151374 4236.958519L3381.83189 4219.565478L3375.369393 4202.290059L3368.763087 4185.136561L3362.012167 4168.109355L3355.115822 4151.212884L3348.073231 4134.451668L3340.883565 4117.830303L3333.545991 4101.35346L3326.059665 4085.025886L3318.423742 4068.852409L3305.498223 4042.514912L3292.282638 4016.862743L3278.777834 3991.906135L3264.984772 3967.655366L3250.904518 3944.120725L3236.538237 3921.312491L3221.887184 3899.2409L3206.952699 3877.916119L3191.736196 3857.348217L3176.239162 3837.54713L3160.013326 3818.164961L3142.714343 3798.996169L3124.492228 3780.261289L3105.487493 3762.175147L3085.830541 3744.945816L3065.641234 3728.773684L3045.028655 3713.850656L3024.091106 3700.359513L3002.916335 3688.473464L2981.582046 3678.355891M3487.924939 4123.679961L3482.867132 4110.092948L3477.729428 4096.575783L3472.511496 4083.130378L3467.213007 4069.75867L3461.833626 4056.462623L3456.37302 4043.244228L3450.830854 4030.105504L3445.206789 4017.048496L3439.500487 4004.075278L3433.711609 3991.18795L3420.284955 3962.302426L3406.556576 3934.147463L3392.527241 3906.7355L3378.197852 3880.079077L3363.56943 3854.190803L3348.643109 3829.083324L3333.420127 3804.769287L3317.901816 3781.261306L3302.089597 3758.57192L3285.984973 3736.713557L3269.589459 3715.698879L3252.904778 3695.539551L3235.93261 3676.247441L3218.674688 3657.834138L3201.132788 3640.310907L3183.308721 3623.688648L3165.204332 3607.977847L3146.821491 3593.188539L3128.162083 3579.330259L3109.228009 3566.412003L3104.623898 3563.389726L3100.32172 3560.535271L3096.28368 3557.833714L3092.472426 3555.270691L3088.851013 3552.83234L3085.382867 3550.505255L3082.031758 3548.276447L3078.761773 3546.133316L3075.537297 3544.063619L3072.322999 3542.055462L3068.157992 3540.146675L3062.350879 3538.369906L3055.27021 3536.705117L3047.283164 3535.129771L3038.754912 3533.617155L3030.048135 3532.135246L3021.522722 3530.646098L3013.53565 3529.105763L3006.441062 3527.464743L3000.590571 3525.668966M3210.412165 4450.98784L3202.145688 4426.100557L3193.537616 4401.456777L3184.584997 4377.070602L3175.284803 4352.956456L3165.633936 4329.129092L3155.62923 4305.603598L3145.267451 4282.395398L3134.545302 4259.520259L3123.459426 4236.994293L3112.006409 4214.833958L3106.477032 4204.198304L3101.547653 4194.410573L3097.040385 4185.290818L3092.781442 4176.661113L3088.600666 4168.345309L3084.331227 4160.168907L3079.809493 4151.959071L3074.875097 4143.544754L3069.371199 4134.75698L3063.144945 4125.429252M3295.907727 4346.023928L3288.505132 4324.872896L3280.87331 4303.898132L3273.010636 4283.10781L3264.91546 4262.510267L3256.586101 4242.114009L3248.020856 4221.92771L3239.217998 4201.960213L3230.175776 4182.220537L3220.892417 4162.717873L3211.366129 4143.461588L3205.190761 4131.366265L3198.94574 4119.430043L3192.631164 4107.653973L3186.247135 4096.039107L3179.793763 4084.5865L3173.271164 4073.297204L3166.67946 4062.172273L3160.018778 4051.212758L3153.289253 4040.41971L3146.491022 4029.794177L3139.624502 4019.33697L3132.68965 4009.049407L3125.686626 3998.93251L3118.615592 3988.987295L3111.476715 3979.214774L3104.270168 3969.61595L3096.996126 3960.191819L3089.65477 3950.943369L3082.246284 3941.871579L3074.770855 3932.977418L3071.627469 3929.209561L3069.505368 3926.517434L3068.106844 3924.61388L3067.137696 3923.214271L3066.305782 3922.035414L3065.320227 3920.79498L3063.891303 3919.211474L3061.730987 3917.004746L3058.554199 3913.897048L3054.080747 3909.614642M3976.275062 3623.400553L3961.928479 3585.408119L3947.291457 3548.182072L3932.364448 3511.742643L3917.148057 3476.110616L3901.643026 3441.307305L3885.85023 3407.354503L3869.770666 3374.274453L3853.405446 3342.089788L3836.75579 3310.823487L3819.823016 3280.498809L3810.48287 3264.387769L3801.059328 3248.56681L3791.552633 3233.039757L3781.963033 3217.810445L3772.290785 3202.882709L3762.536149 3188.260381L3752.699392 3173.947286L3742.780787 3159.947238L3732.780611 3146.264035L3722.699146 3132.901455L3712.537134 3119.863109L3702.29451 3107.152757L3691.971565 3094.77409L3681.568591 3082.730756L3671.085884 3071.026361L3660.523744 3059.664456L3649.882473 3048.648539L3639.162373 3037.982042L3628.363751 3027.668332L3617.486914 3017.710704L3595.50006 2998.876532L3573.204321 2981.503921L3550.602265 2965.615939L3527.696462 2951.23396L3504.48948 2938.377491L3480.983877 2927.064018L3457.182192 2917.308855L3433.08694 2909.125014L3408.700602 2902.523081L3384.025622 2897.51112M3595.862683 4005.709789L3592.221499 3996.054451L3588.54365 3986.432956L3584.829044 3976.845938L3581.077594 3967.294037L3577.289208 3957.777899L3573.463796 3948.298179L3569.601269 3938.855537L3565.701535 3929.450639L3561.764506 3920.084159L3557.790089 3910.756776L3550.867773 3894.809334L3543.867165 3879.053818L3536.788339 3863.4921L3529.631374 3848.126063L3522.396361 3832.957606L3515.083399 3817.988638L3507.692597 3803.22108L3500.224071 3788.656863L3492.677945 3774.297926L3485.054353 3760.146215L3481.660165 3753.942701L3479.004361 3749.148722L3476.887667 3745.419905L3475.115077 3742.41408L3473.494483 3739.790595L3471.835835 3737.209917L3469.950847 3734.333513L3467.653234 3730.824031L3464.759516 3726.345777L3461.09036 3720.5655M3712.732217 3883.008642L3710.633064 3877.456735L3708.522994 3871.915402L3706.401997 3866.384753L3704.270065 3860.864899L3702.127188 3855.355951L3699.973358 3849.858021L3697.808565 3844.371221L3695.6328 3838.895665L3693.446055 3833.431467L3691.24832 3827.978741L3677.313503 3793.996118L3663.832331 3762.250137L3650.558096 3732.379275L3637.262639 3704.028934L3623.735068 3676.85169L3609.7809 3650.507769L3595.221689 3624.665775L3579.895186 3599.003711L3563.656063 3573.210334L3546.377253 3546.986881M3839.283142 3755.540889L3838.827857 3754.328565L3838.37213 3753.116699L3837.915957 3751.905293L3837.459333 3750.694355L3837.002254 3749.483889L3836.544715 3748.273901L3836.086712 3747.064395L3835.628239 3745.855378L3835.169291 3744.646854L3834.709865 3743.43883L3819.819976 3705.172222L3804.595442 3667.763248L3789.03677 3631.233541L3773.144661 3595.605271L3756.919995 3560.901087L3740.363817 3527.144075L3723.477332 3494.357693L3706.261888 3462.565712L3688.718964 3431.792144L3670.850164 3402.061165L3666.689277 3395.599398L3663.110817 3390.579185L3659.952858 3386.649526L3657.058218 3383.462408L3654.273071 3380.672089L3651.446099 3377.934673L3648.428193 3374.907999L3645.072701 3371.251841L3641.236243 3366.628436L3636.780093 3360.703349M4284.972392 3347.067481L4272.590017 3312.282312L4260.025223 3278.022031L4247.278176 3244.300737L4234.349105 3211.132968L4221.238304 3178.533695L4207.946124 3146.518312L4194.472974 3115.102624L4180.819315 3084.302835L4166.98566 3054.135528L4152.972567 3024.617646L4143.106988 3004.451846L4133.154882 2984.615369L4123.116468 2965.11421L4112.991978 2945.954429L4102.781649 2927.142145L4092.48573 2908.683525L4082.104475 2890.584782L4071.638147 2872.85217L4061.087018 2855.491967L4050.451365 2838.510479L4039.731624 2821.914181L4028.927987 2805.7092L4018.040752 2789.901868L4007.070221 2774.498505L3996.016704 2759.505401L3984.880512 2744.928815L3973.661962 2730.774956L3962.361374 2717.049977L3950.979072 2703.759959L3939.515382 2690.910902M3889.038147 2593.28232L3883.680308 2588.714112L3879.085081 2584.967696L3875.044119 2581.847897L3871.354115 2579.167364L3867.815652 2576.744885L3864.232513 2574.404399L3860.411428 2571.974704L3856.162293 2569.289891L3851.298861 2566.19051L3845.639912 2562.525506L3833.000281 2554.635888L3820.338514 2547.291657L3807.665379 2540.494836L3794.99126 2534.246327L3782.326162 2528.545906L3769.679703 2523.392214L3757.061122 2518.782763L3744.479275 2514.713941L3731.942641 2511.181024L3719.459328 2508.178194L3706.423027 2505.611289L3693.312045 2503.573358L3680.126714 2502.065218L3666.867366 2501.08735L3653.534326 2500.639894L3640.127919 2500.722648L3626.648466 2501.335065L3613.096283 2502.476259L3599.471684 2504.145005L3585.77498 2506.339738L3572.006523 2509.058636L3558.166552 2512.299397L3544.255361 2516.059488L3530.27324 2520.336065L3516.220476 2525.125976L3502.097349 2530.425772L3487.904132 2536.231717L3473.641096 2542.539796L3459.308506 2549.34573L3444.906618 2556.644982L3437.567158 2560.539661L3430.233652 2564.546368L3422.906834 2568.662894L3415.587432 2572.887018L3408.276169 2577.216505L3400.973763 2581.649106L3393.680926 2586.18256L3386.398368 2590.814596L3379.12679 2595.542934L3371.86689 2600.365283L3364.469322 2605.3833L3357.054818 2610.515942L3349.623401 2615.762461L3342.175092 2621.1221L3334.709914 2626.594095L3327.227887 2632.177671L3319.729034 2637.872047L3312.213375 2643.676435L3304.680932 2649.590037L3297.131724 2655.612051L3281.983488 2667.977735L3266.768612 2680.767127L3251.487297 2693.97355L3236.139733 2707.590257L3220.726108 2721.610439L3205.246603 2736.027244L3189.701394 2750.833782L3174.090649 2766.023138L3158.414535 2781.588384L3142.673209 2797.522586L3134.269977 2806.149945L3125.84828 2814.878842L3117.408144 2823.708227L3108.949599 2832.637054L3100.472673 2841.664281L3091.977391 2850.788864L3083.463782 2860.009768L3074.931873 2869.325957L3066.38169 2878.736399L3057.81326 2888.240069M3007.407626 2983.2158L2992.966802 2992.741156L2978.46035 3002.60802L2963.888378 3012.812541L2949.250989 3023.350802L2934.548273 3034.218824L2919.780317 3045.41257L2904.947196 3056.927953L2890.04898 3068.760841L2875.085729 3080.90706L2860.057494 3093.362402L2830.423375 3118.643638L2800.749768 3144.873225L2770.976677 3172.061121L2741.046142 3200.220069L2710.902311 3229.365441L2680.491537 3259.515084L2649.762478 3290.68918L2618.666211 3322.910107L2587.156366 3356.20231L2555.189279 3390.592175M2846.521475 3156.626742L2833.70413 3164.669971L2822.529317 3171.832913L2812.543556 3178.374328L2803.303481 3184.566691L2794.374077 3190.693405L2785.327548 3197.047044L2775.742908 3203.928597L2765.206316 3211.647644L2753.312241 3220.523454L2739.665519 3230.886918L2710.233752 3253.880614L2680.543793 3277.960787L2650.595501 3303.099959L2620.388597 3329.270415L2589.922661 3356.444293L2559.197134 3384.59369L2528.211317 3413.690742L2496.96437 3443.707714L2465.455311 3474.617072L2433.683022 3506.391554L2419.793437 3520.462574L2405.853764 3534.689727L2391.863897 3549.070829L2377.823726 3563.603715L2363.733136 3578.286235L2349.592006 3593.116254L2335.400212 3608.091659L2321.157625 3623.210353L2306.864113 3638.470258L2292.519537 3653.869317M2855.308775 3233.588483L2848.119885 3236.734471L2840.058558 3240.335396L2831.347723 3244.308141L2822.20785 3248.565812L2812.856412 3253.017048L2803.507529 3257.565644L2794.371809 3262.110463L2785.656398 3266.545649L2777.565245 3270.761111L2770.299615 3274.643296L2756.694756 3282.136603L2743.026173 3289.906388L2729.29392 3297.950311L2715.498044 3306.265986L2701.638582 3314.850978L2687.715566 3323.702807L2673.729016 3332.818954L2659.678945 3342.196859L2645.565361 3351.833927L2631.388257 3361.727526L2602.843778 3382.273216L2574.045172 3403.812519L2544.992144 3426.323411L2515.684258 3449.783567L2486.120929 3474.170446L2456.301431 3499.461359L2426.224886 3525.633537L2395.890268 3552.6642L2365.296398 3580.53062L2334.441947 3609.210174L2303.812251 3638.21529L2272.927061 3667.965386L2241.78468 3698.439472L2210.383266 3729.616839L2178.720834 3761.477095L2146.79526 3794.000195L2114.604275 3827.166471L2082.145473 3860.956659L2049.416312 3895.351919L2016.414116 3930.333859M2733.490624 3378.278992L2727.079833 3380.954137L2720.6535 3383.6939L2714.211625 3386.498098L2707.754209 3389.366545L2701.28125 3392.299049L2694.792748 3395.295417L2688.288701 3398.355454L2681.769107 3401.478958L2675.233962 3404.665728L2668.683265 3407.915558L2655.535283 3414.60334L2642.325408 3421.540423L2629.053674 3428.724954L2615.720106 3436.155039L2602.324726 3443.828745L2588.867544 3451.744103L2575.348565 3459.899107L2561.767786 3468.291717L2548.125196 3476.919865L2534.420777 3485.78145L2506.826822 3504.196049L2478.985468 3523.518302L2450.896383 3543.730435L2422.559097 3564.814369L2393.973001 3586.751781L2365.137342 3609.524154L2336.051223 3633.112835L2306.713601 3657.499084L2277.12328 3682.664121L2247.278917 3708.589178L2195.545078 3754.725308L2143.052233 3802.944652L2089.79041 3853.155146L2035.748257 3905.266593L1980.913018 3959.191094L1925.270526 4014.843418L1868.805194 4072.14132L1811.500014 4131.005795L1753.33656 4191.361297L1694.295002 4253.135906M2610.731811 3517.626112L2605.42827 3519.796814L2601.48733 3521.47904L2598.557908 3522.800039L2596.292039 3523.8913L2594.34367 3524.886923L2592.367898 3525.922629L2590.020701 3527.135424L2586.959141 3528.663899L2582.842073 3530.649167L2577.331352 3533.236428L2564.663117 3539.225725L2551.935184 3545.440249L2539.147594 3551.878518L2526.300388 3558.539015L2513.393593 3565.420192L2500.427234 3572.520468L2487.401328 3579.838232L2474.315881 3587.371843L2461.170896 3595.119634L2447.966367 3603.079912L2421.379336 3619.630262L2394.554192 3637.009234L2367.490686 3655.202398L2340.188443 3674.195033L2312.646958 3693.972173L2284.865597 3714.51865L2256.843592 3735.819129L2228.58004 3757.858154L2200.073898 3780.620182L2171.323988 3804.089623L2113.086792 3853.08898L2053.856672 3904.731297L1993.618929 3958.89354L1932.356473 4015.454896L1870.04978 4074.297549L1806.676861 4135.307363L1742.213235 4198.374453L1676.631913 4263.393669L1609.903392 4330.26499L1541.995656 4398.893843L1502.305878 4439.2139L1462.617822 4479.652007L1422.927858 4520.185767L1383.232758 4560.793823L1343.529687 4601.45579L1303.816213 4642.152208L1264.090304 4682.864481L1224.350333 4723.574828L1184.595088 4764.266233L1144.823785 4804.922399M2980.728054 3010.544683L2966.251959 3020.076773L2951.711119 3029.949022L2937.105644 3040.157617L2922.435638 3050.698678L2907.701197 3061.568264L2892.902409 3072.762381L2878.039354 3084.276981L2863.112105 3096.107976L2848.120729 3108.251234L2833.065284 3120.702591L2803.01109 3146.296999L2772.705283 3173.054249L2742.148073 3200.941063L2711.339549 3229.924048L2680.27968 3259.96983L2648.968315 3291.045162L2617.405187 3323.117035L2585.589913 3356.152772L2553.522001 3390.120116L2521.200851 3424.987306M2819.990881 3183.947256L2807.138395 3191.997269L2795.933335 3199.165373L2785.921058 3205.710782L2776.657087 3211.906303L2767.705338 3218.035575L2758.636991 3224.391325L2749.030069 3231.274622L2738.469785 3238.995058L2726.549713 3247.871822L2712.873856 3258.235639L2683.381006 3281.228535L2653.633248 3305.304661L2623.630484 3330.436811L2593.372476 3356.597534L2562.858849 3383.759238L2532.089091 3411.894277L2501.062551 3440.975045L2469.778438 3470.974053L2438.235826 3501.864006L2406.433652 3533.617875L2392.225957 3547.990626L2377.966724 3562.526187L2363.655831 3577.222263L2349.293151 3592.076573L2334.878551 3607.086857L2320.411896 3622.250871L2305.893043 3637.566391L2291.321845 3653.031213L2276.698152 3668.643152L2262.021806 3684.400045M4046.943078 2419.807008L4051.54452 2394.696559L4056.816301 2369.447823L4062.754226 2344.06251L4069.353744 2318.542287L4076.609958 2292.888781L4084.517636 2267.103573L4093.071221 2241.1882L4102.264846 2215.144153L4112.09234 2188.972872L4122.547251 2162.67575L4139.71754 2122.257499L4158.309394 2081.554521L4178.292008 2040.573428L4199.633492 1999.320695L4222.300998 1957.802641L4246.260843 1916.025422L4271.478637 1873.995015L4297.919404 1831.717211L4325.547702 1789.197606L4354.327736 1746.441593L4361.298424 1736.321413L4368.284823 1726.20981L4375.286857 1716.106934L4382.304453 1706.012941L4389.337535 1695.927989L4396.38603 1685.85224L4403.449863 1675.785861L4410.52896 1665.729021L4417.623248 1655.681894L4424.732654 1645.644658L4431.857105 1635.617495L4438.996529 1625.600592L4446.150854 1615.59414L4453.320007 1605.598333L4460.503918 1595.613372L4467.702515 1585.639461L4474.915728 1575.676811L4482.143485 1565.725637L4489.385716 1555.786158L4496.642352 1545.858601L4503.913324 1535.943196L4511.19856 1526.040181L4518.497993 1516.149798L4525.811554 1506.272295L4533.139175 1496.407929L4540.480787 1486.55696L4547.836323 1476.719657L4555.205715 1466.896295L4562.588896 1457.087155L4569.985799 1447.292527L4577.396358 1437.512707L4584.820507 1427.748L4592.258179 1417.998718L4599.70931 1408.265181L4607.173833 1398.547718L4614.651683 1388.846666L4622.142797 1379.162372L4629.64711 1369.495191L4656.272222 1335.578694L4683.44812 1301.620432L4711.21431 1267.599279L4739.608432 1233.488979L4768.666423 1199.258005L4798.422687 1164.869466L4828.910293 1130.281087L4860.161181 1095.445261L4892.206393 1060.30919L4925.07631 1024.815116L4939.152281 1009.766223L4953.408803 994.614043L4967.848458 979.362716L4982.473437 964.014847L4997.285607 948.571721L5012.28659 933.033601L5027.477859 917.400131L5042.860838 901.670854L5058.437021 885.845863L5074.208097 869.926602L5082.15915 861.941119L5090.134736 853.959156L5098.122698 845.994021L5106.110921 838.059323L5114.087338 830.169006L5122.03993 822.33739L5129.956737 814.579222L5137.825856 806.909715L5145.635454 799.344605L5153.373764 791.900193L5161.026102 784.596632L5168.571619 777.460045L5175.988518 770.517426L5183.255064 763.796269L5190.349587 757.324549L5197.25048 751.130699L5203.936198 745.243578L5210.385255 739.692435L5216.576229 734.506855L5222.487755 729.716703L5230.665283 723.425333L5238.108762 718.143898L5244.81736 713.883368L5250.789945 710.650641L5256.025027 708.447865L5260.520699 707.271898L5264.274596 707.113943L5267.283856 707.959351L5269.545087 709.78762L5271.05435 712.572576L5271.831938 716.260995L5271.921118 720.78471L5271.351826 726.090194L5270.15378 732.123023L5268.356483 738.828207L5265.989219 746.150487L5263.081056 754.034608L5259.66085 762.425555L5255.75725 771.268757L5251.398698 780.51025L5241.487941 799.932225L5230.1772 820.372743L5217.641577 841.649256L5204.057942 863.60062L5189.604788 886.082673L5174.462106 908.964446L5158.811285 932.125053L5142.835028 955.451231L5126.71729 978.835474L5110.643225 1002.17472L5084.580402 1040.39437L5058.828125 1078.633171L5033.302811 1116.905124L5007.918955 1155.221612L4982.58911 1193.591789L4957.223878 1232.023028L4931.731919 1270.521402L4906.019969 1309.092197L4879.992879 1347.740449L4853.553658 1386.471502L4817.446995 1438.382522L4780.602753 1490.306946L4743.112153 1542.233545L4705.069762 1594.154704L4666.573355 1646.064747L4627.723807 1697.958699L4588.625009 1749.831387L4549.38381 1801.676814L4510.109973 1853.487757L4470.916158 1905.255535L4448.174323 1935.362622L4425.431962 1965.472651L4402.649238 1995.570107L4379.785267 2025.639928L4356.798124 2055.667555L4333.644853 2085.638988L4310.281488 2115.540874L4286.663079 2145.360597L4262.743724 2175.086398L4238.476613 2204.707491L4220.186982 2226.652853L4201.694418 2248.514321L4183.003036 2270.286905L4164.116952 2291.96572L4145.040289 2313.545974L4125.777174 2335.022964L4106.331742 2356.39207L4086.70814 2377.64875L4066.910528 2398.78853L4046.943078 2419.807008M3987.938102 2516.300456L3992.437885 2488.318347L3997.717991 2460.191278L4003.773691 2431.921116L4010.599769 2403.509685L4018.190535 2374.958756L4026.539837 2346.270052L4035.641078 2317.445241L4045.487235 2288.485936L4056.070875 2259.393694L4067.384175 2230.170009L4086.058499 2185.272825L4106.383677 2140.078355L4128.322351 2094.593693L4151.835702 2048.825754L4176.88364 2002.78126L4203.424976 1956.466714L4231.417611 1909.888386L4260.818699 1863.052293L4291.584828 1815.964179L4323.672175 1768.629503L4330.707189 1758.493942L4337.758183 1748.36758L4344.825082 1738.250579L4351.907806 1728.143103L4359.006279 1718.04532L4366.120424 1707.957402L4373.250164 1697.879525L4380.395424 1687.811868L4387.556128 1677.754616L4394.732199 1667.707957L4401.923564 1657.672083L4409.130146 1647.647192L4416.351872 1637.633485L4423.588668 1627.631169L4430.840459 1617.640455L4438.107172 1607.661559L4445.388734 1597.694703L4452.685072 1587.740113L4459.996114 1577.798022L4467.321787 1567.868667L4474.662019 1557.952292L4482.016739 1548.049146L4489.385876 1538.159486L4496.769359 1528.283572L4504.167117 1518.421672L4511.579081 1508.574063L4519.005179 1498.741025L4526.445343 1488.922847L4533.899504 1479.119825L4541.367591 1469.332263L4548.849538 1459.560471L4556.345276 1449.804768L4563.854736 1440.065481L4571.377851 1430.342946L4578.914553 1420.637507L4586.464777 1410.949515L4594.028454 1401.279334L4601.605519 1391.627335L4609.195906 1381.993898L4616.799549 1372.379414L4624.416382 1362.784285L4632.046341 1353.208922L4661.968094 1316.111349L4692.513644 1279.019643L4723.724479 1241.910243L4755.639833 1204.753141L4788.296885 1167.511607L4821.730991 1130.141972L4855.975926 1092.593479L4891.064157 1054.808198L4927.027128 1016.721022L4963.895566 978.259735L4979.674862 961.957302L4995.651709 945.540113L5011.827495 929.005798L5028.203149 912.349468L5044.779224 895.563909L5061.555994 878.63988L5078.533574 861.566555L5095.712042 844.332095L5113.09158 826.924397L5130.672637 809.332036L5139.52985 800.472652L5148.409991 791.591564L5157.299391 782.701977L5166.184433 773.81742L5175.051558 764.951807L5183.88727 756.119501L5192.67814 747.33538L5201.410815 738.614915L5210.072023 729.97425L5218.648577 721.430282L5227.124382 713.003799L5235.47596 704.723863L5243.679177 696.621017L5251.709977 688.726641L5259.544377 681.072967L5267.15847 673.693073L5274.52842 666.620876L5281.630465 659.891107L5288.440909 653.539272L5294.93613 647.601591L5303.909631 639.660707L5312.058876 632.817996L5319.384222 627.10276L5325.88565 622.539409L5331.562688 619.146131L5336.414349 616.933762L5340.439079 615.904899L5343.634711 616.053321L5345.99843 617.363739L5347.52675 619.811893L5348.243357 623.339916L5348.196529 627.870138L5347.419857 633.339413L5345.946672 639.682675L5343.810048 646.833567L5341.042799 654.725013L5337.677482 663.289744L5333.746401 672.460747L5329.281612 682.171641L5324.314927 692.356988L5313.066452 713.846415L5300.276833 736.538896L5286.139015 760.20546L5270.848136 784.648998L5254.601348 809.697371L5237.597655 835.197567L5220.037789 861.010941L5202.124105 887.009503L5184.060501 913.073154L5166.052359 939.087735L5136.869893 981.685082L5108.049218 1024.308817L5079.498538 1066.972282L5051.123708 1109.685779L5022.828207 1152.457099L4994.513123 1195.292098L4966.07716 1238.195304L4937.416661 1281.170547L4908.425648 1324.221609L4878.995881 1367.352889L4838.837979 1425.138036L4797.892834 1482.917966L4756.261 1540.683912L4714.047156 1598.431028L4671.359942 1656.15635L4628.311842 1713.857319L4585.019084 1771.530742L4541.601576 1829.172101L4498.182868 1886.775116L4454.890134 1944.331532L4429.788671 1977.8053L4404.699871 2011.282575L4379.578944 2044.74562L4354.379796 2078.177276L4329.055036 2111.561013L4303.555983 2144.880998L4277.832687 2178.122187L4251.833962 2211.270437L4225.507425 2244.312635L4198.799537 2277.236841L4178.671018 2301.627479L4158.318512 2325.924166L4137.746215 2350.121596L4116.958321 2374.214576L4095.959019 2398.198019L4074.752498 2422.066932L4053.342949 2445.816415L4031.734565 2469.441646L4009.931547 2492.937883L3987.938102 2516.300456M4590.389503 2500.260888L4561.098225 2544.787403L4531.745084 2592.802535L4500.367949 2646.87586L4465.107544 2709.603656L4424.244399 2783.609893L4376.251071 2871.550991L4319.864047 2976.122486L4254.181777 3100.065622L4178.797962 3246.171983L4093.982554 3417.284763L4085.73766 3434.392891L4077.540181 3451.506342L4069.389695 3468.624681L4061.285772 3485.747476L4053.227977 3502.874301L4045.215862 3520.004734L4037.248975 3537.138359L4029.326854 3554.274762L4021.44903 3571.413535L4013.615023 3588.554276M3258.294894 2930.840988L3276.219702 2896.77334L3291.849478 2868.164644L3305.197593 2844.542516L3316.323997 2825.451099L3325.325494 2810.448618L3332.327468 2799.104799L3337.476871 2790.998331L3340.936351 2785.714472L3342.87937 2782.842926L3343.486257 2781.976073L3349.780249 2772.192152L3356.098132 2762.416945L3362.439772 2752.650545L3368.805035 2742.893046L3375.193787 2733.144543L3381.605895 2723.405133L3388.041227 2713.674913L3394.49965 2703.953984L3400.981032 2694.242445L3407.485244 2684.540398L3414.012154 2674.847948L3420.561632 2665.165197L3427.133549 2655.492253L3433.727776 2645.829224L3440.344185 2636.176217L3446.982649 2626.533344L3453.643039 2616.900717L3460.325229 2607.278449L3467.029094 2597.666655L3473.754507 2588.065452L3480.501345 2578.474958L3487.269482 2568.895294L3494.058795 2559.326581L3500.86916 2549.768942L3507.700455 2540.222502L3514.552558 2530.687388L3521.425347 2521.163728L3528.318702 2511.651653L3535.232503 2502.151295L3542.166628 2492.662787L3549.120961 2483.186267L3556.095381 2473.72187L3563.08977 2464.269738L3570.104013 2454.830012L3577.137991 2445.402835L3584.191588 2435.988353L3591.26469 2426.586714L3598.35718 2417.198068L3605.468945 2407.822566L3612.599871 2398.460364L3619.749844 2389.111616L3626.918751 2379.776483L3634.106482 2370.455124L3641.312923 2361.147702L3648.537965 2351.854384L3655.781497 2342.575338L3663.04341 2333.310732L3670.323594 2324.060741L3677.62194 2314.825538L3684.938342 2305.605303L3692.272691 2296.400215L3699.62488 2287.210458L3706.994805 2278.036215L3714.382358 2268.877677L3721.787436 2259.735034L3729.209933 2250.608479L3736.649746 2241.498209L3744.106772 2232.404423L3751.580908 2223.327325L3759.072052 2214.267118L3766.580103 2205.224011L3774.104959 2196.198216L3781.64652 2187.189946L3789.204687 2178.199419L3796.77936 2169.226856L3804.370441 2160.272481L3811.977832 2151.33652L3819.601435 2142.419205L3827.241153 2133.520768L3834.89689 2124.641447L3842.568551 2115.781483L3850.25604 2106.94112L3857.959263 2098.120606L3865.678125 2089.320191L3873.412533 2080.540132L3881.162394 2071.780687L3888.927616 2063.042118L3896.708107 2054.324693L3904.503775 2045.62868L3912.31453 2036.954355L3920.140282 2028.301996L3927.980941 2019.671884L3935.836417 2011.064307L3943.706623 2002.479555L3951.591471 1993.917923L3959.490872 1985.37971L3967.404741 1976.86522L3975.332989 1968.374759L3983.275533 1959.908641L3991.232286 1951.467183L3999.203164 1943.050705L4007.188081 1934.659534L4015.186956 1926.294L4023.199703 1917.95444L4031.226241 1909.641192L4039.266488 1901.354603L4047.320361 1893.095023L4055.387779 1884.862806L4063.468662 1876.658313L4071.56293 1868.481908L4079.670503 1860.333963L4087.791301 1852.214852L4095.925247 1844.124957L4104.072261 1836.064664L4112.232267 1828.034364L4120.405187 1820.034455L4128.590944 1812.065338L4136.789462 1804.127423L4145.000666 1796.221122L4153.22448 1788.346854L4161.46083 1780.505046L4169.70964 1772.696128L4177.970838 1764.920535L4186.24435 1757.178711L4194.530103 1749.471105M4557.775914 2443.136657L4527.09473 2489.690938L4494.97243 2542.61705L4459.835294 2603.787707L4420.212445 2675.098519L4374.769546 2758.468824L4322.353127 2855.845419L4262.04911 2969.20783L4193.260477 3100.573678L4115.810787 3252.002842L4030.082389 3425.599454L4017.509817 3451.745255L4005.048417 3477.901756L3992.696743 3504.06748L3980.453304 3530.240976L3968.316565 3556.420814L3956.284947 3582.605588L3944.356823 3608.793913L3932.530523 3634.984425L3920.804333 3661.175783L3909.176493 3687.366667M3196.097449 2972.610372L3214.37487 2938.69027L3230.5384 2909.813874L3244.555835 2885.604504L3256.437091 2865.700676L3266.226118 2849.754144L3273.99393 2837.427794L3279.832634 2828.393504L3283.850315 2822.330066L3286.166701 2818.921265L3286.909526 2817.854182L3293.269153 2808.172639L3299.652868 2798.500457L3306.060533 2788.837734L3312.492009 2779.184568L3318.947157 2769.54106L3325.425839 2759.90731L3331.927918 2750.283422L3338.453257 2740.669498L3345.00172 2731.065645L3351.573172 2721.471968L3358.167477 2711.888577L3364.784502 2702.315579L3371.424112 2692.753087L3378.086175 2683.201213L3384.770557 2673.660069L3391.477127 2664.129773L3398.205754 2654.610439L3404.956306 2645.102187L3411.728653 2635.605138L3418.522667 2626.119411L3425.338218 2616.64513L3432.175177 2607.182421L3439.033417 2597.73141L3445.912812 2588.292224L3452.813233 2578.864993L3459.734557 2569.44985L3466.676657 2560.046928L3473.639409 2550.656361L3480.622689 2541.278287L3487.626374 2531.912844L3494.650341 2522.560173L3501.694468 2513.220418L3508.758633 2503.893721L3515.842717 2494.58023L3522.946598 2485.280094L3530.070156 2475.993462L3537.213275 2466.720488L3544.375834 2457.461325L3551.557716 2448.216131L3558.758805 2438.985064L3565.978984 2429.768286L3573.218137 2420.565959L3580.476149 2411.378249L3587.752906 2402.205325L3595.048294 2393.047355L3602.3622 2383.904512L3609.69451 2374.776971L3617.045114 2365.664909L3624.4139 2356.568505L3631.800757 2347.487942L3639.205576 2338.423405L3646.628246 2329.375079L3654.068659 2320.343156L3661.526707 2311.327826L3669.002282 2302.329286L3676.495278 2293.347732L3684.005588 2284.383365L3691.533106 2275.436389L3699.077727 2266.507009L3706.639348 2257.595433L3714.217863 2248.701875L3721.813171 2239.826547L3729.425168 2230.969669L3737.053752 2222.131459L3744.698821 2213.312143L3752.360277 2204.511947L3760.038017 2195.7311L3767.731942 2186.969836L3775.441954 2178.228391L3783.167955 2169.507005L3790.909845 2160.805921L3798.667529 2152.125384L3806.44091 2143.465644L3814.229891 2134.826955L3822.034377 2126.209573L3829.854275 2117.613759L3837.689488 2109.039775L3845.539924 2100.487889L3853.40549 2091.958373L3861.286093 2083.4515L3869.181642 2074.96755L3877.092044 2066.506805L3885.01721 2058.069551L3892.957049 2049.656078L3900.911471 2041.26668L3908.880388 2032.901656L3916.863711 2024.561306L3924.861352 2016.245938L3932.873224 2007.955862L3940.89924 1999.691393L3948.939313 1991.452849L3956.993359 1983.240553L3965.061292 1975.054832L3973.143027 1966.89602L3981.23848 1958.764451L3989.347568 1950.660467L3997.470207 1942.584412L4005.606316 1934.536637L4013.755813 1926.517496L4021.918615 1918.527347L4030.094643 1910.566556L4038.283815 1902.63549L4046.486053 1894.734522L4054.701276 1886.864031L4062.929407 1879.024399L4071.170366 1871.216015L4079.424076 1863.439271L4087.690459 1855.694565L4095.96944 1847.9823L4104.260942 1840.302883L4112.564889 1832.656729L4120.881205 1825.044253L4129.209817 1817.465881M4523.342401 2377.966575L4490.45149 2427.111454L4453.499082 2486.423607L4411.632716 2556.86293L4364.104854 2639.405983L4310.297335 2735.047157L4249.752695 2844.800818L4182.214558 2969.703818L4107.679963 3110.817822L4026.467167 3269.231003L3939.303204 3446.058846L3921.073126 3484.174507L3903.081892 3522.308316L3885.32519 3560.456127L3867.798504 3598.613884L3850.497115 3636.777617L3833.416101 3674.943439L3816.550336 3713.107545L3799.894495 3751.266214L3783.443055 3789.415802L3767.190292 3827.552745M3111.212291 3033.326227L3133.009365 2995.787445L3151.384693 2964.632327L3166.510572 2939.259598L3178.61125 2919.081591L3187.952195 2903.523142L3194.831163 2892.020143L3199.570728 2884.017906L3202.512042 2878.969423L3204.009617 2876.333633L3204.427001 2875.573794L3210.87468 2866.044697L3217.346543 2856.525603L3223.842444 2847.016613L3230.362238 2837.517829L3236.90578 2828.029352L3243.472926 2818.551289L3250.063535 2809.083742L3256.677462 2799.62682L3263.314567 2790.180631L3269.974708 2780.745283L3276.657744 2771.320888L3283.363537 2761.907558L3290.091946 2752.505406L3296.842834 2743.114546L3303.616062 2733.735097L3310.411494 2724.367174L3317.228992 2715.010899L3324.068422 2705.666391L3330.929648 2696.333772L3337.812535 2687.013168L3344.716951 2677.704702L3351.642761 2668.408503L3358.589834 2659.124699L3365.558037 2649.85342L3372.547241 2640.594798L3379.557314 2631.348966L3386.588127 2622.116061L3393.639551 2612.896218L3400.711458 2603.689578L3407.803721 2594.496279L3414.916212 2585.316466L3422.048805 2576.150281L3429.201375 2566.997871L3436.373798 2557.859383L3443.565948 2548.734968L3450.777704 2539.624777L3458.008942 2530.528964L3465.25954 2521.447684L3472.529376 2512.381095L3479.818332 2503.329357L3487.126285 2494.292631L3494.453118 2485.27108L3501.798712 2476.264872L3509.162949 2467.274174L3516.545711 2458.299155L3523.946883 2449.339989L3531.366348 2440.39685L3538.803992 2431.469915L3546.259701 2422.559362L3553.733359 2413.665374L3561.224856 2404.788135L3568.734077 2395.927829L3576.260912 2387.084647L3583.80525 2378.258778L3591.366979 2369.450417L3598.945992 2360.65976L3606.542177 2351.887004L3614.155429 2343.132351L3621.785638 2334.396005L3629.432697 2325.678171L3637.096502 2316.97906L3644.776945 2308.298882L3652.473922 2299.637852L3660.187329 2290.996188L3667.917061 2282.374108L3675.663017 2273.771837L3683.425093 2265.189598L3691.203188 2256.627623L3698.997201 2248.08614L3706.807031 2239.565386L3714.632579 2231.065598L3722.473746 2222.587015L3730.330432 2214.129883L3738.202541 2205.694447L3746.089975 2197.280957L3753.992637 2188.889667L3761.910432 2180.520833L3769.843264 2172.174714L3777.791038 2163.851573L3785.75366 2155.551676L3793.731037 2147.275293L3801.723076 2139.022697L3809.729684 2130.794164L3817.75077 2122.589974L3825.786243 2114.410411L3833.836013 2106.255761L3841.899989 2098.126315L3849.978082 2090.022366L3858.070204 2081.944213L3866.176267 2073.892158L3874.296182 2065.866504L3882.429863 2057.867562L3890.577225 2049.895643L3898.73818 2041.951065L3906.912644 2034.034148L3915.100532 2026.145215L3923.30176 2018.284596L3931.516245 2010.452621L3939.743903 2002.649628L3947.984653 1994.875957L3956.238413 1987.13195L3964.505101 1979.417958L3972.784636 1971.734331L3981.076939 1964.081427L3989.381929 1956.459605L3997.699528 1948.869231M4477.635828 2303.279654L4442.121565 2355.725886L4399.490819 2423.188096L4349.768659 2505.444462L4293.090244 2602.284162L4229.703826 2713.508244L4159.977814 2838.9309L4084.412295 2978.380943L4003.655477 3131.703345L3918.525545 3298.760683L3830.038372 3479.43445L3805.435879 3531.299109L3781.284001 3583.189538L3757.572365 3635.096466L3734.289896 3687.010866L3711.424825 3738.923943L3688.964687 3790.827137L3666.896331 3842.712115L3645.205931 3894.570772L3623.878992 3946.395236L3602.900371 3998.177865M3010.35958 3102.86012L3029.345965 3069.972953L3046.052227 3041.903017L3060.47052 3018.302607L3072.632786 2998.837857L3082.603546 2983.187375L3090.47371 2971.040708L3096.355239 2962.096683L3100.376557 2956.061714L3102.678609 2952.648152L3103.411479 2951.572714L3110.080589 2942.093373L3116.774185 2932.62458L3123.492107 2923.166437L3130.2342 2913.719048L3137.000308 2904.282518L3143.790276 2894.856952L3150.603949 2885.442458L3157.441174 2876.039146L3164.301798 2866.647125L3171.185669 2857.266506L3178.092637 2847.897402L3185.022551 2838.539928L3191.975262 2829.194197L3198.950621 2819.860329L3205.948479 2810.538439L3212.968691 2801.228649L3220.01111 2791.931079L3227.075591 2782.645851L3234.161988 2773.37309L3241.270159 2764.112921L3248.39996 2754.86547L3255.551249 2745.630868L3262.723885 2736.409243L3269.917728 2727.200727L3277.132637 2718.005453L3284.368474 2708.823557L3291.625102 2699.655175L3298.902381 2690.500445L3306.200178 2681.359506L3313.518355 2672.232501L3320.856778 2663.119572L3328.215313 2654.020865L3335.593827 2644.936527L3342.992188 2635.866705L3350.410265 2626.81155L3357.847925 2617.771215L3365.305041 2608.745854L3372.781482 2599.735622L3380.277121 2590.740677L3387.79183 2581.76118L3395.325482 2572.797291L3402.877952 2563.849175L3410.449114 2554.916998L3418.038845 2546.000926L3425.647021 2537.101131L3433.273519 2528.217783L3440.918217 2519.351057L3448.580995 2510.501128L3456.261733 2501.668176L3463.96031 2492.852381L3471.676608 2484.053924L3479.410509 2475.272992L3487.161896 2466.509771L3494.930653 2457.764451L3502.716664 2449.037224L3510.519815 2440.328283L3518.33999 2431.637825L3526.177078 2422.96605L3534.030965 2414.313157L3541.90154 2405.679352L3549.788692 2397.06484L3557.69231 2388.46983L3565.612285 2379.894533L3573.548509 2371.339164L3581.500872 2362.803938L3589.469269 2354.289076L3597.453592 2345.794797L3605.453736 2337.321328L3613.469595 2328.868895L3621.501065 2320.437727L3629.548043 2312.028059L3637.610426 2303.640124L3645.688111 2295.274162L3653.780996 2286.930413L3661.888982 2278.609121L3670.011969 2270.310535L3678.149855 2262.034902L3686.302544 2253.782477L3694.469937 2245.553514L3702.651936 2237.348274L3710.848446 2229.167017L3719.05937 2221.01001L3727.284612 2212.877519L3735.524079 2204.769817L3743.777676 2196.687177L3752.045311 2188.629879L3760.32689 2180.598201L3768.622321 2172.592429L3776.931514 2164.612851L3785.254378 2156.659755L3793.590822 2148.733438L3801.940758 2140.834196L3810.304097 2132.96233L3818.68075 2125.118144L3827.07063 2117.301947L3835.473651 2109.514048L3843.889726 2101.754763L3852.31877 2094.024409M4439.40106 2214.271459L4400.791989 2269.967656L4351.417624 2345.463873L4292.314551 2439.369905L4224.638212 2550.301259L4149.638587 2676.879731L4068.638326 2817.734116L3983.011777 2971.500999L3894.163571 3136.825677L3803.505523 3312.363188L3712.430858 3496.779472L3678.128149 3568.895278L3644.708919 3641.047343L3612.146742 3713.213884L3580.412578 3785.373805L3549.474785 3857.506698L3519.299153 3929.592845L3489.848957 4001.61324L3461.085038 4073.549607L3432.965893 4145.384437L3405.447796 4217.10103M2898.251687 3186.439762L2917.990047 3153.645845L2935.903783 3124.677522L2951.88483 3099.431082L2965.847682 3077.808653L2977.727179 3059.718608L2987.476565 3045.075866L2995.065798 3033.802072L3000.480077 3025.825672L3003.718578 3021.081869L3004.793373 3019.512466L3011.535749 3010.303317L3018.303132 3001.106207L3025.095355 2991.921247L3031.91225 2982.748549L3038.753651 2973.588227L3045.619393 2964.440395L3052.509313 2955.305169L3059.423245 2946.182667L3066.361029 2937.073007L3073.322503 2927.976309L3080.307505 2918.892694L3087.315876 2909.822285L3094.347459 2900.765206L3101.402093 2891.721581L3108.479623 2882.691538L3115.579893 2873.675204L3122.702748 2864.672709L3129.848033 2855.684184L3137.015594 2846.709762L3144.205281 2837.749575L3151.41694 2828.803759L3158.650423 2819.872452L3165.905578 2810.955791L3173.182259 2802.053915L3180.480316 2793.166968L3187.799602 2784.295091L3195.139973 2775.438428L3202.501283 2766.597127L3209.883388 2757.771335L3217.286145 2748.961201L3224.709412 2740.166876L3232.153047 2731.388513L3239.616909 2722.626266L3247.100861 2713.880292L3254.604762 2705.150748L3262.128475 2696.437794L3269.671864 2687.741591L3277.234792 2679.062302L3284.817125 2670.400093L3292.418729 2661.755129L3300.039469 2653.12758L3307.679215 2644.517616L3315.337835 2635.92541L3323.015198 2627.351135L3330.711174 2618.794967L3338.425635 2610.257085L3346.158454 2601.737669L3353.909502 2593.236901L3361.678654 2584.754964L3369.465785 2576.292046L3377.270771 2567.848332L3385.093487 2559.424015L3392.933811 2551.019286L3400.791622 2542.634339L3408.666799 2534.26937L3416.55922 2525.924579L3424.468768 2517.600165L3432.395324 2509.296332L3440.33877 2501.013284L3448.29899 2492.751229L3456.275867 2484.510376L3464.269287 2476.290937L3472.279135 2468.093126L3480.305297 2459.917158L3488.347662 2451.763254L3496.406118 2443.631632L3504.480553 2435.522517L3512.570857 2427.436134L3520.676921 2419.372712L3528.798637 2411.332479L3536.935895 2403.31567L3545.088591 2395.322519L3553.256616 2387.353264L3561.439866 2379.408145L3569.638236 2371.487405L3577.851622 2363.591289L3586.079921 2355.720044L3594.32303 2347.87392L3602.580848 2340.05317L3610.853274 2332.25805L3619.140207 2324.488817L3627.441549 2316.745732L3635.7572 2309.029058L3644.087063 2301.33906L3652.43104 2293.676007M3985.007637 2712.53737L3957.306776 2755.962981L3933.192903 2796.973853L3909.635237 2839.74851L3883.716378 2888.469784L3852.668886 2947.321401L3813.941726 3020.487655L3765.304339 3112.155745L3705.000941 3226.520125L3631.975126 3367.787856L3546.195474 3540.183704L3498.242264 3641.003197L3452.072629 3741.872082L3407.619504 3842.740481L3364.805708 3943.560308L3323.544085 4044.2854L3283.737813 4144.871702L3245.280884 4245.277495L3208.05875 4345.46367L3171.949142 4445.39404L3136.823054 4545.035674M3106.520195 4594.497239L3091.830308 4553.325525L3078.08275 4512.109054L3065.2908 4470.848575L3053.467034 4429.544844L3042.623276 4388.198619L3032.77054 4346.810661L3023.918984 4305.381737L3016.077861 4263.912617L3009.255474 4222.404077L3003.459137 4180.856896L2991.676561 4043.246094L2991.310481 3905.249676L3002.359023 3766.902472L3024.687139 3628.241209L3058.033939 3489.304885L3102.026517 3350.135238L3156.19859 3210.777367L3220.011897 3071.28053L3292.878289 2931.699198L3374.180744 2792.094428L3380.300585 2782.145209L3386.444919 2772.203713L3392.613614 2762.270025L3398.806536 2752.344229L3405.023555 2742.426409L3411.264537 2732.516654L3417.529353 2722.615051L3423.81787 2712.72169L3430.129959 2702.836661L3436.465489 2692.960055L3442.824332 2683.091967L3449.206357 2673.232489L3455.611438 2663.381718L3462.039446 2653.539751L3468.490253 2643.706686L3474.963733 2633.882622L3481.459758 2624.067662L3487.978204 2614.261906L3494.518944 2604.465461L3501.081854 2594.678429L3507.666808 2584.90092L3514.273685 2575.133041L3520.902359 2565.374902L3527.552707 2555.626614L3534.224609 2545.888292L3540.917941 2536.160049L3547.632583 2526.442003L3554.368413 2516.73427L3561.125312 2507.036972L3567.90316 2497.35023L3574.701837 2487.674166L3581.521226 2478.008906L3588.361207 2468.354578L3595.221663 2458.711309L3602.102478 2449.07923L3609.003535 2439.458474L3615.924718 2429.849176L3622.865912 2420.251472L3629.827001 2410.6655L3636.807872 2401.0914L3643.808411 2391.529317L3650.828505 2381.979393L3657.868041 2372.441776L3664.926908 2362.916616L3672.004993 2353.404063L3679.102185 2343.90427L3686.218376 2334.417394L3693.353454 2324.943593L3700.50731 2315.483027L3707.679836 2306.035859L3714.870923 2296.602254L3722.080465 2287.182381L3729.308353 2277.776409L3736.554482 2268.384512L3743.818745 2259.006864L3751.101037 2249.643645L3758.401254 2240.295036L3765.719291 2230.961219L3773.055044 2221.642381L3780.408411 2212.338712L3787.779289 2203.050403L3795.167575 2193.777651L3802.573168 2184.520652L3809.995968 2175.279609L3817.435873 2166.054725L3824.892785 2156.846207L3832.366604 2147.654267L3839.85723 2138.479117L3847.364567 2129.320975L3854.888516 2120.180062L3862.42898 2111.056601L3869.985863 2101.950819L3877.559069 2092.862948L3885.148502 2083.793221L3892.754067 2074.741876L3900.37567 2065.709156L3908.013218 2056.695305L3915.666616 2047.700572L3923.335772 2038.725212L3931.020594 2029.76948L3938.720991 2020.833638L3946.43687 2011.91795L3954.168142 2003.022686L3961.914716 1994.14812L3969.676502 1985.294528L3977.453412 1976.462192L3985.245358 1967.651399L3993.05225 1958.86244L4000.874002 1950.09561L4008.710526 1941.351208L4016.561736 1932.629539L4024.427547 1923.930912L4032.307872 1915.255641L4040.202628 1906.604045L4048.111728 1897.976447L4056.03509 1889.373177L4063.97263 1880.794568L4071.924265 1872.24096L4079.889912 1863.712696L4087.869491 1855.210125L4095.862919 1846.733604L4103.870115 1838.283492L4111.890999 1829.860154L4119.925491 1821.463964L4127.973512 1813.095297L4136.034983 1804.754536L4144.109824 1796.442071L4152.197959 1788.158295L4160.299309 1779.90361L4168.413798 1771.678422L4176.541349 1763.483144L4184.681886 1755.318194L4192.835332 1747.183998L4201.001614 1739.080988L4209.180657 1731.009601L4217.372385 1722.970282M3290.415886 2916.284022L3280.029798 2923.045442L3269.647239 2929.832015L3259.268243 2936.643566L3248.892843 2943.479921L3238.521076 2950.34091L3228.152975 2957.226359L3217.788576 2964.136099L3207.427915 2971.06996L3197.071028 2978.027774L3186.717952 2985.009372L3176.368724 2992.01459L3166.023382 2999.04326L3155.681965 3006.095219L3145.34451 3013.170304L3135.011058 3020.268351L3124.681648 3027.389198L3114.356319 3034.532687L3104.035113 3041.698656L3093.718072 3048.886948L3083.405236 3056.097405L3073.096649 3063.329871L3062.792352 3070.584189L3052.49239 3077.860206L3042.196807 3085.157768L3031.905647 3092.476722L3021.618955 3099.816917L3011.336778 3107.178203L3001.059161 3114.560429L2990.786151 3121.963448L2980.517797 3129.387111L2970.254147 3136.831272L2959.995248 3144.295786L2950.637564 3155.207492L2941.290843 3166.119435L2931.955191 3177.031611L2922.630712 3187.944018L2913.317516 3198.856654L2904.015709 3209.769516L2894.725402 3220.682602L2885.446706 3231.595911L2876.179733 3242.509439L2866.924598 3253.423184L2857.681414 3264.337145L2848.450299 3275.251319L2839.23137 3286.165704L2830.024746 3297.080297L2820.830547 3307.995098L2811.648897 3318.910103L2802.479917 3329.825311L2793.323733 3340.74072L2784.18047 3351.656328L2775.050258 3362.572132L2765.933224 3373.488132L2756.8295 3384.404325L2747.739217 3395.320709L2738.662511 3406.237282L2729.599515 3417.154043L2720.550368 3428.070989L2711.515208 3438.98812L2702.494175 3449.905433L2693.48741 3460.822926L2684.495059 3471.740598L2675.517266 3482.658448L2666.554177 3493.576473L2657.605943 3504.494672L2648.672713 3515.413043L2639.75464 3526.331584L2630.851877 3537.250295L2621.964581 3548.169173L2613.09291 3559.088217L2604.237024 3570.007426L2595.397083 3580.926797L2586.573252 3591.84633L2577.765695 3602.766023L2568.974581 3613.685874L2560.200078 3624.605883L2551.442358 3635.526047L2542.701595 3646.446365L2533.977963 3657.366837L2525.271641 3668.287459L2516.582808 3679.208232L2507.911645 3690.129154L2499.258338 3701.050224L2490.623071 3711.971439L2482.006033 3722.8928L2473.407415 3733.814304L2464.82741 3744.735951L2456.266212 3755.657738L2447.724019 3766.579666L2439.20103 3777.501733L2430.697448 3788.423937L2422.213477 3799.346277L2413.749324 3810.268752L2405.305197 3821.191362L2396.881309 3832.114104L2388.477874 3843.036978L2380.095108 3853.959983L2371.73323 3864.883117L2363.392463 3875.806379L2355.073031 3886.729769L2346.775159 3897.653285L2338.499079 3908.576927L2330.245022 3919.500692L2322.013223 3930.424581L2313.803919 3941.348591L2305.617351 3952.272723L2297.453762 3963.196975L2289.313398 3974.121346L2281.196507 3985.045835L2273.103341 3995.970441L2265.034154 4006.895163L2256.989203 4017.820001L2248.968749 4028.744953L2240.973054 4039.670018L2233.002384 4050.595196L2225.057009 4061.520485L2217.1372 4072.445885L2209.243232 4083.371394L2201.375384 4094.297013L2193.533935 4105.222739L2185.719171 4116.148573L2177.931379 4127.074513L2170.170848 4138.000558L2162.437873 4148.926708L2154.732751 4159.852962L2147.05578 4170.779319L2139.407265 4181.705778L2131.78751 4192.632338L2124.196827 4203.558999L2116.635527 4214.48576L2109.103928 4225.412619L2101.602347 4236.339577L2094.131107 4247.266633L2086.690535 4258.193785L2097.537297 4251.568448L2108.385414 4244.961159L2119.234866 4238.372003L2130.085632 4231.801064L2140.937692 4225.248428L2151.791027 4218.71418L2162.645617 4212.198406L2173.501445 4205.70119L2184.35849 4199.222621L2195.216735 4192.762783L2206.076163 4186.321764L2216.936757 4179.89965L2227.798498 4173.496529L2238.66137 4167.112489L2249.525357 4160.747617L2260.390444 4154.402001L2271.256613 4148.07573L2282.12385 4141.768893L2292.992139 4135.481577L2303.861466 4129.213873L2314.731816 4122.96587L2325.603175 4116.737658L2336.475528 4110.529326L2347.348861 4104.340965L2358.223162 4098.172666L2369.098417 4092.024518L2379.974612 4085.896613L2390.851735 4079.789042L2401.729774 4073.701897L2412.608715 4067.63527L2423.488547 4061.589251L2434.369258 4055.563934L2445.250836 4049.559411L2456.13327 4043.575774L2467.016548 4037.613117L2477.900659 4031.671532L2488.785592 4025.751112L2499.671336 4019.851952L2510.557881 4013.974145L2521.445217 4008.117785L2532.333334 4002.282966L2543.22222 3996.469782L2554.111867 3990.678328L2565.002265 3984.908699L2575.893403 3979.160989L2586.785274 3973.435294L2597.677868 3967.731709L2608.571175 3962.05033L2619.465186 3956.391252L2630.359894 3950.754571L2641.255289 3945.140383L2652.151363 3939.548784L2663.048107 3933.979871L2673.945514 3928.43374L2684.843575 3922.910487L2695.742282 3917.41021L2706.641628 3911.933005L2717.541605 3906.478969L2728.442205 3901.0482L2739.34342 3895.640795L2750.245245 3890.256851L2761.14767 3884.896466L2772.05069 3879.559737L2782.954297 3874.246762L2793.858485 3868.95764L2804.763246 3863.692467L2815.668573 3858.451343L2826.574462 3853.234365L2837.480904 3848.041631L2848.387894 3842.87324L2859.295425 3837.72929L2870.203491 3832.60988L2881.112086 3827.515107L2892.021204 3822.445071L2902.930839 3817.39987L2913.840986 3812.379602L2924.751638 3807.384367L2935.66279 3802.414262L2946.574437 3797.469387L2957.486573 3792.54984L2968.399192 3787.655721L2979.312289 3782.787126L2990.225859 3777.944157M4589.654819 1544.682168L4597.075298 1534.041955L4604.509958 1523.406432L4611.95873 1512.775701L4619.421547 1502.149861L4626.89834 1491.529018L4634.389042 1480.913279L4641.893586 1470.302755L4649.411904 1459.69756L4656.943929 1449.09781L4664.489597 1438.503626L4672.048839 1427.915132L4679.621591 1417.332455L4687.207787 1406.755727L4694.807361 1396.185082L4702.42025 1385.620661L4710.046388 1375.062605L4717.685711 1364.511065L4725.338155 1353.96619L4733.003657 1343.428139L4740.682153 1332.897074L4748.37358 1322.37316L4756.077876 1311.856571L4763.794978 1301.347484L4771.524823 1290.846082L4779.267351 1280.352555L4787.022499 1269.867097L4794.790206 1259.389909L4802.570412 1248.921201L4810.363055 1238.461188L4818.168075 1228.01009L4825.985413 1217.568139L4833.815009 1207.13557L4841.656802 1196.712631L4849.510734 1186.299574L4857.376747 1175.896662L4865.25478 1165.504167L4873.144777 1155.122369L4881.046679 1144.751561L4888.960428 1134.392043M4610.57677 1537.051603L4617.966736 1526.367496L4625.370917 1515.687487L4632.789245 1505.011663L4640.221652 1494.340114L4647.66807 1483.672933L4655.128433 1473.010214L4662.602673 1462.352054L4670.090725 1451.698555L4677.59252 1441.04982L4685.107994 1430.405955L4692.637081 1419.767069L4700.179714 1409.133275L4707.73583 1398.50469L4715.305364 1387.881434L4722.88825 1377.263628L4730.484425 1366.651401L4738.093824 1356.044884L4745.716385 1345.444211L4753.352043 1334.849522L4761.000736 1324.26096L4768.662401 1313.678674L4776.336976 1303.102817L4784.024398 1292.533545L4791.724606 1281.971023L4799.437538 1271.415418L4807.163133 1260.866904L4814.90133 1250.32566L4822.652068 1239.791873L4830.415287 1229.265733L4838.190926 1218.747439L4845.978927 1208.237196L4853.779229 1197.735215L4861.591774 1187.241717L4869.416502 1176.756927L4877.253354 1166.281081L4885.102273 1155.814422L4892.9632 1145.357201L4900.836078 1134.909681L4908.720849 1124.47213M4629.872784 1532.584431L4637.228345 1521.857827L4644.598172 1511.134732L4651.982196 1500.41522L4659.38035 1489.699369L4666.792568 1478.987258L4674.218781 1468.27897L4681.658924 1457.574589L4689.11293 1446.874201L4696.580734 1436.177895L4704.062268 1425.485764L4711.557469 1414.797902L4719.066271 1404.114407L4726.588609 1393.435379L4734.124418 1382.760922L4741.673635 1372.091142L4749.236195 1361.426149L4756.812035 1350.766057L4764.401092 1340.110982L4772.003302 1329.461045L4779.618602 1318.816372L4787.246931 1308.177089L4794.888225 1297.54333L4802.542424 1286.915232L4810.209465 1276.292936L4817.889287 1265.676588L4825.58183 1255.066339L4833.287032 1244.462346L4841.004832 1233.864769L4848.735172 1223.273775L4856.477991 1212.689537L4864.233228 1202.112233L4872.000826 1191.542047L4879.780725 1180.979172L4887.572866 1170.423805L4895.377191 1159.87615L4903.193642 1149.33642L4911.02216 1138.804836L4918.862688 1128.281625L4926.715169 1117.767024M3885.601112 2693.899775L3889.321047 2662.126342L3893.980607 2630.197665L3899.574863 2598.115842L3906.098157 2565.88292L3913.544116 2533.50089L3921.905679 2500.971687L3931.175114 2468.297183L3941.344049 2435.479189L3952.403493 2402.519449L3964.343868 2369.419639L3984.262901 2318.588171L4006.173006 2267.440593L4030.027622 2215.98487L4055.778001 2164.228764L4083.373495 2112.179811L4112.761842 2059.845293L4143.889445 2007.232214L4176.701651 1954.347275L4211.143014 1901.196854L4247.157546 1847.786974L4254.075183 1837.781719L4261.008939 1827.785452L4267.958734 1817.798321L4274.92449 1807.820477L4281.90613 1797.852076L4288.903576 1787.893274L4295.91675 1777.944234L4302.945575 1768.00512L4309.989976 1758.0761L4317.049876 1748.157347L4324.125198 1738.249036L4331.215868 1728.351347L4338.32181 1718.464463L4345.44295 1708.588572L4352.579212 1698.723866L4359.730522 1688.87054L4366.896806 1679.028795L4374.077991 1669.198836L4381.274004 1659.380873L4388.484772 1649.575119L4395.710221 1639.781793L4402.95028 1630.00112L4410.204877 1620.233328L4417.47394 1610.478653L4424.757398 1600.737333L4432.055179 1591.009614L4439.367214 1581.295748L4446.693432 1571.59599L4454.033763 1561.910605L4461.388136 1552.23986L4468.756484 1542.584032L4476.138737 1532.943401L4483.534826 1523.318258L4490.944683 1513.708896L4498.368239 1504.115619L4505.805428 1494.538736L4513.256181 1484.978565L4520.720433 1475.43543L4528.198115 1465.909664L4535.689161 1456.401609L4543.193506 1446.911612L4550.711083 1437.440031L4558.241828 1427.987234L4565.785674 1418.553596L4573.342558 1409.139501L4580.912414 1399.745343L4588.495179 1390.371528L4596.090788 1381.018469L4630.142527 1339.641663L4664.923807 1298.336132L4700.478479 1257.077614L4736.847557 1215.834034L4774.069489 1174.565109L4812.180469 1133.222024L4851.214762 1091.747174L4891.20507 1050.073986L4932.182907 1008.126828L4974.179 965.821L4992.145568 947.90632L5010.333074 929.870662L5028.741582 911.704472L5047.370592 893.39435L5066.219151 874.923199L5085.285976 856.270503L5104.569603 837.412754L5124.068552 818.324058L5143.781503 798.976936L5163.707498 779.343367L5173.739817 769.420565L5183.793736 759.446892L5193.853675 749.435098L5203.904121 739.398239L5213.929634 729.349761L5223.914857 719.303586L5233.844519 709.274211L5243.703442 699.276816L5253.476554 689.327389L5263.148889 679.442854L5272.701602 669.644989L5282.108805 659.964752L5291.34333 650.43634L5300.378105 641.095236L5309.186148 631.978275L5317.74057 623.123701L5326.014568 614.571223L5333.981427 606.362038L5341.614518 598.538843L5348.887295 591.145814L5358.925005 581.099218L5368.024006 572.2485L5376.186107 564.649801L5383.412618 558.354221L5389.704272 553.405356L5395.061138 549.83701L5399.482561 547.67123L5402.967104 546.91681L5405.51251 547.568379L5407.115671 549.606147L5407.803664 552.967824L5407.631729 557.562713L5406.638099 563.314115L5404.860688 570.141431L5402.337089 577.961374L5399.104574 586.689113L5395.200097 596.239299L5390.660298 606.526937L5385.521505 617.468101L5379.819745 628.980488L5366.942582 653.345226L5352.33969 679.131591L5336.227457 706.048197L5318.825077 733.851819L5300.35432 762.336187L5281.039322 791.322665L5261.106423 820.652824L5240.784035 850.182799L5220.302535 879.779158L5199.89419 909.316066L5166.850218 957.672611L5134.244503 1006.059003L5101.974382 1054.487172L5069.93422 1102.965681L5038.015367 1151.500392L5006.106133 1200.095176L4974.091801 1248.752643L4941.854647 1297.474905L4909.273994 1346.264337L4876.226277 1395.124361L4831.171054 1460.548504L4785.273729 1525.935221L4738.648006 1591.2812L4691.412892 1656.586935L4643.692512 1721.854326L4595.615967 1787.085001L4547.31723 1852.279176L4498.935074 1917.434921L4450.613038 1982.54774L4402.499421 2047.610401L4374.638241 2085.449771L4346.814857 2123.293714L4318.977422 2161.121303L4291.072397 2198.912369L4263.044543 2236.647546L4234.836938 2274.308351L4206.390996 2311.877289L4177.646504 2349.337975L4148.541661 2386.675283L4119.013138 2423.875515L4096.755851 2451.430149L4074.246729 2478.876875L4051.48992 2506.209945L4028.489548 2533.423735L4005.249718 2560.512734L3981.774514 2587.471533L3958.068005 2614.294821L3934.134244 2640.977372L3909.977269 2667.514046L3885.601112 2693.899775M4742.500243 1210.471429L4742.802117 1211.653598L4743.120376 1212.898766L4743.455016 1214.206739L4743.806034 1215.577314L4744.173426 1217.01028M4790.678207 1157.162222L4790.939674 1158.244224L4791.221841 1159.41082L4791.524704 1160.661754L4791.848259 1161.996754L4792.192502 1163.41553M4849.787361 1093.647185L4849.97125 1094.462354L4850.178603 1095.380846L4850.409417 1096.402404L4850.663689 1097.526737M3055.724293 4652.635798L3036.598838 4604.32627L3019.039736 4557.480492L3003.165464 4512.530243L2989.061858 4469.900896L2976.78496 4430.011894L2966.36512 4393.277527L2957.812366 4360.108032L2951.123025 4330.911037L2946.287528 4306.093356L2943.299338 4286.063134L2941.072443 4267.180408L2937.649655 4235.581744L2933.828129 4193.64782L2930.400705 4143.759529L2928.064515 4088.285807L2927.3509 4029.573423L2928.578103 3969.938866L2931.828385 3911.662897L2936.950677 3856.988634L2943.588859 3808.124317M3009.974471 4715.308024L2987.724834 4662.29552L2967.210217 4610.606476L2948.61589 4560.794979L2932.078983 4513.405606L2917.691598 4468.973906L2905.506011 4428.027363L2895.542013 4391.08687L2887.796392 4358.668783L2882.254454 4331.287564L2878.903466 4309.459006L2876.778627 4290.781125L2873.647735 4259.606228L2870.259193 4218.263882L2867.357215 4169.083966L2865.591533 4114.384994L2865.448152 4056.464283L2867.202591 3997.590073L2870.897141 3939.996124L2876.343117 3885.879594L2883.148079 3837.403269M2946.845026 4805.664042L2920.217982 4747.059166L2895.474864 4689.436782L2872.927164 4633.539584L2852.811983 4580.095422L2835.294489 4529.81762L2820.474118 4483.406084L2808.394736 4441.549317L2799.058809 4404.927449L2792.445473 4374.216362L2788.532256 4350.092893L2786.692443 4331.585197L2784.412931 4300.686582L2782.29994 4259.700291L2780.954912 4210.930131L2780.884821 4156.670708L2782.433868 4099.199049L2785.737851 4040.76771L2790.702379 3983.599744L2797.005432 3929.886208L2804.123772 3881.787054M2873.913801 4915.520377L2842.038561 4851.443232L2812.063334 4787.724031L2784.508795 4725.361603L2759.783524 4665.332041L2738.183182 4608.588419L2719.896257 4556.06181L2705.017054 4508.663864L2693.566275 4467.291188L2685.519134 4432.831696L2680.840565 4406.172999L2679.122676 4387.10776L2677.365289 4354.481091L2676.161887 4310.901353L2676.096564 4258.977717L2677.631172 4201.309386L2681.021255 4140.476257L2686.262452 4079.031122L2693.068578 4019.493897L2700.88134 3964.348685L2708.91019 3916.044752M2801.561784 5034.276249L2763.056974 4963.776106L2726.057437 4892.183976L2691.520974 4820.973406L2660.225302 4751.580325L2632.754561 4685.400509L2609.498406 4623.789421L2590.666262 4568.065076L2576.318395 4519.514611L2566.414267 4479.405073L2560.877477 4448.998716L2559.416382 4430.535221L2558.320195 4399.271667L2558.055928 4357.631278L2559.082382 4308.038303L2561.746247 4252.908866L2566.204563 4194.642946L2572.374925 4135.617542L2579.914261 4078.181392L2588.225806 4024.651843L2596.492602 3977.314717M2705.602718 5201.977438L2659.303088 5127.00757L2612.808333 5047.780831L2568.005297 4966.620846L2526.503226 4885.788809L2489.576789 4807.473457L2458.131861 4733.785521L2432.704114 4666.758468L2413.498647 4608.357437L2400.475211 4560.498182L2393.478908 4525.077215L2391.948977 4506.942815L2390.763596 4476.206128L2390.431878 4435.261619L2391.454203 4386.504883L2394.210769 4332.322202L2398.878352 4275.081443L2405.376961 4217.124388L2413.347438 4160.760856L2422.159584 4108.26534L2430.948781 4061.877031M2597.21423 3539.951971L2624.006895 3493.977523L2654.490915 3442.369936L2687.642343 3387.788229L2722.205752 3332.829318L2756.68064 3280.005875L2789.340245 3231.733288L2818.275814 3190.329309L2841.460415 3158.030342L2856.828807 3137.027701L2862.373277 3129.525143L2869.364654 3120.614975L2876.380259 3111.717398L2883.419914 3102.832518L2890.483444 3093.960446L2897.570674 3085.101291L2904.681431 3076.255166L2911.815542 3067.422182L2918.972836 3058.602455L2926.153143 3049.796099L2933.356294 3041.003229L2940.582122 3032.223964L2947.830458 3023.458422L2955.101139 3014.706723L2962.393998 3005.968987L2969.708874 2997.245337L2977.045603 2988.535896L2984.404024 2979.840788L2991.783978 2971.16014L2999.185305 2962.494079L3006.607847 2953.842732L3014.051448 2945.20623L3021.515953 2936.584704L3029.001206 2927.978285L3036.507054 2919.387108L3044.033345 2910.811308L3051.579927 2902.25102L3059.146651 2893.706383L3066.733367 2885.177535L3074.339928 2876.664617L3081.966185 2868.16777L3089.611995 2859.687139L3097.277211 2851.222867L3104.96169 2842.775102L3112.665289 2834.343989L3120.387867 2825.929679L3128.129283 2817.532323L3135.889397 2809.152071L3143.668072 2800.789078L3151.46517 2792.443498L3159.280553 2784.115489L3167.114088 2775.805208L3174.965639 2767.512815L3182.835074 2759.238471L3190.722259 2750.98234L3198.627064 2742.744586L3206.549359 2734.525374L3214.489013 2726.324873L3222.445899 2718.143251L3230.41989 2709.98068L3238.410858 2701.837333L3246.418679 2693.713384L3254.443228 2685.609009L3262.484382 2677.524385L3270.542019 2669.459692L3278.616016 2661.415111L3286.706253 2653.390826L3294.812611 2645.387021L3302.934971 2637.403881L3311.073215 2629.441597L3319.227227 2621.500357L3327.396889 2613.580353L3335.582088 2605.68178L3343.78271 2597.804832L3351.99864 2589.949707L3360.229767 2582.116603L3368.47598 2574.305723L3376.737167 2566.517269L3385.01322 2558.751445L3393.304029 2551.008459L3401.609487 2543.288519L3409.929486 2535.591835L3418.263921 2527.918621M5948.369434 2318.369401L5957.416648 2325.24053L5966.468329 2332.137937L5975.524454 2339.061387L5984.585003 2346.010652L5993.649957 2352.985501L6002.719296 2359.985709L6011.793 2367.01105L6020.871048 2374.061301L6029.953422 2381.136241L6039.040102 2388.23565L6048.131069 2395.359311M5979.799067 2288.883939L5989.112746 2296.275967L5998.431566 2303.695317L6007.755502 2311.141723L6017.084531 2318.614927L6026.41863 2326.114669L6035.757774 2333.640694L6045.10194 2341.192749L6054.451106 2348.770581L6063.805248 2356.373943L6073.164342 2364.002588L6082.528367 2371.656272L6091.897299 2379.334754L6101.271116 2387.037794M6014.777809 2256.927595L6023.797707 2264.407509L6032.822826 2271.912474L6041.853145 2279.442242L6050.888638 2286.996568L6059.929284 2294.575209L6068.975058 2302.177926L6078.025939 2309.80448L6087.081903 2317.454636L6096.142927 2325.128161L6105.20899 2332.824826L6114.280069 2340.5444L6123.356141 2348.286659L6132.437184 2356.051379L6141.523176 2363.838338L6150.614096 2371.647318L6159.709921 2379.478101M6046.597442 2222.38125L6055.54033 2230.137573L6064.488823 2237.917939L6073.442896 2245.722098L6082.402525 2253.549803L6091.367685 2261.400809L6100.338351 2269.274875L6109.3145 2277.171761L6118.296107 2285.09123L6127.283148 2293.033049L6136.2756 2300.996986L6145.273438 2308.982813L6154.276639 2316.990303L6163.28518 2325.019232L6172.299036 2333.069379L6181.318186 2341.140525L6190.342605 2349.232453L6199.372271 2357.34495L6208.407161 2365.477804L6217.447251 2373.630806M6076.844489 2185.945833L6085.878149 2194.06917L6094.917923 2202.216522L6103.963785 2210.387623L6113.015707 2218.582212L6122.073662 2226.800028L6131.137624 2235.040816L6140.207567 2243.304322L6149.283463 2251.590297L6158.365286 2259.898493L6167.453011 2268.228666L6176.54661 2276.580574L6185.646059 2284.95398L6194.751332 2293.348648L6203.862402 2301.764345L6212.979244 2310.200841M6105.566819 2130.611533L6114.442572 2138.426692L6123.323734 2146.265531L6132.210282 2154.127794L6141.102193 2162.013223L6149.999443 2169.921567L6158.902009 2177.852576L6167.809868 2185.806003M4280.279201 1803.246815L4281.540708 1806.239152L4282.820666 1809.271096L4284.119059 1812.342449L4285.43587 1815.45301Z" style="fill: none; stroke: black; stroke-width: 15; marker-start: url(#point)"/>
</svg>
