<?xml version="1.0" encoding="UTF-8" standalone="no"?>
<!DOCTYPE svg PUBLIC "-//W3C//DTD SVG 1.1//EN" "http://www.w3.org/Graphics/SVG/1.1/DTD/svg11.dtd">
<svg width="744.09448819" height="1052.3622047" version="1.1" xmlns="http://www.w3.org/2000/svg" xmlns:xlink="http://www.w3.org/1999/xlink">
	<title/>
	<defs>
		<marker id="point" markerWidth="6" markerHeight="6" markerUnits="userSpaceOnUse" orient="auto" refX="0" refY="0"/>
	</defs>
	<marker id="point" markerWidth="6" markerHeight="6" markerUnits="userSpaceOnUse" orient="auto" refX="0" refY="0"/>
	<path d="M267.373601 699.240136L267.843839 699.420079L276.201779 702.663182L284.73752 706.062023L293.435546 709.614363L302.281847 713.31791L311.263783 717.17032L320.369946 721.169208L329.590038 725.312152L338.914762 729.596697L348.335715 734.020365L357.845297 738.580654L367.436627 743.27505L377.103467 748.101029L386.840156 753.056061L396.64155 758.137616L406.502969 763.343166L416.420149 768.670193L426.389199 774.116189L436.406564 779.678661L446.468993 785.355134L456.573504 791.143154L466.717367 797.040291L476.898068 803.044141L487.113299 809.152329L497.360932 815.36251L507.639005 821.67237L517.945705 828.079633L528.279357 834.582054L538.63841 841.177426L549.021426 847.86358L559.42707 854.638387L569.854104 861.499753L580.301374 868.445628L590.767806 875.474L601.2524 882.582899L611.754222 889.770393L622.2724 897.034595L622.632047 897.284119L622.81931 897.089958L628.768773 891.403659L634.847955 885.813779L641.053164 880.322155L647.380778 874.930638L653.827241 869.641089L660.389075 864.455381L667.062873 859.375392L673.84531 854.403009L680.733138 849.540121L687.72319 844.788619L694.812382 840.150393L701.997709 835.627329L709.276251 831.221308L716.645166 826.934199L724.101697 822.767862L731.643163 818.72414L739.266966 814.80486L746.970585 811.011825L754.751575 807.346814L762.607569 803.811579L770.536272 800.407839L778.535463 797.137279L786.602991 794.001545L794.736776 791.00224L802.934803 788.140921L811.195126 785.419096L819.515859 782.838222L827.895183 780.399695L836.331335 778.104854L844.822614 775.954975L845.337351 775.834139L844.802457 775.251292L836.07012 765.722663L827.38519 756.226673L818.749175 746.764567L810.163641 737.337648L801.630208 727.947285L793.150559 718.59491L784.726436 709.282026L776.359648 700.01021L768.052068 690.781114L759.805639 681.596474L751.622373 672.458112L743.504355 663.36794L735.453747 654.327967L727.472786 645.340303L719.56379 636.407162L711.729157 627.530875L703.971372 618.713888L696.293001 609.958772L688.696703 601.26823L681.185221 592.645104L673.761393 584.092378L666.428149 575.613191L659.188511 567.21084L652.045598 558.888793L645.002622 550.650688L638.062894 542.500351L631.229818 534.441797L624.506895 526.479241L617.897721 518.617103L611.405985 510.860022L605.035467 503.212854L598.790036 495.680687L592.673646 488.268844L586.690332 480.982886L580.844209 473.828621L575.139458 466.812104L569.580329 459.93964L564.171125 453.21778L558.916199 446.653325L558.720517 446.408435L558.319343 446.676324L548.113325 453.705788L537.924775 460.874455L527.754704 468.175932L517.604202 475.6041L507.474443 483.153118L497.366694 490.817408L487.282324 498.591655L477.222817 506.470796L467.189778 514.45001L457.184949 522.524715L447.210224 530.690549L437.267663 538.943373L427.359511 547.279249L417.488218 555.694441L407.656461 564.1854L397.867172 572.748755L388.123563 581.381308L378.429164 590.080022L368.787854 598.842013L359.20391 607.664545L349.682047 616.545018L340.227478 625.480964L330.845973 634.470041L321.543926 643.51002L312.328437 652.598788L303.2074 661.734333L294.189597 670.914744L285.284821 680.138206L276.503991 689.40299L267.859296 698.707451L267.373601 699.240136M268.949259 698.63426L277.855515 689.049378L286.906201 679.506997L296.088071 670.008932L305.389294 660.557096L314.79929 651.153501L324.308591 641.800268L333.908713 632.499631L343.592043 623.253944L353.351741 614.065691L363.18165 604.937487L373.076221 595.872093L383.030441 586.87242L393.03978 577.941536L403.10013 569.082682L413.207768 560.299273L423.359304 551.594914L433.551656 542.973407L443.782012 534.438761L454.047802 525.995204L464.346677 517.647193L474.676483 509.399428L485.035244 501.256854L495.421144 493.224683L505.83251 485.308396L516.267803 477.513757L526.725599 469.846819L537.204586 462.313937L547.703546 454.92177L558.221353 447.677288L563.476755 454.219497L568.885616 460.918177L574.443603 467.766606L580.14643 474.758304L585.989867 481.887035L591.969751 489.146808L598.081989 496.531874L604.322565 504.036727L610.687545 511.656095L617.173079 519.384939L623.775407 527.218444L630.490861 535.152014L637.315864 543.181264L644.246935 551.302015L651.280687 559.510281L658.41383 567.802268L665.643167 576.17436L672.9656 584.623117L680.378122 593.145263L687.877821 601.737678L695.461877 610.397397L703.12756 619.121594L710.872229 627.907582L718.693331 636.752804L726.588398 645.654824L734.555045 654.611327L742.590967 663.620104L750.693941 672.679058L758.861818 681.786186L767.092526 690.939585L775.384063 700.13744L783.734498 709.378021L792.141969 718.65968L800.60468 727.980847L809.120897 737.340022L817.688947 746.735777L826.30722 756.166748L834.974159 765.631633L843.688265 775.129191L835.222466 777.283711L826.811448 779.582321L818.456898 782.023749L810.160565 784.606663L801.924254 787.32967L793.749834 790.191321L785.639237 793.190116L777.59446 796.324506L769.617567 799.592896L761.710692 802.99365L753.876036 806.525094L746.115875 810.185518L738.432558 813.973183L730.828507 817.88632L723.306225 821.923138L715.868287 826.081823L708.51735 830.360545L701.25615 834.757457L694.087504 839.270703L687.014308 843.898415L680.039542 848.638721L673.166264 853.489744L666.397615 858.449609L659.736816 863.516439L653.187165 868.688363L646.752039 873.963515L640.434892 879.340037L634.239247 884.816081L628.168701 890.389812L622.226914 896.059405L611.739046 888.808633L601.267643 881.634223L590.81358 874.538056L580.377793 867.522051L569.961288 860.588168L559.565141 853.73841L549.190507 846.974816L538.838631 840.299467L528.510848 833.714484L518.208599 827.222024L507.933438 820.824283L497.687044 814.523492L487.471229 808.321918L477.287957 802.221864L467.139357 796.225661L457.027738 790.335675L446.955611 784.554296L436.925706 778.883943L426.940999 773.32706L417.004736 767.886108L407.120466 762.56357L397.292068 757.361943L387.523794 752.283733L377.820306 747.331458L368.186728 742.507637L358.628693 737.81479L349.152405 733.255431L339.764704 728.832065L330.473139 724.547183L321.286053 720.403257L312.212667 716.402732L303.263187 712.548023L294.448912 708.84151L285.782352 705.285529L277.277359 701.882368L268.949259 698.63426M679.391704 286.696639L678.822453 287.376143L670.660001 297.044611L662.566241 306.773902L654.543722 316.558409L646.595096 326.393167L638.72312 336.273765L630.930665 346.196279L623.220713 356.157206L615.596364 366.153412L608.060838 376.182082L600.617478 386.24069L593.269753 396.326955L586.021262 406.438818L578.87573 416.574416L571.837019 426.732056L564.90912 436.910202L558.096161 447.107454L557.882717 447.432259L558.048682 447.639176L563.322634 454.188017L568.750767 460.894419L574.32871 467.751604L580.052141 474.753039L585.916797 481.892436L591.91848 489.163755L598.053065 496.561201L604.316504 504.07922L610.704832 511.712498L617.214173 519.455955L623.840737 527.304736L630.58083 535.254208L637.430849 543.299952L644.38729 551.437753L651.446743 559.663595L658.605895 567.973654L665.861531 576.364286L673.210532 584.832024L680.649872 593.373567L688.176622 601.985773L695.787946 610.665652L703.481098 619.41036L711.253424 628.217189L719.102355 637.083563L727.025412 646.007031L735.020196 654.985258L743.084392 664.016023L751.215766 673.097213L759.41216 682.226813L767.67149 691.402905L775.991747 700.623664L784.370992 709.887347L792.807356 719.192297L801.299033 728.536933L809.844284 737.919747L818.441431 747.3393L827.088855 756.794221L835.784996 766.283201L844.528349 775.80499L845.140063 776.470847L845.308575 775.905012L847.798997 767.946306L850.412347 760.04996L853.147497 752.217936L856.003279 744.452266L858.97849 736.755047L862.071892 729.128446L865.282219 721.574704L868.608175 714.096132L872.048435 706.695117L875.601653 699.374121L879.26646 692.135683L883.041465 684.982421L886.925262 677.91703L890.916429 670.942287L895.013528 664.061047L899.215112 657.276249L899.352498 657.061957L899.113322 656.734547L891.712436 646.520124L884.37961 636.322401L877.116551 626.142196L869.925006 615.980376L862.806763 605.837867L855.763653 595.715654L848.797544 585.614791L841.910348 575.536402L835.104019 565.481688L828.380548 555.451934L821.74197 545.448519L815.190359 535.472917L808.727829 525.526713L802.356531 515.611608L796.078657 505.729431L789.896434 495.882151L783.812125 486.071888L777.828029 476.300931L771.946475 466.571748L766.169825 456.887009L760.500469 447.249599L754.940825 437.662647L749.493335 428.129541L744.160461 418.65396L738.944685 409.2399L733.848503 399.891705L728.874425 390.614105L724.024966 381.412252L719.302648 372.291761L714.70999 363.258761L710.249508 354.319945L705.923707 345.482622L701.735078 336.754782L697.686092 328.145163L693.779193 319.663316L690.016795 311.319685L686.401274 303.125683L682.934963 295.093776L679.620145 287.23756L679.391704 286.696639M678.878247 288.425985L682.288482 296.464636L685.857465 304.686728L689.582731 313.077809L693.461761 321.624653L697.491989 330.315169L701.67081 339.138312L705.995586 348.083996L710.463651 357.143014L715.07232 366.306958L719.818891 375.568147L724.700655 384.919561L729.714898 394.354782L734.858909 403.867937L740.129983 413.453646L745.525423 423.106978L751.04255 432.823408L756.678702 442.598781L762.431239 452.429275L768.297547 462.311375L774.27504 472.241842L780.361163 482.217686L786.553395 492.236149L792.849248 502.294682L799.246276 512.390923L805.742067 522.522688L812.334253 532.687949L819.020505 542.884825L825.79854 553.111567L832.666115 563.366549L839.621033 573.648256L846.661143 583.955277L853.784336 594.286294L860.988551 604.640078L868.271771 615.015479L875.632024 625.41142L883.067384 635.826895L890.57597 646.260958L898.155946 656.712725L893.979833 663.46462L889.906974 670.3116L885.938791 677.25078L882.076697 684.279356L878.322092 691.394601L874.67636 698.593868L871.140869 705.874584L867.716964 713.234257L864.405973 720.670466L861.209198 728.180868L858.127915 735.763189L855.163372 743.415231L852.316788 751.134861L849.589349 758.920018L846.982205 766.768705L844.496471 774.678991L835.785146 765.178538L827.12098 755.710682L818.50547 746.276663L809.940168 736.877781L801.426684 727.515397L792.966688 718.19094L784.561909 708.905905L776.214142 699.661862L767.925245 690.460457L759.697145 681.303419L751.53184 672.19256L743.431399 663.129783L735.397964 654.117088L727.433756 645.156573L719.541073 636.250442L711.722296 627.401013L703.979886 618.610717L696.316392 609.882112L688.734446 601.217885L681.236773 592.62086L673.826185 584.094003L666.505587 575.640434L659.277977 567.263428L652.146446 558.966429L645.114182 550.75305L638.184464 542.627091L631.360671 534.592537L624.646273 526.653572L618.044835 518.814584L611.560017 511.080173L605.195567 503.455159L598.955321 495.944588L592.843202 488.553737L586.863213 481.288123L581.019434 474.153503L575.316016 467.155878L569.757174 460.301497L564.34718 453.596852L559.090354 447.048682L565.852664 436.920987L572.728501 426.812439L579.713826 416.724433L586.804729 406.658497L593.997428 396.616312L601.28827 386.599728L608.67373 376.610788L616.150403 366.651752L623.715011 356.725124L631.364393 346.833686L639.095504 336.980538L646.905414 327.169139L654.791304 317.403361L662.750461 307.687547L670.780278 298.026584L678.878247 288.425985M381.30575 509.202146L381.182538 509.369465L373.26737 519.875494L365.48422 530.382494L357.8417 540.890407L350.349014 551.399181L343.015982 561.908768L335.85306 572.419123L328.871365 582.930205L322.082681 593.441975L315.499468 603.954398L309.134854 614.467438L303.002613 624.981066L297.117134 635.495253L291.493365 646.00997L286.146735 656.525193L281.093061 667.040898L276.348415 677.557061L271.928972 688.073663L267.85083 698.590683L268.781924 698.532013L272.843005 688.021388L277.244243 677.511159L281.969711 667.001344L287.003393 656.491963L292.329368 645.983037L297.931961 635.474589L303.795869 624.966643L309.906258 614.459225L316.248842 603.952362L322.809934 593.446083L329.576485 582.940421L336.536101 572.435409L343.677054 561.931084L350.988277 551.427484L358.45935 540.924653L366.080486 530.422636L373.84251 519.921482L381.736825 509.421244L392.320871 500.11605L402.910133 490.866958L413.504212 481.6772L424.102745 472.550238L434.705408 463.489782L445.311905 454.499809L455.921969 445.584585L466.535356 436.748688L477.151844 427.997031L487.771232 419.334887L498.393333 410.767921L509.017978 402.302212L519.645011 393.944289L530.274288 385.701158L540.905677 377.580338L551.539056 369.589891L562.174312 361.738458L572.811341 354.035286L583.450044 346.490264L594.090333 339.113949L604.732124 331.917589L615.375339 324.91314L626.019905 318.113281L636.665754 311.531408L647.312823 305.181625L657.961054 299.078716L668.610389 293.238095L679.260778 287.675738L679.173812 286.825847L668.51762 292.407189L657.862443 298.267174L647.208332 304.389707L636.555339 310.759272L625.903523 317.360995L615.252943 324.180692L604.603666 331.2049L593.95576 338.420885L583.309303 345.816641L572.664373 353.380881L562.021059 361.103018L551.379454 368.973138L540.739657 376.981973L530.10178 385.12087L519.465938 393.381754L508.832261 401.757103L498.200886 410.239904L487.571964 418.82363L476.94566 427.5022L466.322151 436.269955L455.701634 445.121625L445.084323 454.052301L434.470453 463.057414L423.860282 472.132703L413.254096 481.274198L402.652209 490.478199L392.054969 499.74125L381.462765 509.06013L381.305768 509.202159M451.175602 563.382019L451.096252 563.50617L444.620289 574.062819L438.31961 584.631973L432.20188 595.212964L426.274977 605.805173L420.546969 616.408021L415.026091 627.020969L409.720716 637.643513L404.639322 648.27518L399.790448 658.915529L395.182654 669.564146L390.824466 680.220643L386.724324 690.884656L382.890518 701.555841L379.331123 712.233875L376.053931 722.918457L373.066378 733.609299L370.375475 744.306132L369.927431 746.141193L371.227219 744.730336L378.698884 736.648369L386.325428 728.635479L394.097858 720.693969L402.007713 712.826225L410.047041 705.034716L418.208373 697.321998L426.484708 689.690714L434.869477 682.143597L443.35653 674.683472L451.940104 667.313257L460.614803 660.035963L469.375575 652.854697L478.217689 645.772663L487.136715 638.793163L496.128507 631.919592L505.189178 625.155445L514.315088 618.504313L523.502826 611.969879L532.749191 605.555923L542.051186 599.266312L551.405993 593.105003L560.81097 587.076034L570.263635 581.183524L579.761656 575.431666L589.302839 569.824719L598.885121 564.367002L608.50656 559.062885L618.165329 553.91678L627.859705 548.933133L637.588063 544.116406L637.727791 544.03721L637.783357 543.907952L643.234404 534.932902L648.806526 526.010532L654.49663 517.14357L660.301668 508.334915L666.218633 499.587652L672.244571 490.905062L678.376578 482.290637L684.611804 473.748097L690.947454 465.281401L697.380791 456.894766L703.909137 448.592681L710.529873 440.379928L717.24044 432.2616L724.038341 424.243117L730.921139 416.330249L737.886459 408.529131L738.999192 407.302935L737.391772 407.699798L726.973592 410.492855L716.564701 413.545685L706.165512 416.852581L695.776458 420.407546L685.398001 424.204345L675.03063 428.236545L664.674862 432.497562L654.33125 436.980703L644.000379 441.679204L633.682871 446.586267L623.379391 451.695095L613.090646 456.998922L602.81739 462.491039L592.560428 468.16482L582.320623 474.013741L572.098894 480.0314L561.896229 486.211532L551.713686 492.548022L541.552398 499.034913L531.413586 505.666417L521.298562 512.43692L511.208735 519.340985L501.14563 526.373358L491.110889 533.528964L481.106285 540.802912L471.13374 548.190491L461.195333 555.687169L451.29332 563.28859L451.175571 563.381994M451.810655 563.890719L461.647478 556.344283L471.520567 548.901543L481.427692 541.566777L491.366793 534.344428L501.335969 527.239119L511.33346 520.255643L521.357638 513.398973L531.406993 506.674257L541.480122 500.086817L551.575723 493.642151L561.692585 487.345921L571.829579 481.203954L581.985653 475.222233L592.159825 469.406882L602.351178 463.76416L612.558855 458.300445L622.782053 453.022212L633.020021 447.936019L643.272052 443.048479L653.537485 438.366238L663.815698 433.895941L674.106107 429.644204L684.408162 425.617578L694.721344 421.822508L705.045165 418.265298L715.379165 414.952065L725.722909 411.888697L736.075986 409.080807L728.732905 417.349551L721.482254 425.740992L714.326845 434.248018L707.26957 442.863968L700.313395 451.582607L693.461363 460.398102L686.716591 469.304994L680.082271 478.298177L673.561667 487.372875L667.158112 496.524618L660.875008 505.749223L654.715825 515.042777L648.684092 524.401612L642.783396 533.822296L637.017379 543.301611L627.343854 548.097094L617.70371 553.0575L608.098533 558.178434L598.530008 563.455518L588.99992 568.884407L579.510165 574.460797L570.062759 580.180435L560.659841 586.039126L551.303689 592.032744L541.996723 598.157231L532.741522 604.40861L523.540832 610.782983L514.397576 617.276542L505.314874 623.885564L496.296049 630.606419L487.344647 637.435569L478.464454 644.369572L469.659507 651.40508L460.93412 658.538838L452.292897 665.767688L443.740755 673.088568L435.282944 680.498506L426.925071 687.994625L418.673121 695.574139L410.533482 703.234351L402.512966 710.972653L394.618838 718.786522L386.858834 726.673522L379.241188 734.631296L371.774652 742.65757L374.479333 732.080555L377.472558 721.509526L380.747524 710.944748L384.297026 700.386504L388.113533 689.835096L392.189249 679.290841L396.516183 668.754078L401.086202 658.225166L405.891097 647.704489L410.922629 637.192454L416.172577 626.689496L421.632783 616.19608L427.295187 605.7127L433.151858 595.239889L439.195026 584.778212L445.417098 574.328279L451.810685 563.890743M429.221667 546.733129L434.499463 550.886248L439.909775 555.163476L445.447776 559.561968L451.108761 564.078886L451.896616 563.209044L446.245625 558.685093L440.717651 554.279643L435.317379 549.995542L430.049621 545.835645L429.221667 546.733129M268.597533 699.709054L276.932856 702.950875L285.442932 706.346793L294.112592 709.894599L302.928134 713.592026L311.877188 717.436761L320.948587 721.426448L330.132244 725.558697L339.419048 729.831087L348.80076 734.24117L358.269925 738.786481L367.819787 743.464539L377.444223 748.272856L387.13767 753.208936L396.895072 758.270284L406.711826 763.454409L416.583736 768.758827L426.506972 774.181065L436.478033 779.718666L446.493716 785.369189L456.551084 791.130215L466.647441 796.999347L476.780311 802.974215L486.947414 809.052476L497.146649 815.231817L507.37608 821.509959L517.633916 827.884652L527.918502 834.353684L538.228303 840.914877L548.561898 847.566092L558.917967 854.305226L569.295285 861.130214L579.692709 868.039032L590.109177 875.029694L600.543698 882.100254L610.995347 889.248806L621.46326 896.473484L621.747654 895.726672L611.284611 888.495921L600.837994 881.341262L590.408674 874.264564L579.997585 867.267735L569.605726 860.352723L559.23417 853.521518L548.884066 846.776147L538.556653 840.118678L528.25326 833.551217L517.975322 827.075909L507.724383 820.694934L497.502114 814.41051L487.310318 808.224889L477.150948 802.140357L467.02612 796.159231L456.93813 790.28386L446.889473 784.516619L436.882863 778.859911L426.921257 773.316161L417.007879 767.887815L407.146254 762.577338L397.340233 757.38721L387.594038 752.319921L377.912297 747.377969L368.300093 742.563858L358.763016 737.880089L349.307218 733.329161L339.939484 728.91356L330.667297 724.635761L321.498924 720.498218L312.443504 716.503362L303.511148 712.653592L294.713046 708.951271L286.061585 705.398721L277.570477 701.998215L269.254893 698.751975L268.597533 699.709054M542.048733 638.479995L541.990256 638.59597L537.262657 648.442649L532.714525 658.3212L528.350494 668.230209L524.175163 678.168342L520.193074 688.134336L516.408699 698.126998L512.826415 708.145199L509.450484 718.187871L506.285035 728.254001L503.334039 738.34263L500.601288 748.452847L498.090375 758.583791L495.80467 768.73464L493.7473 778.904618L491.921131 789.092984L490.328745 799.299035L488.972428 809.522103L488.768032 811.258322L489.875607 810.067967L496.441319 803.199677L503.152537 796.418201L510.003516 789.725775L516.988701 783.124681L524.102724 776.61725L531.340412 770.205855L538.69678 763.892914L546.167032 757.680887L553.74656 751.572279L561.430937 745.569629L569.215917 739.675518L577.097429 733.892562L585.071571 728.223408L593.134609 722.670734L601.282965 717.237245L609.513217 711.925672L617.822094 706.738762L626.206464 701.679279L634.663337 696.750001L643.189852 691.95371L651.783277 687.293189L660.440999 682.771219L669.160522 678.390571L677.939463 674.153999L686.775542 670.064237L695.666582 666.123989L704.610503 662.335922L713.605317 658.702663L722.649122 655.226786L731.740104 651.91081L731.867611 651.851172L731.904502 651.730351L735.888274 643.449139L739.996963 635.230461L744.228498 627.076776L748.580797 618.990653L753.051766 610.974773L757.639304 603.031938L762.341307 595.165073L767.15567 587.37723L772.080291 579.671593L777.113074 572.051486L782.251932 564.520371L787.494787 557.081857L792.839576 549.739704L798.284253 542.497824L803.826787 535.360287L809.465169 528.331321L810.316326 527.283177L808.849636 527.488018L798.919422 528.927817L789.009625 530.579965L779.121025 532.442485L769.254439 534.513179L759.410725 536.789637L749.590785 539.269253L739.795565 541.949239L730.02606 544.826638L720.283316 547.89834L710.568434 551.161096L700.882573 554.611534L691.226954 558.246174L681.60286 562.061443L672.011646 566.053688L662.454741 570.219192L652.933651 574.554187L643.449967 579.054866L634.005365 583.717397L624.601621 588.537933L615.240606 593.512624L605.924301 598.637627L596.654802 603.909116L587.434322 609.323287L578.265208 614.876373L569.149942 620.564644L560.091153 626.384417L551.091625 632.332062L542.154311 638.404004L542.048733 638.479995M542.827279 639.141088L551.70394 633.113393L560.642297 627.208555L569.639446 621.430076L578.692645 615.781515L587.799304 610.266478L596.956976 604.888617L606.16335 599.651623L615.416239 594.559219L624.713577 589.615151L634.053408 584.823181L643.433883 580.187078L652.853248 575.710607L662.309846 571.39752L671.802102 567.251544L681.328528 563.27637L690.88771 559.475637L700.478306 555.852924L710.099044 552.411733L719.748715 549.155478L729.42617 546.087466L739.13032 543.210886L748.860124 540.528795L758.614598 538.044102L768.3928 535.759553L778.193837 533.677719L788.016857 531.800979L797.861047 530.131512L807.725634 528.671283L801.790048 536.122589L795.961725 543.693611L790.24304 551.379418L784.63639 559.175276L779.144192 567.076646L773.768885 575.07918L768.512921 583.178712L763.378765 591.371258L758.368892 599.653004L753.485779 608.020307L748.731908 616.469683L744.109755 624.997801L739.621789 633.601484L735.270469 642.277695L731.058233 651.023533L722.017424 654.325338L713.023084 657.785218L704.076996 661.400695L695.181022 665.169229L686.337111 669.088236L677.547301 673.155086L668.813726 677.367118L660.138617 681.72164L651.52431 686.215939L642.973249 690.847287L634.487991 695.612948L626.071212 700.51018L617.725709 705.536243L609.454413 710.688403L601.260385 715.963939L593.146827 721.360144L585.117086 726.874331L577.174663 732.503834L569.323209 738.246015L561.566542 744.098267L553.908643 750.058013L546.353666 756.122711L538.905939 762.289855L531.56997 768.556981L524.350449 774.921661L517.252253 781.381513L510.280445 787.934195L503.440276 794.577411L496.737183 801.308908L490.176791 808.126482L491.554317 798.019529L493.162118 787.929434L494.99795 777.856855L497.059286 767.802479L499.343335 757.767033L501.847055 747.751278L504.567175 737.756016L507.500217 727.782091L510.642511 717.830393L513.99022 707.901859L517.539358 697.997478L521.285809 688.118292L525.225352 678.265403L529.353676 668.439974L533.6664 658.643233L538.159091 648.876479L542.827279 639.141088M649.97833 732.333055L649.918947 732.460844L646.833208 741.801638L643.918748 751.185759L641.177901 760.611604L638.612904 770.077641L636.225883 779.582405L634.018848 789.124498L631.993685 798.70258L630.152148 808.315374L628.49585 817.961655L627.02626 827.640252L625.744693 837.350044L624.652306 847.08996L623.750093 856.858971L623.038881 866.656094L622.519323 876.480386L622.191901 886.330943L622.056917 896.206901L623.06565 896.64203L623.199909 886.777578L623.526031 876.938582L624.043714 867.12591L624.752482 857.340464L625.651686 847.583187L626.740505 837.855065L628.017955 828.157124L629.482887 818.490436L631.133994 808.856123L632.96982 799.255356L634.988764 789.689357L637.189083 780.159407L639.568907 770.666841L642.12624 761.213059L644.858969 751.799524L647.764875 742.427766L650.841638 733.099388L658.932741 728.376616L667.098377 723.782182L675.335843 719.318543L683.642543 714.98815L692.015983 710.793439L700.45377 706.736825L708.953606 702.820699L717.513287 699.047423L726.130695 695.419321L734.803801 691.938678L743.530654 688.60773L752.309384 685.428658L761.138197 682.403586L770.01537 679.53457L778.939248 676.823595L787.908246 674.272566L796.92084 671.883307L805.975567 669.657548L815.071024 667.596924L824.205861 665.70297L833.378784 663.977111L842.588549 662.420662L851.833961 661.034818L861.113872 659.820655L870.427178 658.779123L879.772819 657.91104L889.149775 657.217095L898.557066 656.697839L898.085366 655.689485L888.668164 656.210072L879.281239 656.905799L869.925573 657.776111L860.602184 658.820316L851.312134 660.037588L842.056526 661.426972L832.836507 662.987385L823.653274 664.717624L814.50807 666.616365L805.402191 668.682174L796.336986 670.913507L787.313859 673.308719L778.334275 675.866067L769.399758 678.583718L760.511896 681.459755L751.672344 684.49218L742.882827 687.678926L734.145141 691.017856L725.46116 694.506776L716.832835 698.143438L708.262201 701.925545L699.751377 705.850759L691.302573 709.916706L682.918089 714.120982L674.600325 718.46116L666.351779 722.934791L658.175053 727.539413L650.072858 732.272556L649.97833 732.333055M516.055814 617.251552L522.466374 622.621062L528.945287 628.067665L535.490071 633.589371L542.09834 639.184234L542.754132 638.416731L536.153946 632.815082L529.617366 627.28656L523.146777 621.833117L516.744657 616.456743L516.055814 617.251552M619.062879 705.675278L626.751496 712.429777L634.485006 719.242638L642.261787 726.112218L650.080287 733.036923L650.64431 732.346839L642.83267 725.415547L635.062879 718.539307L627.336493 711.719713L619.655135 704.958411L619.062879 705.675278Z" style="fill: none; stroke: black; stroke-width: 3; marker-start: url(#point)"/>
</svg>
