<?xml version="1.0" encoding="UTF-8" standalone="no"?>
<!DOCTYPE svg PUBLIC "-//W3C//DTD SVG 1.1//EN" "http://www.w3.org/Graphics/SVG/1.1/DTD/svg11.dtd">
<svg width="0" height="28.258722306793743" version="1.1" xmlns="http://www.w3.org/2000/svg" xmlns:xlink="http://www.w3.org/1999/xlink">
	<title/>
	<defs>
		<marker id="point" markerWidth="6" markerHeight="6" markerUnits="userSpaceOnUse" orient="auto" refX="0" refY="0"/>
	</defs>
	<marker id="point" markerWidth="6" markerHeight="6" markerUnits="userSpaceOnUse" orient="auto" refX="0" refY="0"/>
	<path d="M-490.098049-101.937641L-496.051097-112.60769L-501.837697-123.272613L-507.451982-133.932222L-512.887994-144.586318L-518.1397-155.234692L-523.201009-165.877125L-528.065795-176.513387L-532.727922-187.143236L-537.181263-197.766417L-541.419737-208.382661L-545.437332-218.991685L-549.228144-229.593191L-552.786405-240.186865L-556.106522-250.772374L-559.183114-261.349367L-562.011051-271.917473L-564.585486-282.4763L-566.9019-293.025431L-568.956132-303.564426L-570.744418-314.092818L-572.263422-324.61011L-573.510268-335.115777L-574.482564-345.609258L-575.178422-356.089958L-575.596485-366.557242L-575.735931-377.010433L-575.596485-387.448811L-575.178422-397.871605L-574.482564-408.277992L-573.510268-418.66709L-572.263422-429.037955L-570.744418-439.389576L-568.956132-449.720867L-566.9019-460.030661L-564.585486-470.317702L-562.011051-480.580638L-559.183114-490.818013L-556.106522-501.028253L-552.786405-511.209656L-542.453158-514.974508L-532.09519-518.522958L-521.714106-521.850188L-511.311379-524.95155L-500.888363-527.822594L-490.446303-530.459094L-479.986345-532.857079L-469.509549-535.012859L-459.016893-536.923051L-448.509282-538.584606L-437.987555-539.994829L-427.45249-541.151402L-416.904811-542.052405L-406.345188-542.696325L-395.77425-543.082077L-385.192578-543.209006L-374.600719-543.076897L-363.999181-542.685974L-353.388441-542.0369L-342.768943-541.13077L-332.141106-539.969103L-321.505321-538.55383L-310.861957-536.887275L-300.211359-534.972139L-289.553853-532.811481L-278.889745-530.408688L-268.219323-527.767458L-257.542861-524.891766L-246.860614-521.785842L-236.172825-518.454141L-225.479725-514.901315L-214.781529-511.132186L-204.078443-507.151715L-193.370663-502.96498L-182.658372-498.577149L-171.941745-493.993451L-161.220949-489.219161L-150.496142-484.259572L-139.767473-479.119975M-552.786405-240.186865L-547.848258-249.356738L-542.707814-258.482394L-537.371817-267.56218L-531.846953-276.594368L-526.139828-285.577154L-520.256947-294.50865L-514.204695-303.386883L-507.989322-312.209791L-501.616931-320.975217L-495.093468-329.680906L-488.42471-338.324501L-481.616267-346.903535L-474.673568-355.415432L-467.601867-363.857496L-460.406235-372.226909L-453.091563-380.520728L-445.662564-388.735875L-438.123773-396.869135L-430.47955-404.917151L-422.734083-412.876418L-414.891393-420.743276L-406.955337-428.51391L-398.929613-436.184342L-390.817765-443.750425L-382.623189-451.207845L-374.349134-458.55211L-365.998712-465.778555L-357.574901-472.882334L-349.080551-479.85842L-340.518388-486.701607L-331.891017-493.40651L-323.200934-499.967566L-314.450522-506.379038L-305.642064-512.635024L-296.777739-518.72946L-287.859634-524.656132L-278.889745-530.408688L-272.837348-521.166498L-266.675521-511.859865L-260.406998-502.492403L-254.03447-493.067487L-247.560578-483.588261L-240.987917-474.057662L-234.31903-464.478433L-227.556409-454.853138L-220.702495-445.184173L-213.759674-435.473783L-206.730283-425.724069L-199.6166-415.937001L-192.420855-406.114425L-185.14522-396.258074L-177.791817-386.369577L-170.362713-376.450461L-162.859924-366.502166L-155.285414-356.526044L-147.641094-346.523371L-139.928826-336.495347L-132.150421-326.443104L-124.307641-316.36771L-116.402202-306.270176L-108.435769-296.151452L-100.409963-286.01244L-92.326359-275.853993L-84.186487-265.676917L-75.991835-255.481976L-67.743847-245.269893L-59.443927-235.041356L-51.093436-224.797016L-42.693699-214.53749L-34.246-204.263367L-25.751587-193.975205L-17.211671-183.673533L-8.627428-173.358859L0-163.031661L-6.448843-159.790626L-12.82142-156.423488L-19.116244-152.93175L-25.331807-149.316949L-31.466585-145.580644L-37.519032-141.724424L-43.487587-137.749897L-49.370667-133.658691L-55.166678-129.452451L-60.874006-125.132837L-66.491025-120.70152L-72.016095-116.160179L-77.447565-111.510501L-82.783771-106.754179L-88.023042-101.892907L-93.163696-96.928379L-98.204048-91.86229L-103.142407-86.696328L-107.977078-81.43218L-112.706366-76.071523L-117.328578-70.616028L-121.842023-65.067354L-126.245016-59.42715L-130.535878-53.697054L-134.712941-47.878688L-138.774549-41.973661L-142.719062-35.983565L-146.544856-29.909975L-150.250327-23.754451L-153.833894-17.518532L-157.294003-11.203739L-160.629127-4.811574L-163.83777 1.656482L-166.91847 8.198968L-169.869803 14.814446L-172.690386 21.501496L-175.378875 28.258722L-185.86268 19.870372L-196.33782 11.528003L-206.803952 3.23276L-217.260715-5.014177L-227.707727-13.211596L-238.144589-21.358254L-248.570877-29.452872L-258.986145-37.494138L-269.38992-45.480703L-279.781707-53.411182L-290.160977-61.284154L-300.527173-69.09816L-310.879707-76.851703L-321.217951-84.543245L-331.541245-92.171213L-341.848883-99.733988L-352.140119-107.229915L-362.414159-114.657295L-372.670157-122.01439L-382.907214-129.299416L-393.124372-136.510551L-403.320608-143.645928L-413.494832-150.703637L-423.645876-157.681725L-433.772496-164.578198L-443.873356-171.391018L-453.947027-178.118105L-463.991976-184.757336L-474.006558-191.306547L-483.989004-197.763533L-493.937412-204.126051L-503.849736-210.391816L-513.723769-216.558507L-523.55713-222.623766L-533.347247-228.585201L-543.091341-234.440386L-552.786405-240.186865M-416.904811-259.651433Z" style="fill: none; stroke: black; stroke-width: 3; marker-start: url(#point)"/>
</svg>
