<?xml version="1.0" encoding="UTF-8" standalone="no"?>
<!DOCTYPE svg PUBLIC "-//W3C//DTD SVG 1.1//EN" "http://www.w3.org/Graphics/SVG/1.1/DTD/svg11.dtd">
<svg width="744.09448819" height="1052.3622047" version="1.1" xmlns="http://www.w3.org/2000/svg" xmlns:xlink="http://www.w3.org/1999/xlink">
	<title/>
	<defs/>
	<path d="M176.28125 201.03125l0 0.625l0 395.125l0 0.375l0.34375 0.0937l312.34375 91.6875l0.625 0.1875l0-0.65625l0.125-419.09375l0-0.40625l-0.40625-0.0937l-312.4375-67.71875l-0.59375-0.125zm1 1.21875l311.4375 67.5l-0.125 418.0625l-311.3125-91.375l0-394.1875z"/>
	<path d="M647.21875 206.59375l-0.6875 0.28125l-157.59375 62.21875l-0.3125 0.125l0 0.34375l0.1875 419.125l0 0.75l0.6875-0.28125l156.0625-63.1875l0.3125-0.125l0-0.34375l1.34375-418.15625l0-0.75zm-1 1.4375l-1.34375 417.125l-155.0625 62.78125l-0.1875-418.03125l156.59375-61.875z"/>
	<path d="M355.6875 137.40625l-0.15625 0.0625L176.96875 201.0625L177.3125 202L355.75 138.4375L646.78125 207.53125L647 206.5625l-291.15625-69.125l-0.15625-0.0312z"/>
	<path d="M355.71875 277.53125l-0.125 0.0312l-178.9375 47.96875l-1.8125 0.46875l1.8125 0.5l311.625 83.5l0.15625 0.0312l0.125-0.0625l157.59375-53.65625l1.5625-0.53125l-1.59375-0.4375l-290.28125-77.78125l-0.125-0.0312zm0 1.03125L644.3125 355.90625L488.375 409L178.71875 326l177-47.4375z"/>
	<path d="M355.21875 240.9375l0 37.125l1 0l0-37.125l-1 0z"/>
	<path d="M176.28125 202.65625l0 393.28125l1 0l0-393.28125l-1 0z"/>
	<path d="M355.71875 409l-0.125 0.0312L177 455.8125l-1.78125 0.46875l1.78125 0.5L488.28125 545l0.15625 0.0312l0.125-0.0625l156.71875-56.25l1.46875-0.53125l-1.53125-0.40625l-289.375-78.75l-0.125-0.0312zm0 1.03125l287.6875 78.28125L488.375 544L179.03125 456.3125L355.71875 410.03125z"/>
	<path d="M355.71875 544l-0.15625 0.0312l-178.5625 52.3125l0.28125 0.96875l178.4375-52.28125l289.59375 80.25l0.28125-0.96875l-289.75-80.28125l-0.125-0.0312z"/>
	<path d="M355.21875 374.34375l0 35.15625l1 0l0-35.15625l-1 0z"/>
	<path d="M355.1875 507.03125l0 37.4375l1.03125 0l0-37.4375l-1.03125 0z"/>
</svg>
