<?xml version="1.0" encoding="UTF-8" standalone="no"?>
<!DOCTYPE svg PUBLIC "-//W3C//DTD SVG 1.1//EN" "http://www.w3.org/Graphics/SVG/1.1/DTD/svg11.dtd">
<svg width="1141.370849898476" height="1226.9178279571715" version="1.1" xmlns="http://www.w3.org/2000/svg" xmlns:xlink="http://www.w3.org/1999/xlink">
	<title/>
	<defs>
		<marker id="point" markerWidth="6" markerHeight="6" markerUnits="userSpaceOnUse" orient="auto" refX="0" refY="0"/>
	</defs>
	<marker id="point" markerWidth="6" markerHeight="6" markerUnits="userSpaceOnUse" orient="auto" refX="0" refY="0"/>
	<path d="M282.842712 938.556871L290.658983 927.901253L298.669225 917.251594L306.858247 906.608105L315.212115 895.971005L323.718069 885.340524L332.364432 874.716903L341.140528 864.100397L350.036598 853.491269L359.043725 842.8898L368.153759 832.296281L377.359245 821.71102L386.653367 811.13434L396.029885 800.566581L405.483081 790.008102L415.007717 779.45928L424.598984 768.920511L434.252469 758.392215L443.964111 747.874835L453.730178 737.368837L463.547229 726.874715L473.412091 716.392991L483.321839 705.924217L493.273766 695.468978L503.26537 685.027894L513.294335 674.601621L523.358512 664.190858L533.455909 653.796345L543.584674 643.418871L553.743086 633.059272L563.929543 622.718441L574.142551 612.397328L584.38072 602.096949L594.64275 591.818384L604.927425 581.562792L615.233611 571.331409L625.560245 561.125559L635.906329 550.946661L646.270931 540.796237L656.653172 530.675922L667.05223 520.58747L677.46733 510.532771L687.897744 500.51386L698.342784 490.532928L708.801806 480.592343L719.274198 470.69466L729.759385 460.842644L740.256824 451.039287L750.766 441.287832L761.286428 431.591797L771.817646 421.955003L782.359221 412.381603L792.910738 402.876117L803.471805 393.443465L814.042052 384.089016L824.621125 374.818623L827.334663 380.751421L830.182694 386.900899L833.16384 393.256892L836.276675 399.809552L839.519737 406.549368L842.891521 413.467188L846.390489 420.554229L850.01507 427.80208L853.763666 435.202708L857.634648 442.74845L861.626369 450.432015L865.737158 458.246469L869.965327 466.185231L874.309172 474.242057L878.76698 482.411033L883.337024 490.686557L888.017571 499.063329L892.806884 507.536336L897.703222 516.100837L902.704843 524.752354L907.810007 533.486652L913.016977 542.299733L918.324021 551.187816L923.729415 560.147332L929.231443 569.174907L934.828397 578.267354L940.518584 587.42166L946.300321 596.634978L952.171941 605.904617L958.131791 615.22803L964.178235 624.602809L970.309655 634.026676L976.524449 643.497475L982.821037 653.013162L989.197855 662.571805L995.653363 672.17157L1002.18604 681.810721L1008.794387 691.487611L1015.476927 701.200676L1022.232203 710.948435L1029.058785 720.72948L1035.955262 730.542474L1042.920248 740.386146L1049.95238 750.259289L1057.050317 760.160754L1064.212742 770.08945L1071.438363 780.044335L1078.725909 790.024422L1086.074134 800.028765L1093.481815 810.056467L1100.947751 820.10667L1108.470766 830.178558L1116.049704 840.27135L1123.683435 850.384303L1131.37085 860.516705L1123.683435 864.594918L1116.049704 868.790976L1108.470766 873.103181L1100.947751 877.529821L1093.481815 882.069172L1086.074134 886.719504L1078.725909 891.47908L1071.438363 896.34616L1064.212742 901.319001L1057.050317 906.395864L1049.95238 911.575011L1042.920248 916.854707L1035.955262 922.233226L1029.058785 927.70885L1022.232203 933.279869L1015.476927 938.944585L1008.794387 944.701313L1002.18604 950.54838L995.653363 956.484131L989.197855 962.506924L982.821037 968.615136L976.524449 974.80716L970.309655 981.081411L964.178235 987.436321L958.131791 993.870342L952.171941 1000.381948L946.300321 1006.969634L940.518584 1013.631916L934.828397 1020.367334L929.231443 1027.174448L923.729415 1034.051843L918.324021 1040.998126L913.016977 1048.011927L907.810007 1055.0919L902.704843 1062.236721L897.703222 1069.445091L892.806884 1076.715732L888.017571 1084.047394L883.337024 1091.438845L878.76698 1098.888879L874.309172 1106.396313L869.965327 1113.959986L865.737158 1121.578761L861.626369 1129.251522L857.634648 1136.977176L853.763666 1144.754653L850.01507 1152.582902L846.390489 1160.460898L842.891521 1168.387633L839.519737 1176.362122L836.276675 1184.383401L833.16384 1192.450526L830.182694 1200.562571L827.334663 1208.718634L824.621125 1216.917828L814.042052 1209.774137L803.471805 1202.686968L792.910738 1195.657325L782.359221 1188.686229L771.817646 1181.774716L761.286428 1174.923838L750.766 1168.134661L740.256824 1161.408268L729.759385 1154.745756L719.274198 1148.148236L708.801806 1141.616836L698.342784 1135.152697L687.897744 1128.756974L677.46733 1122.430837L667.05223 1116.175469L656.653172 1109.992067L646.270931 1103.88184L635.906329 1097.846009L625.560245 1091.885809L615.233611 1086.002485L604.927425 1080.197292L594.64275 1074.471498L584.38072 1068.826378L574.142551 1063.263217L563.929543 1057.783309L553.743086 1052.387954L543.584674 1047.078458L533.455909 1041.856135L523.358512 1036.722302L513.294335 1031.67828L503.26537 1026.725393L493.273766 1021.864966L483.321839 1017.098324L473.412091 1012.426792L463.547229 1007.851692L453.730178 1003.374344L443.964111 998.996062L434.252469 994.718154L424.598984 990.541921L415.007717 986.468654L405.483081 982.499633L396.029885 978.636127L386.653367 974.879391L377.359245 971.230663L368.153759 967.691165L359.043725 964.2621L350.036598 960.94465L341.140528 957.739975L332.364432 954.649211L323.718069 951.673467L315.212115 948.813827L306.858247 946.071342L298.669225 943.447034L290.658983 940.941892L282.842712 938.556871Z" style="fill: none; stroke: black; stroke-width: 3; marker-start: url(#point)"/>
</svg>
