<?xml version="1.0" encoding="UTF-8" standalone="no"?>
<!DOCTYPE svg PUBLIC "-//W3C//DTD SVG 1.1//EN" "http://www.w3.org/Graphics/SVG/1.1/DTD/svg11.dtd">
<svg width="1039.5630140987" height="1294.8692540488312" version="1.1" xmlns="http://www.w3.org/2000/svg" xmlns:xlink="http://www.w3.org/1999/xlink">
	<title/>
	<defs>
		<marker id="point" markerWidth="6" markerHeight="6" markerUnits="userSpaceOnUse" orient="auto" refX="0" refY="0"/>
	</defs>
	<marker id="point" markerWidth="6" markerHeight="6" markerUnits="userSpaceOnUse" orient="auto" refX="0" refY="0"/>
	<path d="M282.842712 938.556871L290.517659 928.09148L298.37998 917.631834L306.415251 907.178132L314.610222 896.730581L322.952736 886.289399L331.43165 875.854813L340.036763 865.427062L348.758732 855.006397L357.589007 844.593079L366.51976 834.187384L375.543823 823.789601L384.654629 813.400032L393.846158 803.018997L403.112887 792.646832L412.44975 782.283888L421.852087 771.930538L431.315619 761.587172L440.836404 751.254203L450.41081 740.932066L460.035491 730.62122L469.707356 720.32215L479.423548 710.035368L489.181428 699.761417L498.978548 689.500869L508.812643 679.254333L518.68161 669.022452L528.583494 658.805908L538.516481 648.605427M583.095189 686.067781L573.934239 695.719214L564.827949 705.401333L555.779008 715.112892L546.790263 724.852708L537.864731 734.619657L529.005613 744.412671L520.216301 754.230734L511.500394 764.072881L502.861709 773.938193L494.304294 783.825795L485.832444 793.734855L477.450713 803.664579L469.163933 813.614209L460.977223 823.583026L452.89601 833.570339L444.926043 843.575493L437.073407 853.59786L429.344541 863.63684L421.746248 873.691862L414.285714 883.762377L406.970515 893.847862L399.808628 903.947815L392.808439 914.061758L385.978745 924.189231L379.328757 934.329794L372.86809 944.483025L366.606751 954.64852L360.555128 964.825891M447.213595 1000.444401L452.106746 990.633028L457.198657 980.84055L462.482763 971.067538L467.952553 961.314587L473.601594 951.582313L479.423548 941.871357L485.412196 932.182386L491.561444 922.516091L497.865341 912.873195L504.318089 903.254445L510.914047 893.660621L517.647741 884.092536L524.513866 874.551034L531.507291 865.036993L538.623056 855.551332L545.856376 846.095004L553.202642 836.669003L560.657413 827.274367L568.216418 817.912175L575.875553 808.583556L583.630876 799.289685L591.478604 790.031787L599.415106 780.811143L607.436904 771.629088L615.540662 762.487016L623.723186 753.386382L631.981416 744.328707L640.312424 735.315579M707.106781 794.159304L699.571662 802.511822L692.120374 810.919873L684.755654 819.381748L677.480326 827.895796L670.297299 836.460424L663.209574 845.074094L656.220237 853.735322L649.332467 862.442675L642.54953 871.19477L635.874779 879.990271L629.311658 888.827891L622.863696 897.706386L616.534505 906.624554L610.327781 915.581236L604.247297 924.575313L598.296903 933.605705L592.480517 942.671367L586.802126 951.771292L581.265772 960.904506L575.875553 970.070069L570.635611 979.267073L565.55012 988.49464L560.623287 997.751922L555.859327 1007.0381L551.262466 1016.352381L546.836916 1025.694001L542.586869 1035.062218L538.516481 1044.456318M632.455532 1095.850811L635.924925 1086.901006L639.555011 1077.983387L643.34307 1069.098762L647.286329 1060.247959L651.381969 1051.431832L655.627134 1042.651261L660.018939 1033.907153L664.554477 1025.200438L669.230826 1016.53208L674.045054 1007.903067L678.994229 999.314418L684.075423 990.767184L689.285714 982.262445L694.622199 973.801314L700.081992 965.38494L705.662231 957.014501L711.36008 948.691214L717.172737 940.416332L723.097433 932.191143L729.131437 924.016974L735.272058 915.895191L741.516648 907.8272L747.862601 899.814448L754.307359 891.858424L760.848412 883.96066L767.483298 876.122732L774.209604 868.346258L781.024968 860.632907M860.232527 933.107175L854.049478 940.226156L847.956728 947.412814L841.956238 954.665622L836.049994 961.983081L830.240007 969.36373L824.528313 976.806135L818.916968 984.308895L813.408048 991.87064L808.00365 999.490033L802.705883 1007.165765L797.516873 1014.896557L792.438757 1022.68116L787.47368 1030.518356L782.623792 1038.406953L777.891249 1046.345789L773.278206 1054.333729L768.786813 1062.369665L764.419214 1070.452517L760.177544 1078.58123L756.063921 1086.754774L752.080448 1094.972146L748.229202 1103.232366L744.512236 1111.534479L740.93157 1119.877553L737.489191 1128.260681L734.187042 1136.682974L731.027024 1145.14357L728.010989 1153.641625M824.621125 1216.917828L827.285024 1208.864672L830.078678 1200.853107L833.000784 1192.883969L836.049994 1184.958115L839.224922 1177.07642L842.524147 1169.239776L845.946216 1161.449095L849.489643 1153.705308L853.152916 1146.009367L856.934498 1138.362241L860.832831 1130.764921L864.846335 1123.218417L868.973415 1115.723761L873.21246 1108.282004L877.561847 1100.894219L882.019945 1093.5615L886.585113 1086.284963L891.255707 1079.065743L896.030076 1071.904999L900.906573 1064.80391L905.883547 1057.763679L910.959351 1050.785527L916.132343 1043.870701L921.400886 1037.020467L926.76335 1030.236113L932.218114 1023.51895L937.763568 1016.870309L943.398113 1010.291542M1029.563014 1091.186968L1024.402514 1097.280832L1019.32851 1103.445078L1014.342302 1109.678534L1009.44519 1115.98004L1004.638477 1122.348449L999.923466 1128.782629L995.301462 1135.281463L990.773765 1141.843845L986.341674 1148.468688L982.006484 1155.154915L977.769484 1161.901468L973.631955 1168.707301L969.595171 1175.571385L965.660396 1182.492706L961.828881 1189.470265L958.101865 1196.503077L954.480572 1203.590174L950.966211 1210.730603L947.559971 1217.923425L944.263021 1225.167719L941.076511 1232.462575L938.001567 1239.807103L935.039288 1247.200424L932.190749 1254.641676L929.456995 1262.13001L926.839043 1269.664595L924.337877 1277.244611L921.954446 1284.869254Z" style="fill: none; stroke: black; stroke-width: 3; marker-start: url(#point)"/>
</svg>
