<?xml version="1.0" encoding="UTF-8" standalone="no"?>
<!DOCTYPE svg PUBLIC "-//W3C//DTD SVG 1.1//EN" "http://www.w3.org/Graphics/SVG/1.1/DTD/svg11.dtd">
<svg width="1000.0" height="1028.2587223067937" version="1.1" xmlns="http://www.w3.org/2000/svg" xmlns:xlink="http://www.w3.org/1999/xlink">
	<title/>
	<defs>
		<marker id="point" markerWidth="6" markerHeight="6" markerUnits="userSpaceOnUse" orient="auto" refX="0" refY="0"/>
	</defs>
	<marker id="point" markerWidth="6" markerHeight="6" markerUnits="userSpaceOnUse" orient="auto" refX="0" refY="0"/>
	<path d="M509.901951 898.062359L503.948903 887.39231L498.162303 876.727387L492.548018 866.067778L487.112006 855.413682L481.8603 844.765308L476.798991 834.122875L471.934205 823.486613L467.272078 812.856764L462.818737 802.233583L458.580263 791.617339L454.562668 781.008315L450.771856 770.406809L447.213595 759.813135L443.893478 749.227626L440.816886 738.650633L437.988949 728.082527L435.414514 717.5237L433.0981 706.974569L431.043868 696.435574L429.255582 685.907182L427.736578 675.38989L426.489732 664.884223L425.517436 654.390742L424.821578 643.910042L424.403515 633.442758L424.264069 622.989567L424.403515 612.551189L424.821578 602.128395L425.517436 591.722008L426.489732 581.33291L427.736578 570.962045L429.255582 560.610424L431.043868 550.279133L433.0981 539.969339L435.414514 529.682298L437.988949 519.419362L440.816886 509.181987L443.893478 498.971747L447.213595 488.790344L457.546842 485.025492L467.90481 481.477042L478.285894 478.149812L488.688621 475.04845L499.111637 472.177406L509.553697 469.540906L520.013655 467.142921L530.490451 464.987141L540.983107 463.076949L551.490718 461.415394L562.012445 460.005171L572.54751 458.848598L583.095189 457.947595L593.654812 457.303675L604.22575 456.917923L614.807422 456.790994L625.399281 456.923103L636.000819 457.314026L646.611559 457.9631L657.231057 458.86923L667.858894 460.030897L678.494679 461.44617L689.138043 463.112725L699.788641 465.027861L710.446147 467.188519L721.110255 469.591312L731.780677 472.232542L742.457139 475.108234L753.139386 478.214158L763.827175 481.545859L774.520275 485.098685L785.218471 488.867814L795.921557 492.848285L806.629337 497.03502L817.341628 501.422851L828.058255 506.006549L838.779051 510.780839L849.503858 515.740428L860.232527 520.880025M447.213595 759.813135L452.151742 750.643262L457.292186 741.517606L462.628183 732.43782L468.153047 723.405632L473.860172 714.422846L479.743053 705.49135L485.795305 696.613117L492.010678 687.790209L498.383069 679.024783L504.906532 670.319094L511.57529 661.675499L518.383733 653.096465L525.326432 644.584568L532.398133 636.142504L539.593765 627.773091L546.908437 619.479272L554.337436 611.264125L561.876227 603.130865L569.52045 595.082849L577.265917 587.123582L585.108607 579.256724L593.044663 571.48609L601.070387 563.815658L609.182235 556.249575L617.376811 548.792155L625.650866 541.44789L634.001288 534.221445L642.425099 527.117666L650.919449 520.14158L659.481612 513.298393L668.108983 506.59349L676.799066 500.032434L685.549478 493.620962L694.357936 487.364976L703.222261 481.27054L712.140366 475.343868L721.110255 469.591312L727.162652 478.833502L733.324479 488.140135L739.593002 497.507597L745.96553 506.932513L752.439422 516.411739L759.012083 525.942338L765.68097 535.521567L772.443591 545.146862L779.297505 554.815827L786.240326 564.526217L793.269717 574.275931L800.3834 584.062999L807.579145 593.885575L814.85478 603.741926L822.208183 613.630423L829.637287 623.549539L837.140076 633.497834L844.714586 643.473956L852.358906 653.476629L860.071174 663.504653L867.849579 673.556896L875.692359 683.63229L883.597798 693.729824L891.564231 703.848548L899.590037 713.98756L907.673641 724.146007L915.813513 734.323083L924.008165 744.518024L932.256153 754.730107L940.556073 764.958644L948.906564 775.202984L957.306301 785.46251L965.754 795.736633L974.248413 806.024795L982.788329 816.326467L991.372572 826.641141L1000 836.968339L993.551157 840.209374L987.17858 843.576512L980.883756 847.06825L974.668193 850.683051L968.533415 854.419356L962.480968 858.275576L956.512413 862.250103L950.629333 866.341309L944.833322 870.547549L939.125994 874.867163L933.508975 879.29848L927.983905 883.839821L922.552435 888.489499L917.216229 893.245821L911.976958 898.107093L906.836304 903.071621L901.795952 908.13771L896.857593 913.303672L892.022922 918.56782L887.293634 923.928477L882.671422 929.383972L878.157977 934.932646L873.754984 940.57285L869.464122 946.302946L865.287059 952.121312L861.225451 958.026339L857.280938 964.016435L853.455144 970.090025L849.749673 976.245549L846.166106 982.481468L842.705997 988.796261L839.370873 995.188426L836.16223 1001.656482L833.08153 1008.198968L830.130197 1014.814446L827.309614 1021.501496L824.621125 1028.258722L814.13732 1019.870372L803.66218 1011.528003L793.196048 1003.23276L782.739285 994.985823L772.292273 986.788404L761.855411 978.641746L751.429123 970.547128L741.013855 962.505862L730.61008 954.519297L720.218293 946.588818L709.839023 938.715846L699.472827 930.90184L689.120293 923.148297L678.782049 915.456755L668.458755 907.828787L658.151117 900.266012L647.859881 892.770085L637.585841 885.342705L627.329843 877.98561L617.092786 870.700584L606.875628 863.489449L596.679392 856.354072L586.505168 849.296363L576.354124 842.318275L566.227504 835.421802L556.126644 828.608982L546.052973 821.881895L536.008024 815.242664L525.993442 808.693453L516.010996 802.236467L506.062588 795.873949L496.150264 789.608184L486.276231 783.441493L476.44287 777.376234L466.652753 771.414799L456.908659 765.559614L447.213595 759.813135M583.095189 740.348567Z" style="fill: none; stroke: black; stroke-width: 3; marker-start: url(#point)"/>
</svg>
