<?xml version="1.0" encoding="UTF-8" standalone="no"?>
<!DOCTYPE svg PUBLIC "-//W3C//DTD SVG 1.1//EN" "http://www.w3.org/Graphics/SVG/1.1/DTD/svg11.dtd">
<svg width="5814.936" height="2516.481" version="1.1" xmlns="http://www.w3.org/2000/svg" xmlns:xlink="http://www.w3.org/1999/xlink">
	<title/>
	<defs>
		<marker id="point" markerWidth="6" markerHeight="6" markerUnits="userSpaceOnUse" orient="auto" refX="0" refY="0"/>
	</defs>
	<marker id="point" markerWidth="6" markerHeight="6" markerUnits="userSpaceOnUse" orient="auto" refX="0" refY="0"/>
	<path d="M4710.757 2460.871L4813.104 2491.431M4725.587 2411.131L4862.22 2454.548M4666.979 2490.711L4737.488 2352.595M4613.813 2491.378L4690.751 2342.548M4560.139 2490.066L4654.221 2319.808M4563.229 2400.432L4605.883 2318.031M4910.046 2357.208L4859.849 2496.418M4945.645 2375.229L4901.876 2493.01M4981.123 2398.079L4941.64 2496.574M5019.44 2406.551L4982.1 2496.474M4882.933 2408.401L4836.825 2316.223M4845.184 2427.745L4758.362 2256.281M4793.266 2421.818L4723.587 2278.211M4754.878 2419.662L4738.771 2387.484M4708.341 2193.298L4561.599 2182.304M4750.647 2237.771L4558.904 2224.635M4751.696 2278.87L4559.953 2265.734M4720.202 2318.082L4562.745 2307.088M4608.763 2070.292L4560.017 2126.095M4638.199 2091.736L4580.881 2166.824M4664.402 2122.239L4622.083 2180.184M4689.641 2157.862L4666.608 2187.95M4596.605 1956.244L4557.703 1964.793M4604.88 1987.624L4565.978 1996.173M4615.604 2017.213L4576.701 2025.762M4627.669 2046.57L4575.909 2061.547M5199.623 1228.171C5097.322 1317.191 4991.887 1402.608 4883.577 1484.211C4768.155 1571.172 4649.47 1653.801 4527.854 1731.865M5145.146 834.416C5054.112 920.172 4958.673 1001.252 4859.332 1077.23C4777.691 1139.671 4693.416 1198.667 4606.805 1254.008M4422.057 429.937C4509.128 349.504 4600.194 273.395 4694.806 201.985C4761.544 151.614 4830.045 103.58 4900.143 58.001M5191.051 1107.919C5096.833 1190.837 4998.824 1269.45 4897.433 1343.427C4752.652 1449.064 4600.972 1545.245 4443.68 1631.151M4418.231 112.073L4548.053 2.939M5173.908 1043.18C5069.573 1130.754 4961.742 1214.163 4850.759 1293.143C4722.03 1384.753 4589.059 1470.401 4452.415 1549.723M4415.589 204.533C4480.828 139.213 4549.759 77.581 4621.944 20.03C4628.235 15.015 4634.551 10.03 4640.891 5.077M5165.337 987.952C5070.352 1069.676 4972.275 1147.806 4871.387 1222.12C4750.44 1311.207 4625.452 1394.808 4496.936 1472.58M4417.651 275.613C4494.723 205.419 4573.749 137.371 4654.606 71.574C4682.391 48.964 4710.393 26.619 4738.605 4.545M5161.349 927.669C5063.379 1018.245 4960.566 1103.581 4853.496 1183.192C4758.933 1253.503 4661.05 1319.349 4560.283 1380.437M4419.914 331.391C4496.11 262.329 4574.76 195.975 4655.667 132.497C4713.286 87.291 4772.047 43.543 4831.878 1.31M5153.283 876.586C5059.039 964.762 4960.088 1047.908 4856.993 1125.55C4774.5 1187.677 4689.354 1246.282 4601.866 1301.151M4415.628 388.268C4499.791 311.728 4587.02 238.561 4677.035 168.999C4742.824 118.159 4810.102 69.244 4878.752 22.339M5136.69 795.332C5065.36 867.166 4990.093 935.089 4911.337 998.695C4810.082 1080.474 4703.058 1155.11 4591.325 1221.865M4425.491 473.255C4510.881 391.908 4600.619 315.124 4694.191 243.34C4765.268 188.814 4838.557 137.172 4913.817 88.584M4429.682 507.532C4509.8 429.001 4594.293 354.934 4682.639 285.789C4759.371 225.734 4839.008 169.391 4921.179 117.024M508.043 1946.108C632.788 2131.767 892.209 2181.007 1077.407 2056.543C1266.004 1929.796 1316.022 1666.217 1189.584 1478.051C1060.83 1286.44 793.084 1235.623 601.946 1364.088C407.313 1494.901 355.696 1766.925 486.191 1961.115C619.069 2158.849 895.379 2211.287 1092.626 2078.707C1293.468 1943.711 1346.729 1663.002 1212.06 1462.616C1074.941 1258.584 789.824 1204.478 586.293 1341.291C379.066 1480.589 324.114 1770.231 463.075 1976.99C604.556 2187.497 898.731 2243.318 1108.723 2102.151C1322.517 1958.43 1379.208 1659.602 1235.832 1446.29C1089.865 1229.124 786.376 1171.54 569.74 1317.183C349.195 1465.454 290.716 1773.728 438.631 1993.777C589.21 2217.79 902.276 2277.187 1125.744 2126.94C1353.231 1973.992 1413.548 1656.007 1260.965 1429.03C1105.644 1197.978 782.732 1136.717 552.24 1291.697C317.618 1449.454 255.411 1777.423 412.792 2011.523C572.989 2249.81 906.023 2312.988 1143.735 2153.142C1385.693 1990.441 1449.843 1652.208 1287.528 1410.787C1122.319 1165.062 778.88 1099.915 533.746 1264.763C284.248 1432.546 218.102 1781.328 385.488 2030.274C555.848 2283.645 909.982 2350.815 1162.744 2180.826C1419.992 2007.82 1488.189 1648.194 1315.592 1391.514C1139.937 1130.287 774.812 1061.036 514.21 1236.31C248.998 1414.684 178.692 1785.453 356.646 2050.081C537.743 2319.383 914.162 2390.771 1182.821 2210.066C1456.217 2026.176 1528.689 1643.956 1345.23 1371.16C1158.542 1093.562 770.516 1019.977 493.578 1206.262C211.774 1395.822 137.075 1789.808 326.191 2070.997C518.625 2357.119 918.577 2432.96 1204.02 2240.94C1494.464 2045.556 1571.449 1639.481 1376.522 1349.67C1178.185 1054.791 765.981 976.631 471.798 1174.543C172.48 1375.91 93.145 1794.405 294.043 2093.074C498.444 2396.95 923.236 2477.491 1226.395 2273.527C1534.83 2066.012 1616.579 1634.758 1409.546 1326.99C1198.915 1013.874 761.195 930.886 448.814 1141.069C131.014 1354.898 46.787 1799.256 260.121 2116.371C477.151 2438.978 928.151 2524.478 1250.003 2307.909C1577.421 2087.594 1664.194 1629.776 1444.388 1303.062C1220.786 970.707 756.147 882.627 424.567 1105.756C87.272 1332.731-2.115 1804.373 224.338 2140.945C454.689 2483.311 933.336 2574.04 1274.904 2344.174C1622.342 2110.359 1714.414 1624.522 1481.134 1277.826C1243.852 925.182 750.823 831.732 398.997 1068.516C41.145 1309.355-53.684 1809.768 186.606 2166.859C306.68 2345.299 490.332 2459.302 689.08 2500.19M1020.948 2500.214C1118.958 2479.843 1214.243 2440.913 1301.159 2382.413C1669.705 2134.361 1767.363 1618.983 1519.876 1251.22C1268.17 877.186 745.211 778.075 372.04 1029.256C-7.483 1284.713-108.046 1815.454 146.83 2194.175C242.048 2335.66 374.958 2438.943 524.068 2500.176M1185.392 2500.051C1234.912 2479.323 1282.972 2453.59 1328.834 2422.718C1719.626 2159.66 1823.172 1613.145 1560.71 1223.177C1293.801 826.601 739.296 721.525 343.631 987.88C175.379 1101.144 58.843 1265.44-0.048 1447.641M1301.843 2500.014C1320.866 2489.18 1339.598 2477.574 1357.996 2465.188C1772.228 2186.317 1881.976 1606.994 1603.733 1193.63C1318.33 769.628 736.744 659.469 313.7 944.29C175.176 1037.553 69.673 1161.984-0.062 1302.172M1403.092 2500.056C1833.935 2198.574 1943.255 1599.535 1649.049 1162.509C1346.626 713.276 730.401 596.569 282.176 898.38C165.501 976.943 70.938 1076.377-0.049 1188.477M1497.712 2500.051C1902.492 2168.585 1993.951 1571.139 1696.765 1129.739C1376.419 653.941 723.722 530.341 248.986 850.042C151.015 916.019 67.765 995.891 0.011 1085.328M1589.137 2500.02C1760.173 2340.135 1870.007 2132.293 1912.411 1911.365C1938.716 1774.318 1939.074 1632.235 1911.999 1493.441C1898.462 1424.044 1876.551 1347.892 1849.112 1281.18C1835.392 1247.823 1827.488 1228.569 1795.071 1172.031M1679.166 2500.053C1833.79 2337.82 1934.063 2136.084 1974.986 1922.833C2002.825 1777.763 2003.198 1627.363 1974.533 1480.445C1960.2 1406.986 1938.607 1334.397 1909.558 1263.781M1769.131 2500.06C1909.375 2336.865 2001.279 2140.961 2040.815 1934.899C2070.269 1781.387 2070.658 1622.238 2040.318 1466.774C2032.733 1427.908 2023.228 1389.272 2011.776 1351.013M1859.892 2500.046C1987.368 2337 2071.837 2146.78 2110.048 1947.589C2141.198 1785.2 2141.604 1616.848 2109.504 1452.397C2105.491 1431.84 2100.97 1411.345 2095.938 1390.93M-0.052 2008.232C24.477 2082.945 59.336 2155.245 104.914 2222.961C184.451 2341.131 288.791 2434.161 406.789 2500.057M-0.027 2149.239C17.782 2184.767 38.03 2219.524 60.758 2253.286C127.614 2352.604 210.257 2435.192 303.172 2500.068M-0.005 2263.438C4.642 2270.74 9.395 2278.003 14.255 2285.222C69.961 2367.965 136.011 2439.747 209.562 2500.06M-0.024 2367.373C36.482 2415.558 76.47 2459.817 119.356 2500.043M-0.016 2466.402C10.002 2477.864 20.219 2489.083 30.626 2500.055M1831.532 1108.685C1821.446 1091.926 1810.885 1075.341 1799.845 1058.948C1440.78 525.767 709.298 387.279 177.294 745.631M1888.98 1073.393C1878.306 1055.659 1867.129 1038.109 1855.446 1020.763C1475.495 456.634 701.519 310.118 138.629 689.318M1966.526 1062.819C1946.063 1024.556 1938.638 1017.303 1913.919 980.606C1512.003 383.933 693.34 228.974 97.968 630.101M1762.144 1113.428C1422.932 609.669 716.694 460.632 214.053 799.165C133.053 853.719 61.559 917.244-0.039 987.556M1365.752 0C1368.195 35.409 1368.783 91.078 1364.566 126.265C1347.697 267.013 1278.129 401.568 1160.588 494.605C921.2 684.088 563.451 640.24 374.435 401.434C278.199 279.848 256.336 161.443 258.637 5.609M1401.302 0C1403.903 37.71 1404.428 93.364 1399.936 130.837C1381.964 280.731 1307.869 424.026 1182.682 523.102C927.753 724.858 546.796 678.156 345.533 423.842C243.074 294.376 216.183 166.752 224.152 4.533M1440.415 0C1443.182 40.144 1442.131 95.78 1437.346 135.672C1418.208 295.239 1339.324 447.778 1206.049 553.241C934.683 767.977 529.182 718.255 314.968 447.54C205.928 309.74 176.132 181.701 183.79 14.069M1481.683 0C1484.626 42.718 1481.995 98.335 1476.901 140.784C1456.529 310.579 1372.582 472.892 1230.755 585.106C942.01 813.564 510.561 760.649 282.655 472.593C166.66 325.983 134.196 185.451 138.589 5.792M1522.193 0C1525.321 45.438 1524.128 101.034 1518.708 146.186C1497.031 326.791 1407.732 499.433 1256.866 618.784C949.754 861.742 490.882 805.452 248.508 499.068C125.163 343.148 95.924 203.099 91.081 7.795M1568.102 0C1571.426 48.312 1568.644 103.886 1562.88 151.892C1539.823 343.919 1444.869 527.475 1284.453 654.364C957.936 912.64 470.093 852.784 212.434 527.037C81.326 361.282 50.62 218.04 50.218 9.486M1611.972 0C1615.502 51.348 1615.661 106.896 1609.532 157.919C1585.019 362.008 1484.091 557.09 1313.587 691.942C966.577 966.393 448.139 902.77 174.339 556.572C35.033 380.432 2.696 221.22 0.768 7.827M1662.992 0.717C1666.74 55.27 1665.301 110.074 1658.788 164.28C1632.736 381.105 1525.501 588.357 1344.346 731.614C975.7 1023.14 424.962 955.541 134.124 587.752C97.134 540.976 65.841 491.311 40.128 439.634C27.272 413.795 15.81 387.454 5.729 360.718M1715.246-2.71C1719.224 55.225 1717.693 113.427 1710.774 170.994C1683.097 401.26 1569.206 621.356 1376.809 773.484C985.328 1083.029 400.504 1011.231 91.685 620.656C52.412 570.987 27.299 537.485 0 482.613M1768.867 0C1773.088 61.504 1772.971 116.964 1765.623 178.076C1736.232 422.525 1615.316 656.171 1411.058 817.658C995.487 1146.21 374.701 1069.984 46.914 655.368C26.074 629.008 17.647 621.067 0 593.203M1830.039 0C1834.515 65.268 1831.274 120.694 1823.474 185.545C1792.274 444.952 1663.949 692.889 1447.179 864.247C1006.201 1212.844 347.79 1144.767 0 704.797M1888.327 0C1893.073 69.236 1892.746 124.625 1884.469 193.42C1851.362 468.596 1715.225 731.602 1485.262 913.367C1456.027 936.475 1425.89 957.803 1394.987 977.371C1364.084 996.938 1332.417 1014.744 1300.121 1030.807C1267.825 1046.869 1234.9 1061.189 1201.485 1073.784C1168.069 1086.379 1134.162 1097.25 1099.901 1106.413C1065.639 1115.577 1031.023 1123.034 996.19 1128.802C961.356 1134.571 926.305 1138.652 891.173 1141.062C856.042 1143.472 820.829 1144.212 785.673 1143.3C750.517 1142.389 715.417 1139.825 680.51 1135.628C645.604 1131.43 610.89 1125.599 576.506 1118.153C542.123 1110.707 508.069 1101.645 474.483 1090.986C440.896 1080.327 407.776 1068.071 375.261 1054.236C342.745 1040.401 310.833 1024.986 279.662 1008.012C248.491 991.037 218.06 972.501 188.507 952.423C158.955 932.345 130.279 910.725 102.619 887.58C74.958 864.435 49.002 848.314 0 796.494M1954.462 0C1959.491 73.419 1957.54 128.768 1948.76 201.718C1913.641 493.517 1769.269 772.405 1525.401 965.138C1494.401 989.637 1462.445 1012.25 1429.677 1032.996C1396.91 1053.742 1363.331 1072.62 1329.086 1089.65C1294.842 1106.68 1259.931 1121.861 1224.499 1135.214C1189.067 1148.568 1153.114 1160.092 1116.786 1169.806C1080.457 1179.521 1043.753 1187.426 1006.818 1193.542C969.883 1199.657 932.718 1203.982 895.467 1206.536C858.216 1209.09 820.88 1209.873 783.603 1208.905C746.327 1207.937 709.11 1205.217 672.098 1200.765C635.086 1196.313 598.279 1190.129 561.821 1182.232C525.364 1174.336 489.257 1164.726 453.646 1153.422C418.034 1142.119 382.917 1129.122 348.441 1114.451C313.964 1099.78 280.128 1083.435 247.078 1065.435C214.028 1047.435 181.763 1027.78 150.428 1006.489C119.094 985.199 88.691 962.273 59.363 937.731C44.699 925.459 19.619 904.236 5.511 891.159M2021.195 6.044C2026.524 83.872 2025.811 133.132 2016.501 210.461C2014.173 229.793 2011.394 249.071 2008.164 268.278C2004.934 287.484 2001.255 306.618 1997.128 325.66C1993.001 344.702 1988.427 363.653 1983.408 382.494C1978.389 401.335 1972.925 420.065 1967.019 438.666C1961.113 457.267 1954.764 475.738 1947.976 494.062C1941.188 512.385 1933.96 530.56 1926.295 548.568C1918.63 566.576 1910.527 584.417 1901.99 602.071C1893.453 619.726 1884.481 637.194 1875.077 654.457C1865.673 671.72 1855.837 688.779 1845.571 705.613C1835.305 722.447 1824.61 739.056 1813.487 755.423C1802.364 771.79 1790.814 787.914 1778.84 803.776C1766.866 819.638 1754.467 835.238 1741.645 850.557C1728.824 865.875 1715.581 880.913 1701.918 895.651C1688.255 910.389 1674.173 924.828 1659.674 938.947C1645.174 953.066 1630.258 966.867 1614.927 980.329C1599.596 993.792 1583.85 1006.917 1567.693 1019.685C1534.546 1045.878 1500.436 1070.061 1465.51 1092.254C1430.585 1114.446 1394.843 1134.648 1358.434 1152.88C1322.025 1171.111 1284.948 1187.372 1247.351 1201.682C1209.754 1215.991 1171.637 1228.35 1133.148 1238.778C1094.658 1249.206 1055.797 1257.702 1016.711 1264.288C977.626 1270.873 938.315 1275.547 898.929 1278.329C859.542 1281.111 820.079 1282.002 780.687 1281.021C741.295 1280.04 701.975 1277.187 662.874 1272.481C623.772 1267.776 584.89 1261.219 546.375 1252.83C507.859 1244.44 469.711 1234.219 432.077 1222.184C394.444 1210.15 357.325 1196.303 320.869 1180.664C284.413 1165.024 248.619 1147.592 213.636 1128.387C178.653 1109.182 144.481 1088.203 111.266 1065.472C78.052 1042.74 35.11 1009.707 3.96 983.489M2098.724 0C2104.527 82.267 2100.917 138.374 2091.08 220.046C2051.734 546.734 1888.595 858.78 1612.238 1077.139C1577.116 1104.89 1540.973 1130.511 1503.966 1154.023C1466.96 1177.535 1429.089 1198.938 1390.51 1218.254C1351.932 1237.569 1312.646 1254.796 1272.809 1269.956C1232.972 1285.117 1192.584 1298.21 1151.802 1309.257C1111.02 1320.304 1069.844 1329.305 1028.43 1336.281C987.016 1343.256 945.365 1348.207 903.632 1351.153C861.9 1354.099 820.086 1355.042 778.348 1354C736.611 1352.959 694.948 1349.935 653.519 1344.948C612.089 1339.961 570.891 1333.012 530.083 1324.121C489.274 1315.231 448.854 1304.399 408.98 1291.646C369.106 1278.894 329.777 1264.221 291.151 1247.648C252.524 1231.076 214.6 1212.604 177.534 1192.253C140.469 1171.903 104.262 1149.673 69.071 1125.587C51.475 1113.543 34.133 1101.035 17.065 1088.066M2175.936 0C2182.079 87.144 2176.829 143.251 2166.407 229.763C2124.716 575.814 1951.895 906.348 1659.142 1137.635C1621.94 1167.026 1583.657 1194.161 1544.459 1219.063C1505.261 1243.965 1465.148 1266.632 1424.285 1287.089C1383.422 1307.545 1341.81 1325.79 1299.615 1341.845C1257.42 1357.901 1214.641 1371.767 1171.445 1383.466C1128.249 1395.165 1084.635 1404.697 1040.77 1412.084C996.905 1419.471 952.788 1424.712 908.585 1427.831C864.383 1430.95 820.095 1431.947 775.887 1430.842C731.679 1429.738 687.551 1426.533 643.67 1421.249C599.788 1415.966 556.153 1408.604 512.93 1399.185C469.706 1389.767 426.895 1378.292 384.661 1364.783C342.428 1351.275 300.772 1335.732 259.861 1318.177C218.949 1300.622 178.781 1281.055 139.523 1259.499C100.265 1237.942 61.917 1214.396 24.644 1188.881M2254.112 0C2260.614 92.277 2256.741 148.383 2245.701 239.991C2223.621 423.208 2166.827 602.315 2076.802 766.23C2031.79 848.187 1973.509 935.279 1912.065 1008.255C1896.705 1026.499 1884.596 1040.888 1868.375 1057.985C1852.155 1075.083 1831.822 1094.888 1800.015 1123.966M1734.927 1184.517C1695.536 1215.634 1654.897 1244.428 1613.199 1270.915C1571.5 1297.402 1528.743 1321.581 1485.115 1343.468C1441.487 1365.355 1396.988 1384.95 1351.807 1402.268C1306.627 1419.585 1260.764 1434.626 1214.407 1447.405C1168.051 1460.184 1121.201 1470.701 1074.047 1478.971C1026.892 1487.242 979.432 1493.266 931.856 1497.059C884.28 1500.852 836.587 1502.413 788.967 1501.759C741.346 1501.105 693.798 1498.234 646.51 1493.163C599.223 1488.092 552.196 1480.821 505.619 1471.363C459.041 1461.906 412.913 1450.264 367.422 1436.451C321.932 1422.638 277.079 1406.655 233.053 1388.517C189.027 1370.379 145.827 1350.087 103.642 1327.654C61.457 1305.222 56.617 1299.883 16.651 1273.187M2336.884 3.022C2343.763 100.702 2340.835 153.783 2329.145 250.753C2305.766 444.694 2245.641 634.284 2150.339 807.79C2102.688 894.543 2046.243 977.275 1981.199 1054.52M1820.424 1218.442C1800.966 1235.489 1780.98 1252.125 1760.469 1268.326C1718.774 1301.26 1675.868 1331.665 1631.935 1359.568C1588.003 1387.47 1543.046 1412.869 1497.249 1435.79C1451.452 1458.711 1404.816 1479.154 1357.526 1497.143C1310.236 1515.132 1262.292 1530.668 1213.881 1543.775C1165.469 1556.882 1116.591 1567.56 1067.43 1575.835C1018.269 1584.109 968.827 1589.98 919.289 1593.472C869.751 1596.964 820.117 1598.077 770.573 1596.835C721.029 1595.594 671.576 1591.998 622.398 1586.073C573.221 1580.149 524.319 1571.894 475.88 1561.336C427.44 1550.777 379.462 1537.914 332.133 1522.771C284.804 1507.628 238.122 1490.206 192.274 1470.529C146.426 1450.851 101.412 1428.919 57.418 1404.757C35.421 1392.676 37.186 1392.86 15.722 1379.667M2430.726 0C2438.001 103.363 2429.304 159.462 2416.931 262.074C2392.184 467.297 2328.554 667.914 2227.7 851.51C2202.486 897.408 2174.946 942.244 2145.106 985.821M1878.57 1286.037C1857.98 1304.075 1836.83 1321.677 1815.125 1338.82C1771.005 1373.664 1725.605 1405.833 1679.12 1435.354C1632.634 1464.875 1585.064 1491.747 1536.606 1515.997C1488.147 1540.247 1438.801 1561.875 1388.763 1580.907C1338.725 1599.939 1287.995 1616.375 1236.771 1630.241C1185.547 1644.108 1133.828 1655.404 1081.812 1664.158C1029.795 1672.911 977.48 1679.121 925.064 1682.813C872.648 1686.506 820.131 1687.682 767.709 1686.366C715.287 1685.051 662.961 1681.245 610.927 1674.974C558.893 1668.703 507.151 1659.967 455.898 1648.794C404.645 1637.62 353.882 1624.008 303.803 1607.983C253.725 1591.959 204.332 1573.523 155.822 1552.701C107.312 1531.879 59.684 1508.671 13.136 1483.103M2517.441 4.533C2525.133 113.874 2522.347 165.434 2509.255 273.978C2483.069 491.067 2415.752 703.281 2309.059 897.488C2295.722 921.764 2281.771 945.758 2267.207 969.446M1971.994 1330.593C1930.801 1370.546 1918.526 1376.69 1872.603 1412.955C1779.268 1486.661 1680.51 1549.051 1577.996 1600.346M274.013 1697.594C168.075 1663.691 112.055 1645.228 13.585 1591.137M3307.693 4.727L3352.751 57.706M3234.937 4.425L3312.065 99.897M3173.359 8.503L3273.887 139.285M3113.61 7.602L3239.929 171.799M3892.625 705.85L4045.197 661.402M3880.058 674.017L4032.63 629.569M3943.342 619.753L4018.637 598.034M3766.229 738.444L3769.367 760.126M3797.616 715.384L3803.785 752.218M3828.648 694.196L3836.332 741.636M3862.501 663.991L3868.67 729.614M3728.563 768.94L3884.325 624.568M3699.177 736.836L3844.226 605.321M3668.06 708.358L3813.108 576.843M3635.524 680.978L3780.572 549.464M3787.269 542.963L3950.576 650.971M3811.107 506.549L3951.686 597.89M3843.125 475.416L3994.31 577.363M3870.696 446.209L4012.79 539.066M4176.02 633.548L4134.63 442.18M4133.524 642.949L4092.135 451.58M4093.304 655.662L4051.915 464.294M4053.326 670.154L4011.938 478.785M4203.336 751.546L4248.77 708.541M4177.219 724.602L4242.35 666.445M4149.68 700.833L4237.54 616.917M4120.937 678.048L4239.101 568.374M4170.609 557.193L4240.092 559.407M4161.281 513.16L4241.37 516.889M4155.797 473.516L4238.917 475.73M4081.878 424.583L4180.151 432.859M3976.966 510.769L4100.488 393.124M3951.238 483.987L4074.76 366.342M3924.059 460.382L4035.46 351.828M3895.67 437.765L3997.98 339.818M4241.16 372.311L4224.073 301.959M4230.286 459.471L4193.501 311.841M4196.988 473.917L4169.295 364.168M4006.155 324.383L4156.124 396.655M4035.382 298.252L4159.592 356.887M4062.637 270.41L4171.695 322.985M4091.562 244.831L4182.437 288.315M4218.793 280.849L4243.375 236.514M4190.999 266.354L4239.824 184.138M4162.902 254.796L4217.789 157.427M4134.104 244.358L4169.293 184.87M3748.243 1109.401L3671.952 1116.013M3732.847 1141.647L3673.223 1148.259M3714.125 1174.183L3677.229 1179.279M3693.71 1206.776L3682.574 1210.356M3744.123 1034.789L3752.774 943.901M3703.024 1093.278L3720.247 918.819M3665.105 1093.073L3675.899 963.614M3635.475 1021.592L3637.698 964.99M3613.041 957.953L3694.717 932.857M3601.173 919.19L3678.564 891.952M3586.413 882.793L3640.232 866.268M3570.027 846.755L3600.275 840.945M3551.054 772.425L3601.413 805.808M3572.646 744.48L3640.146 795.006M3591.095 715.655L3684.31 787.609M3608.469 685.848L3723.112 772.802M3761.416 1110.198L3687.996 1228.073M3788.689 1138.178L3720.572 1240.9M3813.499 1156.846L3749.169 1260.325M3839.187 1180.393L3768.796 1292.206M4090.699 2468.166L4014.974 2393.844M4062.545 2497.029L3986.82 2422.706M4005.992 2495.471L3962.087 2452.968M3937.878 2338.178L3815.416 2404.341M3958.029 2373.102L3844.657 2439.265M3980.453 2405.112L3823.897 2494.003M3970.279 2452.332L3884.181 2495.766M4141.879 2300.396L3996.227 2310.545M4144.43 2340.635L3964.685 2350.785M4150.313 2379.272L3970.568 2389.422M4141.936 2415.673L4046.286 2423.55M4111.238 2266.349L4049.599 2129.097M4080.976 2280.245L4019.336 2142.992M4052.945 2296.266L3991.306 2159.013M4025.381 2313.585L3963.742 2176.332M3887.523 2219.305L3855.478 2277.914M3945.583 2196.491L3868.081 2325.559M3972.537 2235.779L3897.308 2348.937M3991.449 2282.782L3957.13 2336.845M3746.98 2295.923L3764.671 2362.853M3776.947 2287.47L3801.456 2379.402M3805.138 2276.699L3831.92 2379.995M3833.076 2264.646L3859.858 2370.215M3649.174 2443.156L3712.438 2495.356M3659.385 2396.675L3777.198 2496.605M3681.788 2362.733L3829.147 2480.846M3702.928 2327.607L3850.288 2445.721M3905.703 1532.196L3910.948 1712.038M3846.046 1555.601L3849.684 1741.872M3791.255 1568.266L3794.893 1778.644M3745.898 1578.881L3751.144 1803.724M3717.448 1067.097L3855.662 1177.889M3741.948 1036.289L3880.162 1147.081M3762.96 1004.451L3901.174 1115.243M3782.788 971.502L3921.002 1082.295M3713.806 1359.007L3752.583 1346.808M3704.896 1324.835L3770.947 1303.545M3693.368 1292.611L3754.873 1275.866M3680.406 1260.638L3735.85 1245.409M5197.647 1064.182C5220.826 1061.828 5233.738 1060.622 5257.539 1060.622C5477.792 1060.622 5673.925 1163.894 5800.158 1324.656M5800.148 2175.618C5673.915 2336.376 5477.785 2439.643 5257.536 2439.643C4876.729 2439.643 4568.025 2130.939 4568.025 1750.133C4568.025 1738.232 4568.325 1726.403 4568.922 1714.651M5800.044 2113.962C5682.789 2288.458 5483.571 2403.278 5257.536 2403.278C4896.814 2403.278 4604.391 2110.855 4604.391 1750.133C4604.391 1727.588 4605.533 1705.309 4607.763 1683.352M5800.007 2043.881C5695.603 2236.281 5491.825 2366.912 5257.537 2366.912C4916.898 2366.912 4640.756 2090.771 4640.756 1750.133C4640.757 1728.843 4641.835 1707.805 4643.941 1687.071M5800.131 1956.661C5716.883 2175.246 5505.346 2330.547 5257.537 2330.547C4936.983 2330.547 4677.123 2070.687 4677.123 1750.133C4677.123 1710.063 4681.183 1670.943 4688.915 1633.159M5800.168 1789.709C5779.896 2071.703 5544.697 2294.181 5257.537 2294.181C4957.067 2294.181 4713.488 2050.603 4713.488 1750.133C4713.488 1712.574 4717.294 1675.904 4724.541 1640.488C4728.165 1622.78 4732.649 1605.385 4737.947 1588.349M5216.236 1245.071C5233.303 1243.337 5240.013 1242.449 5257.537 1242.449C5537.922 1242.449 5765.22 1469.747 5765.22 1750.133C5765.22 2030.518 5537.922 2257.816 5257.537 2257.816C4977.151 2257.816 4749.854 2030.518 4749.854 1750.133C4749.854 1715.084 4753.405 1680.866 4760.167 1647.817C4766.931 1614.768 4776.904 1582.889 4789.75 1552.52M5117.381 1300.004C5148.262 1290.543 5179.549 1284.332 5209.347 1281.248C5225.192 1279.639 5241.268 1278.815 5257.537 1278.815C5517.838 1278.815 5728.854 1489.831 5728.854 1750.133C5728.854 2010.434 5517.838 2221.45 5257.537 2221.45C4997.235 2221.45 4786.219 2010.434 4786.219 1750.133C4786.219 1717.595 4789.516 1685.828 4795.794 1655.146C4802.073 1624.464 4811.333 1594.869 4823.257 1566.675C4829.22 1552.578 4835.849 1538.831 4843.104 1525.475M5656.124 1750.133C5656.124 1970.266 5477.67 2148.719 5257.537 2148.719C5037.403 2148.719 4858.95 1970.266 4858.95 1750.133C4858.95 1722.616 4861.738 1695.75 4867.048 1669.804C4872.357 1643.856 4880.188 1618.828 4890.273 1594.985C4900.358 1571.142 4912.697 1548.484 4927.022 1527.279C4941.348 1506.074 4957.661 1486.322 4975.693 1468.289C4993.726 1450.257 5013.478 1433.944 5034.683 1419.618C5055.888 1405.293 5078.546 1392.954 5102.389 1382.869C5126.232 1372.784 5151.261 1364.953 5177.208 1359.644C5203.155 1354.334 5230.02 1351.546 5257.537 1351.546C5477.67 1351.546 5656.124 1529.999 5656.124 1750.133L5656.124 1750.133L5656.124 1750.133M5619.758 1750.133C5619.758 1950.182 5457.586 2112.354 5257.537 2112.354C5057.488 2112.354 4895.315 1950.182 4895.315 1750.133C4895.315 1725.127 4897.85 1700.712 4902.675 1677.132C4907.5 1653.553 4914.616 1630.807 4923.781 1609.14C4932.945 1587.472 4944.159 1566.882 4957.177 1547.611C4970.196 1528.341 4985.021 1510.391 5001.408 1494.004C5017.795 1477.616 5035.745 1462.792 5055.016 1449.773C5074.286 1436.754 5094.876 1425.541 5116.544 1416.377C5138.212 1407.212 5160.957 1400.096 5184.537 1395.271C5208.117 1390.445 5232.531 1387.911 5257.537 1387.911C5457.586 1387.911 5619.758 1550.083 5619.758 1750.133L5619.758 1750.133M5583.393 1750.132C5583.393 1930.098 5437.502 2075.988 5257.537 2075.988C5077.572 2075.988 4931.681 1930.098 4931.681 1750.132C4931.681 1727.637 4933.96 1705.674 4938.301 1684.461C4942.642 1663.249 4949.044 1642.787 4957.289 1623.295C4965.533 1603.802 4975.621 1585.279 4987.332 1567.943C4999.044 1550.608 5012.38 1534.46 5027.122 1519.718C5041.864 1504.976 5058.012 1491.64 5075.348 1479.928C5092.683 1468.216 5111.207 1458.129 5130.699 1449.884C5150.191 1441.64 5170.653 1435.238 5191.866 1430.897C5213.078 1426.556 5235.041 1424.277 5257.537 1424.277C5437.502 1424.277 5583.393 1570.167 5583.393 1750.132L5583.393 1750.132M5547.027 1750.132C5547.027 1910.014 5417.418 2039.623 5257.537 2039.623C5097.656 2039.623 4968.046 1910.014 4968.046 1750.132C4968.046 1730.147 4970.072 1710.635 4973.928 1691.79C4977.784 1672.945 4983.472 1654.767 4990.796 1637.45C4998.121 1620.133 5007.082 1603.677 5017.487 1588.276C5027.892 1572.875 5039.739 1558.529 5052.836 1545.432C5065.933 1532.335 5080.279 1520.487 5095.68 1510.083C5111.081 1499.678 5127.537 1490.717 5144.854 1483.392C5162.171 1476.067 5180.35 1470.38 5199.194 1466.524C5218.04 1462.668 5237.552 1460.642 5257.537 1460.642C5417.418 1460.642 5547.027 1590.252 5547.027 1750.132L5547.027 1750.132L5547.027 1750.132M5510.662 1750.132C5510.662 1889.93 5397.334 2003.257 5257.537 2003.257C5117.74 2003.257 5004.412 1889.93 5004.412 1750.132C5004.412 1732.658 5006.183 1715.597 5009.555 1699.119C5012.927 1682.641 5017.9 1666.747 5024.304 1651.605C5030.708 1636.463 5038.544 1622.075 5047.642 1608.608C5056.739 1595.142 5067.099 1582.598 5078.551 1571.146C5090.002 1559.695 5102.546 1549.335 5116.012 1540.238C5129.479 1531.14 5143.868 1523.304 5159.01 1516.9C5174.151 1510.495 5190.046 1505.522 5206.523 1502.151C5223.001 1498.779 5240.062 1497.008 5257.537 1497.008C5397.334 1497.008 5510.662 1610.336 5510.662 1750.132L5510.662 1750.132M5088.234 1349.361C5114.252 1338.356 5141.564 1329.811 5169.879 1324.017C5198.193 1318.223 5227.51 1315.18 5257.537 1315.18C5497.754 1315.18 5692.489 1509.915 5692.489 1750.133C5692.489 1990.35 5497.754 2185.085 5257.537 2185.085C5017.319 2185.085 4822.584 1990.35 4822.584 1750.133C4822.584 1720.106 4825.627 1690.789 4831.421 1662.475C4837.215 1634.16 4845.76 1606.848 4856.765 1580.83C4867.77 1554.811 4881.235 1530.086 4896.867 1506.947M5201.363 1100.36C5223.32 1098.13 5234.991 1096.988 5257.536 1096.988C5483.571 1096.988 5682.788 1211.807 5800.043 1386.302M5205.081 1136.538C5225.815 1134.432 5236.247 1133.353 5257.537 1133.353C5491.825 1133.353 5695.603 1263.984 5800.007 1456.384M5206.003 1171.862C5498.356 1148.684 5716.176 1315.147 5800.128 1539.879M5212.52 1208.893C5230.809 1207.035 5238.76 1206.084 5257.539 1206.084C5544.7 1206.084 5779.898 1428.562 5800.17 1710.556M1399.528 526.829C1048.538 405.623 680.44 440.516 369.876 593.224M2166.161 1004.636C2142.165 965.642 2133.445 955.611 2105.794 918.981C2050.493 845.721 1988.039 777.497 1919.065 715.543C1781.117 591.634 1617.09 492.802 1432.041 428.913C1053.981 298.385 657.501 335.985 322.997 500.482M2275.855 973.903C2250.015 931.917 2222.165 891.12 2192.389 851.678C2132.838 772.796 2065.585 699.336 1991.312 632.628C1842.765 499.211 1666.136 392.799 1466.872 324.016C1059.814 183.504 632.929 224.007 272.781 401.133M2387.831 928.302C2360.016 883.11 2317.179 822.055 2285.128 779.603C2221.025 694.699 2148.632 615.633 2068.683 543.833C1908.785 400.235 1718.66 285.706 1504.172 211.682C1066.061 60.482 606.617 104.093 219.008 294.744M2504.938 881.507C2491.149 856.53 2496.052 868.302 2481.087 843.99C2451.157 795.366 2418.899 748.12 2384.411 702.445C2315.435 611.094 2237.54 526.026 2151.514 448.777C1979.463 294.279 1774.89 171.061 1544.101 91.427C1401.288 42.149 1256.368 12.111 1112.13-0.117M811.529-0.134C584.273 19.049 363.764 81.335 161.448 180.857M2641.047 851.639C2626.215 824.775 2610.745 798.257 2594.648 772.108C2562.455 719.812 2527.757 668.998 2490.661 619.874C2416.47 521.625 2332.686 430.133 2240.157 347.052C2080.069 203.31 1893.805 84.747 1685.755-0.07M231.821-0.045C187.124 18.017 143.103 37.711 99.856 58.987M2778.883 804.288C2762.936 775.407 2733.445 723.324 2716.137 695.212C2681.522 638.987 2644.215 584.356 2604.33 531.541C2524.559 425.912 2434.474 327.549 2334.988 238.229C2235.885 149.254 2127.452 69.252 2010.59-0.016M3408.454 2500.015C3449.437 2364.434 3478.352 2227.79 3495.807 2091.271C3506.533 2007.382 3512.931 1923.54 3515.144 1840.022C3517.357 1756.503 3515.384 1673.307 3509.366 1590.71C3497.33 1425.516 3469.116 1262.717 3425.853 1104.518C3404.222 1025.418 3378.828 947.469 3349.814 870.945C3320.8 794.421 3288.164 719.324 3252.049 645.927C3224.841 590.563 3195.23 535.661 3164.979 483.773C3154.665 466.101 3144.14 448.548 3133.407 431.119C3090.474 361.402 3044.203 293.661 2994.735 228.174C2934.633 148.61 2869.811 72.371 2800.524-0.048M3679.794 1403.014C3674.457 1359.035 3672.339 1353.831 3664.886 1310.294C3649.377 1220.807 3629.87 1133.7 3607.732 1052.235C3584.585 967.366 3557.392 883.746 3526.303 801.666C3495.214 719.586 3460.229 639.047 3421.497 560.34C3401.797 520.322 3381.439 481.405 3360.609 443.69C3339.388 405.289 3317.25 367.382 3294.212 330.007C3248.137 255.256 3198.465 182.629 3145.345 112.419C3116.424 74.192 3086.48 36.682 3055.54-0.065M2455.198 2500.006C2484.809 2439.829 2510.975 2377.212 2533.365 2312.325C2570.477 2204.778 2595.635 2095.922 2609.573 1987.186C2623.51 1878.45 2626.226 1742.634 2609.388 1629.523M2592.667 2500.085C2614.366 2451.926 2634.05 2402.403 2651.582 2351.585C2691.506 2235.868 2718.568 2118.742 2733.558 2001.745C2748.547 1884.749 2751.465 1767.882 2743.098 1652.683C2741.006 1623.883 2740.084 1604.026 2738.469 1584.298C2736.854 1564.57 2716.413 1508.703 2711.549 1480.417M2199.954 2500.019C2247.822 2419.497 2288.2 2333.083 2319.845 2241.414C2335.861 2195.02 2346.276 2172.522 2357.213 2125.717M2324.502 2500.066C2362.814 2429.07 2395.853 2354.151 2422.946 2275.654C2440.188 2225.697 2454.654 2175.436 2466.428 2125.036C2478.203 2074.636 2487.286 2024.099 2493.763 1973.589C2497.001 1948.334 2496.566 1964.478 2498.512 1932.293M3225.735 2500.018C3272.064 2357.888 3303.993 2214.317 3322.338 2070.894C3332.33 1992.784 3338.292 1914.717 3340.355 1836.95C3342.419 1759.184 3340.586 1681.718 3334.986 1604.809C3323.786 1450.992 3297.521 1299.404 3257.244 1152.099M2737.754 2500.072C2752.185 2465.204 2765.648 2429.707 2778.102 2393.603C2799.567 2331.372 2817.575 2268.762 2832.231 2205.981C2839.559 2174.59 2837.478 2181.728 2843.143 2150.277M2891.13 2500.076C2898.877 2479.757 2906.322 2459.249 2913.459 2438.556C2959.608 2304.739 2982.316 2207.865 2999.636 2072.57M3053.536 2500.078C3055.111 2495.604 3056.673 2491.122 3058.221 2486.632C3107.812 2342.81 3141.421 2197.239 3160.027 2051.83C3164.679 2015.478 3159.821 2017.707 3162.613 1981.405M3602.536 2500.004C3638.801 2371.046 3665.049 2241.391 3681.723 2111.903C3693.336 2021.717 3700.305 1931.612 3702.779 1841.879C3705.253 1752.147 3703.233 1662.787 3696.867 1574.093M3707.029 1400.521C3701.693 1356.543 3699.574 1351.338 3692.122 1307.801C3676.613 1218.314 3657.106 1131.207 3634.968 1049.742C3611.821 964.873 3584.628 881.253 3553.539 799.173C3522.45 717.094 3487.465 636.554 3448.733 557.847C3429.033 517.829 3408.674 478.912 3387.844 441.197C3366.624 402.796 3344.486 364.89 3321.448 327.514C3275.373 252.763 3225.7 180.137 3172.581 109.926C3144.314 72.564 3115.07 35.887 3084.873-0.063M3012.199 522.574C2972.225 457.657 2929.143 394.58 2883.084 333.601C2792.454 213.613 2694.572 106.022 2581.892 4.233M2843.299 567.628C2806.094 507.202 2795.996 491.346 2753.126 434.586C2667.388 321.064 2570.566 215.353 2463.639 119.362C2417.172 77.647 2368.796 37.768 2318.593-0.119M2806.119 801.796C2790.172 772.914 2760.68 720.831 2743.373 692.719C2708.758 636.494 2671.451 581.863 2631.565 529.049C2551.794 423.42 2461.71 325.056 2362.224 235.737C2264.288 147.809 2157.241 68.646 2041.953-0.056M2668.283 849.146C2653.451 822.283 2637.981 795.764 2621.884 769.616C2589.69 717.319 2554.993 666.506 2517.897 617.381C2443.706 519.132 2359.922 427.64 2267.393 344.559C2108.843 202.198 1924.616 84.534 1718.979-0.11M2532.174 879.014C2518.385 854.037 2523.288 865.809 2508.323 841.497C2478.393 792.873 2446.135 745.627 2411.646 699.952C2342.67 608.602 2264.775 523.533 2178.75 446.284C2006.698 291.786 1802.125 168.568 1571.337 88.935C1437.625 42.797 1302.066 13.525 1166.948-0.055M2984.963 525.067C2944.989 460.149 2901.907 397.073 2855.848 336.094C2764.483 215.132 2661.403 102.425 2547.636-0.025M2816.063 570.121C2778.858 509.695 2768.76 493.839 2725.891 437.078C2640.152 323.557 2543.33 217.845 2436.403 121.854C2388.914 79.222 2339.432 38.507 2288.042-0.123M3885.714 1363.316C3929.403 1273.088 3979.99 1186.2 4036.888 1103.662C4123.82 977.556 4225.516 861.637 4339.235 759.031L4646.306 485.214C4740.852 400.908 4840.838 321.476 4953.378 263.328C5000.658 238.899 5050.623 217.318 5103.604 212.296C5130.095 209.784 5157.13 211.523 5182.673 218.983C5208.215 226.443 5232.23 239.747 5251.001 258.607C5278.823 286.564 5293.934 325.822 5295.981 365.21C5298.028 404.598 5287.647 444.025 5270.033 479.315C5234.806 549.896 5172.953 602.757 5114 655.17C5017.238 741.195 4923.931 831.43 4821.101 910.102C4683.464 1015.404 4530.488 1098.683 4377.028 1179.198C4287.756 1226.036 4197.775 1272.228 4103.026 1306.665C4032.568 1332.273 3959.707 1351.267 3885.714 1363.316M3805.714 1417.602C3854.317 1317.181 3910.598 1220.476 3973.902 1128.611C4070.614 988.263 4183.756 859.247 4310.277 745.04L4651.909 440.285C4757.091 346.457 4868.321 258.037 4993.541 193.329C5046.14 166.148 5101.729 142.142 5160.672 136.556C5190.144 133.764 5220.222 135.699 5248.639 143.998C5277.056 152.296 5303.774 167.095 5324.66 188.075C5355.63 219.184 5372.454 262.873 5374.737 306.71C5377.021 350.547 5365.472 394.428 5345.873 433.706C5306.675 512.262 5237.843 571.101 5172.24 629.444C5064.584 725.184 4960.781 825.617 4846.376 913.181C4693.255 1030.377 4523.059 1123.067 4352.325 1212.681C4253.006 1264.81 4152.9 1316.221 4047.484 1354.549C3969.097 1383.05 3888.036 1404.19 3805.714 1417.602M4247.506 1946.269C4109.177 2015.443 3986.794 2119.252 3427.85 2417.705C3376.051 2445.364 3324.117 2472.887 3272.002 2500.121M3170.594 1001.845C3266.236 894.302 3289.521 878.596 3289.521 878.596L4223.353 34.635M4246.162 1865.271C4107.833 1934.445 3938.307 2076.826 3379.363 2375.279C3300.553 2417.36 3221.429 2459.128 3141.834 2500.041M3116.046 965.48C3211.688 857.937 3241.033 836.169 3241.033 836.169L4157.171 4.257M4246.288 1772.152C4107.958 1841.325 3865.576 2022.278 3306.632 2320.731C3192.377 2381.738 3077.462 2442.088 2961.411 2500.126M3040.284 920.023C3151.079 806.419 3168.302 781.621 3168.302 781.621L4025.548 2.86M4241.088 1655.828C4102.759 1725.002 3774.662 1961.669 3215.718 2260.122C3061.112 2342.675 2905.296 2424.024 2747.093 2500.072M2952.401 856.383C3048.043 748.84 3077.389 721.012 3077.389 721.012L3880.086 2.86M4246.236 1523.833C4107.906 1593.006 3689.809 1876.816 3130.865 2175.269C2917.004 2289.462 2700.827 2401.351 2479.22 2500.093M2852.396 792.744C2948.038 685.2 2992.536 636.159 2992.536 636.159L3680.076 2.86M3717.376 1645.14C3579.047 1714.314 3562.53 1767.719 3003.586 2066.172C2706.136 2224.998 2404.209 2379.366 2089.42 2500.104M2035.443 2506.481C2115.115 2372.982 2199.36 2242.212 2287.98 2114.478C2580.934 1692.224 2921.874 1303.29 3302.13 957.566L4247.273 105.047M3195.465 1032.147L2905.301 837.005L1840.241 1171.933L2551.228 1741.75M4572.297 791.624L4903.627 520.903M4590.479 811.827L4921.81 541.106M4606.642 834.05L4937.973 563.329M3660 1520C3714.998 1406.316 3778.687 1296.838 3850.326 1192.835C3959.765 1033.957 4087.799 887.899 4230.979 758.598L4617.579 413.588C4736.602 307.37 4862.461 207.256 5004.179 134.011C5063.7 103.249 5126.607 76.087 5193.308 69.769C5226.659 66.611 5260.695 68.802 5292.853 78.192C5325.009 87.582 5355.245 104.326 5378.884 128.063C5413.949 163.274 5433 212.73 5435.592 262.355C5438.184 311.98 5425.115 361.657 5402.933 406.124C5358.568 495.057 5280.655 561.675 5206.401 627.733C5084.571 736.115 4967.11 849.815 4837.644 948.949C4664.375 1081.622 4471.772 1186.557 4278.56 1288.01C4166.171 1347.025 4052.888 1405.227 3933.594 1448.619C3844.891 1480.883 3753.159 1504.816 3660 1520M4769.871 291.897L4769.871 336.001M4819.156 254.758L4819.156 304.569M4879.156 212.253L4879.156 254.931M1963.841 2499.948C2057.447 2337.935 2144.204 2192.594 2182.885 2141.012C2208.822 2106.425 2400.052 1846.586 2508.662 1721.75M1891.062 2499.67C1993.671 2321.218 2092.387 2154.607 2134.398 2098.585C2160.335 2063.999 2351.564 1810.221 2460.175 1685.384M1786.994 2499.77C1900.298 2301.662 2015.389 2105.75 2061.667 2044.037C2087.604 2009.45 2284.894 1767.794 2393.505 1642.958M1661.367 2500.014C1785.064 2282.631 1919.731 2051.467 1970.753 1983.428C1996.69 1948.841 2218.078 1694.936 2326.834 1570.227M1527.341 2501.851C1662.402 2263.036 1828.003 1975.782 1885.901 1898.575C1911.837 1863.988 2127.311 1628.393 2235.921 1503.557M1338.36 2502.223C1479.589 2250.859 1691.494 1878.993 1758.621 1789.479C1784.558 1754.892 2000.031 1519.297 2108.642 1394.46M2512.985 895.779C2632.871 785.206 2865.257 527.063 2865.257 527.063L3445.636-0.011M5525.948 2409.446L5596.14 2500.004M5568.94 2387.473L5653.835 2500.007M5616.484 2363.069L5717.181 2500.009M5661.815 2334.909L5779.674 2499.988M5706.202 2303.97L5800.007 2437.938M5755.761 2253.813L5800.011 2313.186M4268.442 730.992L4268.442 766.906M4279.554 1949.484C4141.225 2018.657 4018.842 2122.467 3459.898 2420.92C3413.551 2445.667 3367.094 2470.307 3320.498 2494.728M4278.21 1868.486C4139.881 1937.659 3970.355 2080.04 3411.411 2378.493C3338.052 2417.664 3264.42 2456.564 3190.39 2494.755M4278.336 1775.366C4140.007 1844.54 3897.624 2025.492 3338.68 2323.945C3229.998 2381.977 3120.719 2439.413 3010.433 2494.831M4273.137 1659.043C4134.807 1728.216 3806.71 1964.883 3247.766 2263.336C3098.947 2342.799 2949.008 2421.146 2796.897 2494.724M4278.284 1527.047C4139.955 1596.22 3721.858 1880.03 3162.913 2178.483C2955.229 2289.378 2745.361 2398.1 2530.457 2494.719M3749.425 1648.355C3611.095 1717.528 3594.578 1770.934 3035.634 2069.387C2745.187 2224.473 2450.471 2375.309 2143.68 2494.735M3773.731 1658.701C3635.402 1727.875 3618.885 1781.28 3059.941 2079.733C2777.851 2230.358 2491.733 2376.973 2194.438 2494.696M4302.591 1537.394C4164.261 1606.567 3746.164 1890.377 3187.22 2188.83C2986.936 2295.773 2784.621 2400.696 2577.717 2494.691M4297.443 1669.389C4159.114 1738.563 3831.017 1975.229 3272.073 2273.683C3130.261 2349.404 2987.431 2424.113 2842.675 2494.647M4302.643 1785.713C4164.313 1854.886 3921.931 2035.839 3362.986 2334.292C3261.041 2388.726 3158.57 2442.637 3055.236 2494.85M4302.517 1878.832C4164.187 1948.006 3994.662 2090.387 3435.718 2388.84C3368.943 2424.495 3301.942 2459.925 3234.621 2494.801M4303.861 1959.83C4165.532 2029.004 4043.149 2132.813 3484.205 2431.266C3444.427 2452.506 3404.569 2473.666 3364.612 2494.676M3331.236 1852.943C3273.457 1852.943 3226.618 1804.82 3226.618 1745.458C3226.618 1686.096 3273.457 1637.974 3331.236 1637.974M3331.236 1852.943C3278.96 1852.943 3236.582 1809.063 3236.582 1754.934C3236.582 1700.806 3278.96 1656.926 3331.236 1656.926M3331.236 1852.943C3284.462 1852.943 3246.545 1813.305 3246.545 1764.41C3246.545 1715.515 3284.462 1675.877 3331.236 1675.877M1464.518 605.029C1598.304 470.419 1736.495 340.271 1873.273 208.72M1554.258 656.188L1894.592 329.125M1460.377 657.979C1608.886 505.469 1764.428 360.016 1917.78 212.42M1496.904 669.267C1637.048 524.729 1784.581 387.536 1929.616 247.945M1578.44 679.595L1904.728 365.946M1629.826 677.369L1912.231 404.13M1638.453 423.986C1630.639 416.151 1625.867 404.719 1625.268 390.884C1625.903 363.074 1643.418 340.333 1669.345 338.779C1682.116 338.225 1692.973 342.463 1700.787 350.298M1790.628 528.146L1873.376 715.047M1736.775 592.258L1845.781 731.687M1851.827 742.74L1816.734 789.838M1881.529 724.99L1884.089 784.084L1884.089 784.084M1477.67 614.141C1611.456 479.531 1749.646 349.383 1886.424 217.832M1567.41 665.3L1907.743 338.236M1591.591 688.707L1917.879 375.057M1642.978 686.48L1925.382 413.242M1694.649 355.363L1640.422 409.552L1640.422 409.552M1673.547 347.694L1637.396 383.82L1639.852 388.302M1748.342 583.589L1870.634 732.222M1760.923 571.451L1869.929 710.88M1786.189 560.641L1821.998 624.654M1877.681 206.843L1894.543 216.56L1910.185 206.752L1933.894 222.195L1941.956 260.222M1898.498 308.76L1932.604 407.103L1932.604 407.103M1460.107 611.209L1467.3 629.293L1455.346 643.364L1467.222 669.046L1503.696 682.488M1542.667 652.083L1590.389 691.044L1640.168 690.141M1804.606 770.642L1886.782 788.251L1849.992 764.729L1870.028 759.932L1854.195 730.283M1477.713 663.19L1923.007 228.876L1923.007 228.876M1509.28 677.814L1934.291 267.77M2225.695 2500.035C2274.217 2418.801 2315.107 2331.543 2347.081 2238.921C2363.096 2192.527 2376.534 2145.851 2387.471 2099.046C2398.409 2052.241 2406.847 2005.308 2412.865 1958.401C2418.882 1911.493 2422.479 1864.611 2423.735 1817.909C2424.991 1771.207 2423.905 1724.685 2420.557 1678.497M2350.384 2500.077C2389.271 2428.34 2422.77 2352.582 2450.181 2273.161C2467.424 2223.204 2481.89 2172.943 2493.664 2122.543C2505.438 2072.144 2514.522 2021.606 2520.999 1971.096C2524.237 1945.841 2526.824 1913.629 2528.77 1881.444C2530.716 1849.26 2532.021 1817.103 2532.696 1791.958M2481.207 2500.001C2511.323 2439.062 2537.902 2375.615 2560.602 2309.832C2597.713 2202.286 2622.871 2093.43 2636.808 1984.694C2650.746 1875.958 2653.462 1767.342 2645.691 1660.276M2618.788 2500.062C2640.928 2451.127 2660.986 2400.779 2678.818 2349.093C2718.741 2233.375 2745.804 2116.249 2760.793 1999.253C2775.783 1882.256 2778.7 1765.389 2770.333 1650.19C2768.242 1621.39 2767.32 1601.534 2765.705 1581.806C2764.09 1562.078 2761.782 1542.478 2756.919 1514.191M2763.951 2500.083C2778.775 2464.411 2792.585 2428.079 2805.337 2391.111C2826.803 2328.879 2844.811 2266.27 2859.467 2203.488C2866.795 2172.097 2864.714 2179.235 2870.379 2147.784M2917.418 2500.066C2925.506 2478.936 2933.267 2457.6 2940.694 2436.063C2986.844 2302.246 3009.552 2205.372 3026.871 2070.077M3079.89 2500.085C3081.764 2494.781 3083.62 2489.466 3085.457 2484.14C3135.047 2340.317 3168.656 2194.746 3187.263 2049.337C3191.915 2012.985 3187.057 2015.214 3189.849 1978.912M3252.154 2500.028C3298.924 2357.081 3331.122 2212.667 3349.574 2068.402C3359.565 1990.291 3365.527 1912.224 3367.591 1834.457C3369.655 1756.691 3367.821 1679.225 3362.221 1602.316C3351.022 1448.499 3324.757 1296.911 3284.479 1149.606M3434.933 2500.021C3476.317 2363.62 3505.48 2226.136 3523.042 2088.778C3533.768 2004.889 3540.167 1921.048 3542.38 1837.529C3544.592 1754.01 3542.619 1670.815 3536.601 1588.218C3524.566 1423.024 3496.352 1260.224 3453.089 1102.025C3431.457 1022.925 3406.064 944.976 3377.05 868.452C3348.035 791.929 3315.4 716.831 3279.285 643.435C3252.076 588.071 3222.465 533.169 3192.214 481.281C3181.901 463.609 3171.376 446.056 3160.643 428.626C3117.71 358.909 3071.439 291.169 3021.971 225.681C2962.545 147.013 2898.506 71.595 2830.098-0.093M3629.068 2500.01C3665.697 2370.228 3692.177 2239.735 3708.958 2109.41C3720.572 2019.224 3727.541 1929.119 3730.015 1839.387C3732.489 1749.654 3730.469 1660.295 3724.103 1571.6M252.872-0.027C210.298 17.345 168.343 36.2 127.092 56.494M810.899-0.055C593.491 21.716 382.72 82.915 188.684 178.364M2415.067 925.809C2387.252 880.617 2344.415 819.563 2312.364 777.11C2248.261 692.206 2175.868 613.14 2095.919 541.341C1936.021 397.743 1745.896 283.214 1531.407 209.189C1093.297 57.989 633.853 101.6 246.244 292.251M2303.091 971.411C2277.251 929.424 2249.401 888.627 2219.625 849.186C2160.074 770.303 2092.821 696.844 2018.547 630.135C1870 496.719 1693.371 390.307 1494.107 321.523C1087.05 181.012 660.164 221.514 300.016 398.64M2193.396 1002.143C2169.401 963.15 2160.681 953.118 2133.03 916.488C2077.729 843.228 2015.275 775.005 1946.301 713.05C1808.353 589.141 1644.325 490.309 1459.277 426.42C1081.217 295.892 684.737 333.492 350.233 497.989M1426.764 524.337C1075.774 403.13 707.676 438.023 397.112 590.731M2946.425 418.984L3165.613 225.602M2921.172 355.103L3122.177 176.873M2887.208 299.638L3076.091 133.529M2695.529 308.034L2781.627 469.454M2746.804 280.526L2854.116 481.342M2793.955 249.583L2916.419 480.704M2840.151 216.44L2962.614 447.561M2695.058 305.167L2722.231 108.607M2627.323 340.323L2659.15 100.475M2559.668 380.275L2597.556 98M2497.525 380.352L2535.414 98.078M2614.337 517.108L2761.279 427.411M2562.677 492.279L2729.272 385.439M2516.885 462.544L2703.716 347.805M2486.418 425.157L2676.217 309.746M2450.584 595.576L2515.945 635.825M2460.054 549.47L2543.966 597.924M2474.444 508.948L2578.529 565.973M2484.231 467.395L2626.52 539.42M2526.226 726.366L2445.589 629.717M2495.219 738.727L2433.133 659.741M2464.718 754.633L2417.265 694.197M2432.855 765.201L2399.146 723.683M2720.706 586.591L2826.032 594.281M2722.792 549.417L2855.392 557.107M2721.589 513.34L2881.463 527.091M2718.85 477.046L2924.181 490.798M2588.124 708.995L2672.462 622.026M2539.069 713.184L2646.979 598.359M2512.425 692.53L2620.334 577.705M2484.713 672.849L2592.623 558.024M2744.709 651.372L2694.542 489.67M2711.427 665.346L2661.26 503.644M2678.489 680.833L2628.323 519.131M1361.682 1766.755L1759.472 1766.755M1454.875 1724.634L1787.803 1724.634M1432.497 1787.969L1736.816 1787.969M847.488 1459.422L847.488 551.359M847.488 1837.218L847.488 2299.902M868.917 1497.994L868.917 589.93M868.917 1823.274L868.917 2426.708M174.539 1766.755L1116.435 1766.755M395.202 1724.634L1183.518 1724.634M342.217 1787.969L1062.788 1787.969M2201.929 1186.316C2427.533 1109.984 2655.586 1041.129 2882.838 969.908M2274.1 1293.999L2839.405 1117.082M2167.646 1243.473C2419.804 1155.275 2675.913 1078.94 2930.76 998.97M2202.358 1276.593C2440.658 1192.669 2683.148 1121.129 2924.174 1045.497M2288.163 1333.823L2830.185 1164.113M2347.128 1360.078L2817.244 1211.202M2498.614 1080.296C2494.221 1067.123 2495.259 1051.611 2502.328 1035.736C2518.604 1004.854 2551.004 989.113 2580.996 1001.875C2595.65 1008.4 2605.474 1019.236 2609.866 1032.409M2611.255 1282.451L2599.608 1538.693M2514.886 1324.328L2559.301 1541.942M2559.906 1557.74L2494.132 1591.005M2603.202 1554.424L2573.008 1622.234L2573.008 1622.234M2211.603 1203.91C2437.206 1127.578 2665.259 1058.724 2892.511 987.502M2283.773 1311.594L2849.078 1134.676M2297.836 1351.417L2839.858 1181.707M2356.802 1377.673L2826.917 1228.796M2600.138 1034.664L2508.903 1065.186L2508.903 1065.186M2580.726 1014.241L2519.903 1034.589L2520.153 1040.997M2532.73 1321.064L2586.917 1556.45M2553.654 1314.47L2598.069 1532.083M2588.083 1316.467L2592.483 1408.409M2888.839 970.266L2902.342 990.617L2925.401 988.354L2943.39 1018.968L2931.165 1066.193M2855.188 1096.393L2838.464 1225.943L2838.464 1225.943M2193.516 1190.789L2191.475 1215.126L2170.175 1224.242L2169.142 1259.735L2202.588 1295.245M2263.378 1282.901L2295.178 1353.369L2351.597 1380.212M2491.252 1562.655L2573.7 1628.421L2545.54 1581.412L2570.73 1587.236L2569.537 1545.073M2184.202 1259.028L2927.422 1020.379L2927.422 1020.379M2211.477 1293.12L2918.331 1070.382M1260 1706.071C1260 1931.522 1077.236 2114.286 851.786 2114.286C626.335 2114.286 443.572 1931.522 443.572 1706.071C443.572 1480.621 626.335 1297.857 851.786 1297.857C1077.236 1297.857 1260 1480.621 1260 1706.071L1260 1706.071M1240.714 1696.429C1240.714 1916.554 1062.268 2095 842.143 2095C622.018 2095 443.571 1916.554 443.571 1696.429C443.571 1476.304 622.018 1297.857 842.143 1297.857C1062.268 1297.857 1240.714 1476.304 1240.714 1696.429L1240.714 1696.429M1221.429 1686.786C1221.429 1901.585 1047.299 2075.714 832.5 2075.714C617.701 2075.714 443.571 1901.585 443.571 1686.786C443.571 1471.986 617.701 1297.857 832.5 1297.857C1047.299 1297.857 1221.429 1471.986 1221.429 1686.786L1221.429 1686.786M2982.857 1766.755L3396.709 1766.755M2888.87 1724.634L3396.667 1724.634M1892.892 1503.424L1968.625 1418.726M1875.398 1473.939L1942.714 1396.167M1828.949 1476.741L1915.793 1376.614M1908.822 1522.488L1971.934 1520.141M1932.753 1486.204L1999.311 1485.786M1963.943 1450.213L2023.754 1454.907M1836.071 1662.524L1936.805 1546.005M1818.577 1630.765L1897.257 1537.083M1695.174 1567.944L1840.109 1563.325M1739.562 1529.388L1860.668 1526.697M1793.48 1493.396L1885.111 1495.818M3278.875 958.862L2921.242 719.621L1687.188 1108.171L2510.987 1769.218M3333.408 929.457L2938.423 660.737L1614.457 1077.817M2103.291 2486.399C2176.359 2366.167 2253.123 2248.18 2333.437 2132.66C2626.794 1710.71 2967.684 1321.833 3347.587 975.749L4292.73 123.229M3227.712 1021.174L2914.391 810.318L1764.331 1172.217L2532.06 1787.92M3388.921 841.6L2988.021 571.314L1516.497 1035.215L2498.82 1824.455M2031.313 2494.292C2120.616 2340.101 2202.094 2204.107 2239.24 2154.573C2265.177 2119.986 2410.95 1902.573 2519.56 1777.737M1958.239 2494.428C2056.907 2323.183 2150.221 2166.195 2190.753 2112.146C2216.69 2077.56 2347.31 1881.36 2455.92 1756.524M1854.214 2494.352C1963.938 2302.841 2073.222 2117.339 2118.022 2057.598C2143.959 2023.011 2280.64 1838.934 2389.25 1714.097M1728.512 2494.627C1849.162 2282.918 1977.566 2063.054 2027.108 1996.989C2053.045 1962.402 2213.824 1766.075 2322.58 1641.366M1594.534 2496.26C1727.489 2261.466 1885.898 1987.289 1942.255 1912.136C1968.192 1877.549 2123.056 1699.532 2231.667 1574.696M1406.299 2495.179C1547.276 2244.555 1749.661 1890.138 1814.976 1803.04C1840.913 1768.453 1995.777 1590.436 2104.387 1465.6M3367.979 853.869L2982.154 593.814L1565.97 1040.155L2511.351 1799.522M2982.92 1787.969L3394.777 1787.969M3331.674 824.016L4221.304 10.36M3258.943 769.468L4081.903 16.421M3168.029 708.859L3936.441 16.421M3057.462 645.435L3736.431 16.421M2822.197 635.054C2942.083 524.481 2921.612 540.624 2921.612 540.624L3512.177 4.299M3307.367 813.67L4196.998 0.014M3234.636 759.121L4057.597 6.075M3143.723 698.512L3912.135 6.074M3033.156 635.088L3712.125 6.074M2797.89 624.708C2917.776 514.134 2897.305 530.277 2897.305 530.277L3487.085-5.334M3380.161 866.443L4279.708 48.196M3355.855 856.096L4255.401 37.85M2077.601 2481.866C2148.782 2364.76 2223.5 2249.804 2301.617 2137.206C2594.567 1714.95 2935.508 1326.015 3315.767 980.295L4260.91 127.775M2000.931 2494.441C2092.598 2335.954 2176.947 2194.881 2214.934 2144.226C2240.87 2109.639 2386.643 1892.227 2495.253 1767.39M1928.019 2494.351C2028.855 2319.143 2125.106 2156.927 2166.447 2101.8C2192.383 2067.213 2323.004 1871.014 2431.614 1746.177M1823.958 2494.392C1935.66 2299.239 2048.106 2108.072 2093.715 2047.251C2119.652 2012.665 2256.333 1828.587 2364.944 1703.75M1698.296 2494.655C1820.636 2279.8 1952.449 2053.787 2002.802 1986.642C2028.738 1952.055 2189.517 1755.729 2298.274 1631.02M1564.276 2496.427C1698.419 2259.371 1860.747 1978.068 1917.949 1901.79C1943.886 1867.203 2098.75 1689.186 2207.36 1564.35M1375.619 2496.165C1516.797 2245.023 1724.363 1881.113 1790.67 1792.693C1816.606 1758.106 1971.47 1580.089 2080.081 1455.253M3227.712 993.9L2914.391 783.044L1764.331 1144.943L2532.06 1760.646M4059.103 2089.006L4181.013 2387.771L4097.036 2496.671M5359.468 45.843L5460.127 138.11M5385.634 29.653L5486.293 121.92M5412.374 15.405L5494.461 90.53M4521.531 1191.846L4567.289 1303.985L4351.583 1639.235L4206.009 1357.803M4498.867 1204.647L4537.605 1300.151L4354.234 1585.908L4230.928 1346.243M4476.186 1217.443L4507.651 1295.716L4357.775 1530.204L4257.536 1333.806M4453.161 1232.226L4477.318 1293.183L4361.104 1476.147L4284.044 1323.23M4429.826 1245.374L4446.726 1289.135L4363.938 1420.933L4309.9 1311.195M4187.675 777.532L4077.143 704.286L3671.428 830L3942.265 1043.88M4169.104 796.439L4074.918 734.286L3729.204 840.962L3959.987 1022.451M4150.532 815.366L4073.279 764.703L3789.719 851.657L3979.011 999.594M4129.757 834.123L4069.521 795.007L3848.422 862.143L3996.018 976.36M4110.669 853.599L4067.332 825.95L3908.26 873.404L4014.449 954.137M5473.471 227.293L5503.209 220.535M5468.299 199.544L5528.039 185.644M5455.28 174.868L5545.019 152.396M5448.219 147.568L5533.672 123.668M5447.115 357.055L5502.954 396.607M5456.277 325.637L5536.402 386.617M5464.288 296.334L5564.412 374.457M5462.842 257.647L5565.824 338.628M5573.509 156.189L5475.994 267.988M5598.324 177.561L5500.809 289.36M5624.126 196.058L5526.611 307.857M5650.898 213.601L5553.383 325.4M5758.473 119.407L5597.868 13.843M5735.347 154.965L5574.742 49.4M5716.086 191.286L5555.481 85.721M5698.219 228.686L5537.614 123.121M5713.163 436.533L5674.266 226.46M5678.413 474.413L5638.087 260.055M5627.166 414.097L5599.697 271.167M5588.963 414.062L5571.495 321.132M5453.374 478.484L5514.534 473.139M5428.74 448.994L5558.471 439.364M5441.424 415.187L5569.727 404.128M5570.394 571.419L5682.674 496.724M5528.651 559.313L5662.36 467.476M5506.505 532.837L5640.213 440.999M5483.071 507.106L5616.78 415.268M4412.634 1597.937C4412.634 1625.211 4412.634 2484.582 4412.634 2484.582M5637.077 578.712L5459.686 562.019M5633.488 617.776L5466.811 601.083M5633.4 655.79L5432.437 632.668M5634.921 694.081L5489.672 681.673M5571.114 687.132L5462.059 776.847M5615.234 712.491L5429.512 848.614M5649.489 741.755L5459.221 882.423M5629.617 814.79L5490.561 915.219M5610.463 812.301L5655.219 846.494M5644.671 783.146L5688.223 816.137M5668.633 744.481L5724.233 783.481M5691.131 704.538L5764.804 756.76M5531.004 900.28L5524.524 963.22M5577.454 867.147L5572.489 913.021M5608.794 844.495L5604.457 868.612M4467.182 1519.145L4467.182 2478.521M5130.639 724.707C5041.732 815.841 4945.699 900.02 4843.705 976.223C4668.918 1106.811 4477.548 1213.389 4284.621 1315.285C4172.37 1374.57 4058.984 1432.585 3939.655 1475.893C3850.93 1508.093 3759.207 1532.023 3666.061 1547.274M4632.728 1129.67L4632.728 1240.37M4673.442 1109.477L4673.442 1243.421M4714.156 1087.867L4714.156 1243.603M4757.014 1061.98L4757.014 1245.918M4810.584 1032.603L4810.584 1236.493M4870.584 982.45L4870.584 1210.343M4939.156 924.616L4939.156 1183.439M5020.584 846.933L5020.584 1128.696M4589.871 1154.58L4589.871 1245.461M5100.891 782.222L5100.891 1043.506M5153.446 752.875C5062.96 842.366 4967.085 926.407 4866.512 1004.39C4751.364 1081.329 4675.215 1166.13 4556.27 1244.375M4212.421 1389.849C4184.213 1404.454 4155.752 1418.57 4127.056 1432.19C4069.738 1459.393 4011.443 1484.627 3951.776 1506.197C3863.016 1538.286 3771.306 1562.213 3678.183 1577.579M4258.803 1565.681L4258.803 2486.479M4307.578 1648.538L4307.578 2493.58M4283.047 1613.657L4283.047 2497.092M4239.181 1998.723L4209.753 1987.527M4237.016 2030.34L4189.405 2014.598M4237.799 2061.751L4158.369 2035.402M4239.802 2095.18L4127.037 2058.224M4179.325 2110.773L4186.657 2077.624M4134.736 2123.982L4146.615 2066.588M4095.148 2125.851L4107.026 2059.367M4053.462 2079.329L4250.199 1956.781M4222.469 2103.593L4101.87 2155.74M4247.346 2142.949L4114.625 2196.611M4244.934 2189.946L4131.91 2239.062M4250.376 2236.366L4143.414 2282.451M4247.996 2286.592L4189.863 2278.237M4240.987 2321.535L4166.188 2310.149M4237.233 2355.846L4174.556 2344.461M4239.447 2390.553L4178.285 2380.683M4212.124 2403.542L4172.31 2421.605M4244.37 2432.833L4116.458 2488.517M4248.773 2469.245L4196.659 2494.193M4552.896 1392.151L4552.896 2472.657M3655.454 1501.817C3710.453 1388.134 3774.141 1278.655 3845.781 1174.653C3955.219 1015.774 4083.253 869.717 4226.433 740.416L4613.033 395.406C4732.056 289.187 4857.916 189.073 4999.634 115.828C5059.154 85.066 5122.061 57.904 5188.763 51.587C5222.113 48.428 5256.15 50.619 5288.307 60.009C5320.464 69.399 5350.7 86.143 5374.338 109.88C5409.403 145.091 5428.455 194.547 5431.046 244.172C5433.638 293.797 5420.569 343.474 5398.387 387.941C5354.023 476.875 5276.11 543.492 5201.855 609.55C5080.025 717.932 4962.565 831.632 4833.098 930.766C4659.83 1063.439 4467.227 1168.374 4274.015 1269.828C4161.625 1328.842 4048.343 1387.044 3929.048 1430.436C3840.345 1462.7 3748.614 1486.633 3655.454 1501.817M5280.219 689.321C5294.807 755.111 5307.372 821.338 5317.896 887.89C5402.088 1420.305 5355.708 1973.505 5170.547 2490.078M5489.829 1749.094C5489.829 1876.025 5386.93 1978.923 5259.999 1978.923C5133.067 1978.923 5030.169 1876.025 5030.169 1749.094C5030.169 1622.163 5133.067 1519.264 5259.999 1519.264C5386.93 1519.264 5489.829 1622.163 5489.829 1749.094L5489.829 1749.094M5470.542 1739.451C5470.542 1861.057 5371.961 1959.638 5250.356 1959.638C5128.75 1959.638 5030.169 1861.057 5030.169 1739.451C5030.169 1617.845 5128.75 1519.264 5250.356 1519.264C5371.961 1519.264 5470.542 1617.845 5470.542 1739.451L5470.542 1739.451M5451.257 1729.808C5451.257 1846.088 5356.993 1940.352 5240.713 1940.352C5124.433 1940.352 5030.169 1846.088 5030.169 1729.808C5030.169 1613.528 5124.433 1519.264 5240.713 1519.264C5356.993 1519.264 5451.257 1613.528 5451.257 1729.808L5451.257 1729.808M5799.994 788.473L5477.029 1078.222M5804.936 784.04L5799.995 788.473M5800.001 857.507L5527.355 1101.072M5799.995 929.988L5577.729 1124.958M5799.989 1013.196L5623.672 1155.405M5800.002 1109.47L5687.38 1200.342M5800.005 755.871L5447.438 1074.267M5800.007 817.944L5499.757 1087.313M5800.002 886.903L5550.084 1110.163M5799.999 959.013L5600.457 1134.05M5800.004 1040.606L5646.4 1164.497M5800.006 1136.897L5710.108 1209.433M3462.401 1661.766C3524.251 1535.025 3595.874 1412.973 3676.438 1297.024C3799.511 1119.898 3943.496 957.065 4104.514 812.913L4539.277 428.276C4673.128 309.858 4814.668 198.245 4974.041 116.587C5040.977 82.292 5111.721 52.011 5186.732 44.967C5224.238 41.445 5262.515 43.888 5298.678 54.357C5334.841 64.825 5368.844 83.492 5395.428 109.956C5434.861 149.211 5456.287 204.348 5459.201 259.672C5462.115 314.997 5447.418 370.379 5422.472 419.954C5372.582 519.102 5284.961 593.371 5201.456 667.016C5064.448 787.846 4932.354 914.606 4786.758 1025.126C4591.904 1173.037 4556.957 1236.598 4339.673 1349.704C4213.282 1415.497 4043.146 1510.303 3908.989 1552.267C3807.784 1583.924 3567.166 1644.838 3462.401 1661.766M5311.856 881.959L5297.75 829.94M5268.291 867.792L5238.725 759.328M5227.084 856.451L5195.358 734.72M5186.769 845.989L5153.743 708.687M3942.857 1311.429C3982.32 1229.963 4028.012 1151.516 4079.403 1076.997C4157.926 963.135 4249.783 858.476 4352.495 765.843L4629.854 518.625C4715.254 442.505 4805.559 370.771 4907.213 318.293C4949.919 296.246 4995.05 276.78 5042.897 272.252C5066.821 269.988 5091.236 271.558 5114.305 278.287C5137.374 285.017 5159.068 297.016 5176.038 314.031C5201.203 339.263 5214.909 374.71 5216.81 410.295C5218.711 445.881 5209.377 481.519 5193.483 513.415C5161.696 577.206 5105.763 624.947 5052.293 672.071C4964.584 749.37 4879.581 829.906 4787.735 902.24C4664.624 999.197 4529.583 1080.993 4386.631 1145.196L4139.142 1260.28L3942.857 1311.429M4027.71 1246.779C4063.512 1172.907 4104.962 1101.773 4151.581 1034.204C4222.817 930.951 4306.147 836.049 4399.321 752.059L4650.934 527.889C4728.41 458.863 4810.339 393.828 4902.545 346.234C4941.289 326.236 4982.23 308.574 5025.636 304.465C5047.339 302.41 5069.488 303.833 5090.416 309.939C5111.344 316.044 5131.023 326.931 5146.416 342.369C5169.231 365.254 5181.655 397.399 5183.375 429.669C5185.094 461.938 5176.626 494.254 5162.21 523.176C5133.378 581.019 5082.653 624.305 5034.158 667.029C4954.594 737.125 4877.478 810.151 4794.159 875.739C4682.469 963.66 4559.965 1037.83 4430.289 1096.044L4205.774 1200.399L4027.71 1246.779M4104.481 1190.21C4136.774 1123.615 4174.161 1059.49 4216.205 998.581C4280.459 905.495 4355.618 819.944 4439.652 744.236L4666.59 542.153C4736.472 479.925 4810.375 421.309 4893.528 378.397C4928.475 360.362 4965.4 344.429 5004.55 340.72C5024.125 338.866 5044.103 340.149 5062.979 345.656C5081.854 351.163 5099.604 360.985 5113.484 374.913C5134.049 395.548 5145.244 424.529 5146.79 453.621C5148.335 482.713 5140.697 511.845 5127.697 537.916C5101.697 590.059 5055.961 629.076 5012.235 667.584C4940.477 730.777 4870.918 796.606 4795.771 855.729C4695.026 934.99 4584.536 1001.852 4467.583 1054.327L4265.084 1148.4L4104.481 1190.21M4178.768 1133.067C4207.717 1073.408 4241.229 1015.963 4278.915 961.4C4336.514 878.005 4403.885 801.365 4479.208 733.549L4682.63 552.518C4745.275 496.768 4811.529 444.27 4886.053 405.82C4917.381 389.657 4950.479 375.371 4985.573 372.044C5003.12 370.381 5021.028 371.53 5037.948 376.467C5054.868 381.405 5070.778 390.211 5083.217 402.698C5101.636 421.19 5111.66 447.155 5113.04 473.219C5114.419 499.282 5107.573 525.38 5095.922 548.735C5072.622 595.445 5031.642 630.393 4992.459 664.882C4928.14 721.497 4865.785 780.467 4798.425 833.429C4708.112 904.437 4609.072 964.333 4504.244 1011.339L4322.729 1095.613L4178.768 1133.067M4267.661 1064.377C4292.491 1013.259 4321.232 964.041 4353.549 917.295C4402.952 845.835 4460.731 780.171 4525.325 722.078L4699.785 566.973C4753.515 519.204 4810.348 474.24 4874.245 441.285C4901.115 427.427 4929.499 415.17 4959.597 412.314C4974.646 410.886 4990.005 411.871 5004.517 416.106C5019.028 420.341 5032.673 427.897 5043.337 438.611C5059.113 454.462 5067.695 476.714 5068.87 499.047C5070.046 521.38 5064.173 543.74 5054.185 563.75C5034.208 603.769 4999.086 633.705 4965.5 663.245C4910.343 711.758 4856.86 762.28 4799.093 807.653C4721.629 868.495 4636.69 919.813 4546.797 960.083L4391.125 1032.286L4267.661 1064.377M4356.554 995.687C4377.342 952.952 4401.4 911.809 4428.448 872.734C4469.807 812.988 4518.172 758.096 4572.236 709.544L4718.271 579.885C4763.252 539.947 4810.839 502.378 4864.306 474.817C4886.801 463.22 4910.559 452.955 4935.754 450.561C4948.352 449.364 4961.209 450.187 4973.356 453.733C4985.503 457.279 4996.925 463.607 5005.847 472.581C5019.03 485.841 5026.196 504.447 5027.171 523.119C5028.146 541.791 5023.229 560.484 5014.872 577.21C4998.159 610.663 4968.785 635.681 4940.693 660.363C4894.528 700.923 4849.752 743.154 4801.398 781.079C4736.544 831.946 4665.446 874.844 4590.21 908.502L4459.902 968.861L4356.554 995.687M4453.529 918.915C4470.046 885.037 4489.157 852.425 4510.638 821.456C4543.498 774.084 4581.917 730.573 4624.856 692.101L4740.859 589.326C4776.597 557.663 4814.415 527.907 4856.862 506.043C4874.736 496.837 4893.606 488.675 4913.621 486.769C4923.628 485.816 4933.843 486.468 4943.493 489.287C4953.142 492.105 4962.214 497.136 4969.295 504.271C4979.738 514.793 4985.409 529.548 4986.172 544.352C4986.936 559.157 4983.028 573.975 4976.396 587.232C4963.129 613.746 4939.83 633.568 4917.541 653.118C4880.875 685.277 4845.299 718.749 4806.892 748.805C4755.36 789.131 4698.885 823.134 4639.134 849.808L4535.623 897.651L4453.529 918.915M5498.932 545.074L5407.597 439.262M5475.804 565.24L5384.47 459.428M5455.225 586.713L5363.891 480.901M5435.406 609.218L5344.072 503.405M5374.6 562.516L5302.056 566.88M5397.768 592.718L5291.653 594.939M5413.645 620.829L5323.958 623.051M5239.49 747.256L5320.814 633.569M5214.445 729.529L5295.769 615.842M5185.872 714.586L5231.481 652.328M5162.189 700.625L5197.085 649.796M4283.047 11.73L4283.047 674.918M4307.578 7.171L4307.578 642.825M4258.803 8.093L4258.803 692.697M5775.088 721.398L5794.152 642.792M5727.474 718.925L5773.184 540.161M5673.96 716.293L5720.451 531.532M5633.388 667.443L5666.978 525.046M5089.726 41.81L5009.188 10.253M5080.657 78.173L4971.501 33.096M5031.919 101.741L4977.848 73.904M5686.144 495.504L5796.524 548.386M5690.564 447.625L5796.658 497.65M5706.479 406.548L5795.43 449.43M5720.772 364.492L5795.437 400.231M5654.938 2.67L5632.417 23.798M5730.125 2.764L5671.891 58.178M5788.464 15.731L5713.085 91.144M5790.074 60.837L5724.982 206.96M5798.887 142.415L5769.508 205.681M5794.267 219.782L5682.585 230.758M5795.407 272.996L5688.011 283.972M5788.071 331.036L5697.818 334.869M5565.851 49.174L5563.404-2.345M5532.892 98.809L5529.016-1.281M5501.209 107.087L5497.334-0.146M5466.596 31.077L5465.578-0.442M5325.881 60.704L5392.374 12.03M5291.67 49.741L5353.878 3.924M5251.632 39.811L5303.839 2.566M5239.055 13.417L5252.691 3.314M5215.714 42.857L5208.571 4.286M5181.429 45.714L5174.286 2.857M5148.571 51.429L5140 7.143M5115.714 58.571L5105.714 10M5521.818 719.354L5463.455 650.231M5490.611 743.123L5406.534 639.714M5462.545 768.762L5354.896 626.782M5435.362 795.774L5327.714 653.794M5271.194 827.274L5464.142 792.894M5263.553 784.84L5402.93 761.174M5252.508 744.545L5376.885 723.022M5239.676 704.428L5344.767 687.191M5183.943 946.547L5292.947 987.005M5182.51 911.61L5303.637 956.614M5184.114 879.824L5311.301 926.343M5178.417 845.973L5317.727 895.523M5302.11 1043.806L5346.699 1019.943M5225.978 1046.425L5334.964 982.409M5192.492 1027.255L5256.022 991.271M5188.001 991.239L5221.226 974.953M5313.129 924.586L5400.018 1054.976M5330.705 871.132L5436.879 1029.38M5353.337 832.502L5470.226 1001.464M5391.795 816.598C5430.757 872.918 5368.163 784.029 5485.954 950.71M4412.634 15.353L4412.634 555.851M4467.182 9.292C4467.182 9.292 4464.151 440.693 4464.151 513.424M4552.896 5.007C4552.896 5.007 4549.865 366.727 4549.865 427.71M4660.585 381.539L4660.585 424.216M4694.871 355.472L4694.871 405.283M4731.299 325.466L4731.299 366.717M4617.728 421.895L4617.728 463.146M4574.871 458.324L4574.871 499.574M4525.584 503.849L4525.584 539.763M4480.584 544.563L4480.584 580.477M4433.442 585.278L4433.442 621.192M4382.013 628.135L4382.013 664.049M4328.442 673.135L4328.442 709.049M4619.871 1766.755L5796.832 1766.755M4352.581 1724.634L5796.71 1724.634M4620.051 1787.969L5791.336 1787.969M4939.787-3.448C4970.312 57.053 4962.46 49.874 4989.049 112.033M5180.994 708.607C5195.583 774.397 5208.146 840.624 5218.671 907.176C5302.863 1439.591 5262.527 1968.612 5077.367 2485.186M4914.921 2.42C4945.447 62.921 4939.75 64.342 4966.338 126.502M5158.266 699.515C5172.854 765.306 5185.418 831.533 5195.942 898.085C5280.135 1430.499 5238.288 1968.588 5053.127 2485.161M4885.51 3.507C4916.035 64.007 4918.886 78.251 4945.476 140.41M5130.991 717.698C5145.58 783.488 5158.144 849.715 5168.668 916.267C5252.861 1448.682 5211.014 1973.17 5025.853 2489.744M669.684 440.651C726.389 324.741 786.906 210.74 846.206 96.145M738.643 453.97L886.253 169.002M749.45 249.453L953.772 437.633L967.972 487.827M678.593 475.646C740.864 344.993 809.206 217.346 875.669 88.797M704.577 474.928C763.205 351.236 828.197 230.658 891.055 109.081M759.328 463.753L900.829 190.492M791.925 451.086L914.007 213.435M742.086 286.07C735.343 282.734 729.772 276.417 726.361 267.641C720.691 249.597 726.996 231.128 743.348 224.459C751.449 221.311 759.365 221.666 766.109 225.002M862.829 319.861L956.961 422.101M842.173 372.911L942.833 438.846M941.744 450.525L942.732 482.032M964.384 426.72L978.951 464.205L978.951 464.205Z" style="fill: none; stroke: black; stroke-width: 15; marker-start: url(#point)"/>
</svg>
