<?xml version="1.0" encoding="UTF-8" standalone="no"?>
<!DOCTYPE svg PUBLIC "-//W3C//DTD SVG 1.1//EN" "http://www.w3.org/Graphics/SVG/1.1/DTD/svg11.dtd">
<svg width="5957.049" height="4337.742" version="1.1" xmlns="http://www.w3.org/2000/svg" xmlns:xlink="http://www.w3.org/1999/xlink">
	<title/>
	<defs>
		<marker id="point" markerWidth="6" markerHeight="6" markerUnits="userSpaceOnUse" orient="auto" refX="0" refY="0"/>
	</defs>
	<marker id="point" markerWidth="6" markerHeight="6" markerUnits="userSpaceOnUse" orient="auto" refX="0" refY="0"/>
	<path d="M3905.703 1532.196L3910.948 1712.038M3846.046 1555.601L3849.684 1741.872M3791.255 1568.266L3794.893 1778.644M3745.898 1578.881L3751.144 1803.724M4090.699 2468.166L4014.974 2393.844M4062.545 2497.029L3986.82 2422.706M4005.992 2495.471L3962.087 2452.968M3937.878 2338.178L3815.415 2404.341M3958.028 2373.102L3844.657 2439.265M3980.453 2405.112L3823.897 2494.003M3970.279 2452.332L3884.181 2495.766M4141.878 2300.396L3996.226 2310.545M4144.43 2340.635L3964.685 2350.785M4150.313 2379.272L3970.568 2389.422M4141.936 2415.673L4046.286 2423.55M4111.238 2266.349L4049.599 2129.097M4080.975 2280.245L4019.336 2142.992M4052.945 2296.266L3991.306 2159.013M4025.381 2313.585L3963.742 2176.332M3887.523 2219.305L3855.478 2277.914M3945.583 2196.491L3868.081 2325.559M3972.537 2235.779L3897.307 2348.937M3991.449 2282.782L3957.13 2336.845M3746.98 2295.923L3764.671 2362.853M3776.947 2287.47L3801.456 2379.402M3805.137 2276.699L3831.92 2379.995M3833.076 2264.646L3859.858 2370.215M3649.174 2443.156L3712.438 2495.356M3659.385 2396.675L3777.198 2496.605M3681.788 2362.733L3829.147 2480.846M3702.928 2327.607L3850.287 2445.721M4910.046 2357.208L4859.849 2496.418M4945.645 2375.229L4901.876 2493.01M4981.123 2398.079L4941.64 2496.574M5019.44 2406.551L4982.1 2496.474M4882.933 2408.401L4836.825 2316.223M4845.184 2427.745L4758.362 2256.281M4793.266 2421.818L4723.587 2278.211M4754.878 2419.662L4738.771 2387.484M4708.341 2193.298L4561.599 2182.304M4750.647 2237.771L4558.904 2224.635M4751.696 2278.87L4559.953 2265.734M4720.202 2318.082L4562.745 2307.088M4608.763 2070.292L4560.017 2126.095M4638.199 2091.736L4580.881 2166.824M4664.402 2122.239L4622.083 2180.184M4689.641 2157.862L4666.608 2187.95M4596.605 1956.244L4557.703 1964.793M4604.88 1987.624L4565.978 1996.173M4615.604 2017.213L4576.701 2025.762M4627.669 2046.57L4575.909 2061.547M1426.764 524.337C1075.774 403.13 707.676 438.023 397.112 590.731M568.057 3110.46C1296.64 3362.034 2096.235 2965.566 2347.081 2238.921C2363.096 2192.527 2376.534 2145.851 2387.471 2099.046C2398.409 2052.241 2406.847 2005.308 2412.865 1958.4C2418.882 1911.493 2422.479 1864.611 2423.735 1817.909C2424.991 1771.207 2423.905 1724.685 2420.557 1678.497M2193.396 1002.143C2169.401 963.15 2160.681 953.118 2133.03 916.488C2077.729 843.228 2015.275 775.005 1946.301 713.05C1808.353 589.141 1644.325 490.309 1459.277 426.42C1081.217 295.892 684.737 333.492 350.233 497.989M534.404 3211.811C1319.024 3482.68 2180.093 3055.705 2450.181 2273.161C2467.424 2223.204 2481.89 2172.943 2493.664 2122.543C2505.439 2072.144 2514.522 2021.606 2520.999 1971.096C2524.237 1945.841 2526.824 1913.629 2528.77 1881.444C2530.716 1849.26 2532.021 1817.103 2532.696 1791.958M2303.091 971.411C2277.251 929.424 2249.401 888.627 2219.625 849.186C2160.074 770.303 2092.821 696.844 2018.547 630.135C1870 496.719 1693.371 390.307 1494.107 321.523C1087.05 181.012 660.164 221.514 300.016 398.64M498.358 3320.367C1342.996 3611.897 2269.906 3152.247 2560.601 2309.832C2597.713 2202.286 2622.871 2093.43 2636.808 1984.694C2650.746 1875.958 2653.462 1767.342 2645.691 1660.276M2415.067 925.809C2387.252 880.617 2344.415 819.563 2312.364 777.11C2248.261 692.206 2175.868 613.14 2095.919 541.341C1936.021 397.743 1745.896 283.214 1531.407 209.189C1093.297 57.989 633.853 101.6 246.244 292.251M459.764 3436.599C1368.661 3750.247 2366.065 3255.611 2678.818 2349.093C2718.741 2233.375 2745.804 2116.249 2760.793 1999.252C2775.783 1882.256 2778.7 1765.389 2770.333 1650.19C2768.242 1621.39 2767.32 1601.534 2765.705 1581.806C2764.09 1562.078 2761.782 1542.478 2756.919 1514.191M2532.174 879.014C2518.385 854.037 2523.288 865.809 2508.323 841.497C2478.393 792.873 2446.135 745.627 2411.646 699.952C2342.67 608.602 2264.775 523.533 2178.75 446.284C2006.698 291.786 1802.125 168.568 1571.337 88.935C1099.986-73.706 605.688-26.766 188.684 178.364M418.456 3561.005C1396.129 3898.321 2468.979 3366.239 2805.337 2391.111C2826.803 2328.879 2844.811 2266.27 2859.467 2203.488C2866.795 2172.097 2864.714 2179.235 2870.379 2147.784M2668.283 849.146C2653.451 822.283 2637.98 795.764 2621.884 769.616C2589.69 717.319 2554.993 666.506 2517.897 617.381C2443.706 519.132 2359.922 427.64 2267.393 344.559C2082.336 178.398 1862.3 45.882 1614.068-39.755C1107.145-214.635 575.551-164.131 127.092 56.494M374.258 3694.113C1425.516 4056.746 2579.084 3484.599 2940.695 2436.063C2986.844 2302.246 3009.552 2205.372 3026.871 2070.078M2806.119 801.796C2790.172 772.914 2760.68 720.831 2743.373 692.719C2708.758 636.494 2671.451 581.863 2631.565 529.049C2551.794 423.42 2461.71 325.056 2362.224 235.737C2163.252 57.098 1926.673-85.364 1659.779-177.421M326.985 3836.482C1456.946 4226.189 2696.844 3611.189 3085.457 2484.139C3135.047 2340.317 3168.656 2194.746 3187.263 2049.337C3191.915 2012.985 3187.057 2015.214 3189.849 1978.912M2843.299 567.628C2806.094 507.202 2795.996 491.346 2753.126 434.586C2667.388 321.064 2570.566 215.353 2463.639 119.362C2249.785-72.62 1995.514-225.719 1708.662-324.641M276.441 3988.704C1490.547 4407.353 2822.745 3746.534 3240.224 2535.539C3293.493 2381.02 3329.592 2224.623 3349.574 2068.402C3359.565 1990.291 3365.527 1912.224 3367.591 1834.457C3369.655 1756.691 3367.822 1679.225 3362.221 1602.316C3351.021 1448.499 3324.757 1296.911 3284.479 1149.606M3012.199 522.574C2972.225 457.657 2929.143 394.58 2883.084 333.601C2790.966 211.643 2686.94 98.076 2572.058-5.047M222.417 4151.406C1526.459 4600.981 2957.306 3891.19 3405.632 2590.471C3462.831 2424.522 3501.591 2256.556 3523.043 2088.778C3533.769 2004.889 3540.167 1921.048 3542.38 1837.529C3544.593 1754.01 3542.619 1670.815 3536.602 1588.218C3524.566 1423.024 3496.352 1260.224 3453.089 1102.025C3431.458 1022.925 3406.064 944.976 3377.05 868.452C3348.035 791.929 3315.4 716.831 3279.285 643.435C3252.077 588.071 3222.466 533.169 3192.214 481.281C3181.901 463.609 3171.376 446.056 3160.643 428.626C3117.71 358.909 3071.439 291.169 3021.971 225.681C2923.034 94.707 2811.309-27.255 2687.926-138M164.693 4325.249C1568.93 4809.277 3099.646 4049.885 3582.353 2649.161C3643.929 2470.478 3685.732 2289.782 3708.958 2109.41C3720.572 2019.224 3727.541 1929.119 3730.015 1839.387C3732.489 1749.654 3730.469 1660.295 3724.103 1571.6M3707.029 1400.521C3701.693 1356.543 3699.574 1351.338 3692.122 1307.801C3676.613 1218.314 3657.106 1131.207 3634.968 1049.742C3611.821 964.873 3584.628 881.253 3553.539 799.173C3522.45 717.094 3487.465 636.554 3448.733 557.847C3429.033 517.829 3408.675 478.912 3387.844 441.197C3366.624 402.796 3344.486 364.89 3321.448 327.514C3275.373 252.763 3225.7 180.137 3172.581 109.926C3066.342-30.495 2946.313-161.252 2813.691-280.01M3761.416 1110.199L3687.995 1228.073M3788.689 1138.178L3720.572 1240.9M3813.499 1156.846L3749.169 1260.325M3839.187 1180.393L3768.796 1292.206M3551.054 772.425L3601.413 805.808M3572.646 744.48L3640.146 795.006M3591.095 715.655L3684.31 787.609M3608.469 685.848L3723.112 772.802M3613.041 957.953L3694.717 932.857M3601.173 919.19L3678.564 891.952M3586.413 882.793L3640.232 866.269M3570.027 846.755L3600.275 840.945M3744.123 1034.789L3752.774 943.901M3703.024 1093.279L3720.247 918.819M3665.105 1093.073L3675.899 963.614M3635.475 1021.592L3637.698 964.99M3713.806 1359.007L3752.583 1346.808M3704.896 1324.835L3770.947 1303.545M3693.368 1292.611L3754.873 1275.866M3680.406 1260.638L3735.85 1245.409M3748.243 1109.401L3671.952 1116.013M3732.847 1141.647L3673.223 1148.259M3714.125 1174.183L3677.229 1179.279M3693.71 1206.776L3682.574 1210.356M5197.646 1064.182C5220.826 1061.828 5233.738 1060.622 5257.538 1060.622C5638.344 1060.622 5947.049 1369.327 5947.049 1750.133C5947.049 2130.939 5638.344 2439.643 5257.538 2439.643C4876.732 2439.643 4568.027 2130.939 4568.027 1750.133C4568.027 1738.232 4568.328 1726.403 4568.924 1714.651M5201.365 1100.36C5223.322 1098.13 5234.993 1096.988 5257.539 1096.988C5618.261 1096.988 5910.684 1389.411 5910.684 1750.133C5910.684 2110.855 5618.261 2403.278 5257.539 2403.278C4896.816 2403.278 4604.393 2110.855 4604.393 1750.133C4604.393 1727.588 4605.535 1705.309 4607.765 1683.352M5205.083 1136.537C5225.818 1134.432 5236.249 1133.353 5257.539 1133.353C5598.177 1133.353 5874.318 1409.495 5874.318 1750.133C5874.318 2090.771 5598.177 2366.912 5257.539 2366.912C4916.901 2366.912 4640.759 2090.771 4640.759 1750.133C4640.759 1728.843 4641.838 1707.805 4643.943 1687.071M5206.003 1171.862C5584.414 1141.861 5837.953 1429.579 5837.953 1750.133C5837.953 2070.687 5578.093 2330.547 5257.539 2330.547C4936.985 2330.547 4677.125 2070.687 4677.125 1750.133C4677.125 1710.063 4681.185 1670.943 4688.917 1633.159M5212.52 1208.893C5230.809 1207.035 5238.759 1206.084 5257.539 1206.084C5558.009 1206.084 5801.587 1449.663 5801.587 1750.133C5801.587 2050.603 5558.009 2294.181 5257.539 2294.181C4957.069 2294.181 4713.49 2050.603 4713.49 1750.133C4713.49 1712.574 4717.296 1675.904 4724.543 1640.488C4728.167 1622.78 4732.651 1605.385 4737.95 1588.35M5216.238 1245.071C5233.305 1243.337 5240.015 1242.449 5257.539 1242.449C5537.924 1242.449 5765.222 1469.747 5765.222 1750.133C5765.222 2030.518 5537.924 2257.816 5257.539 2257.816C4977.153 2257.816 4749.855 2030.518 4749.855 1750.133C4749.855 1715.084 4753.407 1680.866 4760.17 1647.817C4766.933 1614.768 4776.907 1582.889 4789.752 1552.52M5117.383 1300.004C5148.264 1290.543 5179.552 1284.332 5209.35 1281.248C5225.194 1279.639 5241.271 1278.815 5257.539 1278.815C5517.84 1278.815 5728.856 1489.831 5728.856 1750.133C5728.856 2010.434 5517.84 2221.45 5257.539 2221.45C4997.237 2221.45 4786.221 2010.434 4786.221 1750.133C4786.221 1717.595 4789.518 1685.828 4795.797 1655.146C4802.075 1624.464 4811.335 1594.869 4823.26 1566.675C4829.222 1552.578 4835.851 1538.831 4843.107 1525.475M5656.126 1750.133C5656.126 1970.266 5477.672 2148.719 5257.539 2148.719C5037.406 2148.719 4858.952 1970.266 4858.952 1750.133C4858.952 1722.616 4861.741 1695.75 4867.05 1669.804C4872.36 1643.856 4880.19 1618.828 4890.275 1594.985C4900.36 1571.142 4912.699 1548.484 4927.025 1527.279C4941.351 1506.074 4957.663 1486.322 4975.696 1468.289C4993.728 1450.257 5013.48 1433.944 5034.686 1419.618C5055.891 1405.293 5078.548 1392.954 5102.391 1382.869C5126.234 1372.784 5151.263 1364.953 5177.21 1359.644C5203.157 1354.334 5230.022 1351.546 5257.539 1351.546C5477.672 1351.546 5656.126 1529.999 5656.126 1750.133L5656.126 1750.133M5619.76 1750.133C5619.76 1950.182 5457.588 2112.354 5257.539 2112.354C5057.49 2112.354 4895.318 1950.182 4895.318 1750.133C4895.318 1725.127 4897.852 1700.712 4902.677 1677.132C4907.502 1653.553 4914.618 1630.808 4923.783 1609.14C4932.948 1587.472 4944.161 1566.882 4957.18 1547.611C4970.198 1528.341 4985.022 1510.391 5001.41 1494.004C5017.797 1477.616 5035.748 1462.792 5055.018 1449.773C5074.288 1436.754 5094.878 1425.541 5116.546 1416.377C5138.214 1407.212 5160.959 1400.096 5184.539 1395.271C5208.119 1390.445 5232.533 1387.911 5257.539 1387.911C5457.588 1387.911 5619.76 1550.083 5619.76 1750.133L5619.76 1750.133M5583.395 1750.132C5583.395 1930.098 5437.504 2075.988 5257.539 2075.988C5077.574 2075.988 4931.683 1930.098 4931.683 1750.132C4931.683 1727.637 4933.963 1705.674 4938.303 1684.461C4942.645 1663.249 4949.046 1642.787 4957.291 1623.295C4965.535 1603.802 4975.623 1585.279 4987.334 1567.943C4999.046 1550.608 5012.382 1534.46 5027.124 1519.718C5041.866 1504.976 5058.015 1491.64 5075.35 1479.928C5092.686 1468.216 5111.209 1458.129 5130.701 1449.884C5150.194 1441.64 5170.655 1435.238 5191.868 1430.897C5213.081 1426.556 5235.043 1424.277 5257.539 1424.277C5437.504 1424.277 5583.395 1570.167 5583.395 1750.132L5583.395 1750.132M5547.03 1750.132C5547.03 1910.014 5417.42 2039.623 5257.539 2039.623C5097.658 2039.623 4968.049 1910.014 4968.049 1750.132C4968.049 1730.147 4970.074 1710.635 4973.93 1691.79C4977.786 1672.945 4983.474 1654.767 4990.798 1637.45C4998.123 1620.133 5007.084 1603.677 5017.489 1588.276C5027.894 1572.875 5039.742 1558.529 5052.839 1545.432C5065.936 1532.335 5080.281 1520.487 5095.682 1510.083C5111.083 1499.678 5127.54 1490.717 5144.856 1483.392C5162.173 1476.068 5180.352 1470.38 5199.197 1466.524C5218.042 1462.668 5237.554 1460.642 5257.539 1460.642C5417.42 1460.642 5547.03 1590.252 5547.03 1750.132L5547.03 1750.132M5510.664 1750.132C5510.664 1889.93 5397.336 2003.257 5257.539 2003.257C5117.742 2003.257 5004.415 1889.93 5004.415 1750.132C5004.415 1732.658 5006.186 1715.597 5009.557 1699.119C5012.929 1682.641 5017.902 1666.747 5024.307 1651.605C5030.711 1636.463 5038.546 1622.074 5047.645 1608.608C5056.742 1595.142 5067.102 1582.598 5078.553 1571.146C5090.005 1559.695 5102.548 1549.335 5116.015 1540.238C5129.481 1531.14 5143.87 1523.304 5159.012 1516.9C5174.153 1510.495 5190.048 1505.522 5206.526 1502.151C5223.003 1498.779 5240.064 1497.008 5257.539 1497.008C5397.336 1497.008 5510.664 1610.336 5510.664 1750.132L5510.664 1750.132M5088.236 1349.361C5114.254 1338.356 5141.566 1329.811 5169.881 1324.017C5198.195 1318.223 5227.512 1315.18 5257.539 1315.18C5497.756 1315.18 5692.491 1509.915 5692.491 1750.133C5692.491 1990.35 5497.756 2185.085 5257.539 2185.085C5017.321 2185.085 4822.586 1990.35 4822.586 1750.133C4822.586 1720.106 4825.629 1690.789 4831.423 1662.475C4837.217 1634.16 4845.763 1606.848 4856.767 1580.83C4867.772 1554.811 4881.237 1530.086 4896.87 1506.947M5191.051 1107.919C5096.833 1190.837 4998.824 1269.449 4897.434 1343.427C4752.652 1449.064 4600.972 1545.245 4443.68 1631.151M4418.231 112.073L4548.053 2.939M5173.908 1043.18C5069.573 1130.754 4961.742 1214.163 4850.759 1293.143C4722.03 1384.753 4589.059 1470.401 4452.415 1549.723M4415.589 204.533C4480.828 139.213 4549.759 77.581 4621.944 20.03C4628.235 15.015 4634.551 10.03 4640.891 5.077M5165.337 987.952C5070.352 1069.676 4972.275 1147.806 4871.387 1222.12C4750.44 1311.207 4625.452 1394.808 4496.936 1472.58M4417.651 275.613C4494.723 205.419 4573.749 137.371 4654.606 71.574C4682.392 48.964 4710.393 26.619 4738.605 4.545M5161.35 927.669C5063.379 1018.245 4960.566 1103.581 4853.496 1183.192C4758.933 1253.503 4661.05 1319.349 4560.283 1380.437M4419.914 331.391C4496.11 262.329 4574.76 195.975 4655.667 132.497C4713.286 87.291 4772.047 43.543 4831.878 1.31M5153.283 876.586C5059.039 964.762 4960.088 1047.908 4856.993 1125.55C4774.5 1187.677 4689.354 1246.282 4601.866 1301.151M4415.628 388.268C4499.791 311.728 4587.02 238.561 4677.035 168.999C4742.824 118.159 4810.102 69.244 4878.752 22.339M5136.69 795.332C5065.36 867.166 4990.093 935.089 4911.338 998.695C4810.082 1080.474 4703.058 1155.11 4591.325 1221.865M4425.491 473.255C4510.881 391.908 4600.619 315.124 4694.191 243.34C4765.268 188.814 4838.557 137.172 4913.817 88.584M4429.683 507.532C4509.8 429.001 4594.293 354.934 4682.639 285.789C4759.371 225.734 4839.008 169.391 4921.179 117.024M4059.103 2089.006L4181.013 2387.771L4097.036 2496.671M508.043 1946.108C632.788 2131.767 892.209 2181.007 1077.407 2056.543C1266.004 1929.796 1316.022 1666.217 1189.584 1478.051C1060.831 1286.44 793.084 1235.623 601.946 1364.088C407.313 1494.901 355.696 1766.925 486.191 1961.115C619.069 2158.849 895.379 2211.287 1092.626 2078.707C1293.468 1943.711 1346.729 1663.002 1212.06 1462.616C1074.941 1258.584 789.824 1204.478 586.293 1341.291C379.066 1480.589 324.114 1770.231 463.075 1976.99C604.556 2187.497 898.731 2243.318 1108.723 2102.151C1322.516 1958.429 1379.208 1659.602 1235.832 1446.29C1089.865 1229.124 786.376 1171.54 569.74 1317.183C349.195 1465.454 290.716 1773.728 438.631 1993.777C589.21 2217.79 902.276 2277.187 1125.744 2126.94C1353.231 1973.992 1413.548 1656.007 1260.965 1429.03C1105.644 1197.978 782.732 1136.717 552.24 1291.697C317.618 1449.454 255.411 1777.423 412.792 2011.522C572.989 2249.81 906.023 2312.988 1143.735 2153.142C1385.693 1990.44 1449.842 1652.208 1287.528 1410.787C1122.319 1165.062 778.88 1099.915 533.746 1264.763C284.248 1432.546 218.102 1781.328 385.488 2030.274C555.848 2283.645 909.982 2350.815 1162.744 2180.826C1419.992 2007.82 1488.189 1648.194 1315.592 1391.514C1139.937 1130.287 774.812 1061.036 514.21 1236.31C248.998 1414.684 178.692 1785.453 356.646 2050.081C537.742 2319.383 914.162 2390.771 1182.821 2210.066C1456.217 2026.176 1528.689 1643.955 1345.23 1371.159C1158.542 1093.562 770.516 1019.977 493.578 1206.262C211.774 1395.822 137.075 1789.808 326.191 2070.997C518.624 2357.119 918.577 2432.96 1204.02 2240.94C1494.464 2045.556 1571.449 1639.481 1376.522 1349.67C1178.185 1054.791 765.98 976.631 471.798 1174.542C172.48 1375.91 93.145 1794.405 294.043 2093.074C498.444 2396.95 923.236 2477.491 1226.395 2273.526C1534.83 2066.012 1616.579 1634.758 1409.546 1326.99C1198.915 1013.874 761.195 930.886 448.814 1141.069C131.014 1354.898 46.787 1799.256 260.121 2116.371C477.151 2438.978 928.151 2524.478 1250.003 2307.909C1577.421 2087.594 1664.194 1629.776 1444.388 1303.062C1220.786 970.707 756.146 882.627 424.567 1105.756C87.272 1332.731-2.115 1804.373 224.338 2140.945C454.689 2483.311 933.336 2574.04 1274.904 2344.174C1622.342 2110.358 1714.414 1624.522 1481.134 1277.826C1243.852 925.182 750.823 831.732 398.997 1068.516C41.145 1309.355-53.684 1809.768 186.606 2166.858C431.004 2530.057 938.802 2626.3 1301.159 2382.413C1669.705 2134.361 1767.363 1618.983 1519.876 1251.219C1268.17 877.186 745.211 778.075 372.04 1029.256C-7.483 1284.712-108.046 1815.454 146.83 2194.175C406.038 2579.332 944.563 2681.387 1328.834 2422.718C1719.626 2159.66 1823.172 1613.145 1560.71 1223.177C1293.801 826.601 739.296 721.525 343.631 987.88C-58.729 1258.742-165.335 1821.447 104.914 2222.961C379.728 2631.257 950.634 2739.434 1357.996 2465.188C1772.227 2186.317 1881.976 1606.994 1603.733 1193.63C1318.33 769.628 736.744 659.469 313.7 944.29C-116.447 1233.893-228.201 1824.028 60.758 2253.286C354.561 2689.74 953.242 2803.131 1388.714 2509.925C1831.474 2211.812 1946.501 1604.357 1649.049 1162.509C1346.626 713.276 730.401 596.569 282.176 898.38C-173.527 1205.227-291.913 1830.454 14.255 2285.222C325.525 2747.567 959.751 2867.676 1421.061 2557.035C1890.045 2241.227 2011.877 1597.764 1696.765 1129.739C1376.419 653.941 723.722 530.341 248.986 850.042C-233.623 1175.045-358.99 1837.219-34.702 2318.844C294.956 2808.444 966.603 2935.625 1455.113 2606.628C1703.407 2439.41 1859.802 2185.459 1912.411 1911.365C1938.716 1774.318 1939.074 1632.235 1911.999 1493.441C1898.462 1424.044 1876.551 1347.892 1849.112 1281.179C1835.392 1247.823 1827.488 1228.569 1795.07 1172.031M1762.144 1113.428C1422.932 609.669 716.694 460.632 214.052 799.165C-296.874 1143.278-429.588 1844.338-86.227 2354.229C262.785 2872.513 973.813 3007.135 1490.949 2658.819C1753.766 2481.799 1919.307 2212.974 1974.986 1922.833C2002.825 1777.762 2003.198 1627.363 1974.533 1480.445C1960.2 1406.986 1938.607 1334.397 1909.558 1263.781M1831.532 1108.685C1821.446 1091.925 1810.885 1075.34 1799.845 1058.948C1440.78 525.767 709.298 387.279 177.294 745.631M-140.439 2391.46C228.937 2939.92 981.397 3082.371 1528.65 2713.727C1806.746 2526.394 1981.909 2241.922 2040.815 1934.899C2070.269 1781.387 2070.658 1622.237 2040.318 1466.774C2032.733 1427.908 2023.228 1389.272 2011.776 1351.013M1888.98 1073.393C1878.306 1055.658 1867.129 1038.109 1855.446 1020.763C1475.495 456.634 701.519 310.118 138.628 689.318M-197.46 2430.62C193.335 3010.817 989.375 3161.502 1568.302 2771.476C1862.466 2573.296 2047.746 2272.367 2110.048 1947.589C2141.198 1785.2 2141.604 1616.848 2109.504 1452.397C2105.491 1431.84 2100.97 1411.345 2095.938 1390.93M1966.526 1062.819C1946.063 1024.556 1938.638 1017.303 1913.919 980.606C1512.003 383.933 693.34 228.974 97.968 630.101M5311.856 881.959L5297.75 829.94M5268.291 867.792L5238.725 759.328M5227.084 856.451L5195.358 734.72M5186.769 845.989L5153.743 708.687M3462.401 1661.766C3524.251 1535.025 3595.874 1412.973 3676.438 1297.024C3799.511 1119.898 3943.496 957.065 4104.514 812.913L4539.277 428.276C4673.128 309.858 4814.668 198.245 4974.041 116.587C5040.977 82.292 5111.721 52.011 5186.732 44.967C5224.238 41.445 5262.515 43.888 5298.678 54.357C5334.841 64.825 5368.844 83.492 5395.428 109.956C5434.861 149.211 5456.287 204.348 5459.201 259.672C5462.115 314.997 5447.418 370.379 5422.472 419.954C5372.582 519.102 5284.961 593.371 5201.456 667.016C5064.448 787.846 4932.354 914.606 4786.758 1025.126C4591.904 1173.037 4375.306 1290.025 4158.023 1403.131C4031.632 1468.924 3904.237 1533.811 3770.08 1582.186C3670.326 1618.156 3567.166 1644.838 3462.401 1661.766M5359.468 45.843L5460.127 138.11M5385.634 29.653L5486.293 121.92M5412.374 15.405L5494.461 90.53M4521.531 1191.846L4567.289 1303.985L4351.583 1639.235L4206.009 1357.803M4498.867 1204.647L4537.605 1300.151L4354.234 1585.908L4230.928 1346.243M4476.186 1217.443L4507.651 1295.716L4357.775 1530.204L4257.536 1333.806M4453.161 1232.226L4477.318 1293.183L4361.104 1476.147L4284.044 1323.23M4429.826 1245.374L4446.726 1289.135L4363.938 1420.933L4309.9 1311.195M4187.675 777.532L4077.143 704.286L3671.428 830L3942.265 1043.88M3885.714 1363.316C3929.403 1273.088 3979.99 1186.2 4036.888 1103.662C4123.82 977.556 4225.516 861.637 4339.235 759.031L4646.306 485.214C4740.852 400.908 4840.838 321.476 4953.378 263.328C5000.658 238.899 5050.623 217.318 5103.604 212.296C5130.095 209.784 5157.13 211.523 5182.673 218.983C5208.215 226.443 5232.23 239.747 5251.001 258.607C5278.823 286.564 5293.934 325.822 5295.981 365.21C5298.028 404.598 5287.647 444.025 5270.033 479.315C5234.806 549.896 5172.953 602.757 5114 655.17C5017.238 741.195 4923.931 831.43 4821.101 910.102C4683.464 1015.404 4530.488 1098.683 4377.028 1179.198C4287.756 1226.036 4197.775 1272.228 4103.026 1306.665C4032.568 1332.273 3959.707 1351.267 3885.714 1363.316M3942.857 1311.429C3982.32 1229.963 4028.012 1151.516 4079.403 1076.997C4157.926 963.135 4249.783 858.476 4352.495 765.843L4629.854 518.625C4715.254 442.505 4805.559 370.771 4907.213 318.293C4949.919 296.246 4995.05 276.78 5042.897 272.252C5066.821 269.988 5091.236 271.558 5114.305 278.287C5137.374 285.017 5159.068 297.016 5176.038 314.031C5201.203 339.263 5214.909 374.71 5216.81 410.295C5218.711 445.881 5209.377 481.519 5193.483 513.415C5161.696 577.206 5105.763 624.947 5052.293 672.071C4964.584 749.37 4879.581 829.906 4787.735 902.24C4664.624 999.197 4529.583 1080.993 4386.631 1145.196L4139.142 1260.28L3942.857 1311.429M4027.71 1246.779C4063.512 1172.907 4104.962 1101.773 4151.581 1034.204C4222.817 930.951 4306.147 836.049 4399.321 752.059L4650.934 527.889C4728.41 458.863 4810.339 393.828 4902.545 346.234C4941.289 326.236 4982.23 308.574 5025.636 304.465C5047.339 302.41 5069.488 303.833 5090.416 309.939C5111.344 316.044 5131.023 326.931 5146.416 342.369C5169.231 365.254 5181.655 397.399 5183.375 429.669C5185.094 461.938 5176.626 494.254 5162.21 523.176C5133.378 581.019 5082.653 624.305 5034.158 667.029C4954.594 737.125 4877.478 810.151 4794.159 875.739C4682.469 963.66 4559.965 1037.83 4430.289 1096.044L4205.774 1200.399L4027.71 1246.779M4104.481 1190.21C4136.774 1123.615 4174.161 1059.49 4216.205 998.581C4280.459 905.495 4355.618 819.944 4439.652 744.236L4666.59 542.153C4736.472 479.925 4810.375 421.309 4893.528 378.397C4928.475 360.362 4965.4 344.429 5004.55 340.72C5024.125 338.866 5044.103 340.149 5062.979 345.656C5081.854 351.163 5099.604 360.985 5113.484 374.913C5134.049 395.548 5145.244 424.529 5146.79 453.621C5148.335 482.713 5140.697 511.845 5127.697 537.916C5101.697 590.059 5055.961 629.076 5012.235 667.584C4940.477 730.777 4870.918 796.606 4795.771 855.729C4695.026 934.99 4584.536 1001.852 4467.583 1054.327L4265.084 1148.4L4104.481 1190.21M4178.768 1133.067C4207.717 1073.408 4241.229 1015.963 4278.915 961.4C4336.514 878.005 4403.885 801.365 4479.208 733.549L4682.63 552.518C4745.275 496.768 4811.529 444.27 4886.053 405.82C4917.381 389.657 4950.479 375.371 4985.573 372.044C5003.12 370.381 5021.028 371.53 5037.948 376.467C5054.868 381.405 5070.778 390.211 5083.217 402.698C5101.636 421.19 5111.66 447.155 5113.04 473.219C5114.419 499.282 5107.573 525.38 5095.922 548.735C5072.622 595.445 5031.642 630.393 4992.459 664.882C4928.14 721.497 4865.785 780.467 4798.425 833.429C4708.112 904.437 4609.072 964.333 4504.244 1011.339L4322.729 1095.613L4178.768 1133.067M4267.661 1064.377C4292.491 1013.259 4321.232 964.041 4353.549 917.295C4402.952 845.835 4460.731 780.171 4525.325 722.078L4699.785 566.973C4753.515 519.204 4810.348 474.24 4874.245 441.285C4901.115 427.427 4929.499 415.17 4959.597 412.314C4974.646 410.886 4990.005 411.871 5004.517 416.106C5019.028 420.341 5032.673 427.897 5043.337 438.611C5059.113 454.462 5067.695 476.714 5068.87 499.047C5070.046 521.38 5064.173 543.74 5054.185 563.75C5034.208 603.769 4999.086 633.705 4965.5 663.245C4910.343 711.758 4856.86 762.28 4799.093 807.653C4721.629 868.495 4636.69 919.813 4546.797 960.083L4391.125 1032.286L4267.661 1064.377M4356.554 995.687C4377.342 952.952 4401.4 911.809 4428.448 872.734C4469.807 812.988 4518.172 758.096 4572.236 709.544L4718.271 579.885C4763.252 539.947 4810.839 502.378 4864.306 474.817C4886.801 463.22 4910.559 452.955 4935.754 450.561C4948.352 449.364 4961.209 450.187 4973.356 453.733C4985.503 457.279 4996.925 463.607 5005.847 472.581C5019.03 485.841 5026.196 504.447 5027.171 523.119C5028.146 541.791 5023.229 560.484 5014.872 577.21C4998.159 610.663 4968.785 635.681 4940.693 660.363C4894.528 700.923 4849.752 743.154 4801.398 781.079C4736.544 831.946 4665.446 874.844 4590.21 908.502L4459.902 968.861L4356.554 995.687M4453.529 918.915C4470.046 885.037 4489.157 852.425 4510.638 821.456C4543.498 774.084 4581.917 730.573 4624.856 692.101L4740.859 589.326C4776.597 557.663 4814.415 527.907 4856.862 506.043C4874.736 496.837 4893.606 488.675 4913.621 486.769C4923.628 485.816 4933.843 486.468 4943.493 489.287C4953.142 492.105 4962.214 497.136 4969.295 504.271C4979.738 514.793 4985.409 529.548 4986.172 544.352C4986.936 559.157 4983.028 573.975 4976.396 587.232C4963.129 613.746 4939.83 633.568 4917.541 653.118C4880.875 685.277 4845.299 718.749 4806.892 748.805C4755.36 789.131 4698.885 823.134 4639.134 849.808L4535.623 897.651L4453.529 918.915M4572.297 791.624L4903.627 520.903M4590.479 811.827L4921.81 541.106M4606.642 834.05L4937.973 563.329M4169.104 796.439L4074.918 734.286L3729.204 840.962L3959.987 1022.451M4150.532 815.366L4073.279 764.703L3789.719 851.657L3979.011 999.594M4129.757 834.123L4069.521 795.007L3848.422 862.143L3996.018 976.36M4110.669 853.599L4067.332 825.95L3908.26 873.404L4014.449 954.137M5473.471 227.293L5503.209 220.535M5468.299 199.544L5528.039 185.644M5455.28 174.868L5545.019 152.396M5448.219 147.568L5533.672 123.668M5447.115 357.055L5502.954 396.607M5456.277 325.637L5536.402 386.617M5464.288 296.334L5564.412 374.457M5462.842 257.647L5565.824 338.628M5573.509 156.189L5475.994 267.988M5598.324 177.561L5500.809 289.36M5624.126 196.058L5526.611 307.857M5650.898 213.601L5553.383 325.4M5758.473 119.407L5597.868 13.843M5735.347 154.965L5574.742 49.4M5716.086 191.286L5555.481 85.721M5698.219 228.686L5537.614 123.121M5713.163 436.533L5674.266 226.46M5678.413 474.413L5638.087 260.055M5627.166 414.097L5599.697 271.167M5588.963 414.062L5571.495 321.132M5453.374 478.484L5514.534 473.139M5428.74 448.994L5558.471 439.364M5441.424 415.187L5569.727 404.128M5498.932 545.074L5407.597 439.262M5475.804 565.24L5384.47 459.428M5455.225 586.713L5363.891 480.901M5435.406 609.218L5344.072 503.405M3805.714 1417.602C3854.317 1317.181 3910.598 1220.476 3973.902 1128.611C4070.614 988.263 4183.756 859.247 4310.277 745.04L4651.909 440.285C4757.091 346.457 4868.321 258.037 4993.541 193.329C5046.14 166.148 5101.729 142.142 5160.672 136.556C5190.144 133.764 5220.222 135.699 5248.639 143.998C5277.056 152.296 5303.774 167.095 5324.66 188.075C5355.63 219.184 5372.454 262.873 5374.737 306.71C5377.021 350.547 5365.472 394.428 5345.873 433.706C5306.675 512.262 5237.843 571.101 5172.24 629.444C5064.584 725.184 4960.781 825.617 4846.376 913.181C4693.255 1030.377 4523.059 1123.067 4352.325 1212.681C4253.006 1264.81 4152.9 1316.221 4047.484 1354.549C3969.097 1383.05 3888.036 1404.19 3805.714 1417.602M5374.6 562.516L5302.056 566.88M5397.768 592.718L5291.653 594.939M5413.645 620.829L5323.958 623.051M5239.49 747.256L5320.814 633.569M5214.445 729.529L5295.769 615.842M5185.872 714.586L5231.481 652.328M5162.189 700.625L5197.085 649.796M5570.394 571.419L5682.674 496.724M5528.651 559.313L5662.36 467.476M5506.505 532.837L5640.213 440.999M5483.071 507.106L5616.78 415.268M4283.047 11.73L4283.047 674.918M4307.578 7.171L4307.578 642.825M4412.634 1597.937C4412.634 1625.211 4412.634 2484.582 4412.634 2484.582M4258.803 8.093L4258.803 692.697M3660 1520C3714.998 1406.316 3778.687 1296.838 3850.326 1192.835C3959.765 1033.957 4087.799 887.899 4230.979 758.598L4617.579 413.588C4736.602 307.37 4862.461 207.256 5004.179 134.011C5063.7 103.249 5126.607 76.087 5193.308 69.769C5226.659 66.611 5260.695 68.802 5292.853 78.192C5325.009 87.582 5355.245 104.326 5378.884 128.063C5413.949 163.274 5433 212.73 5435.592 262.355C5438.184 311.98 5425.115 361.657 5402.933 406.124C5358.568 495.057 5280.655 561.675 5206.401 627.733C5084.571 736.115 4967.11 849.815 4837.644 948.949C4664.375 1081.622 4471.772 1186.557 4278.56 1288.01C4166.171 1347.025 4052.888 1405.227 3933.594 1448.619C3844.891 1480.883 3753.159 1504.816 3660 1520M5775.088 721.398L5794.152 642.792M5727.474 718.925L5773.184 540.161M5673.96 716.293L5720.451 531.532M5633.388 667.443L5666.978 525.046M5089.726 41.81L5009.188 10.253M5080.657 78.173L4971.501 33.096M5031.919 101.741L4977.848 73.904M5686.144 495.504L5796.524 548.386M5690.564 447.625L5796.658 497.65M5706.479 406.548L5795.43 449.43M5720.772 364.492L5795.437 400.231M5654.938 2.67L5632.417 23.798M5730.125 2.764L5671.891 58.178M5788.464 15.731L5713.085 91.144M5790.074 60.837L5724.982 206.96M5798.887 142.415L5769.508 205.681M5794.267 219.782L5682.585 230.758M5795.407 272.996L5688.011 283.972M5788.071 331.036L5697.818 334.869M5565.851 49.174L5563.404-2.345M5532.892 98.809L5529.016-1.281M5501.209 107.087L5497.334-0.146M5466.596 31.077L5465.578-0.442M5325.881 60.704L5392.374 12.03M5291.67 49.741L5353.878 3.924M5251.632 39.811L5303.839 2.566M5239.055 13.417L5252.691 3.314M5215.714 42.857L5208.571 4.286M5181.429 45.714L5174.286 2.857M5148.571 51.429L5140 7.143M5115.714 58.571L5105.714 10M5637.077 578.712L5459.686 562.019M5633.488 617.776L5466.811 601.083M5633.4 655.79L5432.437 632.668M5634.921 694.081L5489.672 681.673M5521.818 719.354L5463.455 650.231M5490.611 743.123L5406.534 639.714M5462.545 768.762L5354.896 626.782M5435.362 795.774L5327.714 653.794M5271.194 827.274L5464.142 792.894M5263.553 784.84L5402.93 761.174M5252.508 744.545L5376.885 723.022M5239.676 704.428L5344.767 687.191M5183.943 946.547L5292.947 987.005M5182.51 911.61L5303.637 956.614M5184.114 879.824L5311.301 926.343M5178.417 845.973L5317.727 895.523M5302.11 1043.806L5346.699 1019.943M5225.978 1046.425L5334.964 982.409M5192.492 1027.255L5256.022 991.271M5188.001 991.239L5221.226 974.953M5571.114 687.132L5462.059 776.847M5615.234 712.491L5429.512 848.614M5649.489 741.755L5459.221 882.423M5629.617 814.79L5490.561 915.219M5610.463 812.301L5655.219 846.494M5644.671 783.146L5688.223 816.137M5668.633 744.481L5724.233 783.481M5691.131 704.538L5764.804 756.76M5313.129 924.586L5400.018 1054.976M5330.705 871.132L5436.879 1029.38M5353.337 832.502L5470.226 1001.464M5391.795 816.598C5430.757 872.918 5368.163 784.029 5485.954 950.71M5531.004 900.28L5524.524 963.22M5577.454 867.147L5572.489 913.021M5608.794 844.495L5604.457 868.612M5145.146 834.416C5054.112 920.172 4958.673 1001.252 4859.332 1077.23C4777.691 1139.671 4693.416 1198.667 4606.805 1254.008M4422.057 429.937C4509.128 349.504 4600.193 273.395 4694.806 201.985C4761.544 151.614 4830.045 103.58 4900.143 58.001M5199.622 1228.171C5097.322 1317.191 4991.887 1402.608 4883.577 1484.211C4768.155 1571.172 4649.469 1653.801 4527.853 1731.865M4412.634 15.353L4412.634 555.851M4467.182 1519.145L4467.182 2478.521M4467.182 9.292C4467.182 9.292 4464.151 440.693 4464.151 513.424M4552.896 5.007C4552.896 5.007 4549.865 366.727 4549.865 427.71M5130.639 724.707C5041.732 815.841 4945.699 900.02 4843.705 976.223C4668.918 1106.811 4477.548 1213.389 4284.621 1315.285C4172.37 1374.57 4058.984 1432.585 3939.655 1475.893C3850.93 1508.093 3759.207 1532.023 3666.061 1547.274M4632.728 1129.67L4632.728 1240.37M4673.442 1109.477L4673.442 1243.421M4714.156 1087.867L4714.156 1243.603M4757.014 1061.98L4757.014 1245.918M4810.584 1032.603L4810.584 1236.493M4870.584 982.45L4870.584 1210.343M4939.156 924.616L4939.156 1183.439M5020.584 846.933L5020.584 1128.696M4589.871 1154.58L4589.871 1245.461M5100.891 782.222L5100.891 1043.506M4660.585 381.539L4660.585 424.216M4694.871 355.472L4694.871 405.283M4731.299 325.466L4731.299 366.717M4769.871 291.897L4769.871 336.001M4819.156 254.758L4819.156 304.569M4879.156 212.253L4879.156 254.931M4617.728 421.895L4617.728 463.146M4574.871 458.324L4574.871 499.574M4525.584 503.849L4525.584 539.763M4480.584 544.563L4480.584 580.477M4433.442 585.278L4433.442 621.192M4382.013 628.135L4382.013 664.049M4328.442 673.135L4328.442 709.049M4268.442 730.992L4268.442 766.906M5142.761 755.012C5052.275 844.503 4956.4 928.544 4855.827 1006.528C4786.259 1060.469 4714.384 1111.555 4639.111 1157.198C4608.469 1175.779 4577.275 1193.45 4545.584 1210.182M4212.421 1389.849C4184.213 1404.454 4155.752 1418.57 4127.056 1432.19C4069.738 1459.393 4011.443 1484.627 3951.777 1506.197C3863.016 1538.286 3771.306 1562.213 3678.183 1577.579M2512.985 895.779L2865.257 527.063L3455.822-9.262M3717.376 1645.14C3483.806 1792.706 3245.728 1933.138 3003.586 2066.172C2680.052 2243.924 2348.317 2408.874 2000.698 2533.093C1742.337 2625.416 1475.837 2694.947 1205.304 2740.614C1346.14 2400.747 1532.791 2079.9 1758.621 1789.479C1866.689 1650.503 1983.682 1518.468 2108.642 1394.46M2852.396 792.744L2992.536 636.159L3680.076 2.86M4246.236 1523.833C3881.834 1753.311 3509.767 1970.618 3130.865 2175.269C2806.103 2350.678 2475.29 2517.238 2127.977 2642.19C1869.799 2735.073 1603.231 2804.622 1332.583 2849.71C1473.419 2509.844 1660.07 2188.996 1885.901 1898.575C1993.968 1759.599 2110.961 1627.565 2235.921 1503.557M2952.401 856.383C2987.296 805.638 3031.491 762.075 3077.389 721.012L3880.086 2.86M4241.088 1655.828C3906.489 1869.141 3564.419 2070.737 3215.718 2260.122C2891.351 2436.29 2560.241 2602.328 2212.83 2727.042C1954.593 2819.745 1688.047 2889.288 1417.436 2934.563C1561.828 2596.375 1748.14 2276.111 1970.753 1983.428C2080.893 1838.621 2199.882 1700.545 2326.834 1570.227M3040.284 920.023L3168.302 781.621L4025.548 2.86M4246.288 1772.152C3938.896 1964.757 3625.472 2147.736 3306.632 2320.731C2982.194 2496.763 2651.137 2662.894 2303.743 2787.652C2045.517 2880.387 1778.967 2949.93 1508.35 2995.172C1656.639 2658.861 1842.611 2339.181 2061.667 2044.037C2165.13 1904.637 2275.947 1770.696 2393.504 1642.958M3116.046 965.48L3241.033 836.169L4164.949-3.201M4246.162 1865.271C3962.844 2044.587 3673.709 2214.708 3379.363 2375.279C3055.313 2552.053 2723.966 2717.675 2376.474 2842.2C2118.19 2934.757 1851.662 3004.295 1581.081 3049.72C1734.761 2716.066 1920.317 2397.102 2134.398 2098.585C2236.649 1956.006 2345.391 1818.082 2460.175 1685.384M3170.594 1001.845L3289.521 878.596L4223.353 34.635M4247.506 1946.269C3978.402 2110.428 3705.062 2267.644 3427.85 2417.705C3103.247 2593.421 2772.314 2759.77 2424.962 2884.626C2166.76 2977.437 1900.201 3046.983 1629.568 3092.147C1784.908 2759.325 1970.348 2440.559 2182.885 2141.012C2285.333 1996.624 2394.062 1856.694 2508.662 1721.75M4218.793 280.849L4243.375 236.514M4190.999 266.354L4239.824 184.138M4162.902 254.796L4217.789 157.427M4134.104 244.358L4169.293 184.87M4006.155 324.382L4156.124 396.655M4035.382 298.252L4159.592 356.887M4062.637 270.41L4171.695 322.985M4091.562 244.831L4182.437 288.314M4241.16 372.311L4224.073 301.959M4230.286 459.471L4193.501 311.841M4196.988 473.917L4169.295 364.168M3976.966 510.769L4100.488 393.124M3951.237 483.987L4074.76 366.342M3924.059 460.382L4035.459 351.828M3895.67 437.765L3997.979 339.818M4170.608 557.193L4240.091 559.407M4161.281 513.16L4241.37 516.889M4155.797 473.516L4238.917 475.73M4081.878 424.583L4180.15 432.859M4203.336 751.546L4248.77 708.542M4177.219 724.602L4242.35 666.445M4149.68 700.833L4237.54 616.917M4120.937 678.048L4239.101 568.374M4176.02 633.548L4134.63 442.18M4133.524 642.949L4092.135 451.58M4093.304 655.662L4051.915 464.294M4053.326 670.154L4011.937 478.785M3787.269 542.963L3950.576 650.972M3811.107 506.549L3951.686 597.89M3843.124 475.416L3994.31 577.363M3870.696 446.209L4012.79 539.066M3728.563 768.94L3884.325 624.568M3699.177 736.836L3844.226 605.321M3668.06 708.358L3813.108 576.843M3635.524 680.978L3780.572 549.464M3766.229 738.444L3769.367 760.126M3797.615 715.384L3803.785 752.218M3828.647 694.196L3836.332 741.636M3862.501 663.991L3868.669 729.614M3892.625 705.85L4045.197 661.402M3880.058 674.017L4032.63 629.569M3943.342 619.753L4018.637 598.034M3717.448 1067.097L3855.662 1177.889M3741.948 1036.289L3880.162 1147.081M3762.96 1004.451L3901.174 1115.243M3782.788 971.502L3921.002 1082.295M4258.803 1565.681L4258.803 2486.479M4307.578 1648.538L4307.578 2493.58M4283.047 1613.657L4283.047 2497.092M2035.443 2506.481C2115.115 2372.982 2199.36 2242.212 2287.98 2114.478C2580.934 1692.224 2921.874 1303.29 3302.13 957.566L4247.273 105.047M1361.682 1766.755L1759.472 1766.755M1454.875 1724.634L1787.803 1724.634M1432.497 1787.969L1736.816 1787.969M490.639-369.487C722.579-553.087 1069.206-510.607 1252.352-279.233C1438.858-43.615 1395.67 308.531 1160.588 494.605C921.2 684.088 563.451 640.24 374.435 401.434C181.963 158.262 226.538-205.164 469.159-397.192C716.209-592.726 1085.399-547.471 1280.452-301.02C1479.06-50.078 1433.056 324.95 1182.682 523.102C927.752 724.858 546.796 678.156 345.533 423.842C140.615 164.91 188.087-222.051 446.437-426.5C709.47-634.656 1102.527-586.465 1310.175-324.065C1521.582-56.915 1472.599 342.316 1206.049 553.241C934.682 767.977 529.182 718.255 314.968 447.54C96.889 171.941 147.425-239.908 422.408-457.491C702.344-678.994 1120.638-627.697 1341.604-348.432C1566.542-64.145 1514.408 360.677 1230.755 585.106C942.01 813.564 510.561 760.649 282.655 472.593C50.665 179.374 104.441-258.785 397.008-490.252C694.811-725.86 1139.782-671.281 1374.823-374.187C1614.062-71.786 1558.598 380.083 1256.866 618.784C949.754 861.742 490.882 805.452 248.508 499.068C1.818 187.229 59.017-278.733 370.169-524.87C686.85-775.382 1160.009-717.333 1409.922-401.4C1664.269-79.86 1605.285 400.585 1284.453 654.364C957.935 912.64 470.093 852.784 212.434 527.037C-49.783 195.527 11.035-299.804 341.818-561.437C678.442-827.69 1181.374-765.977 1446.994-430.143C1717.297-88.388 1654.595 422.239 1313.587 691.942C966.577 966.393 448.139 902.77 174.339 556.573C-104.273 204.291-39.634-322.054 311.88-600.049C669.563-882.922 1203.932-817.338 1486.136-460.491C1773.284-97.393 1706.656 445.1 1344.346 731.615C975.7 1023.14 424.962 955.541 134.124 587.752C-161.793 213.542-93.121-345.54 280.28-640.807C660.19-941.221 1227.742-871.551 1527.45-492.523C1832.375-106.897 1761.603 469.227 1376.809 773.484C985.328 1083.028 400.504 1011.231 91.684 620.656C-222.493 223.305-149.563-370.324 246.935-683.816C650.3-1002.737 1252.865-928.755 1571.042-526.32C1894.721-116.925 1819.575 494.683 1411.058 817.658C995.486 1146.21 374.701 1069.984 46.914 655.368C-286.524 233.605-209.102-396.468 211.76-729.183C639.867-1067.624 1279.363-989.093 1617.02-561.968C1960.478-127.503 1880.719 521.531 1447.179 864.247C1006.2 1212.844 347.49 1131.945-0.301 691.974C-354.048 244.467-271.889-424.037 174.669-777.022C628.865-1136.046 1307.304-1052.716 1665.5-599.555C2029.811-138.656 1945.187 549.837 1485.262 913.367C1017.497 1283.094 318.802 1197.269-50.075 730.566C-425.232 255.918-338.077-453.098 135.57-827.452C617.268-1208.169 1336.756-1119.781 1716.6-639.174C2102.889-150.412 2013.136 579.672 1525.401 965.138C1029.403 1357.134 288.568 1266.115-102.532 771.237C-500.249 267.986-407.829-483.724 94.367-880.595C605.046-1284.169 1367.79-1190.45 1770.445-680.922C2179.89-162.8 2084.732 611.107 1567.693 1019.685C1037.348 1438.776 260.35 1343.251-157.798 814.085C-582.967 276.035-485.98-512.299 50.962-936.579C596.905-1367.972 1396.74-1269.63 1827.164-724.897C2264.794-171.046 2164.952 640.422 1612.238 1077.139C1050.287 1521.155 227.018 1419.923-216.004 859.214C-666.42 289.149-563.648-546.058 5.251-995.537C583.627-1452.505 1430.943-1348.307 1886.892-771.205C2350.426-184.503 2244.647 675.062 1659.142 1137.635C1063.911 1607.892 191.923 1500.651-277.288 906.728C-754.281 302.956-645.418-581.599-42.874-1057.607C569.648-1541.498 1466.95-1431.134 1949.768-819.954C2195.168-509.311 2289.861-126.442 2245.701 239.991C2223.621 423.208 2166.827 602.315 2076.802 766.23C2031.79 848.187 1973.508 935.279 1912.065 1008.255C1881.344 1044.743 1863.629 1065.81 1800.015 1123.966M1734.927 1184.517C1104.666 1682.393 154.984 1585.624-341.792 956.74C-846.757 317.489-731.481-619.006-93.523-1122.934C554.935-1635.156 1504.844-1518.302 2015.937-871.256C2275.683-542.417 2375.905-137.129 2329.145 250.753C2305.766 444.694 2245.641 634.284 2150.339 807.79C2102.688 894.543 2046.243 977.275 1981.199 1054.52M1820.424 1218.442C1800.966 1235.49 1780.98 1252.125 1760.469 1268.326C1093.345 1795.263 116.114 1675.037-409.664 1009.362M-146.813-1191.667C539.455-1733.695 1544.71-1610.011 2085.551-925.229C2360.388-577.246 2466.425-148.373 2416.931 262.074C2392.184 467.297 2328.554 667.914 2227.7 851.51C2202.486 897.409 2174.946 942.244 2145.106 985.821M1878.57 1286.037C1857.979 1304.075 1836.83 1321.677 1815.124 1338.82C1109.222 1896.325 75.228 1769.093-481.059 1064.716M-202.864-1263.961C523.173-1837.337 1586.64-1706.468 2158.766-981.995C2449.474-613.877 2561.626-160.2 2509.254 273.978C2483.069 491.067 2415.752 703.281 2309.059 897.488C2295.722 921.764 2281.771 945.758 2267.207 969.446M1971.994 1330.593C1930.801 1370.546 1918.526 1376.69 1872.603 1412.955C1779.268 1486.661 1680.51 1549.051 1577.995 1600.346M274.012 1697.594C168.075 1663.691 65.039 1619.583-33.431 1565.492C-230.37 1457.31-409.044 1309.195-556.136 1122.925M847.488 1459.422L847.488 551.359M847.488 1837.218L847.488 2299.902M4239.181 1998.723L4209.753 1987.527M4237.016 2030.34L4189.405 2014.598M4237.799 2061.751L4158.369 2035.402M4239.802 2095.18L4127.037 2058.224M4179.325 2110.773L4186.657 2077.624M4134.736 2123.982L4146.615 2066.588M4095.148 2125.851L4107.026 2059.367M4053.462 2079.329L4250.199 1956.781M4222.469 2103.593L4101.87 2155.74M4247.346 2142.949L4114.625 2196.611M4244.934 2189.946L4131.91 2239.062M4250.376 2236.366L4143.414 2282.451M4247.996 2286.592L4189.863 2278.237M4240.987 2321.535L4166.188 2310.149M4237.233 2355.846L4174.556 2344.461M4239.447 2390.553L4178.285 2380.683M3195.465 1032.147L2905.301 837.005L1840.241 1171.933L2551.228 1741.75M4212.124 2403.542L4172.31 2421.605M4244.37 2432.833L4116.458 2488.517M4248.773 2469.245L4196.659 2494.193M3227.712 993.9L2914.391 783.044L1764.331 1144.943L2532.06 1760.646M3278.875 958.862L2921.242 719.621L1687.188 1108.171L2510.987 1769.218M3333.408 929.457L2938.423 660.737L1614.457 1077.817M2822.197 635.054L2921.612 540.624L3512.177 4.299M3773.731 1658.701C3540.161 1806.267 3302.083 1946.698 3059.941 2079.733C2736.407 2257.485 2404.672 2422.435 2057.052 2546.654C1798.692 2638.977 1532.192 2708.508 1261.659 2754.175C1403.927 2414.98 1590.438 2094.373 1814.976 1803.04C1905.476 1685.617 2002.123 1572.932 2104.387 1465.6M3057.462 645.435L3736.431 16.421M4302.591 1537.394C3938.189 1766.872 3566.122 1984.179 3187.22 2188.83C2862.458 2364.239 2531.644 2530.799 2184.332 2655.75C1926.154 2748.635 1659.586 2818.183 1388.938 2863.271C1531.206 2524.077 1717.717 2203.47 1942.255 1912.136C2032.756 1794.714 2129.402 1682.029 2231.667 1574.696M3168.029 708.859L3936.441 16.421M4297.443 1669.389C3962.844 1882.702 3620.774 2084.298 3272.073 2273.683C2947.706 2449.851 2616.596 2615.889 2269.185 2740.603C2010.948 2833.306 1744.402 2902.848 1473.791 2948.124C1620.219 2610.912 1806.349 2290.959 2027.108 1996.989C2119.692 1873.701 2218.341 1754.969 2322.58 1641.366M3258.943 769.468L4081.903 16.421M4302.643 1785.713C3995.25 1978.318 3681.827 2161.297 3362.986 2334.292C3038.549 2510.323 2707.492 2676.455 2360.098 2801.213C2101.872 2893.948 1835.322 2963.491 1564.704 3008.733C1716.409 2674.096 1902.109 2354.882 2118.022 2057.598C2203.778 1939.523 2294.284 1824.9 2389.25 1714.097M3331.674 824.016L4221.304 10.36M4302.517 1878.832C4019.199 2058.147 3730.064 2228.269 3435.717 2388.84C3111.668 2565.614 2780.32 2731.235 2432.829 2855.761C2174.545 2948.318 1908.017 3017.856 1637.436 3063.281C1795.745 2731.967 1980.994 2413.53 2190.753 2112.146C2275.237 1990.759 2363.689 1872.134 2455.92 1756.524M3380.161 866.443L4279.708 48.196M4303.861 1959.83C4034.757 2123.99 3761.417 2281.205 3484.205 2431.266C3159.602 2606.982 2828.669 2773.331 2481.316 2898.187C2223.115 2990.998 1956.556 3060.544 1685.923 3105.708C1844.933 2774.753 2030.14 2456.388 2239.24 2154.573C2328.413 2025.86 2421.924 1900.153 2519.56 1777.737M868.917 1497.994L868.917 589.93M868.917 1823.274L868.917 2426.708M4619.871 1766.755L5796.832 1766.755M4352.581 1724.634L5796.71 1724.634M4620.051 1787.969L5791.336 1787.969M174.539 1766.755L1116.435 1766.755M395.202 1724.634L1183.518 1724.634M342.217 1787.969L1062.788 1787.969M5755.761 2253.813L5860.983 2394.993M5706.202 2303.97L5812.916 2456.373M5661.815 2334.909L5780.208 2500.736M5616.484 2363.069L5753.832 2549.851M5568.94 2387.473L5728.493 2598.971M5525.948 2409.446L5712.846 2650.573M4666.979 2490.711L4737.488 2352.595M4613.813 2491.378L4690.751 2342.548M4560.139 2490.066L4654.221 2319.808M4563.229 2400.432L4605.883 2318.031M4710.757 2460.871L4813.104 2491.431M4725.587 2411.131L4862.22 2454.548M4552.896 1392.151L4552.896 2472.657M2201.929 1186.316C2427.533 1109.984 2655.586 1041.129 2882.838 969.908M2274.1 1293.999L2839.405 1117.082M2167.646 1243.473C2419.804 1155.275 2675.913 1078.94 2930.76 998.97M2202.358 1276.593C2440.658 1192.669 2683.148 1121.129 2924.174 1045.497M2288.163 1333.823L2830.185 1164.113M2347.128 1360.078L2817.244 1211.202M2498.614 1080.296C2494.221 1067.123 2495.259 1051.611 2502.328 1035.736C2518.604 1004.854 2551.004 989.113 2580.996 1001.875C2595.65 1008.4 2605.474 1019.236 2609.866 1032.409M2611.255 1282.451L2599.608 1538.693M2514.886 1324.328L2559.301 1541.942M2559.906 1557.74L2494.132 1591.005M2603.202 1554.424L2573.008 1622.234L2573.008 1622.234M2211.603 1203.91C2437.206 1127.578 2665.259 1058.724 2892.511 987.502M2283.773 1311.594L2849.078 1134.676M2297.836 1351.417L2839.858 1181.707M2356.802 1377.673L2826.917 1228.796M2600.138 1034.664L2508.903 1065.186L2508.903 1065.186M2580.726 1014.241L2519.903 1034.589L2520.153 1040.997M2532.73 1321.064L2586.917 1556.45M2553.654 1314.47L2598.069 1532.083M2588.083 1316.467L2592.483 1408.409M2888.839 970.266L2902.342 990.617L2925.401 988.354L2943.39 1018.968L2931.165 1066.193M2855.188 1096.393L2838.464 1225.943L2838.464 1225.943M2193.516 1190.789L2191.475 1215.126L2170.175 1224.242L2169.142 1259.735L2202.588 1295.245M2263.378 1282.901L2295.178 1353.369L2351.597 1380.212M2491.252 1562.655L2573.7 1628.421L2545.54 1581.412L2570.73 1587.236L2569.537 1545.073M2184.202 1259.028L2927.422 1020.379L2927.422 1020.379M2211.477 1293.12L2918.331 1070.382M2049.08 2529.21C2128.752 2395.71 2212.997 2264.94 2301.617 2137.206C2594.571 1714.953 2935.511 1326.019 3315.767 980.295L4260.91 127.775M2080.9 2524.664C2160.572 2391.165 2244.817 2260.395 2333.437 2132.661C2626.391 1710.407 2967.331 1321.473 3347.587 975.749L4292.73 123.229M3655.454 1501.817C3710.453 1388.134 3774.141 1278.655 3845.781 1174.653C3955.219 1015.774 4083.253 869.717 4226.433 740.416L4613.033 395.406C4732.056 289.187 4857.916 189.073 4999.634 115.828C5059.154 85.066 5122.061 57.904 5188.763 51.587C5222.113 48.428 5256.15 50.619 5288.307 60.009C5320.464 69.399 5350.7 86.143 5374.338 109.88C5409.403 145.091 5428.455 194.547 5431.046 244.172C5433.638 293.797 5420.569 343.474 5398.387 387.941C5354.023 476.875 5276.11 543.492 5201.855 609.55C5080.025 717.932 4962.565 831.632 4833.098 930.766C4659.83 1063.439 4467.227 1168.374 4274.015 1269.828C4161.625 1328.842 4048.343 1387.044 3929.048 1430.436C3840.345 1462.7 3748.614 1486.633 3655.454 1501.817M1464.518 605.029C1598.304 470.419 1736.495 340.271 1873.273 208.72M1554.258 656.188L1894.592 329.125M1460.377 657.979C1608.886 505.469 1764.428 360.016 1917.78 212.42M1496.904 669.267C1637.048 524.729 1784.581 387.536 1929.616 247.945M1578.44 679.595L1904.728 365.946M1629.826 677.369L1912.231 404.13M1638.453 423.986C1630.639 416.151 1625.867 404.719 1625.268 390.884C1625.903 363.074 1643.418 340.333 1669.345 338.778C1682.116 338.225 1692.973 342.463 1700.787 350.298M1790.628 528.146L1873.376 715.047M1736.775 592.258L1845.781 731.687M1851.827 742.74L1816.734 789.838M1881.529 724.99L1884.089 784.084L1884.089 784.084M1477.67 614.141C1611.456 479.531 1749.646 349.383 1886.424 217.832M1567.41 665.3L1907.743 338.236M1591.591 688.707L1917.879 375.057M1642.978 686.48L1925.382 413.242M1694.649 355.363L1640.422 409.552L1640.422 409.552M1673.547 347.694L1637.396 383.82L1639.852 388.302M1748.342 583.589L1870.634 732.222M1760.923 571.451L1869.929 710.88M1786.189 560.641L1821.998 624.654M1877.681 206.843L1894.543 216.56L1910.185 206.752L1933.894 222.195L1941.956 260.222M1898.498 308.76L1932.604 407.103L1932.604 407.103M1460.107 611.209L1467.3 629.293L1455.346 643.364L1467.222 669.046L1503.696 682.488M1542.667 652.083L1590.389 691.044L1640.168 690.141M1804.606 770.642L1886.782 788.251L1849.992 764.729L1870.028 759.932L1854.195 730.283M1477.713 663.19L1923.007 228.876L1923.007 228.876M1509.28 677.814L1934.291 267.77M1260 1706.071C1260 1931.522 1077.236 2114.286 851.786 2114.286C626.335 2114.286 443.572 1931.522 443.572 1706.071C443.572 1480.621 626.335 1297.857 851.786 1297.857C1077.236 1297.857 1260 1480.621 1260 1706.071L1260 1706.071M1240.714 1696.429C1240.714 1916.554 1062.268 2095 842.143 2095C622.018 2095 443.571 1916.554 443.571 1696.429C443.571 1476.304 622.018 1297.857 842.143 1297.857C1062.268 1297.857 1240.714 1476.304 1240.714 1696.429L1240.714 1696.429M1221.429 1686.786C1221.429 1901.585 1047.299 2075.714 832.5 2075.714C617.701 2075.714 443.571 1901.585 443.571 1686.786C443.571 1471.986 617.701 1297.857 832.5 1297.857C1047.299 1297.857 1221.429 1471.986 1221.429 1686.786L1221.429 1686.786M3227.712 1021.174L2914.391 810.318L1764.331 1172.217L2532.06 1787.92M4935.513-5.585C4966.038 54.916 4962.46 49.874 4989.049 112.033M5180.994 708.607C5195.583 774.397 5208.146 840.624 5218.671 907.176C5302.863 1439.591 5256.483 1992.791 5071.322 2509.364M4912.784-14.676C4943.31 45.825 4946.161 60.068 4972.75 122.228M5158.266 699.515C5172.854 765.306 5185.418 831.533 5195.942 898.085C5280.135 1430.499 5233.754 1983.699 5048.594 2500.273M4885.51 3.507C4916.035 64.007 4918.886 78.251 4945.476 140.41M5130.991 717.698C5145.58 783.488 5158.144 849.715 5168.668 916.267C5252.861 1448.682 5206.48 2001.882 5021.32 2518.455M5280.219 689.321C5294.807 755.111 5307.372 821.338 5317.896 887.89C5402.088 1420.305 5355.708 1973.505 5170.547 2490.078M5489.829 1749.094C5489.829 1876.025 5386.93 1978.923 5259.999 1978.923C5133.067 1978.923 5030.169 1876.025 5030.169 1749.094C5030.169 1622.163 5133.067 1519.264 5259.999 1519.264C5386.93 1519.264 5489.829 1622.163 5489.829 1749.094L5489.829 1749.094M5470.542 1739.451C5470.542 1861.057 5371.961 1959.638 5250.356 1959.638C5128.75 1959.638 5030.169 1861.057 5030.169 1739.451C5030.169 1617.845 5128.75 1519.264 5250.356 1519.264C5371.961 1519.264 5470.542 1617.845 5470.542 1739.451L5470.542 1739.451M5451.257 1729.808C5451.257 1846.089 5356.993 1940.352 5240.713 1940.352C5124.433 1940.352 5030.169 1846.089 5030.169 1729.808C5030.169 1613.528 5124.433 1519.264 5240.713 1519.264C5356.993 1519.264 5451.257 1613.528 5451.257 1729.808L5451.257 1729.808M5829.476 1113.119L5710.108 1209.433M5830.189 1016.26L5646.4 1164.497M5829.382 933.238L5600.457 1134.05M5827.665 862.19L5550.083 1110.163M5827.664 793.132L5499.757 1087.313M5830.318 728.497L5447.438 1074.267M5806.748 1104.027L5687.379 1200.342M5807.461 1007.169L5623.672 1155.406M5806.653 924.147L5577.728 1124.958M5804.937 853.099L5527.355 1101.072M5804.936 784.04L5477.029 1078.222M5807.589 719.405L5424.709 1065.176M1399.629 526.829C1048.638 405.623 680.54 440.516 369.976 593.224M540.921 3112.952C1269.505 3364.527 2069.099 2968.059 2319.945 2241.414C2335.961 2195.02 2346.376 2172.522 2357.313 2125.717M2166.26 1004.636C2142.265 965.642 2133.545 955.61 2105.895 918.981C2050.593 845.721 1988.139 777.497 1919.165 715.543C1781.217 591.634 1617.19 492.802 1432.141 428.912C1054.082 298.384 657.601 335.985 323.097 500.482M507.268 3214.303C1291.888 3485.172 2152.957 3058.198 2423.046 2275.654C2440.288 2225.697 2454.754 2175.435 2466.528 2125.036C2478.303 2074.636 2487.386 2024.099 2493.863 1973.589C2497.101 1948.334 2496.666 1964.478 2498.612 1932.293M2275.955 973.903C2250.115 931.917 2222.265 891.119 2192.49 851.678C2132.938 772.796 2065.685 699.336 1991.412 632.628C1842.865 499.211 1666.236 392.799 1466.972 324.016C1059.914 183.504 633.029 224.007 272.881 401.133M471.222 3322.86C1315.86 3614.39 2242.771 3154.74 2533.466 2312.325C2570.577 2204.778 2595.735 2095.922 2609.673 1987.186C2623.61 1878.45 2626.326 1742.634 2609.489 1629.523M2387.931 928.302C2360.116 883.11 2317.28 822.055 2285.228 779.603C2221.125 694.699 2148.732 615.632 2068.783 543.833C1908.885 400.235 1718.76 285.706 1504.271 211.682C1066.161 60.481 606.717 104.092 219.108 294.744M432.628 3439.092C1341.526 3752.74 2338.929 3258.104 2651.682 2351.585C2691.606 2235.868 2718.668 2118.741 2733.658 2001.745C2748.647 1884.749 2751.565 1767.882 2743.198 1652.682C2741.106 1623.883 2740.184 1604.026 2738.569 1584.298C2736.954 1564.57 2716.513 1508.703 2711.649 1480.417M2505.038 881.507C2491.249 856.53 2496.152 868.302 2481.187 843.99C2451.257 795.366 2418.999 748.12 2384.511 702.445C2315.534 611.094 2237.639 526.025 2151.614 448.777C1979.563 294.279 1774.99 171.061 1544.201 91.427C1072.85-71.214 578.552-24.274 161.548 180.857M391.32 3563.498C1368.994 3900.813 2441.843 3368.731 2778.202 2393.603C2799.667 2331.372 2817.675 2268.762 2832.331 2205.98C2839.659 2174.59 2837.578 2181.728 2843.243 2150.277M2641.147 851.639C2626.315 824.775 2610.845 798.257 2594.748 772.108C2562.555 719.812 2527.857 668.998 2490.761 619.874C2416.57 521.625 2332.786 430.132 2240.257 347.052C2055.2 180.89 1835.164 48.374 1586.932-37.262C1080.009-212.143 548.415-161.639 99.956 58.987M347.122 3696.606C1398.381 4059.239 2551.948 3487.092 2913.559 2438.556C2959.708 2304.738 2982.416 2207.865 2999.736 2072.57M2778.983 804.288C2763.036 775.406 2733.545 723.324 2716.237 695.212C2681.622 638.987 2644.315 584.356 2604.43 531.541C2524.658 425.912 2434.574 327.549 2335.088 238.229C2136.116 59.59 1899.537-82.872 1632.643-174.928M299.849 3838.975C1429.81 4228.682 2669.708 3613.682 3058.321 2486.632C3107.912 2342.81 3141.521 2197.238 3160.127 2051.83C3164.779 2015.478 3159.921 2017.707 3162.713 1981.405M2816.163 570.121C2778.958 509.694 2768.86 493.839 2725.991 437.078C2640.252 323.557 2543.43 217.845 2436.503 121.854C2222.65-70.128 1968.379-223.226 1681.527-322.148M249.305 3991.197C1463.412 4409.845 2795.609 3749.027 3213.088 2538.031C3266.357 2383.513 3302.457 2227.116 3322.438 2070.894C3332.43 1992.783 3338.391 1914.716 3340.455 1836.95C3342.519 1759.184 3340.686 1681.718 3335.086 1604.809C3323.886 1450.992 3297.621 1299.404 3257.344 1152.099M2985.063 525.067C2945.089 460.149 2902.007 397.073 2855.948 336.094C2763.83 214.136 2659.804 100.568 2544.922-2.555M195.281 4153.898C1499.324 4603.474 2930.17 3893.683 3378.497 2592.964C3435.695 2427.015 3474.456 2259.048 3495.907 2091.271C3506.633 2007.382 3513.031 1923.54 3515.244 1840.022C3517.457 1756.503 3515.484 1673.307 3509.466 1590.71C3497.43 1425.516 3469.216 1262.717 3425.953 1104.518C3404.322 1025.418 3378.928 947.469 3349.914 870.945C3320.899 794.421 3288.264 719.323 3252.149 645.927C3224.941 590.563 3195.33 535.661 3165.079 483.773C3154.765 466.101 3144.24 448.548 3133.507 431.119C3090.574 361.401 3044.303 293.661 2994.835 228.174C2895.898 97.2 2784.173-24.763 2660.79-135.507M137.557 4327.742C1541.794 4811.77 3072.511 4052.377 3555.217 2651.654C3616.794 2472.97 3658.597 2292.274 3681.823 2111.903C3693.436 2021.717 3700.405 1931.611 3702.879 1841.879C3705.353 1752.147 3703.333 1662.787 3696.968 1574.093M3679.894 1403.014C3674.557 1359.035 3672.439 1353.831 3664.986 1310.294C3649.478 1220.807 3629.97 1133.7 3607.832 1052.234C3584.685 967.366 3557.492 883.746 3526.403 801.666C3495.314 719.586 3460.329 639.047 3421.597 560.34C3401.897 520.322 3381.539 481.405 3360.709 443.69C3339.488 405.289 3317.35 367.382 3294.312 330.007C3248.237 255.256 3198.565 182.629 3145.445 112.419C3039.206-28.002 2919.177-158.759 2786.555-277.517M669.684 440.651C726.389 324.741 786.906 210.74 846.206 96.145M738.643 453.969L886.253 169.002M749.45 249.453L953.772 437.633L967.972 487.827M678.593 475.645C740.864 344.992 809.206 217.346 875.669 88.797M704.577 474.928C763.205 351.236 828.197 230.658 891.055 109.081M759.328 463.753L900.829 190.492M791.925 451.086L914.007 213.435M742.086 286.07C735.343 282.734 729.772 276.417 726.361 267.641C720.691 249.597 726.996 231.128 743.348 224.459C751.449 221.311 759.365 221.666 766.109 225.002M862.829 319.861L956.961 422.1M842.173 372.911L942.833 438.846M941.744 450.525L942.732 482.032M964.384 426.72L978.951 464.205L978.951 464.205M2695.058 305.167L2722.231 108.607M2627.323 340.323L2659.15 100.475M2559.668 380.275L2597.556 98M2497.525 380.352L2535.414 98.078M2614.337 517.108L2761.279 427.411M2562.677 492.279L2729.272 385.439M2516.885 462.544L2703.716 347.805M2486.418 425.157L2676.217 309.746M2450.584 595.576L2515.946 635.825M2460.055 549.47L2543.966 597.924M2474.444 508.948L2578.529 565.973M2484.232 467.395L2626.52 539.42M2526.226 726.366L2445.589 629.717M2495.219 738.727L2433.133 659.741M2464.719 754.633L2417.265 694.197M2432.855 765.201L2399.147 723.683M2744.709 651.372L2694.543 489.67M2711.427 665.346L2661.26 503.644M2678.489 680.833L2628.323 519.131M2588.124 708.995L2672.462 622.026M2539.069 713.184L2646.979 598.359M2512.425 692.53L2620.335 577.705M2484.713 672.849L2592.623 558.024M2720.706 586.591L2826.032 594.281M2722.792 549.417L2855.392 557.107M2721.589 513.34L2881.463 527.091M2718.85 477.046L2924.181 490.798M2695.529 308.034L2781.627 469.454M2746.804 280.526L2854.116 481.342M2793.955 249.583L2916.419 480.704M2840.151 216.44L2962.614 447.561M2946.425 418.984L3165.613 225.602M2921.172 355.103L3122.177 176.873M2887.207 299.638L3076.091 133.529M3307.693 4.727L3352.751 57.706M3234.937 4.425L3312.065 99.897M3173.358 8.503L3273.887 139.285M3113.61 7.602L3239.928 171.799M2982.857 1766.755L3396.709 1766.755M2888.87 1724.634L3396.667 1724.634M2982.92 1787.969L3394.777 1787.969M3388.921 841.6L2988.021 571.314L1516.497 1035.215L2498.82 1824.455M2797.89 624.708L2897.305 530.277L3487.871-6.047M3749.425 1648.355C3515.854 1795.921 3277.776 1936.352 3035.634 2069.387C2712.1 2247.139 2380.365 2412.088 2032.746 2536.307C1774.386 2628.631 1507.885 2698.161 1237.352 2743.828C1379.62 2404.634 1566.131 2084.027 1790.67 1792.693C1881.17 1675.271 1977.816 1562.586 2080.081 1455.253M3033.156 635.088L3712.125 6.074M4278.284 1527.047C3913.882 1756.525 3541.816 1973.832 3162.913 2178.483C2838.151 2353.892 2507.338 2520.452 2160.025 2645.404C1901.847 2738.288 1635.279 2807.836 1364.631 2852.925C1506.899 2513.73 1693.411 2193.123 1917.949 1901.79C2008.449 1784.367 2105.095 1671.682 2207.36 1564.349M3143.723 698.512L3912.135 6.074M4273.137 1659.043C3938.537 1872.355 3596.468 2073.951 3247.766 2263.336C2923.4 2439.504 2592.29 2605.542 2244.878 2730.257C1986.641 2822.959 1720.095 2892.502 1449.484 2937.777C1595.912 2600.565 1782.042 2280.613 2002.802 1986.642C2095.385 1863.355 2194.034 1744.623 2298.274 1631.02M3234.636 759.121L4057.597 6.075M4278.336 1775.366C3970.944 1967.971 3657.521 2150.95 3338.68 2323.945C3014.242 2499.977 2683.186 2666.109 2335.792 2790.866C2077.565 2883.601 1811.015 2953.145 1540.398 2998.386C1692.102 2663.75 1877.803 2344.536 2093.715 2047.251C2179.471 1929.177 2269.978 1814.553 2364.944 1703.751M3307.367 813.67L4196.998 0.014M4278.21 1868.486C3994.893 2047.801 3705.757 2217.923 3411.411 2378.493C3087.362 2555.267 2756.014 2720.889 2408.523 2845.414C2150.239 2937.972 1883.71 3007.51 1613.129 3052.935C1771.438 2721.621 1956.688 2403.184 2166.446 2101.8C2250.93 1980.412 2339.382 1861.787 2431.614 1746.177M3355.854 856.096L4255.401 37.85M4279.555 1949.484C4010.45 2113.643 3737.11 2270.858 3459.898 2420.92C3135.295 2596.635 2804.363 2762.984 2457.01 2887.841C2198.808 2980.651 1932.249 3050.197 1661.616 3095.361C1820.627 2764.406 2005.833 2446.042 2214.934 2144.226C2304.106 2015.514 2397.617 1889.807 2495.253 1767.39M3367.979 853.869L2982.154 593.814L1565.97 1040.155L2511.351 1799.522M3331.236 1852.943C3273.457 1852.943 3226.618 1804.82 3226.618 1745.458C3226.618 1686.096 3273.457 1637.974 3331.236 1637.974M3331.236 1852.943C3278.96 1852.943 3236.582 1809.063 3236.582 1754.934C3236.582 1700.806 3278.96 1656.926 3331.236 1656.926M3331.236 1852.943C3284.462 1852.943 3246.545 1813.305 3246.545 1764.41C3246.545 1715.515 3284.462 1675.877 3331.236 1675.877M1892.892 1503.424L1968.625 1418.726M1875.398 1473.939L1942.714 1396.167M1828.949 1476.741L1915.793 1376.614M1908.822 1522.488L1971.934 1520.141M1932.753 1486.204L1999.311 1485.786M1963.943 1450.213L2023.754 1454.907M1836.071 1662.524L1936.805 1546.005M1818.577 1630.765L1897.257 1537.083M1695.174 1567.944L1840.109 1563.325M1739.562 1529.388L1860.668 1526.697M1793.48 1493.396L1885.111 1495.818Z" style="fill: none; stroke: black; stroke-width: 15; marker-start: url(#point)"/>
</svg>
