<?xml version="1.0" encoding="UTF-8" standalone="no"?>
<!DOCTYPE svg PUBLIC "-//W3C//DTD SVG 1.1//EN" "http://www.w3.org/Graphics/SVG/1.1/DTD/svg11.dtd">
<svg width="5496.763874149862" height="6419.460985906692" version="1.1" xmlns="http://www.w3.org/2000/svg" xmlns:xlink="http://www.w3.org/1999/xlink">
	<title/>
	<defs>
		<marker id="point" markerWidth="6" markerHeight="6" markerUnits="userSpaceOnUse" orient="auto" refX="0" refY="0"/>
	</defs>
	<marker id="point" markerWidth="6" markerHeight="6" markerUnits="userSpaceOnUse" orient="auto" refX="0" refY="0"/>
	<path d="M5227.218643 2645.75539L5237.744071 2643.592548L5248.270129 2641.471126L5258.796812 2639.391225L5269.324117 2637.352942L5279.85204 2635.356375L5290.380578 2633.401618L5300.909726 2631.488764L5311.439482 2629.617905L5321.969842 2627.78913L5332.500801 2626.002528M5218.607368 2594.973855L5228.742166 2593.034557L5238.877374 2591.13428L5249.01299 2589.273108L5259.149012 2587.451126L5269.285438 2585.668417L5279.422265 2583.925063L5289.559491 2582.221142L5299.697113 2580.556733L5309.83513 2578.931912L5319.973539 2577.346755L5330.112338 2575.801334L5340.251524 2574.295721L5350.391096 2572.829986L5360.531051 2571.404198M5201.505646 2692.944571L5201.534494 2682.612057L5201.58389 2672.279586L5201.653832 2661.94716L5201.74432 2651.614779L5201.855352 2641.282443L5201.986928 2630.950153L5202.139045 2620.61791L5202.311702 2610.285713L5202.504897 2599.953564L5202.718628 2589.621464L5202.952892 2579.289412L5203.207686 2568.957409L5203.483007 2558.625456L5203.778853 2548.293554L5204.095219 2537.961703M5154.471132 2719.645972L5154.503847 2709.185302L5154.557833 2698.724714L5154.63309 2688.26421L5154.729618 2677.80379L5154.847415 2667.343455L5154.986479 2656.883206L5155.146809 2646.423045L5155.328403 2635.962971L5155.531259 2625.502988L5155.755374 2615.043094L5156.000745 2604.583293L5156.267369 2594.123583L5156.555244 2583.663968L5156.864365 2573.204447L5157.194728 2562.745023L5157.546331 2552.285696M5106.192941 2745.67934L5106.477082 2734.878929L5106.784077 2724.078568L5107.11392 2713.27826L5107.466609 2702.478004L5107.842137 2691.6778L5108.240501 2680.87765L5108.661694 2670.077554L5109.105711 2659.277513L5109.572547 2648.477527L5110.062194 2637.677597L5110.574647 2626.877724L5111.109898 2616.077909L5111.66794 2605.278152L5112.248766 2594.478453L5112.852368 2583.678815L5113.478738 2572.879237L5114.127868 2562.07972L5114.799749 2551.280265M5068.222487 2667.530442L5068.377752 2657.252197L5068.553983 2646.974196L5068.751176 2636.696442L5068.969331 2626.418938L5069.208443 2616.141686L5069.46851 2605.864689L5069.749529 2595.58795L5070.051496 2585.311474L5070.374408 2575.035262M5362.602239 2462.956819L5363.472098 2473.475734L5364.362645 2483.995086L5365.273868 2494.514867L5366.205758 2505.035074L5367.158304 2515.5557L5368.131494 2526.076741L5369.125318 2536.598191L5370.139764 2547.120045L5371.17482 2557.642298L5372.230474 2568.164946L5373.306715 2578.687983L5374.403529 2589.211404L5375.520905 2599.735206L5376.65883 2610.259384M5402.469176 2464.226166L5403.23234 2474.669358L5404.015686 2485.112784L5404.819203 2495.55644L5405.642883 2506.000323L5406.486717 2516.444431L5407.350696 2526.88876L5408.234809 2537.333308L5409.139047 2547.778073L5410.0634 2558.223051L5411.007857 2568.66824L5411.972408 2579.113637L5412.957042 2589.55924M5444.232974 2470.613575L5444.748694 2481.220043L5445.285043 2491.826552L5445.842016 2502.433102L5446.419606 2513.039693L5447.017807 2523.646325L5447.636613 2534.252997L5448.276016 2544.859708L5448.936008 2555.466458L5449.616584 2566.073246L5450.317733 2576.680072M5482.608828 2463.341706L5482.98527 2474.160276L5483.383031 2484.978847L5483.802107 2495.797418L5484.242492 2506.615989L5484.704182 2517.43456L5485.187171 2528.253132L5485.691453 2539.071704L5486.217023 2549.890277L5486.763874 2560.708849M5359.464396 2520.836086L5351.381418 2514.520898L5343.306094 2508.232162L5335.238457 2501.970077L5327.178543 2495.734843L5319.126387 2489.526663L5311.082024 2483.345738L5303.04549 2477.192273L5295.01682 2471.066474L5286.99605 2464.968546L5278.983217 2458.898697M5333.597574 2554.697078L5325.150339 2548.28231L5316.711126 2541.896204L5308.279973 2535.538978L5299.856918 2529.210848L5291.442001 2522.912034L5283.035261 2516.642757L5274.636735 2510.403236L5266.246464 2504.193695L5257.864488 2498.014358L5249.490845 2491.865448L5241.125576 2485.747192L5232.768721 2479.659817L5224.42032 2473.60355L5216.080415 2467.578621L5207.749045 2461.58526L5199.426251 2455.623698L5191.112076 2449.694166L5182.806561 2443.796899M5284.204215 2572.705601L5275.876033 2566.330767L5267.556181 2559.984292L5259.244698 2553.666388L5250.941625 2547.377266L5242.647 2541.117141L5234.360864 2534.886227L5226.083258 2528.68474L5217.814222 2522.512898L5209.553797 2516.370918L5201.302024 2510.25902L5193.058945 2504.177424L5184.824599 2498.126351L5176.599031 2492.106023L5168.38228 2486.116664L5160.17439 2480.158499M5248.687731 2588.584991L5241.562553 2583.382502L5234.443138 2578.200905L5227.329508 2573.040326L5220.221688 2567.900892M5111.514723 2415.055214L5101.606241 2419.879383L5091.700175 2424.739518L5081.79654 2429.635404L5071.895348 2434.566824L5061.996616 2439.533562L5052.100357 2444.535405L5042.206585 2449.572136L5032.315316 2454.643541L5022.426565 2459.749405L5012.540345 2464.889515L5002.656673 2470.063656L4992.775563 2475.271615L4982.897031 2480.513179L4973.021091 2485.788135M5168.206702 2431.599095L5158.181038 2436.328311L5148.157994 2441.095068L5138.137586 2445.899147L5128.11983 2450.740327L5118.104741 2455.61839L5108.092335 2460.533117L5098.082627 2465.484287L5088.075634 2470.471682L5078.071371 2475.495084L5068.069855 2480.554272L5058.071102 2485.649029L5048.075129 2490.779136L5038.081951 2495.944376L5028.091587 2501.144531L5018.104052 2506.379383L5008.119363 2511.648716L4998.137537 2516.952312L4988.158593 2522.289956M5186.027423 2466.724945L5176.028323 2471.370288L5166.031937 2476.052959L5156.038282 2480.772747L5146.047373 2485.529442L5136.059226 2490.32283L5126.073858 2495.152701L5116.091285 2500.018844L5106.111523 2504.921046L5096.134589 2509.859097L5086.160499 2514.832786L5076.18927 2519.841901L5066.220919 2524.886231L5056.255463 2529.965567L5046.292919 2535.079697L5036.333305 2540.228411L5026.376638 2545.4115L5016.422935 2550.628754L5006.472214 2555.879964M5173.800246 2516.388131L5163.976257 2520.983334L5154.155027 2525.614019L5144.336571 2530.279989L5134.520904 2534.981052L5124.708044 2539.717011L5114.898006 2544.487672L5105.090806 2549.29284L5095.286461 2554.13232L5085.484987 2559.005918L5075.686401 2563.913438L5065.890719 2568.854687L5056.09796 2573.829471L5046.308138 2578.837595L5036.521273 2583.878865L5026.73738 2588.953088M4971.347636 2366.895198L4968.048979 2377.421953L4964.770697 2387.949223L4961.512833 2398.477001L4958.275425 2409.005282L4955.058514 2419.534059L4951.862139 2430.063325L4948.686342 2440.593073M5006.818178 2367.788873L5004.22916 2378.269356L5001.660828 2388.749975L4999.113214 2399.230729L4996.58635 2409.711616L4994.080267 2420.192635L4991.594996 2430.673784L4989.130569 2441.155061L4986.687016 2451.636464L4984.264368 2462.117993M5042.893635 2378.587913L5040.611351 2388.825741L5038.348887 2399.063676L5036.10627 2409.301719L5033.883528 2419.539866L5031.680685 2429.778117L5029.497769 2440.016471L5027.334805 2450.254926M5080.184214 2394.856272L5077.907601 2404.291691L5075.647648 2413.727405L5073.404376 2423.163409L5071.177807 2432.599702M4916.752426 2281.838518L4908.514818 2289.408059L4900.283597 2296.995823L4892.058794 2304.601628L4883.840442 2312.225297M4936.137047 2302.058763L4927.929121 2309.556227L4919.727656 2317.072224L4911.532684 2324.606573L4903.344236 2332.159098M4957.242706 2319.672332L4949.061257 2327.095553L4940.886329 2334.537645L4932.717955 2341.998427L4924.556168 2349.477722M4979.606836 2336.616468L4971.203884 2345.024968L4962.810107 2353.452773L4954.425549 2361.899676L4946.050259 2370.365474L4937.684282 2378.849964M5284.147248 1338.166992L5259.637641 1377.672502L5235.09983 1417.178087L5210.534667 1456.681883L5185.943006 1496.182166L5161.3257 1535.677339L5136.683605 1575.165915L5112.017574 1614.646501L5087.328462 1654.117789L5062.617126 1693.578546L5037.884421 1733.027605L5011.505175 1775.052777L4985.103919 1817.062056L4958.681835 1859.054253L4932.240115 1901.028229L4905.779949 1942.982888L4879.302537 1984.917175L4852.809078 2026.830068L4826.30078 2068.720579L4799.778852 2110.587747L4773.244511 2152.430636M5162.877219 1082.112145L5139.242414 1119.592449L5115.473553 1157.090104L5091.571396 1194.59971L5067.536677 1232.116401L5043.370103 1269.635771L5019.072357 1307.153806L4994.644092 1344.666826L4970.085937 1382.171447L4945.39849 1419.664535L4920.582323 1457.143177L4900.091866 1487.931407L4879.51536 1518.706603L4858.853224 1549.467425L4838.105866 1580.212596L4817.273679 1610.940895L4796.357048 1641.651151L4775.356345 1672.342236L4754.271931 1703.013067L4733.104151 1733.662595L4711.853343 1764.289808M4402.015834 1575.977868L4426.65838 1545.809731L4451.699811 1515.684454L4477.1309 1485.607775L4502.942494 1455.585816L4529.125528 1425.625121L4555.671023 1395.732698L4582.570092 1365.916068L4609.813949 1336.183315L4637.393906 1306.54315L4665.301381 1277.004972L4685.179275 1256.23603L4705.212835 1235.52682L4725.3991 1214.881444L4745.735134 1194.304248L4766.218034 1173.799849L4786.844924 1153.373154L4807.612961 1133.029378L4828.519328 1112.774077L4849.561242 1092.613167L4870.735949 1072.552958M5252.139149 1247.108561L5228.92497 1284.17665L5205.607826 1321.218543L5182.188364 1358.233426L5158.667217 1395.220487L5135.044995 1432.17891L5111.322295 1469.107878L5087.499692 1506.006572L5063.577742 1542.874172L5039.556984 1579.709856L5015.437935 1616.512802L4980.827953 1669.007506L4946.020516 1721.431605L4911.017719 1773.782925L4875.821594 1826.059264L4840.434104 1878.258393L4804.857148 1930.378061L4769.092551 1982.415992L4733.142069 2034.369892L4697.007385 2086.23745L4660.690105 2138.016337M4388.285782 1551.92391L4396.438866 1543.922791L4404.602368 1535.953146L4412.776229 1528.015467L4420.960394 1520.110254L4429.154804 1512.238018L4437.359403 1504.399275L4445.574133 1496.594551L4453.798941 1488.824383L4462.033768 1481.089314L4470.278561 1473.389896L4478.533264 1465.726692L4486.797823 1458.100271L4495.072182 1450.511216L4503.356289 1442.960114L4511.650088 1435.447566L4519.953528 1427.974179M5223.638367 1208.458003L5197.357322 1248.834623L5171.014815 1289.192873L5144.611657 1329.531989L5118.148649 1369.851217L5091.626589 1410.149814L5065.046265 1450.427044L5038.408461 1490.682179L5011.713954 1530.914499L4984.963515 1571.123285L4958.157907 1611.307826L4926.998083 1657.886737L4895.766354 1704.43096L4864.464137 1750.939467L4833.092846 1797.411228L4801.653887 1843.845212L4770.14866 1890.240384L4738.578559 1936.595709L4706.944973 1982.910149L4675.249285 2029.182663L4643.492871 2075.412211M4386.156151 1556.010431L4405.566783 1535.577721L4425.286099 1515.161529L4445.307403 1494.765276L4465.624034 1474.392508L4486.229372 1454.0469L4507.116839 1433.732266L4528.279904 1413.452569L4549.712084 1393.211929L4571.40695 1373.014636L4593.358125 1352.86516L4595.28313 1351.111507L4597.210044 1349.358247L4599.138858 1347.605386L4601.069564 1345.852932L4603.002152 1344.10089L4604.936613 1342.349267L4606.87294 1340.598071L4608.811124 1338.847306L4610.751156 1337.09698L4612.693026 1335.347099M5205.854408 1173.335656L5181.737536 1210.712814L5157.5629 1248.072848L5133.331126 1285.415215L5109.042834 1322.739374L5084.698638 1360.044783L5060.299144 1397.330897L5035.844955 1434.597174L5011.336666 1471.84307L4986.774865 1509.068038L4962.160136 1546.271534L4932.582276 1590.842409L4902.930282 1635.38072L4873.20535 1679.885564L4843.408665 1724.356031L4813.541405 1768.791208L4783.604738 1813.190178L4753.599824 1857.552018L4723.527815 1901.875801L4693.389852 1946.160599L4663.187069 1990.405477M4389.93571 1558.794938L4412.480026 1533.918689L4435.249652 1509.172769L4458.24042 1484.564495L4481.448206 1460.101619L4504.868932 1435.792356L4528.498569 1411.64542L4552.333136 1387.670052L4576.368697 1363.876058L4600.601368 1340.273848L4625.027315 1316.874474L4633.464792 1308.882618L4641.924529 1300.916555L4650.406361 1292.976805L4658.910125 1285.063894L4667.435658 1277.178363L4675.9828 1269.320761L4684.551389 1261.491648L4693.141264 1253.691596L4701.752266 1245.921189L4710.384235 1238.181022M5192.364879 1133.060864L5167.399861 1173.064093L5142.289766 1213.05258L5117.035478 1253.0234L5091.637851 1292.973851L5066.097708 1332.901416L5040.41584 1372.803738L5014.593006 1412.678596L4988.629932 1452.523884L4962.527311 1492.3376L4936.285802 1532.117827L4912.994626 1567.221845L4889.596291 1602.297111L4866.091433 1637.34246L4842.480667 1672.356758L4818.764591 1707.338895L4794.943785 1742.287786L4771.01881 1777.202366L4746.990207 1812.081587L4722.858499 1846.924419L4698.624187 1881.729846M4394.349569 1562.603537L4416.384686 1537.348551L4438.676568 1512.172797L4461.220231 1487.081617L4484.010737 1462.08067L4507.043198 1437.175963L4530.312773 1412.373872L4553.814676 1387.681174L4577.544168 1363.105074L4601.496567 1338.653245L4625.667244 1314.333859L4643.011186 1297.10009L4660.461709 1279.941389L4678.017189 1262.861247L4695.676015 1245.863323L4713.436593 1228.951453L4731.297341 1212.129659L4749.256694 1195.402163L4767.313102 1178.773392L4785.46503 1162.247992L4803.710957 1145.830844M5176.819744 1103.83904L5152.560486 1142.555917L5128.155891 1181.274238L5103.606803 1219.989668L5078.914034 1258.698265L5054.078367 1297.396428L5029.100553 1336.080842L5003.981312 1374.748439L4978.721331 1413.396365L4953.321265 1452.02195L4927.781735 1490.622683L4907.245936 1521.490296L4886.621717 1552.339404L4865.909521 1583.168906L4845.10978 1613.977743L4824.222914 1644.764889L4803.249331 1675.529353L4782.189427 1706.27017L4761.043582 1736.986403L4739.812169 1767.677138L4718.495542 1798.341486M4392.992735 1575.031597L4417.034456 1546.44315L4441.399945 1517.931056L4466.082307 1489.501609L4491.074712 1461.161535L4516.370402 1432.91802L4541.962692 1404.778759L4567.844971 1376.752L4594.010704 1348.846593L4620.453436 1321.07205L4647.166795 1293.438604L4666.858276 1273.337773L4686.688528 1253.322769L4706.655099 1233.398495L4726.755567 1213.570142L4746.98753 1193.843201L4767.348615 1174.223489L4787.83647 1154.717171L4808.448771 1135.33078L4829.183219 1116.071249L4850.03754 1096.945931M5149.334207 1063.844712L5130.804536 1094.027392L5112.124155 1124.253721L5093.293751 1154.516788L5074.313986 1184.810295L5055.185499 1215.128478L5035.908902 1245.466047L5016.484784 1275.818128L4996.913706 1306.180215L4977.196203 1336.54813L4957.332786 1366.91799L4931.581317 1405.961245L4905.591008 1444.99438L4879.363528 1484.010775L4852.900487 1523.004287L4826.203429 1561.969194L4799.273837 1600.900139L4772.11313 1639.792086L4744.722661 1678.640283L4717.103715 1717.440226L4689.257512 1756.187636M4408.563835 1581.32919L4432.44429 1551.082145L4456.752957 1520.856425L4481.479996 1490.656976L4506.61563 1460.489058L4532.150157 1430.358267L4558.073951 1400.270576L4584.377474 1370.232375L4611.051279 1340.250509L4638.086012 1310.332338L4665.472422 1280.485783L4686.504434 1257.867563L4707.730003 1235.299688L4729.145104 1212.786521L4750.745755 1190.33271L4772.528009 1167.943209L4794.487963 1145.623306L4816.621755 1123.378657L4838.925564 1101.215317L4861.395612 1079.139775L4884.028164 1057.158996M4415.50992 1584.962364L4437.680388 1556.049956L4460.273123 1527.136431L4483.27885 1498.225488L4506.688336 1469.321025L4530.4924 1440.427153L4554.681916 1411.548221L4579.247824 1382.688838L4604.18113 1353.853904L4629.472916 1325.048639L4655.114345 1296.278614L4677.661789 1271.323997L4700.460428 1246.404876L4723.50446 1221.525868L4746.788137 1196.691903L4770.30577 1171.908256L4794.051731 1147.180584L4818.020453 1122.51496L4842.206432 1097.917923L4866.604226 1073.396522L4891.20846 1048.958376M1874.102589 5754.711954L1934.672568 5732.128673L1989.456984 5700.970579L2038.275987 5662.178408L2080.930058 5616.69013L2117.176502 5565.445306L2146.714386 5509.391013L2169.175648 5449.489526L2184.120793 5386.727984L2191.038074 5322.130186L2189.345338 5256.770667L2178.599267 5192.723701L2159.4647 5134.250799L2132.6011 5082.18148L2098.625262 5037.362954L2058.109541 5000.640701L2011.584119 4972.8399L1959.544395 4954.748436L1902.465137 4947.102329L1840.823756 4950.574521L1775.136092 4965.767838L1707.026433 4992.748341L1640.892187 5029.481498L1577.918308 5074.532581L1519.49051 5126.47769L1467.170209 5183.915461L1422.651536 5245.477206L1387.692954 5309.835571L1364.020273 5375.711992L1353.207354 5441.88332L1356.553985 5507.188052L1374.63585 5569.626728L1405.614862 5625.333714L1447.402803 5673.93989L1497.898355 5715.068603L1555.090623 5748.323086L1617.123523 5773.276897L1682.327415 5789.466899L1749.229056 5796.388392L1816.550453 5793.492072L1883.20457 5780.182555L1947.356321 5756.230923L2005.287656 5723.176075L2056.84382 5682.008523L2101.843571 5633.715409L2140.054387 5579.285232L2171.176914 5519.714394L2194.836091 5456.015808L2210.57726 5389.229801L2217.866021 5320.437569L2216.091003 5250.777319L2204.786063 5182.466694L2184.645898 5120.049344L2156.357208 5064.424945L2120.559626 5016.514402L2077.84277 4977.237611L2028.747737 4947.492011L1973.7742 4928.132787L1913.39495 4919.955797L1848.080551 4923.684343L1778.338078 4939.960882L1705.861399 4968.84307L1635.299223 5008.141498L1567.916442 5056.307204L1505.2115 5111.80436L1448.893494 5173.123822L1400.837938 5238.794657L1363.01034 5307.393805L1337.351446 5377.554253L1325.630376 5447.972171L1329.290585 5517.413581L1348.940842 5583.750721L1382.524594 5642.897035L1427.701731 5694.475339L1482.129033 5738.099213L1543.584553 5773.359065L1610.03998 5799.811589L1679.69158 5816.972089L1750.965364 5824.309196L1822.510316 5821.241613L1893.189398 5807.136566L1961.075187 5781.750649L2022.278252 5746.70636L2076.674101 5703.045578L2124.103601 5651.806085L2164.347057 5594.026686L2197.108299 5530.754416L2222.006001 5463.054147L2238.570333 5392.020898L2246.243674 5318.795128L2244.384475 5244.581244L2232.503667 5171.748591L2211.325785 5105.140369L2181.565213 5045.732534L2143.884568 4994.526511L2098.890344 4952.523763L2047.133405 4920.70101L1989.115585 4899.987167L1925.304415 4891.2433L1856.159011 4895.247033L1782.171669 4912.682739L1705.103729 4943.59774L1629.861231 4985.634785L1557.790021 5037.120864L1490.506712 5096.398915L1429.879804 5161.843486L1377.985859 5231.87382L1337.025324 5304.964604L1309.187275 5379.654866L1296.468313 5454.555614L1300.477327 5528.356906L1321.855691 5598.796898L1358.294033 5661.558268L1407.161125 5716.257239L1465.838489 5762.498779L1531.869461 5799.861171L1603.03924 5827.884443L1677.402949 5846.061991L1753.283559 5853.834873L1829.257582 5850.588336L1904.140169 5835.650221L1975.91232 5808.761836L2040.511223 5771.632295L2097.848271 5725.3564L2147.790565 5671.024L2190.134058 5609.7255L2224.587483 5542.559781L2250.764015 5470.644893L2268.17866 5395.131914L2276.249994 5317.222322L2274.305335 5238.189194L2261.831448 5160.562157L2239.583866 5089.502291L2208.305095 5026.068495L2168.680888 4971.350223L2121.334204 4926.438419L2066.824448 4892.396895L2005.653339 4870.235453L1938.27958 4860.886336L1865.145745 4865.185806L1786.722567 4883.862542L1704.834734 4916.950459L1624.651434 4961.91117L1547.599231 5016.936822L1475.417355 5080.238942L1410.145272 5150.066522L1354.081762 5224.720856L1309.694005 5302.56744L1279.459047 5382.045593L1265.640175 5461.676557L1270.038173 5540.070917L1293.326101 5614.825455L1332.899317 5681.383358L1385.788599 5739.356035L1449.061764 5788.341227L1520.001603 5827.905984L1596.192511 5857.573992L1675.542407 5876.816468L1756.270246 5885.04602L1836.881857 5881.61297L1916.147784 5865.803728L1991.957392 5837.342701L2060.07466 5798.029306L2120.452834 5749.012755L2172.989572 5691.436307L2217.499395 5626.443149L2253.697668 5555.185071L2281.192814 5478.83434L2299.484624 5398.599271L2307.967236 5315.743933L2305.935833 5231.612396L2292.852349 5148.903825L2269.503945 5073.116121L2236.661703 5005.398385L2195.034687 4946.936371L2145.261915 4898.919294L2087.910068 4862.506792L2023.478337 4838.797565L1952.412757 4828.80169L1875.133801 4833.418826L1792.083066 4853.424469L1705.144014 4888.8367L1619.752822 4936.920003L1537.415024 4995.719781L1459.995531 5063.304995L1389.715734 5137.789056L1329.11907 5217.346584L1280.975522 5300.226536L1248.097242 5384.762518L1233.062167 5469.38128L1237.895389 5552.610423L1263.299853 5631.899513L1306.3235 5702.441988L1363.602697 5763.846531L1431.847158 5815.705287L1508.051158 5857.575143L1589.584292 5888.96388L1674.202635 5909.320319L1760.021733 5918.027742L1845.479897 5914.400024L1929.307337 5897.679998L2009.304519 5867.574853L2081.060993 5825.976605L2144.578277 5774.09035L2199.789188 5713.114056L2246.529922 5644.244814L2284.524323 5568.688285L2313.376872 5487.671868L2332.572131 5402.462143L2341.479178 5314.387193L2339.360093 5224.864297L2325.651395 5136.771L2301.172157 5055.962776L2266.722525 4983.686762L2223.035116 4921.23405L2170.764661 4869.901837L2110.483874 4830.955274L2042.686958 4805.590877L1967.803274 4794.903922L1886.225252 4799.862634L1798.357098 4821.291869L1706.134318 4859.190287L1615.263079 4910.608723L1527.324244 4973.43266L1444.309508 5045.576245L1368.631895 5125.00639L1303.102772 5209.761676L1250.835601 5297.966736L1215.033814 5387.843207L1198.649159 5477.718514L1203.971204 5566.033764L1231.728889 5650.084821L1278.558759 5724.80568L1340.634683 5789.804741L1414.257265 5844.670478L1496.102536 5888.950899L1583.312362 5922.138471L1673.488385 5943.659489L1764.645381 5952.867062L1855.158908 5949.037076L1943.724262 5931.366582L2028.055699 5899.543506L2103.569027 5855.55656L2170.320665 5800.668058L2228.283283 5736.131816L2277.317848 5663.199741L2317.158481 5583.132093L2347.406448 5497.212018L2367.53097 5406.765069L2376.875369 5313.184428L2374.667618 5217.962516L2360.318651 5124.165308L2334.679594 5038.026772L2298.580152 4960.900631L2252.77675 4894.193312L2197.939496 4839.320827L2134.645854 4797.664747L2063.382469 4770.529469L1984.557779 4759.103781L1898.529807 4764.430236L1805.65634 4787.38576L1707.917979 4827.944977L1611.291356 4882.926785L1517.42678 4950.042195L1428.441274 5027.037127L1346.947116 5111.720186L1276.046982 5201.983916L1219.243243 5295.820451L1180.197633 5391.333013L1162.309245 5486.744843L1168.182502 5580.407128L1198.566911 5669.454958L1249.606462 5748.553729L1316.930062 5817.314348L1396.370974 5875.323802L1484.256194 5922.122693L1577.489014 5957.188875L1673.516926 5979.926036L1770.259109 5989.656262L1866.03503 5985.615852L1959.511798 5966.953779L2048.320133 5933.337827L2127.704088 5886.856023L2197.78189 5828.829254L2258.5709 5760.56831L2309.960031 5683.380781L2351.695484 5598.582143L2383.376001 5507.511762L2404.455292 5411.55467L2414.250154 5312.170026L2411.953383 5210.927127L2396.949199 5111.089576L2370.121959 5019.292599L2332.331461 4937.005739L2284.35828 4865.761716L2226.887648 4807.107375L2160.500562 4762.552888L2085.673541 4733.52182L2002.789749 4721.305766L1912.166147 4727.027946L1814.104475 4751.620112L1710.621859 4795.02849L1607.963918 4853.819001L1507.841997 4925.512027L1412.493786 5007.670487L1324.735338 5097.931834L1247.983105 5194.031852L1186.178461 5293.821559L1143.521437 5395.279095L1123.950585 5496.51859L1130.449118 5595.797974L1163.776387 5690.084963L1219.483416 5773.766911L1292.553814 5846.460461L1378.287455 5907.753646L1472.631422 5957.181384L1572.242813 5994.207798L1674.418892 6018.213989L1776.991282 6028.490202L1878.231944 6024.231536L1976.787708 6004.536519L2070.210834 5969.051247L2153.57488 5919.966229L2227.066935 5858.662155L2290.753945 5786.507772L2344.55595 5704.867025L2388.233009 5615.110982L2421.381985 5518.635387L2443.44086 5416.884901L2453.699099 5311.385139L2451.313277 5203.783641L2435.6402 5097.552044L2407.598017 4999.749603L2368.077237 4911.971713L2317.883051 4835.889469L2257.715682 4773.193964L2188.158539 4725.537695L2109.675491 4694.476179L2022.620028 4681.414326L1927.261181 4687.563095L1823.834506 4713.911945L1714.384315 4760.372218L1605.421323 4823.234624L1498.706572 4899.810959L1396.589716 4987.464902L1302.090589 5083.648813L1218.959281 5185.930275L1151.630228 5292.01017L1104.936959 5399.734723L1083.473717 5507.104059L1090.68471 5612.279645L1127.324614 5712.056028L1188.221774 5800.532387L1267.592204 5877.334747L1360.128512 5942.055033L1461.3687 5994.224432L1567.721017 6033.294351L1676.341142 6058.623391L1784.984604 6069.46915L1891.886623 6064.983869L1995.682955 6044.213181L2093.851773 6006.780317L2181.299382 5954.981341L2258.288784 5890.257851L2324.941364 5814.037369L2381.211388 5727.740665L2426.87446 5632.794492L2461.526117 5530.65079L2484.588296 5422.813575L2495.322262 5310.874936L2492.8473 5196.561557L2476.492811 5083.562966L2447.210684 4979.387399L2405.922777 4885.766819L2353.459434 4804.523873L2290.535856 4737.508739L2217.736867 4686.531573L2135.511262 4653.294206L2044.178513 4639.326658L1943.952789 4645.935415L1834.993018 4674.170508L1719.360135 4723.90185L1603.824013 4791.119425L1490.180886 4872.90647L1380.878866 4966.409551L1279.135491 5068.880834L1189.049502 5177.707534L1115.605003 5290.431002L1064.381861 5404.758618L1040.77785 5518.571689L1048.805435 5629.932227L1089.192174 5735.454783L1155.876856 5828.941602L1242.158687 5910.032218L1342.041989 5978.325654L1450.63075 6033.351574L1564.088646 6074.549848L1679.444099 6101.256756L1794.391692 6112.696446L1907.142737 6107.976599L2016.332188 6086.087417L2119.370745 6046.628111L2210.999568 5992.002752L2291.564606 5923.714936L2361.246487 5843.251739L2420.036756 5752.091111L2467.728176 5651.715422L2503.915423 5543.632356L2528.003977 5429.40467L2539.225942 5310.690531L2536.662193 5189.296249L2519.614583 5069.139273L2489.068831 4958.202023L2445.978903 4858.364629L2391.201008 4771.615811L2325.465498 4699.981423L2249.357793 4645.446627L2163.309356 4609.875926L2067.601403 4594.937882L1962.38634 4602.043278L1847.735859 4632.305677L1725.716665 4685.544963L1603.349092 4757.422546L1482.446824 4844.77081L1365.537441 4944.499514L1256.022239 5053.64425L1158.355754 5169.398928L1078.128258 5289.135613L1021.798649 5410.415836L995.757698 5530.997395L1004.728292 5648.840109L1049.37636 5760.372646L1122.533689 5859.09114L1216.400859 5944.653244L1324.207787 6016.668649L1440.607498 6074.667954L1561.53281 6118.080837L1683.906034 6146.221501L1805.379961 6158.279873L1924.156922 6153.317335L2038.882329 6130.266052L2093.502743 6111.94302L2145.130655 6089.564L2193.832565 6063.316677L2239.666094 6033.387492L2282.67865 5999.961637L2322.906418 5963.223126L2360.373632 5923.354952L2395.09207 5880.539327L2427.060747 5834.958026L2456.265776 5786.792822M2565.335579 5485.625251L2570.678908 5456.304465L2575.25914 5426.684373L2579.064129 5396.789573L2582.081203 5366.645212L2584.297188 5336.277036L2585.698431 5305.71146L2586.270831 5274.97562L2585.999864 5244.09745L2584.87062 5213.105743L2582.867829 5182.03023L2565.115815 5054.303012L2533.284104 4936.19275L2488.35956 4829.740114L2431.225076 4737.115735L2362.626484 4660.53956L2283.149168 4602.191254L2193.205201 4564.116519L2093.033522 4548.137689L1982.718071 4555.779616L1862.232806 4588.222329L1733.63811 4645.22626L1604.194826 4722.092446L1475.713102 4815.377539L1350.774882 4921.73281L1232.941388 5037.959592L1127.018163 5161.044833L1039.253461 5288.181289L977.139039 5416.777693L948.303168 5544.463886L958.37084 5669.095119L1007.895195 5786.908292L1088.312895 5891.08443L1190.505124 5981.304512L1306.84028 6057.19293L1431.516526 6118.284017L1560.261716 6163.998835L1689.920875 6193.629923L1818.128152 6206.332285L1943.093603 6201.119296L2063.484984 6176.862462L2106.571211 6162.853788L2147.865339 6146.428239L2187.402632 6127.66774L2225.215244 6106.653798L2261.331879 6083.467482L2295.777506 6058.189416L2328.573139 6030.899788L2359.735661 6001.678374L2389.277691 5970.604583L2417.20749 5937.757507M2633.083365 5337.665318L2633.909029 5321.565526L2634.52277 5305.414802L2634.922748 5289.216663L2635.107098 5272.974678L2635.073928 5256.692475L2634.821322 5240.373737L2634.347342 5224.022213L2633.650026 5207.641713L2632.727394 5191.236113L2631.577444 5174.809361L2613.11137 5039.080332L2579.973518 4913.362748L2533.184585 4799.871053L2473.655182 4700.975133L2402.147199 4619.109572L2319.245637 4556.670599L2225.341424 4515.906278L2120.627543 4498.810143L2005.113137 4507.032159L1878.664324 4541.821754L1743.323532 4602.868819L1606.579724 4685.078286L1470.215669 4784.703174L1336.83629 4898.112328L1210.127203 5021.853674L1095.223381 5152.692766L999.071116 5287.632765L930.369312 5423.922716L898.30111 5559.060319L909.656781 5690.794248L927.916377 5744.548775L953.180919 5795.793994L984.619024 5844.510476L1021.392443 5890.678526L1062.698712 5934.277444L1107.797872 5975.284877L1156.02543 6013.676259L1206.795247 6049.424331L1259.596063 6082.498723L1313.984611 6112.865596M2686.188166 5233.518131L2686.010913 5226.955714L2685.800528 5220.388168L2685.556896 5213.815713L2685.279904 5207.23857L2684.969435 5200.656961L2684.625375 5194.071112L2684.247607 5187.481248L2683.836016 5180.887596L2683.390484 5174.290387L2682.910894 5167.68985L2663.722157 5023.505804L2629.259815 4889.721658L2580.57941 4768.739629L2518.620481 4663.147742L2444.161801 4575.618048L2357.787932 4508.788254L2259.867271 4465.132934L2150.54361 4446.836757L2029.745547 4455.687245L1897.221993 4493.006037L1754.047068 4558.691354L1609.368501 4646.621669L1464.788482 4752.784987L1322.766344 4873.323851L1186.93477 5004.605027L1062.597406 5143.258558L957.328665 5286.194661L881.197875 5430.6073L845.429726 5573.972046L858.519408 5714.044065L873.700514 5758.341324L893.59581 5801.018939L917.737335 5842.070278L945.650223 5881.488667L976.871816 5919.267169L1010.965125 5955.398395L1047.52699 5989.874325L1086.191903 6022.686157L1126.632632 6053.824166L1168.558747 6083.277579M2735.617414 5143.429758L2714.378239 4991.909134L2677.985084 4851.595511L2627.333004 4724.95427L2563.21603 4614.655667L2486.28037 4523.469824L2396.989047 4454.140969L2295.597454 4409.247296L2182.140957 4391.06021L2056.43748 4401.423097L1918.111161 4441.671792L1767.880513 4512.056093L1615.528534 4606.133643L1462.565799 4719.524531L1311.38285 4848.037332L1165.612949 4987.747902L1030.759571 5135.040342L915.080891 5286.62146L830.233333 5439.520049L789.97154 5591.080295L804.903422 5738.956233L818.102178 5776.242021L834.679507 5812.438077L854.344424 5847.541926L876.800894 5881.551084L901.757547 5914.462979L928.93497 5946.27488L958.070652 5976.98383L988.921863 6006.586587L1021.266889 6035.07957L1054.90506 6062.458809M2784.308864 5059.600507L2756.571204 4910.783316L2714.882954 4773.502725L2660.012052 4650.17281L2592.621911 4543.377395L2513.232903 4455.77016L2422.192792 4389.955012L2319.655821 4348.353596L2205.571225 4333.073729L2079.683175 4345.798112L1941.546219 4387.713929L1784.166837 4463.158482L1624.011605 4563.832963L1462.471393 4684.949861L1301.820862 4821.951872L1145.616751 4970.600502L999.454244 5127.018071L872.194607 5287.698215L777.248676 5449.499286L731.606036 5609.632057L748.779683 5765.649776L760.377971 5796.907266L774.390357 5827.435467L790.633561 5857.233648L808.921354 5886.301078L829.069453 5914.636989L850.899365 5942.240561L874.241176 5969.110889L898.935385 5995.246967L924.833928 6020.647664L951.800559 6045.311706M2833.541746 4978.956845L2820.369121 4912.010637L2804.53109 4847.178968L2786.092143 4784.65821L2765.114337 4724.653858L2741.656521 4667.379329L2715.773623 4613.054593L2687.516005 4561.90464L2656.928887 4514.157778L2624.051819 4470.043757L2588.918213 4429.791737L2566.002175 4406.862674L2542.233379 4385.560068L2517.61587 4365.936117L2492.15261 4348.041844L2465.845461 4331.926885L2438.695167 4317.639274L2410.701331 4305.225235L2381.862411 4294.728988L2352.17571 4286.192555L2321.637368 4279.655588L2305.889719 4277.122377L2289.66029 4275.062029L2273.019915 4273.494657L2256.037781 4272.438396L2238.78137 4271.909324L2221.316434 4271.921406L2203.706975 4272.486463L2186.015254 4273.614178L2168.301823 4275.312109L2150.625588 4277.585751L2142.134798 4278.840555L2134.087229 4280.10106L2126.163053 4281.458389L2118.044223 4283.00685L2109.414437 4284.843884L2099.959233 4287.070297L2089.366232 4289.790761L2077.325541 4293.114582L2063.530345 4297.156727L2047.677707 4302.039111M2884.086562 4899.945226L2869.540024 4836.746636L2852.739858 4775.503182L2833.735027 4716.382306L2812.572376 4659.558298L2789.296116 4605.211395L2763.947342 4553.526778L2736.563599 4504.693435L2707.178481 4458.902898L2675.821272 4416.347849L2642.516612 4377.220621L2618.757396 4352.659644L2594.110966 4329.832164L2568.581024 4308.796164L2542.170089 4289.608332L2514.879474 4272.323792L2486.709258 4256.995856L2457.658269 4243.675765L2427.724061 4232.412448L2396.902908 4223.252291L2365.189786 4216.238927L2348.99667 4213.550275L2332.578055 4211.413355L2315.932955 4209.832763L2299.060304 4208.812889L2281.958953 4208.357916L2264.627675 4208.471812L2247.065161 4209.158335L2229.270022 4210.42102L2211.24079 4212.263186L2192.975919 4214.68793M2936.463274 4821.362907L2920.963428 4761.533123L2903.550214 4703.505571L2884.260857 4647.423261L2863.130795 4593.434422L2840.193337 4541.691845L2815.479336 4492.352126L2789.01689 4445.574822L2760.831067 4401.521508L2730.943654 4360.354739L2699.372922 4322.236918L2674.768128 4295.917459L2649.241839 4271.445332L2622.797414 4248.885094L2595.436926 4228.299876L2567.161135 4209.751062L2537.969453 4193.297979L2507.859922 4178.997591L2476.829188 4166.904197L2444.872487 4157.069151L2411.983623 4149.540596L2403.614902 4148.024145L2395.187336 4146.655295L2386.700785 4145.434702L2378.155102 4144.363009L2369.550138 4143.440842L2360.885736 4142.668815L2352.161732 4142.047523L2343.377958 4141.577549L2334.534241 4141.259459L2325.6304 4141.093802M2991.099866 4742.484733L2974.979876 4685.726215L2957.231565 4630.623327L2937.883223 4577.298278L2916.961679 4525.877323L2894.492059 4476.490266L2870.497566 4429.269903L2844.999279 4384.351382L2818.015959 4341.871502L2789.563874 4301.967933L2759.656635 4264.778365L2734.205564 4236.563386L2707.798986 4210.31638L2680.439971 4186.109415L2652.130199 4164.012995L2622.869925 4144.095681L2592.657942 4126.423707L2561.491548 4111.060605L2529.366526 4098.066836L2496.277112 4087.499444L2462.215981 4079.411724L2457.889376 4078.577704L2453.54746 4077.783316L2449.190209 4077.028646L2444.817603 4076.313778L2440.429618 4075.638796L2436.026234 4075.003782L2431.607425 4074.408817L2427.17317 4073.853981L2422.723445 4073.339353L2418.258225 4072.865012M1874.472916 6257.337011L1896.703415 6256.75587L1918.804619 6255.623294L1940.770476 6253.933518L1962.595273 6251.680653L1984.27363 6248.858684L2005.800503 6245.461476L2027.171177 6241.482768L2048.381269 6236.916181L2069.426731 6231.755213L2090.303846 6225.993242L2125.98585 6214.600571L2160.479771 6201.617116L2193.806648 6187.084649L2225.986134 6171.044775L2257.036393 6153.538918L2286.974011 6134.608313L2315.813916 6114.294L2343.569316 6092.636826L2370.251651 6069.677448L2395.870547 6045.45634M2015.462688 6300.984892L2026.023533 6299.265917L2036.550574 6297.414987L2047.043444 6295.431463L2057.501791 6293.314703L2067.925279 6291.064057L2078.313588 6288.678869L2088.666413 6286.158479L2098.983467 6283.50222L2109.264478 6280.709419L2119.509189 6277.779398L2149.190448 6268.443091L2178.075708 6258.088956L2206.176739 6246.73651L2233.504724 6234.405229L2260.070235 6221.114539L2285.883206 6206.883815L2310.952919 6191.732371L2335.287987 6175.679463L2358.896335 6158.744284L2381.785196 6140.945966M2129.649383 6338.411938L2131.819383 6337.831931L2133.987886 6337.246143L2136.154872 6336.654558L2138.320322 6336.057161L2140.484214 6335.453937L2142.64653 6334.844869L2144.807248 6334.229942L2146.966349 6333.60914L2149.123812 6332.982447L2151.279619 6332.349848L2175.715935 6324.729355L2199.629591 6316.444598L2223.027224 6307.505418L2245.915217 6297.92164L2268.299681 6287.703073L2290.186461 6276.859504L2311.58112 6265.400696L2332.488941 6253.33639L2352.91492 6240.676301L2372.863763 6227.430118M2233.574802 6374.099271L2247.790648 6368.791603L2261.825155 6363.255059L2275.67969 6357.491603L2289.355584 6351.503196L2302.854135 6345.291797L2316.176606 6338.859363L2329.324224 6332.207847L2342.298181 6325.339201L2355.099636 6318.255371L2367.729709 6310.958302M2332.595132 6409.460986L2335.989402 6407.906179L2339.37293 6406.33785L2342.745724 6404.756024L2346.107786 6403.160726L2349.459123 6401.551981L2352.799739 6399.929814L2356.129639 6398.29425L2359.448827 6396.645313L2362.757306 6394.983028L2366.055083 6393.307421M2048.298903 4251.697101L2043.237313 4253.508481L2038.159929 4255.357363L2033.066714 4257.243769L2027.95763 4259.167722L2022.832639 4261.129244L2017.691703 4263.128356L2012.534783 4265.165077L2007.361841 4267.239427L2002.172837 4269.351424L1996.967733 4271.501086L1825.147935 4358.285139L1649.173617 4473.655677L1470.121536 4611.870059L1289.894161 4767.530438L1111.628138 4935.693286L940.63469 5111.908815L786.386446 5292.216885L665.934737 5473.122409L605.658984 5651.566861L629.116843 5824.906461M2082.850414 4187.742047L2077.584552 4189.689322L2072.30194 4191.67682L2067.002543 4193.704557L2061.686328 4195.772545L2056.353259 4197.880797L2051.0033 4200.029326L2045.636415 4202.218142L2040.252568 4204.447253L2034.851723 4206.71667L2029.433842 4209.0264L1850.396728 4302.16884L1666.50708 4425.725973L1478.657447 4573.395308L1288.504788 4739.297177L1098.841635 4918.094569L914.547195 5105.027463L744.874877 5295.896726L608.330575 5487.026444L537.835403 5675.22441L565.843035 5857.752625M2147.751774 4109.806419L2137.965619 4113.053834L2129.385074 4116.079197L2121.682243 4118.969005L2114.532763 4121.814478L2107.615047 4124.710585L2100.609792 4127.755442L2093.19976 4131.050098L2085.069868 4134.69868L2075.907592 4138.808927L2065.403718 4143.493067L1879.204243 4243.513223L1687.469036 4375.881236L1490.898826 4533.670318L1290.880874 4710.472864L1089.791399 4900.529567L891.876469 5098.754716L705.668236 5300.7038L550.349242 5502.519277L466.636695 5700.87773L500.735311 5892.951384M1989.874881 4320.33926L1824.35 4400.79116L1654.415159 4508.84932L1481.62763 4639.185702L1308.368864 4786.693809L1138.254338 4946.608592L977.00046 5114.566913L834.051458 5286.627462L724.84844 5459.268696L670.864492 5629.379542L690.15939 5794.253217L700.329248 5820.034609L712.178919 5845.34245L725.595287 5870.176687L740.463869 5894.537264L756.671153 5918.424113L774.10648 5941.837144L792.663492 5964.776241L812.241143 5987.241249L832.744366 6009.231975L854.084414 6030.748171Z" style="fill: none; stroke: black; stroke-width: 15; marker-start: url(#point)"/>
</svg>
