<?xml version="1.0" encoding="UTF-8" standalone="no"?>
<!DOCTYPE svg PUBLIC "-//W3C//DTD SVG 1.1//EN" "http://www.w3.org/Graphics/SVG/1.1/DTD/svg11.dtd">
<svg width="5209.623" height="2510.214" version="1.1" xmlns="http://www.w3.org/2000/svg" xmlns:xlink="http://www.w3.org/1999/xlink">
	<title/>
	<defs>
		<marker id="point" markerWidth="6" markerHeight="6" markerUnits="userSpaceOnUse" orient="auto" refX="0" refY="0"/>
	</defs>
	<marker id="point" markerWidth="6" markerHeight="6" markerUnits="userSpaceOnUse" orient="auto" refX="0" refY="0"/>
	<path d="M4710.757 2460.871L4813.104 2491.431M4725.587 2411.131L4862.22 2454.548M4666.979 2490.711L4737.488 2352.595M4613.813 2491.378L4690.751 2342.548M4560.139 2490.066L4654.221 2319.808M4563.229 2400.432L4605.883 2318.031M4910.046 2357.208L4859.849 2496.418M4945.645 2375.229L4901.876 2493.01M4981.123 2398.079L4941.64 2496.574M5019.44 2406.551L4982.1 2496.474M4882.933 2408.401L4836.825 2316.223M4845.184 2427.745L4758.362 2256.281M4793.266 2421.818L4723.587 2278.211M4754.878 2419.662L4738.771 2387.484M4708.341 2193.298L4561.599 2182.304M4750.647 2237.771L4558.904 2224.635M4751.696 2278.87L4559.953 2265.734M4720.202 2318.082L4562.745 2307.088M4608.763 2070.292L4560.017 2126.095M4638.199 2091.736L4580.881 2166.824M4664.402 2122.239L4622.083 2180.184M4689.641 2157.862L4666.608 2187.95M4596.605 1956.244L4557.703 1964.793M4604.88 1987.624L4565.978 1996.173M4615.604 2017.213L4576.701 2025.762M4627.669 2046.57L4575.909 2061.547M5199.623 1228.171C5097.322 1317.191 4991.887 1402.608 4883.577 1484.211C4768.155 1571.172 4649.47 1653.801 4527.854 1731.865M5145.146 834.416C5054.112 920.172 4958.673 1001.252 4859.332 1077.23C4777.691 1139.671 4693.416 1198.667 4606.805 1254.008M4422.057 429.937C4509.128 349.504 4600.194 273.395 4694.806 201.985C4761.544 151.614 4830.045 103.58 4900.143 58.001M5191.051 1107.919C5096.833 1190.837 4998.824 1269.45 4897.433 1343.427C4752.652 1449.064 4600.972 1545.245 4443.68 1631.151M4418.231 112.073L4548.053 2.939M5173.908 1043.18C5069.573 1130.754 4961.742 1214.163 4850.759 1293.143C4722.03 1384.753 4589.059 1470.401 4452.415 1549.723M4415.589 204.533C4480.828 139.213 4549.759 77.581 4621.944 20.03C4628.235 15.015 4634.551 10.03 4640.891 5.077M5165.337 987.952C5070.352 1069.676 4972.275 1147.806 4871.387 1222.12C4750.44 1311.207 4625.452 1394.808 4496.936 1472.58M4417.651 275.613C4494.723 205.419 4573.749 137.371 4654.606 71.574C4682.391 48.964 4710.393 26.619 4738.605 4.545M5161.349 927.669C5063.379 1018.245 4960.566 1103.581 4853.496 1183.192C4758.933 1253.503 4661.05 1319.349 4560.283 1380.437M4419.914 331.391C4496.11 262.329 4574.76 195.975 4655.667 132.497C4713.286 87.291 4772.047 43.543 4831.878 1.31M5153.283 876.586C5059.039 964.762 4960.088 1047.908 4856.993 1125.55C4774.5 1187.677 4689.354 1246.282 4601.866 1301.151M4415.628 388.268C4499.791 311.728 4587.02 238.561 4677.035 168.999C4742.824 118.159 4810.102 69.244 4878.752 22.339M5136.69 795.332C5065.36 867.166 4990.093 935.089 4911.337 998.695C4810.082 1080.474 4703.058 1155.11 4591.325 1221.865M4425.491 473.255C4510.881 391.908 4600.619 315.124 4694.191 243.34C4765.268 188.814 4838.557 137.172 4913.817 88.584M4429.682 507.532C4509.8 429.001 4594.293 354.934 4682.639 285.789C4759.371 225.734 4839.008 169.391 4921.179 117.024M508.043 1946.108C632.788 2131.767 892.209 2181.007 1077.407 2056.543C1266.004 1929.796 1316.022 1666.217 1189.584 1478.051C1060.83 1286.44 793.084 1235.623 601.946 1364.088C407.313 1494.901 355.696 1766.925 486.191 1961.115C619.069 2158.849 895.379 2211.287 1092.626 2078.707C1293.468 1943.711 1346.729 1663.002 1212.06 1462.616C1074.941 1258.584 789.824 1204.478 586.293 1341.291C379.066 1480.589 324.114 1770.231 463.075 1976.99C604.556 2187.497 898.731 2243.318 1108.723 2102.151C1322.517 1958.43 1379.208 1659.602 1235.832 1446.29C1089.865 1229.124 786.376 1171.54 569.74 1317.183C349.195 1465.454 290.716 1773.728 438.631 1993.777C589.21 2217.79 902.276 2277.187 1125.744 2126.94C1353.231 1973.992 1413.548 1656.007 1260.965 1429.03C1105.644 1197.978 782.732 1136.717 552.24 1291.697C317.618 1449.454 255.411 1777.423 412.792 2011.523C572.989 2249.81 906.023 2312.988 1143.735 2153.142C1385.693 1990.441 1449.843 1652.208 1287.528 1410.787C1122.319 1165.062 778.88 1099.915 533.746 1264.763C284.248 1432.546 218.102 1781.328 385.488 2030.274C555.848 2283.645 909.982 2350.815 1162.744 2180.826C1419.992 2007.82 1488.189 1648.194 1315.592 1391.514C1139.937 1130.287 774.812 1061.036 514.21 1236.31C248.998 1414.684 178.692 1785.453 356.646 2050.081C537.743 2319.383 914.162 2390.771 1182.821 2210.066C1456.217 2026.176 1528.689 1643.956 1345.23 1371.16C1158.542 1093.562 770.516 1019.977 493.578 1206.262C211.774 1395.822 137.075 1789.808 326.191 2070.997C518.625 2357.119 918.577 2432.96 1204.02 2240.94C1494.464 2045.556 1571.449 1639.481 1376.522 1349.67C1178.185 1054.791 765.981 976.631 471.798 1174.543C172.48 1375.91 93.145 1794.405 294.043 2093.074C498.444 2396.95 923.236 2477.491 1226.395 2273.527C1534.83 2066.012 1616.579 1634.758 1409.546 1326.99C1198.915 1013.874 761.195 930.886 448.814 1141.069C131.014 1354.898 46.787 1799.256 260.121 2116.371C477.151 2438.978 928.151 2524.478 1250.003 2307.909C1577.421 2087.594 1664.194 1629.776 1444.388 1303.062C1220.786 970.707 756.147 882.627 424.567 1105.756C87.272 1332.731-2.115 1804.373 224.338 2140.945C454.689 2483.311 933.336 2574.04 1274.904 2344.174C1622.342 2110.359 1714.414 1624.522 1481.134 1277.826C1243.852 925.182 750.823 831.732 398.997 1068.516C41.145 1309.355-53.684 1809.768 186.606 2166.859C306.68 2345.299 490.332 2459.302 689.08 2500.19M1020.948 2500.214C1118.958 2479.843 1214.243 2440.913 1301.159 2382.413C1669.705 2134.361 1767.363 1618.983 1519.876 1251.22C1268.17 877.186 745.211 778.075 372.04 1029.256C-7.483 1284.713-108.046 1815.454 146.83 2194.175C242.048 2335.66 374.958 2438.943 524.068 2500.176M1185.392 2500.051C1234.912 2479.323 1282.972 2453.59 1328.834 2422.718C1719.626 2159.66 1823.172 1613.145 1560.71 1223.177C1293.801 826.601 739.296 721.525 343.631 987.88C175.379 1101.144 58.843 1265.44-0.048 1447.641M1301.843 2500.014C1320.866 2489.18 1339.598 2477.574 1357.996 2465.188C1772.228 2186.317 1881.976 1606.994 1603.733 1193.63C1318.33 769.628 736.744 659.469 313.7 944.29C175.176 1037.553 69.673 1161.984-0.062 1302.172M1403.092 2500.056C1833.935 2198.574 1943.255 1599.535 1649.049 1162.509C1346.626 713.276 730.401 596.569 282.176 898.38C165.501 976.943 70.938 1076.377-0.049 1188.477M1497.712 2500.051C1902.492 2168.585 1993.951 1571.139 1696.765 1129.739C1376.419 653.941 723.722 530.341 248.986 850.042C151.015 916.019 67.765 995.891 0.011 1085.328M1589.137 2500.02C1760.173 2340.135 1870.007 2132.293 1912.411 1911.365C1938.716 1774.318 1939.074 1632.235 1911.999 1493.441C1898.462 1424.044 1876.551 1347.892 1849.112 1281.18C1835.392 1247.823 1827.488 1228.569 1795.071 1172.031M1679.166 2500.053C1833.79 2337.82 1934.063 2136.084 1974.986 1922.833C2002.825 1777.763 2003.198 1627.363 1974.533 1480.445C1960.2 1406.986 1938.607 1334.397 1909.558 1263.781M1769.131 2500.06C1909.375 2336.865 2001.279 2140.961 2040.815 1934.899C2070.269 1781.387 2070.658 1622.238 2040.318 1466.774C2032.733 1427.908 2023.228 1389.272 2011.776 1351.013M1859.892 2500.046C1987.368 2337 2071.837 2146.78 2110.048 1947.589C2141.198 1785.2 2141.604 1616.848 2109.504 1452.397C2105.491 1431.84 2100.97 1411.345 2095.938 1390.93M-0.052 2008.232C24.477 2082.945 59.336 2155.245 104.914 2222.961C184.451 2341.131 288.791 2434.161 406.789 2500.057M-0.027 2149.239C17.782 2184.767 38.03 2219.524 60.758 2253.286C127.614 2352.604 210.257 2435.192 303.172 2500.068M-0.005 2263.438C4.642 2270.74 9.395 2278.003 14.255 2285.222C69.961 2367.965 136.011 2439.747 209.562 2500.06M-0.024 2367.373C36.482 2415.558 76.47 2459.817 119.356 2500.043M-0.016 2466.402C10.002 2477.864 20.219 2489.083 30.626 2500.055M1831.532 1108.685C1821.446 1091.926 1810.885 1075.341 1799.845 1058.948C1440.78 525.767 709.298 387.279 177.294 745.631M1888.98 1073.393C1878.306 1055.659 1867.129 1038.109 1855.446 1020.763C1475.495 456.634 701.519 310.118 138.629 689.318M1966.526 1062.819C1946.063 1024.556 1938.638 1017.303 1913.919 980.606C1512.003 383.933 693.34 228.974 97.968 630.101M1762.144 1113.428C1422.932 609.669 716.694 460.632 214.053 799.165C133.053 853.719 61.559 917.244-0.039 987.556Z" style="fill: none; stroke: black; stroke-width: 15; marker-start: url(#point)"/>
</svg>
