<?xml version="1.0" encoding="UTF-8"?>
<!DOCTYPE svg PUBLIC "-//W3C//DTD SVG 1.1//EN" "http://www.w3.org/Graphics/SVG/1.1/DTD/svg11.dtd">
<svg version="1.1" xmlns="http://www.w3.org/2000/svg" xmlns:xlink="http://www.w3.org/1999/xlink" x="0px" y="0px" width="1000" height="1000" viewBox="0, 0, 1000, 1000">
  <g id="layer1">
    <path d="M464.564,424.852 C320.02,-9.177 88.299,389.913 267.626,563.558 M261.477,578.237 C156.959,597.364 202.367,717.057 304.874,701.443 M409.988,516.067 C358.061,315.232 241.783,507.792 316.081,584.853 M310.144,595.125 C260.683,604.179 282.176,660.823 330.674,653.442 M521.01,457.439 C969.15,365.6 739.384,765.824 499.347,697.349 M489.698,710.001 C525.416,810.085 399.036,830.615 361.306,734.03 M469.296,550.311 C669.181,494.857 560.567,691.837 456.672,666.037 M450.75,676.309 C467.638,723.673 407.834,733.379 389.982,687.686 M452.152,503.287 L344.814,689.216 M526.549,400.907 C616.064,305.98 695.647,356.32 711.855,385.507 M506.7,391.641 C546.314,270.183 524.028,198.458 453.583,180.209" fill-opacity="0" stroke="#0000FF" stroke-width="6" stroke-linecap="round" stroke-linejoin="round"/>
  </g>
  <defs/>
</svg>
