<?xml version="1.0" encoding="UTF-8"?>
<!DOCTYPE svg PUBLIC "-//W3C//DTD SVG 1.1//EN" "http://www.w3.org/Graphics/SVG/1.1/DTD/svg11.dtd">
<svg version="1.1" xmlns="http://www.w3.org/2000/svg" xmlns:xlink="http://www.w3.org/1999/xlink" x="0px" y="0px" width="510" height="454" viewBox="0, 0, 510, 454">
  <g id="Layer 1">
    <path d="M359.308,323.778 L371.317,354.998 C373.585,360.195 375.852,365.003 378.383,369.81 C379.988,373.012 382.256,375.941 384.922,378.481 L404.133,397.692 C405.739,399.56 407.208,401.157 408.804,402.898 C410.011,404.231 411.208,405.828 412.142,407.433 C413.076,409.565 414.011,411.705 414.673,413.837 C415.081,415.17 415.344,416.504 415.344,417.837 C415.344,419.306 415.081,420.776 414.546,422.245 C413.612,425.048 412.541,427.714 411.344,430.517 C409.339,435.052 405.466,438.39 400.804,439.85 C399.335,440.259 397.866,440.921 396.532,441.719 C395.199,442.526 394.265,443.986 393.993,445.456 L393.058,451.46 L418.546,451.46 L454.7,417.973 L413.875,354.064 L406.537,342.055 L405.875,338.318 L401.33,316.966 L395.598,287.751 L389.457,238.917 C395.462,242.255 400.532,246.926 404.405,252.522 L412.541,263.996 C414.546,266.536 416.015,269.474 416.949,272.54 L426.682,306.3 C429.621,312.703 434.827,317.774 441.494,320.44 C443.897,321.375 446.428,321.91 448.967,321.91 C450.437,321.91 451.634,321.774 452.967,321.511 C457.376,320.703 460.441,316.839 460.441,312.304 C460.441,308.567 458.174,305.093 454.573,303.624 C453.104,302.962 451.498,302.164 450.301,301.093 C448.033,299.089 446.564,296.422 446.301,293.483 L441.893,253.729 C441.766,250.654 440.695,247.724 438.827,245.456 L416.541,218.636 L395.861,195.552 C392.26,191.416 387.861,187.815 382.918,185.148 L363.979,174.736 C362.646,173.538 361.439,172.341 360.369,171.008 C358.102,167.933 357.702,163.933 359.308,160.595 L369.049,140.314 C370.782,137.647 371.852,134.708 371.979,131.643 C372.115,130.445 372.115,129.375 372.115,128.178 C372.115,116.568 367.979,105.226 360.369,96.286 C357.303,92.55 353.031,89.881 348.233,88.814 C344.759,88.014 341.43,87.614 337.82,87.614 C325.684,87.614 313.938,92.55 305.267,101.223 C302.737,103.891 301.267,107.226 301.267,110.829 L300.995,124.042 L300.995,124.568 C300.995,125.502 301.131,126.436 301.403,127.371 L308.469,149.52 C309.004,150.318 309.539,151.126 310.074,151.788 C314.211,156.459 318.746,160.595 323.68,164.069 C325.013,165.13 325.947,166.872 325.947,168.731 C325.947,170.2 325.285,171.67 324.215,172.74 C321.412,175.407 318.61,178.209 315.807,181.148 C309.403,187.815 304.605,195.688 301.666,204.096 L295.127,223.035 L283.653,256.132 L275.245,256.794 C274.447,254.527 273.113,252.522 271.109,251.189 L270.447,250.654 C273.911,232.241 275.653,213.964 275.653,195.425 L275.653,188.613 L275.381,178.073 C275.118,175.407 274.047,172.74 272.179,170.872 C269.512,168.205 266.71,165.13 264.043,162.064 C254.837,151.389 244.424,141.647 233.222,132.84 C228.687,129.239 223.744,125.375 218.809,121.638 C210.401,115.099 203.063,111.229 195.327,108.694 L183.853,104.959 C181.848,103.625 180.116,101.89 178.782,99.889 C175.98,95.886 176.914,90.282 181.05,87.48 C188.923,82.009 191.989,79.875 194.927,77.74 C195.862,77.207 198.392,73.737 199.463,69.868 C200.533,66.533 201.331,63.197 201.866,59.862 C202.265,56.525 202.528,53.056 202.528,49.721 C202.528,39.447 200.134,29.44 195.599,20.368 C192.261,13.697 185.458,9.561 177.984,9.561 L177.449,9.561 C172.243,9.561 166.773,9.561 161.567,9.426 L160.506,9.426 C158.501,9.426 156.769,9.561 154.9,9.961 C157.839,9.293 155.436,9.827 153.168,10.361 C143.426,12.496 139.826,14.097 136.488,16.231 C134.22,17.699 132.488,19.567 131.018,21.702 C130.084,23.036 129.15,24.237 128.08,25.304 C125.948,27.439 124.878,30.241 124.742,33.309 L124.343,56.525 L124.343,58.26 C124.343,63.998 125.413,69.601 127.817,74.805 C128.878,77.473 130.746,79.742 133.15,81.209 C135.817,82.944 138.22,84.544 140.624,86.413 C142.356,87.614 143.563,89.748 143.826,92.15 L143.826,93.084 C143.826,98.153 140.76,102.557 136.089,104.291 C133.014,105.226 130.084,106.56 127.281,107.894 C124.479,109.228 121.277,110.696 118.075,112.297 C115.136,113.498 112.606,115.099 110.202,116.704 C107.535,118.563 105.395,120.967 103.935,123.634 L64.971,194.89 L27.613,221.574 C22.943,225.311 18.006,228.776 12.803,231.842 C10.134,233.447 7.866,235.579 6.132,238.246 C5.598,239.053 5.464,239.851 5.464,240.649 C5.464,241.856 5.731,242.79 6.398,243.724 C9.734,247.724 13.737,251.189 18.407,253.729 C20.808,255.198 23.61,255.86 26.412,255.996 L26.813,255.996 C30.015,255.996 32.683,253.592 32.95,250.255 L33.35,244.25 C33.083,243.189 33.617,242.119 34.684,241.719 L80.982,226.509 L105.395,195.552 C100.461,208.232 94.728,221.175 88.321,233.583 C80.716,248.522 70.843,261.728 58.968,273.075 L55.365,276.54 C65.239,285.747 76.58,293.22 88.854,298.554 L92.19,300.023 C86.854,310.835 83.517,322.708 82.317,334.98 C81.783,340.05 81.383,345.257 81.117,350.59 C80.582,359.533 79.248,368.34 77.114,377.148 C75.379,383.95 73.378,390.753 71.109,397.556 C69.775,401.692 67.373,405.429 64.305,408.504 C60.169,412.367 55.499,415.569 50.295,417.71 C41.756,421.175 32.683,423.306 23.344,424.113 C21.475,424.376 19.874,424.64 18.273,425.311 C16.406,426.109 14.671,427.179 12.936,428.25 C11.335,429.583 10.268,431.179 9.868,433.184 L8.8,438.517 L82.451,454 C86.72,450.263 89.255,444.921 89.255,439.188 L89.255,438.653 C89.122,434.381 88.989,429.982 88.721,425.447 C88.321,420.24 89.522,416.104 92.057,412.64 C97.93,404.231 103.263,396.358 108.334,388.349 C113.676,379.95 117.812,370.073 120.207,359.669 C121.676,353.13 122.474,346.327 122.474,339.515 C122.474,335.116 123.145,330.581 124.343,326.173 C125.277,322.445 127.145,318.971 129.812,316.168 L132.887,312.703 C142.093,314.835 151.426,315.769 160.769,315.769 L163.708,315.769 L167.708,315.633 L167.708,316.703 C167.708,324.839 169.313,332.848 172.515,340.449 C176.914,351.125 181.984,361.665 187.853,371.542 C191.191,377.275 193.594,383.95 194.791,390.889 C195.599,396.358 196.524,401.565 197.73,406.635 C197.993,407.968 198.265,409.429 198.265,410.771 C198.265,412.504 197.993,414.1 197.458,415.841 C196.397,419.705 194.129,423.043 190.791,425.175 C187.054,427.714 182.782,430.381 178.519,432.912 C173.712,435.587 169.44,439.052 165.703,443.052 C164.107,444.658 163.309,446.789 163.309,448.93 L163.309,451.859 L234.955,451.859 C235.753,449.057 236.152,446.127 236.152,443.188 C236.152,438.653 235.218,434.118 233.485,429.982 L227.753,416.504 C226.419,414.236 225.748,411.705 225.485,409.03 L223.744,387.95 L223.345,377.275 L223.209,368.204 C223.345,367.134 223.345,366.073 223.345,365.139 C223.345,361.937 222.946,358.735 222.283,355.533 C221.748,353.13 221.213,350.59 220.678,348.059 C219.88,344.059 218.546,340.449 216.542,337.121 C212.669,330.581 210.401,323.243 210.002,315.633 L209.739,309.502 C224.551,305.765 238.828,299.488 251.762,291.216 L256.034,288.549 L245.095,270.273 L237.621,254.79 C237.621,254.79 225.077,224.105 225.077,224.105 C225.077,224.105 218.011,202.228 218.011,202.228 L209.467,168.867 L247.1,191.552 C248.161,192.622 248.832,193.819 248.968,195.153 L251.363,213.828 L252.297,224.64 L252.832,239.715 C252.968,240.649 252.968,241.583 252.968,242.518 C252.968,244.921 252.569,247.325 251.762,249.592 C250.428,252.93 249.494,256.658 249.095,260.395 L249.095,261.329 C249.095,263.071 249.63,264.803 250.701,266.273 C253.63,270.273 257.639,273.474 262.174,275.606 C262.71,275.742 263.245,275.878 263.907,275.878 C264.442,275.878 265.24,275.742 265.775,275.343 C266.447,274.944 267.245,274.808 268.043,274.944 C268.714,275.071 269.24,275.071 269.911,275.071 L270.31,275.071 C271.381,275.071 272.578,275.343 273.512,275.742 C281.784,279.207 290.728,281.075 299.798,281.075 L303.934,281.075 L317.675,251.588 C318.474,260.93 318.882,270.137 318.882,279.207 C318.882,291.216 318.211,303.225 316.877,315.234 C316.079,322.708 314.474,329.647 311.943,336.449 L308.868,344.458 L303.535,360.467 L295.263,390.218 L290.864,405.828 C288.859,409.03 286.056,411.968 282.855,413.973 C280.587,415.433 278.319,416.504 275.916,417.438 C273.376,418.372 270.583,419.306 267.78,420.24 L259.109,423.043 C256.832,423.977 255.372,426.109 255.1,428.513 L254.301,434.78 L310.61,444.921 L325.412,397.021 L332.088,377.81 L334.891,371.143 L346.093,348.059 L359.308,323.778 z" fill="#000000"/>
  </g>
  <defs/>
</svg>
