<?xml version="1.0" encoding="UTF-8"?>
<!DOCTYPE svg PUBLIC "-//W3C//DTD SVG 1.1//EN" "http://www.w3.org/Graphics/SVG/1.1/DTD/svg11.dtd">
<svg version="1.1" xmlns="http://www.w3.org/2000/svg" xmlns:xlink="http://www.w3.org/1999/xlink" x="0px" y="0px" width="323.765" height="662.977" viewBox="0, 0, 323.765, 662.977">
  <g id="Layer 1">
    <g>
      <path d="M99.322,541.756 C99.322,541.756 95.72,571.036 96.474,586.29 C97.396,604.96 116.531,639.432 116.531,639.432 C116.531,639.432 48.905,616.388 27.972,589.8 C9.9,566.846 0.208,534.356 4.262,505.425 C8.672,473.946 54.294,424.248 54.294,424.248 C54.294,424.248 47.556,480.529 59.11,504.83 C66.925,521.265 99.322,541.756 99.322,541.756 z" fill="#87DE87"/>
      <path d="M99.322,541.756 C99.322,541.756 95.72,571.036 96.474,586.29 C97.396,604.96 116.531,639.432 116.531,639.432 C116.531,639.432 48.905,616.388 27.972,589.8 C9.9,566.846 0.208,534.356 4.262,505.425 C8.672,473.946 54.294,424.248 54.294,424.248 C54.294,424.248 47.556,480.529 59.11,504.83 C66.925,521.265 99.322,541.756 99.322,541.756 z" fill-opacity="0" stroke="#FFFFFF" stroke-width="20"/>
    </g>
    <g>
      <path d="M156.521,467.631 C156.521,467.631 200.021,473.585 217.968,463.624 C238.334,452.319 246.182,410.306 246.182,410.306 C246.182,410.306 251.796,483.262 230.992,507.038 C199.701,542.798 109.767,535.758 109.767,535.758 C115.866,513.911 130.834,491.258 156.521,467.631 z" fill="#87DE87"/>
      <path d="M156.521,467.631 C156.521,467.631 200.021,473.585 217.968,463.624 C238.334,452.319 246.182,410.306 246.182,410.306 C246.182,410.306 251.796,483.262 230.992,507.038 C199.701,542.798 109.767,535.758 109.767,535.758 C115.866,513.911 130.834,491.258 156.521,467.631 z" fill-opacity="0" stroke="#FFFFFF" stroke-width="20"/>
    </g>
    <g>
      <path d="M138.113,188.996 L130.069,200.963 C166.925,206.26 201.021,229.762 218.926,262.219 C236.83,294.677 238.431,335.891 223.107,369.629 C209.163,400.328 182.621,424.335 156.642,448.608 C130.613,472.929 103.57,499.85 91.964,535.259 C84.94,556.689 84.272,580.037 90.051,601.831 C95.83,623.625 107.984,643.613 124.721,658.817 L139.228,649.899 C124.25,636.293 113.277,618.248 108.105,598.745 C102.934,579.242 103.543,558.177 109.829,539 C120.259,507.179 145.461,481.533 171.263,457.426 C197.115,433.27 225.163,408.35 240.49,374.604 C257.46,337.244 255.704,292.356 235.878,256.412 C216.051,220.469 178.927,194.862 138.113,188.996 z" fill="#87DE87"/>
      <path d="M138.113,188.996 L130.069,200.963 C166.925,206.26 201.021,229.762 218.926,262.219 C236.83,294.677 238.431,335.891 223.107,369.629 C209.163,400.328 182.621,424.335 156.642,448.608 C130.613,472.929 103.57,499.85 91.964,535.259 C84.94,556.689 84.272,580.037 90.051,601.831 C95.83,623.625 107.984,643.613 124.721,658.817 L139.228,649.899 C124.25,636.293 113.277,618.248 108.105,598.745 C102.934,579.242 103.543,558.177 109.829,539 C120.259,507.179 145.461,481.533 171.263,457.426 C197.115,433.27 225.163,408.35 240.49,374.604 C257.46,337.244 255.704,292.356 235.878,256.412 C216.051,220.469 178.927,194.862 138.113,188.996 z" fill-opacity="0" stroke="#FFFFFF" stroke-width="20"/>
    </g>
    <g>
      <g>
        <g>
          <path d="M163.324,42.627 C185.138,11.126 228.359,3.272 259.861,25.087 C291.363,46.901 299.216,90.123 277.402,121.625 C255.587,153.126 212.366,160.979 180.864,139.165 C149.362,117.35 141.509,74.129 163.324,42.627 z" fill="#F76300"/>
          <path d="M163.324,42.627 C185.138,11.126 228.359,3.272 259.861,25.087 C291.363,46.901 299.216,90.123 277.402,121.625 C255.587,153.126 212.366,160.979 180.864,139.165 C149.362,117.35 141.509,74.129 163.324,42.627 z" fill-opacity="0" stroke="#FFFFFF" stroke-width="20.436" stroke-linejoin="round"/>
        </g>
        <g>
          <path d="M67.51,180.989 C89.325,149.487 132.546,141.634 164.048,163.449 C195.549,185.263 203.402,228.485 181.588,259.986 C159.774,291.488 116.552,299.341 85.05,277.527 C53.549,255.712 45.696,212.491 67.51,180.989 z" fill="#F76300"/>
          <path d="M67.51,180.989 C89.325,149.487 132.546,141.634 164.048,163.449 C195.549,185.263 203.402,228.485 181.588,259.986 C159.774,291.488 116.552,299.341 85.05,277.527 C53.549,255.712 45.696,212.491 67.51,180.989 z" fill-opacity="0" stroke="#FFFFFF" stroke-width="20.436" stroke-linejoin="round"/>
        </g>
        <g>
          <path d="M281.135,142.175 C312.637,163.989 320.49,207.211 298.676,238.712 C276.861,270.214 233.64,278.067 202.138,256.253 C170.636,234.438 162.783,191.217 184.598,159.715 C206.412,128.213 249.634,120.36 281.135,142.175 z" fill="#F76300"/>
          <path d="M281.135,142.175 C312.637,163.989 320.49,207.211 298.676,238.712 C276.861,270.214 233.64,278.067 202.138,256.253 C170.636,234.438 162.783,191.217 184.598,159.715 C206.412,128.213 249.634,120.36 281.135,142.175 z" fill-opacity="0" stroke="#FFFFFF" stroke-width="20.436" stroke-linejoin="round"/>
        </g>
        <g>
          <path d="M142.774,46.361 C174.275,68.176 182.128,111.397 160.314,142.899 C138.499,174.4 95.278,182.254 63.776,160.439 C32.275,138.625 24.421,95.403 46.236,63.901 C68.05,32.4 111.272,24.547 142.774,46.361 z" fill="#F76300"/>
          <path d="M142.774,46.361 C174.275,68.176 182.128,111.397 160.314,142.899 C138.499,174.4 95.278,182.254 63.776,160.439 C32.275,138.625 24.421,95.403 46.236,63.901 C68.05,32.4 111.272,24.547 142.774,46.361 z" fill-opacity="0" stroke="#FFFFFF" stroke-width="20.436" stroke-linejoin="round"/>
        </g>
      </g>
      <g>
        <path d="M240.897,70.309 C277.553,63.648 312.668,87.965 319.328,124.621 C325.988,161.277 301.672,196.392 265.016,203.052 C168.618,210.468 171.422,85.125 240.897,70.309 z M202.617,158.787 C274.99,247.008 238.804,202.898 202.617,158.787 z" fill="url(#Gradient_1)"/>
        <path d="M240.897,70.309 C277.553,63.648 312.668,87.965 319.328,124.621 C325.988,161.277 301.672,196.392 265.016,203.052 C168.618,210.468 171.422,85.125 240.897,70.309 z M202.617,158.787 C274.99,247.008 238.804,202.898 202.617,158.787 z" fill-opacity="0" stroke="#FFFFFF" stroke-width="20" stroke-linejoin="round"/>
      </g>
      <g>
        <path d="M79.896,99.561 C116.552,92.901 151.667,117.218 158.327,153.874 C164.987,190.53 140.671,225.645 104.015,232.305 C67.359,238.965 32.244,214.649 25.583,177.993 C18.923,141.337 43.24,106.222 79.896,99.561 z" fill="url(#Gradient_2)"/>
        <path d="M79.896,99.561 C116.552,92.901 151.667,117.218 158.327,153.874 C164.987,190.53 140.671,225.645 104.015,232.305 C67.359,238.965 32.244,214.649 25.583,177.993 C18.923,141.337 43.24,106.222 79.896,99.561 z" fill-opacity="0" stroke="#FFFFFF" stroke-width="20" stroke-linejoin="round"/>
      </g>
      <g>
        <path d="M253.454,219.748 C260.114,256.404 235.798,291.519 199.142,298.179 C162.486,304.839 127.371,280.523 120.71,243.867 C114.05,207.211 138.367,172.096 175.023,165.436 C211.679,158.775 246.794,183.092 253.454,219.748 z" fill="url(#Gradient_3)"/>
        <path d="M253.454,219.748 C260.114,256.404 235.798,291.519 199.142,298.179 C162.486,304.839 127.371,280.523 120.71,243.867 C114.05,207.211 138.367,172.096 175.023,165.436 C211.679,158.775 246.794,183.092 253.454,219.748 z" fill-opacity="0" stroke="#FFFFFF" stroke-width="20" stroke-linejoin="round"/>
      </g>
      <g>
        <path d="M224.201,58.747 C230.861,95.403 206.545,130.518 169.889,137.178 C133.233,143.838 98.118,119.522 91.457,82.866 C84.797,46.21 109.114,11.095 145.77,4.434 C182.426,-2.226 217.541,22.091 224.201,58.747 z" fill="url(#Gradient_4)"/>
        <path d="M224.201,58.747 C230.861,95.403 206.545,130.518 169.889,137.178 C133.233,143.838 98.118,119.522 91.457,82.866 C84.797,46.21 109.114,11.095 145.77,4.434 C182.426,-2.226 217.541,22.091 224.201,58.747 z" fill-opacity="0" stroke="#FFFFFF" stroke-width="20" stroke-linejoin="round"/>
      </g>
      <g>
        <path d="M156.743,70.433 C201.508,62.299 244.39,91.995 252.523,136.759 C260.657,181.524 230.961,224.406 186.197,232.539 C141.433,240.673 98.55,210.977 90.417,166.213 C82.283,121.448 111.979,78.566 156.743,70.433 z M160.826,92.903 C128.471,98.782 107.008,129.776 112.887,162.13 C118.766,194.485 149.76,215.948 182.114,210.069 C214.469,204.19 235.932,173.196 230.053,140.842 C224.174,108.487 193.18,87.024 160.826,92.903 z" fill="#FFAC3B"/>
        <path d="M156.743,70.433 C201.508,62.299 244.39,91.995 252.523,136.759 C260.657,181.524 230.961,224.406 186.197,232.539 C141.433,240.673 98.55,210.977 90.417,166.213 C82.283,121.448 111.979,78.566 156.743,70.433 z M160.826,92.903 C128.471,98.782 107.008,129.776 112.887,162.13 C118.766,194.485 149.76,215.948 182.114,210.069 C214.469,204.19 235.932,173.196 230.053,140.842 C224.174,108.487 193.18,87.024 160.826,92.903 z" fill-opacity="0" stroke="#FFFFFF" stroke-width="20" stroke-linejoin="round"/>
      </g>
      <g>
        <path d="M156.743,70.433 C201.508,62.299 244.39,91.995 252.523,136.759 C260.657,181.524 230.961,224.406 186.197,232.539 C141.433,240.673 98.55,210.977 90.417,166.213 C82.283,121.448 111.979,78.566 156.743,70.433 z" fill="#FFAC3B"/>
        <path d="M156.743,70.433 C201.508,62.299 244.39,91.995 252.523,136.759 C260.657,181.524 230.961,224.406 186.197,232.539 C141.433,240.673 98.55,210.977 90.417,166.213 C82.283,121.448 111.979,78.566 156.743,70.433 z" fill-opacity="0" stroke="#FFFFFF" stroke-width="20" stroke-linejoin="round"/>
      </g>
      <path d="M102.312,145.798 C99.17,183.993 127.587,217.503 165.782,220.644 C203.977,223.786 237.487,195.369 240.628,157.174 C243.77,118.979 215.353,85.469 177.158,82.328 C138.963,79.186 105.453,107.603 102.312,145.798 z" fill="#FFFF08"/>
      <g>
        <path d="M117.127,147.016 C114.658,177.029 136.987,203.361 167,205.829 C197.013,208.298 223.345,185.969 225.813,155.956 C228.282,125.943 205.953,99.611 175.94,97.143 C145.927,94.674 119.595,117.003 117.127,147.016 z" fill="#FFDA08"/>
        <path d="M117.127,147.016 C114.658,177.029 136.987,203.361 167,205.829 C197.013,208.298 223.345,185.969 225.813,155.956 C228.282,125.943 205.953,99.611 175.94,97.143 C145.927,94.674 119.595,117.003 117.127,147.016 z" fill-opacity="0" stroke="#FFFFFF" stroke-width="14.378"/>
      </g>
    </g>
  </g>
  <defs>
    <linearGradient id="Gradient_1" gradientUnits="userSpaceOnUse" x1="-75.128" y1="604.375" x2="315" y2="604.375" gradientTransform="matrix(-0.329, 0.06, 0.06, 0.329, 250.718, -68.05)">
      <stop offset="0" stop-color="#FF6600"/>
      <stop offset="1" stop-color="#FFDE00"/>
    </linearGradient>
    <linearGradient id="Gradient_2" gradientUnits="userSpaceOnUse" x1="767" y1="606.375" x2="380" y2="607.375" gradientTransform="matrix(-0.329, 0.06, 0.06, 0.329, 250.718, -68.05)">
      <stop offset="0" stop-color="#FF6600"/>
      <stop offset="1" stop-color="#FFDE00"/>
    </linearGradient>
    <linearGradient id="Gradient_3" gradientUnits="userSpaceOnUse" x1="347" y1="1019.376" x2="346" y2="648.375" gradientTransform="matrix(-0.329, 0.06, 0.06, 0.329, 250.718, -68.05)">
      <stop offset="0" stop-color="#FF6600"/>
      <stop offset="1" stop-color="#FFDE00"/>
    </linearGradient>
    <linearGradient id="Gradient_4" gradientUnits="userSpaceOnUse" x1="349" y1="186.375" x2="348" y2="563.375" gradientTransform="matrix(-0.329, 0.06, 0.06, 0.329, 250.718, -68.05)">
      <stop offset="0" stop-color="#FF6600"/>
      <stop offset="1" stop-color="#FFDE00"/>
    </linearGradient>
  </defs>
</svg>
