<?xml version="1.0" standalone="no"?>
<!DOCTYPE svg PUBLIC "-//W3C//DTD SVG 20010904//EN"
 "http://www.w3.org/TR/2001/REC-SVG-20010904/DTD/svg10.dtd">
<svg version="1.0" xmlns="http://www.w3.org/2000/svg"
 width="699.705411pt" height="848.882266pt" viewBox="0 0 699.705411 848.882266"
 preserveAspectRatio="xMidYMid meet">
<metadata>
Created by Potrace Professional 1.0-eval
</metadata>
<g transform="translate(-54.620582,923.349353) rotate(-360.00) scale(0.100000,-0.100000)"
fill="#000000" stroke="none">
<path d="M4078 9229 c-414 -32 -718 -169 -913 -412 -79 -98 -173 -281 -210
-412 -74 -257 -92 -587 -60 -1105 l17 -280 -12 -122 c-39 -422 -166 -733 -436
-1069 -527 -654 -847 -1253 -963 -1799 -32 -154 -44 -301 -37 -459 l6 -144
-53 -66 c-30 -36 -73 -93 -97 -126 -62 -87 -129 -153 -180 -180 -25 -12 -92
-39 -150 -60 -58 -20 -132 -52 -165 -70 -80 -44 -158 -128 -198 -212 l-32 -68
-3 -105 c-2 -72 3 -149 17 -243 30 -199 28 -253 -14 -387 -117 -372 -26 -579
289 -660 40 -10 133 -26 207 -35 74 -9 190 -23 259 -31 261 -32 375 -63 590
-164 247 -116 418 -165 620 -177 289 -18 551 99 661 293 l29 51 73 7 c39 4
151 23 247 41 410 79 546 84 885 35 121 -17 285 -34 363 -37 l144 -6 5 -16 c2
-9 23 -54 46 -101 32 -66 60 -103 122 -166 118 -120 222 -172 385 -194 146
-20 334 17 495 97 152 76 234 140 425 334 221 223 274 260 600 421 249 122
361 189 414 248 153 170 110 383 -134 665 -70 80 -91 132 -144 345 -64 258
-118 355 -238 431 -29 18 -54 33 -55 34 -1 0 7 32 18 70 82 291 81 641 -1 959
-46 180 -106 340 -199 531 -149 306 -305 543 -600 913 -196 246 -260 330 -336
443 -118 175 -197 348 -237 518 l-20 86 -9 495 c-4 272 -10 506 -13 520 -3 14
-10 68 -16 120 -78 647 -352 1047 -818 1194 -151 47 -384 70 -574 55z m352
-64 c454 -61 745 -312 896 -773 88 -268 113 -497 124 -1112 l8 -465 21 -82
c72 -282 195 -490 554 -935 164 -204 257 -329 354 -473 396 -594 571 -1161
512 -1660 -10 -92 -53 -290 -67 -312 -6 -10 -21 -10 -69 -1 l-60 11 1 76 1 76
-29 58 c-53 110 -184 216 -394 321 l-94 47 7 37 c26 138 22 344 -11 505 -62
308 -266 683 -507 933 l-81 85 -25 -3 c-20 -2 -27 -10 -29 -29 -2 -21 13 -45
75 -114 210 -234 354 -512 410 -792 31 -158 19 -407 -26 -525 l-10 -27 -68 6
c-37 3 -72 9 -76 13 -4 4 -18 54 -32 111 -63 278 -168 554 -336 885 -136 268
-237 491 -350 777 -83 209 -233 648 -265 775 l-18 72 24 48 c16 32 24 71 28
124 l5 78 -27 54 c-25 51 -54 84 -118 131 l-27 20 39 80 c22 44 47 107 55 140
20 78 20 253 0 330 -41 158 -137 291 -258 356 l-62 34 -100 0 -100 0 -58 -27
c-161 -75 -277 -285 -281 -506 l-1 -84 -75 7 c-41 3 -98 2 -126 -3 l-52 -9 -7
79 c-13 157 -62 283 -142 369 -210 226 -482 48 -500 -327 -8 -166 25 -298 102
-406 l34 -47 -58 -45 c-117 -90 -158 -163 -148 -262 8 -75 44 -146 113 -223
l57 -62 -7 -77 c-31 -337 -168 -739 -502 -1468 -154 -337 -176 -391 -232 -564
-51 -159 -88 -321 -108 -480 -8 -69 -19 -143 -23 -165 l-7 -40 -41 85 c-23 47
-52 123 -65 170 l-22 85 0 160 c-1 175 12 253 66 425 42 131 62 178 194 443
63 127 114 241 112 252 -2 14 -10 20 -28 20 l-25 0 -72 -120 c-151 -250 -278
-522 -342 -730 -55 -181 -66 -255 -65 -435 l1 -165 21 -78 c63 -229 199 -398
457 -565 199 -130 319 -224 446 -351 122 -122 182 -201 230 -306 97 -205 34
-348 -163 -371 l-56 -7 -82 104 c-128 162 -168 227 -298 484 -176 348 -288
513 -422 620 -124 100 -241 141 -370 132 l-75 -6 -79 -40 c-44 -22 -82 -39
-84 -36 -12 12 -3 339 12 435 84 542 411 1185 935 1840 154 192 226 301 301
455 96 198 155 410 181 650 12 116 9 318 -12 625 -14 208 -6 521 16 670 75
497 299 799 701 943 208 75 532 105 774 72z m114 -1189 c104 -51 201 -188 237
-336 17 -71 17 -220 0 -290 -16 -65 -52 -149 -81 -189 l-20 -29 -79 31 -79 30
27 56 26 56 0 115 0 115 -31 66 c-70 147 -191 176 -295 70 -55 -55 -88 -135
-96 -234 l-6 -68 -16 7 c-9 3 -36 13 -61 22 -25 8 -48 20 -52 26 -12 18 -9
119 7 201 35 184 148 328 295 376 50 17 165 4 224 -25z m-1122 -58 c58 -17
132 -88 168 -162 40 -82 59 -152 66 -256 l6 -85 -59 -26 -59 -26 -12 73 c-40
252 -234 316 -306 101 -33 -98 -11 -259 44 -338 l23 -32 -22 -18 c-30 -25 -36
-24 -59 9 -69 97 -102 211 -102 356 0 194 70 345 185 397 47 22 74 23 127 7z
m1034 -269 c19 -18 43 -57 54 -86 36 -96 21 -272 -28 -333 l-18 -22 -52 20
c-28 11 -88 41 -132 67 l-80 47 0 58 c0 111 33 214 81 255 l24 20 -21 -25
c-22 -25 -44 -63 -44 -75 0 -3 17 12 38 35 22 22 48 40 58 40 29 0 62 -27 84
-68 l19 -37 1 30 c0 42 -34 93 -67 101 -49 10 -49 14 0 10 39 -3 56 -11 83
-37z m-1052 -40 c48 -38 86 -140 86 -235 l0 -50 -32 -24 c-18 -13 -52 -42 -75
-63 -51 -46 -59 -43 -94 36 -27 62 -37 191 -20 254 7 24 23 55 37 70 l25 28
-26 -39 c-14 -21 -25 -48 -25 -60 1 -16 5 -13 21 16 35 68 73 71 111 10 l23
-37 3 19 c6 27 -29 69 -69 83 -24 8 -28 12 -13 12 12 1 33 -8 48 -20z m671
-254 c52 -20 131 -58 176 -86 67 -42 198 -98 406 -173 53 -20 139 -85 167
-126 75 -114 44 -263 -78 -379 -74 -69 -129 -102 -254 -152 -59 -23 -154 -72
-212 -107 -198 -123 -294 -156 -445 -155 -153 2 -245 41 -380 162 -38 35 -113
91 -166 126 -52 34 -119 86 -148 115 -97 97 -134 216 -96 308 22 51 43 72 170
165 61 44 130 100 155 123 186 175 310 228 508 219 l102 -5 95 -35z m823
-1050 c133 -411 306 -833 500 -1215 216 -427 315 -688 387 -1022 12 -54 22
-79 33 -82 47 -13 195 -27 202 -20 5 5 21 50 36 99 l28 90 0 190 0 190 -31
116 c-72 271 -211 522 -400 721 -40 42 -73 79 -73 82 0 10 141 -141 185 -199
177 -227 326 -543 382 -805 22 -105 25 -374 4 -464 l-13 -58 14 -14 c7 -7 62
-38 121 -68 237 -122 355 -231 382 -354 8 -37 -2 -122 -14 -122 -4 0 -6 13 -3
30 7 47 -16 121 -53 172 -64 88 -284 218 -475 282 -129 43 -274 51 -355 20
-95 -36 -158 -126 -180 -257 l-6 -37 -52 -26 c-28 -15 -79 -54 -113 -88 -138
-139 -205 -358 -234 -766 -22 -319 -33 -385 -105 -632 l-16 -57 -77 -49 c-309
-198 -606 -297 -930 -309 -289 -11 -532 50 -782 198 l-90 53 -44 66 c-24 36
-66 94 -94 130 l-51 65 57 15 c79 22 114 43 155 91 124 145 36 393 -237 664
-133 132 -237 213 -457 358 -210 138 -313 247 -389 409 -49 106 -62 171 -67
334 l-5 151 21 113 c25 128 56 232 112 372 44 110 155 348 163 348 2 0 -20
-52 -50 -115 -117 -246 -176 -479 -177 -695 -1 -188 27 -311 105 -462 46 -90
80 -130 103 -122 19 8 21 17 34 176 19 223 82 498 167 725 20 54 101 238 180
410 229 497 338 769 414 1030 39 133 82 334 95 445 l6 57 50 -30 c27 -17 49
-33 49 -35 0 -2 -15 -24 -34 -49 -67 -87 -97 -212 -80 -331 l8 -59 7 110 c4
61 14 130 23 155 23 63 78 150 94 150 7 0 52 -34 100 -76 139 -122 224 -161
372 -171 161 -11 285 28 489 152 59 36 152 84 206 106 l99 39 24 -22 c76 -70
126 -191 142 -341 l8 -82 -2 110 c-2 133 -22 191 -96 283 -27 34 -50 64 -50
67 0 2 24 20 53 39 28 19 70 51 92 73 l40 38 14 -45 c8 -25 43 -135 79 -245z
m-2463 -1115 c-9 -16 -18 -30 -21 -30 -2 0 2 14 11 30 9 17 18 30 21 30 2 0
-2 -13 -11 -30z m-60 -110 c-14 -27 -28 -50 -30 -50 -3 0 6 23 20 50 14 28 28
50 30 50 3 0 -6 -22 -20 -50z m3622 -1246 c183 -37 445 -171 532 -270 50 -57
64 -99 57 -168 -10 -99 -66 -171 -203 -264 -147 -100 -273 -147 -393 -147
l-85 0 -47 23 c-167 82 -276 351 -238 583 24 143 67 207 162 240 66 23 117 23
215 3z m-427 -361 c1 -32 5 -78 10 -103 l8 -45 -49 -52 c-52 -55 -83 -113
-105 -198 -22 -82 -15 -96 10 -19 30 93 72 168 114 206 l35 30 27 -69 c49
-126 126 -214 229 -261 l56 -26 80 0 c118 0 263 49 387 131 47 32 75 26 127
-26 35 -35 53 -70 80 -161 l10 -35 -5 50 c-8 73 -49 152 -95 183 -21 15 -38
31 -39 36 0 5 27 34 60 64 34 30 70 75 83 101 l22 46 60 -2 c117 -5 184 -30
272 -100 90 -72 123 -142 184 -385 55 -221 67 -249 158 -361 94 -115 162 -222
187 -292 25 -72 23 -170 -4 -222 -54 -105 -136 -163 -453 -324 -290 -146 -407
-224 -529 -353 -277 -293 -430 -400 -665 -468 l-80 -23 -140 0 c-111 0 -151 4
-195 19 -151 51 -270 143 -354 274 -74 114 -78 129 -79 297 -2 174 15 273 88
525 25 85 63 224 85 309 l40 153 15 227 c32 479 75 657 194 809 40 50 133 122
158 122 9 0 13 -18 13 -57z m-3648 27 c217 -67 383 -273 632 -781 l95 -194
103 -136 c57 -75 117 -154 135 -175 18 -22 51 -63 73 -92 270 -348 348 -523
320 -720 -23 -168 -59 -250 -147 -338 -125 -125 -283 -179 -518 -179 -227 1
-399 45 -671 173 -238 112 -317 132 -714 183 -271 34 -376 57 -457 98 -75 38
-120 83 -152 151 l-26 55 1 95 c1 95 11 148 60 303 30 97 31 165 3 351 -15 98
-20 173 -17 246 l4 105 29 58 c34 69 106 143 172 180 27 14 102 46 168 70 66
24 135 52 153 61 54 28 111 85 186 187 157 211 212 264 318 300 70 24 170 24
250 -1z m3107 -1577 c-25 -65 -79 -311 -89 -405 -6 -56 -8 -134 -5 -175 l7
-73 -93 0 c-93 0 -253 16 -459 44 -252 35 -399 30 -715 -25 -202 -35 -386 -62
-390 -57 -2 2 6 37 17 78 15 59 19 98 15 185 l-4 110 -32 80 c-17 44 -40 91
-50 105 l-18 25 121 -60 c205 -103 361 -143 592 -152 310 -12 590 55 898 215
60 31 132 73 160 94 28 20 52 37 53 37 1 1 -2 -11 -8 -26z"/>
<path d="M3874 9114 c-348 -58 -652 -263 -769 -519 -52 -113 -53 -157 -2 -53
56 112 139 214 241 294 430 341 1120 329 1436 -23 63 -71 118 -182 133 -269
14 -83 31 -84 22 -1 -32 283 -288 509 -649 572 -107 18 -300 18 -412 -1z"/>
<path d="M5726 6073 c-8 -19 50 -145 146 -318 193 -349 311 -555 315 -551 5 4
-80 174 -332 661 -48 94 -83 166 -78 160 29 -27 361 -465 537 -707 43 -60 80
-108 82 -108 16 0 -266 413 -450 660 -156 209 -202 252 -220 203z"/>
<path d="M2566 5819 c-88 -77 -314 -369 -444 -574 -71 -112 -209 -365 -199
-365 2 0 26 37 52 83 71 122 221 347 315 472 123 163 320 390 320 370 0 -18
-159 -298 -290 -510 -114 -185 -237 -411 -228 -420 2 -2 25 35 52 83 27 48
113 186 191 307 228 355 319 516 313 558 -5 34 -41 33 -82 -4z"/>
<path d="M3742 7299 c-29 -5 -75 -20 -102 -34 -55 -28 -224 -164 -240 -194
-18 -34 -11 -36 23 -4 61 57 202 159 247 177 61 25 173 31 232 13 68 -21 324
-164 348 -194 12 -15 20 -20 20 -12 0 30 -34 60 -138 122 -177 106 -203 117
-312 132 -14 1 -49 -1 -78 -6z"/>
<path d="M3240 7034 c-121 -84 -156 -117 -177 -172 l-17 -44 12 -57 c21 -101
82 -171 245 -280 42 -28 114 -85 160 -127 91 -82 186 -136 274 -155 85 -17
212 -6 303 26 73 27 100 41 267 143 45 27 125 66 177 86 150 58 258 143 323
253 l28 48 0 76 0 76 -29 41 c-31 46 -101 94 -173 122 -91 34 -98 30 -17 -8
91 -44 160 -101 181 -149 60 -145 -79 -325 -326 -419 -53 -20 -159 -74 -236
-120 -81 -48 -173 -94 -220 -110 l-80 -26 -110 4 -111 3 -75 37 c-43 22 -107
67 -154 109 -44 40 -123 100 -175 134 -169 110 -248 225 -220 322 14 52 29 68
148 162 86 69 113 93 100 91 -2 -1 -46 -30 -98 -66z"/>
<path d="M4537 6840 c-31 -16 -123 -67 -205 -113 -257 -147 -381 -192 -537
-192 -176 0 -305 59 -495 224 -108 95 -142 109 -148 63 -3 -17 14 -39 74 -95
225 -211 386 -285 599 -274 166 8 302 62 592 235 81 49 169 97 195 107 48 18
62 34 52 60 -9 24 -63 17 -127 -15z m103 0 c0 -5 -7 -10 -15 -10 -21 0 -118
-49 -247 -126 -59 -35 -144 -82 -188 -104 -85 -43 -245 -100 -276 -99 -11 0
19 11 66 25 114 34 213 82 410 199 185 109 250 140 250 115z m-1373 -91 c104
-96 227 -180 315 -214 35 -13 57 -24 50 -25 -28 -1 -138 52 -215 104 -76 50
-262 214 -245 216 4 0 47 -37 95 -81z m416 -246 c-7 -2 -19 -2 -25 0 -7 3 -2
5 12 5 14 0 19 -2 13 -5z m165 -10 c-26 -2 -71 -2 -100 0 -29 2 -8 3 47 3 55
0 79 -1 53 -3z"/>
<path d="M3760 5404 c-527 -65 -939 -335 -1067 -699 l-28 -80 1 -155 c1 -85 6
-168 11 -185 9 -23 10 1 6 100 -10 254 54 420 232 601 220 224 536 357 907
383 456 31 882 -109 1149 -378 100 -101 167 -208 205 -326 l26 -80 2 -110 c0
-60 -2 -137 -6 -170 l-6 -60 15 45 c24 73 29 253 9 342 -80 358 -447 649 -943
749 -82 16 -153 22 -293 24 -102 2 -201 1 -220 -1z"/>
<path d="M2691 4234 c0 -11 3 -14 6 -6 3 7 2 16 -1 19 -3 4 -6 -2 -5 -13z"/>
<path d="M5812 3789 c-92 -17 -145 -92 -140 -196 l3 -58 12 53 c19 77 49 129
86 149 45 23 137 21 227 -6 89 -27 240 -103 287 -144 52 -46 51 -24 -1 26 -26
24 -90 67 -144 95 -138 72 -241 97 -330 81z"/>
<path d="M6990 3033 c10 -27 30 -102 44 -168 60 -270 80 -320 172 -431 119
-145 194 -282 194 -357 -1 -71 -53 -140 -153 -204 -23 -15 -143 -77 -267 -139
-342 -172 -468 -261 -642 -455 -368 -409 -839 -511 -1109 -240 -113 114 -159
223 -159 376 0 116 23 240 91 499 33 125 58 233 57 238 -2 6 -28 -67 -57 -161
-147 -477 -161 -644 -70 -830 71 -144 198 -251 354 -297 84 -25 245 -23 347 4
207 55 346 148 588 392 224 226 269 257 626 438 352 179 423 238 432 360 7
100 -50 212 -194 385 -103 122 -112 142 -179 397 -32 121 -76 240 -88 240 -3
0 3 -21 13 -47z"/>
<path d="M1685 3327 c-62 -30 -76 -46 -160 -175 -84 -130 -122 -173 -210 -232
-103 -70 -157 -121 -190 -181 l-30 -54 0 -75 0 -75 29 -56 c15 -31 38 -69 52
-85 l24 -29 -30 55 c-39 75 -62 165 -54 215 15 95 71 164 207 255 103 68 140
108 231 244 81 124 119 160 183 174 90 20 190 -16 281 -101 78 -75 149 -188
261 -418 95 -194 166 -318 190 -334 7 -4 -7 24 -30 62 -23 37 -64 120 -91 183
-197 462 -346 637 -548 648 l-65 3 -50 -24z"/>
<path d="M711 2430 c0 -25 6 -92 14 -150 24 -173 20 -242 -19 -367 -47 -150
-59 -221 -54 -307 8 -129 72 -202 215 -246 84 -26 143 -36 392 -65 364 -43
485 -74 731 -190 258 -122 408 -160 625 -160 217 0 347 45 461 159 122 123
175 319 128 477 -17 58 -72 171 -99 204 -9 11 -4 -3 9 -32 47 -96 76 -198 76
-267 0 -245 -137 -419 -380 -483 -87 -22 -295 -22 -405 1 -124 27 -277 81
-425 151 -245 116 -336 138 -849 200 -247 30 -361 73 -408 152 -47 81 -42 196
17 389 38 123 39 210 5 411 -29 170 -33 185 -34 123z"/>
</g>
</svg>
