<?xml version="1.0" encoding="UTF-8"?>
<!DOCTYPE svg PUBLIC "-//W3C//DTD SVG 1.1//EN" "http://www.w3.org/Graphics/SVG/1.1/DTD/svg11.dtd">
<svg version="1.1" xmlns="http://www.w3.org/2000/svg" xmlns:xlink="http://www.w3.org/1999/xlink" x="0px" y="0px" width="1000" height="1000" viewBox="0, 0, 1000, 1000">
  <g id="layer1">
    <path d="M464.564,424.852 C320.02,-9.177 88.299,389.913 267.626,563.558" fill-opacity="0" stroke="#0000FF" stroke-width="6" stroke-linecap="round" stroke-linejoin="round"/>
    <path d="M304.874,701.443 C202.367,717.057 156.959,597.364 261.477,578.237" fill-opacity="0" stroke="#0000FF" stroke-width="6" stroke-linecap="round" stroke-linejoin="round"/>
    <path d="M316.081,584.853 C241.783,507.792 358.061,315.232 409.988,516.067" fill-opacity="0" stroke="#0000FF" stroke-width="6" stroke-linecap="round" stroke-linejoin="round"/>
    <path d="M330.674,653.442 C282.176,660.823 260.683,604.179 310.144,595.125" fill-opacity="0" stroke="#0000FF" stroke-width="6" stroke-linecap="round" stroke-linejoin="round"/>
    <path d="M499.347,697.349 C739.384,765.824 969.15,365.6 521.01,457.439" fill-opacity="0" stroke="#0000FF" stroke-width="6" stroke-linecap="round" stroke-linejoin="round"/>
    <path d="M361.306,734.03 C399.036,830.615 525.416,810.085 489.698,710.001" fill-opacity="0" stroke="#0000FF" stroke-width="6" stroke-linecap="round" stroke-linejoin="round"/>
    <path d="M456.672,666.037 C560.567,691.837 669.181,494.857 469.296,550.311" fill-opacity="0" stroke="#0000FF" stroke-width="6" stroke-linecap="round" stroke-linejoin="round"/>
    <path d="M389.982,687.686 C407.834,733.379 467.638,723.673 450.75,676.309" fill-opacity="0" stroke="#0000FF" stroke-width="6" stroke-linecap="round" stroke-linejoin="round"/>
    <path d="M344.814,689.216 L452.152,503.287" fill-opacity="0" stroke="#0000FF" stroke-width="6" stroke-linecap="round" stroke-linejoin="round"/>
    <path d="M711.855,385.507 C695.647,356.32 616.064,305.98 526.549,400.907" fill-opacity="0" stroke="#0000FF" stroke-width="6" stroke-linecap="round" stroke-linejoin="round"/>
    <path d="M453.583,180.209 C524.028,198.458 546.314,270.183 506.7,391.641" fill-opacity="0" stroke="#0000FF" stroke-width="6" stroke-linecap="round" stroke-linejoin="round"/>
  </g>
  <defs/>
</svg>
