<?xml version="1.0" encoding="UTF-8"?>
<!DOCTYPE svg PUBLIC "-//W3C//DTD SVG 1.1//EN" "http://www.w3.org/Graphics/SVG/1.1/DTD/svg11.dtd">
<svg version="1.1" xmlns="http://www.w3.org/2000/svg" xmlns:xlink="http://www.w3.org/1999/xlink" x="0px" y="0px" width="1000" height="1300" viewBox="0, 0, 1000, 1300">
  <g id="yellow">
    <path d="M778.433,934.558 C813.033,965.158 843.123,1096.838 776.317,1105.66" fill-opacity="0" stroke="#000000" stroke-width="1"/>
    <path d="M776.407,988.036 C787.015,966.247 789.316,965.565 778.433,934.558" fill-opacity="0" stroke="#000000" stroke-width="1"/>
    <path d="M778.433,934.558 C811.267,955.769 814.134,957.654 839.713,965.672" fill-opacity="0" stroke="#000000" stroke-width="1"/>
    <g>
      <path d="M684.09,560.561 L684.09,475.236 L676.135,475.236 C652.606,475.236 633.515,494.328 633.515,517.941 C633.515,541.47 652.606,560.561 676.135,560.561 L684.09,560.561 z" fill-opacity="0" stroke="#000000" stroke-width="3"/>
      <path d="M619.782,541.135 L582.521,466.612 C574.231,451.372 558.238,441.073 539.481,441.073 L452.984,441.073 C444.862,441.073 438.414,447.604 438.414,455.642 C438.414,463.765 444.862,470.212 452.984,470.212 L539.481,470.128 C546.515,470.128 554.302,474.901 557.317,481.6 L581.097,529.077 L619.782,541.135 z" fill-opacity="0" stroke="#000000" stroke-width="3"/>
      <path d="M791.605,620.85 C802.909,624.115 811.115,634.498 811.115,646.807 L748.147,646.891 C665.25,646.891 597.927,714.213 597.927,797.11 L392.862,797.11 C392.862,730.542 349.572,674.021 289.618,654.26 L176.578,617.082 L195.334,588.445 C201.949,578.48 213.504,571.949 226.399,571.949 C229.33,571.949 232.01,572.117 234.522,572.619 L486.31,650.659 C489.408,651.58 492.59,652.166 496.023,652.166 C507.327,652.166 517.291,646.389 523.153,637.597 L580.427,554.867 L791.605,620.85 z" fill-opacity="0" stroke="#000000" stroke-width="3"/>
      <path d="M622.88,823.151 C622.88,766.547 668.767,720.828 725.287,720.828 C781.808,720.828 827.694,766.547 827.694,823.151 C827.694,879.672 781.808,925.558 725.287,925.558 C668.767,925.558 622.88,879.756 622.88,823.151 M725.371,861.502 C746.639,861.502 763.721,844.253 763.721,823.151 C763.721,801.967 746.639,784.885 725.371,784.885 C704.354,784.885 687.272,801.967 687.272,823.151 C687.272,844.253 704.354,861.502 725.371,861.502" fill-opacity="0" stroke="#000000" stroke-width="3"/>
      <path d="M140.739,812.35 C140.739,750.219 191.147,699.727 253.362,699.727 C315.66,699.727 365.9,750.219 365.9,812.35 C365.9,874.564 315.66,924.972 253.362,924.972 C191.147,924.888 140.739,874.481 140.739,812.35 M253.613,854.384 C276.724,854.384 295.647,835.628 295.647,812.35 C295.647,788.988 276.724,770.232 253.613,770.232 C230.251,770.232 211.495,788.988 211.495,812.35 C211.495,835.628 230.251,854.384 253.613,854.384" fill-opacity="0" stroke="#000000" stroke-width="3"/>
    </g>
    <path d="M404.927,1134.317 L404.927,1081.829 L415.333,1081.829 L415.333,1089.106 Q419.341,1080.95 427.954,1080.95 Q434.915,1080.95 438.905,1086.048 Q442.895,1091.145 442.895,1100.075 Q442.895,1109.778 438.395,1115.544 Q433.895,1121.309 426.337,1121.309 Q420.255,1121.309 415.333,1116.528 L415.333,1134.317 z M415.333,1110.341 Q419.13,1114.559 423.419,1114.559 Q427.251,1114.559 429.536,1110.85 Q431.821,1107.141 431.821,1100.954 Q431.821,1089.106 424.192,1089.106 Q419.587,1089.106 415.333,1095.048 z M452.634,1120.43 L452.634,1081.829 L462.407,1081.829 L462.407,1108.372 L477.805,1081.829 L488.212,1081.829 L488.212,1120.43 L478.438,1120.43 L478.438,1093.887 L463.04,1120.43 z M529.696,1119.587 Q523.227,1121.309 517.708,1121.309 Q508.462,1121.309 503.1,1115.878 Q497.739,1110.446 497.739,1101.094 Q497.739,1091.637 503.259,1086.294 Q508.778,1080.95 518.516,1080.95 Q523.227,1080.95 529.38,1082.462 L529.38,1089.985 Q522.981,1087.911 519.149,1087.911 Q514.473,1087.911 511.626,1091.497 Q508.778,1095.083 508.778,1101.024 Q508.778,1107.106 511.854,1110.762 Q514.93,1114.419 520.063,1114.419 Q524.739,1114.419 529.696,1112.38 z M549.454,1118.708 L534.126,1081.829 L544.356,1081.829 L554.833,1106.86 L565.837,1081.829 L574.38,1081.829 L557.786,1119.762 Q553.356,1129.923 550.368,1132.12 Q547.38,1134.317 538.028,1134.317 L536.903,1134.317 L536.903,1127.356 L537.887,1127.356 Q541.966,1127.356 544.057,1126.407 Q546.149,1125.458 547.344,1123.067 L548.751,1120.149 z M581.446,1120.43 L581.446,1081.829 L591.852,1081.829 L591.852,1096.735 L605.739,1096.735 L605.739,1081.829 L616.145,1081.829 L616.145,1120.43 L605.739,1120.43 L605.739,1103.239 L591.852,1103.239 L591.852,1120.43 z M645.36,1121.309 Q636.325,1121.309 630.999,1115.843 Q625.673,1110.376 625.673,1101.13 Q625.673,1091.778 631.034,1086.364 Q636.395,1080.95 645.606,1080.95 Q654.852,1080.95 660.214,1086.364 Q665.575,1091.778 665.575,1101.059 Q665.575,1110.552 660.196,1115.93 Q654.817,1121.309 645.36,1121.309 z M645.536,1114.805 Q654.501,1114.805 654.501,1101.059 Q654.501,1094.766 652.128,1091.11 Q649.755,1087.454 645.606,1087.454 Q641.493,1087.454 639.12,1091.11 Q636.747,1094.766 636.747,1101.13 Q636.747,1107.423 639.102,1111.114 Q641.458,1114.805 645.536,1114.805 z M675.137,1120.43 L675.137,1081.829 L684.876,1081.829 L684.876,1097.86 Q687.969,1097.86 689.288,1096.735 Q690.606,1095.61 693.313,1090.618 L694.333,1088.79 Q696.688,1084.43 698.798,1083.147 Q700.907,1081.864 705.688,1081.864 L707.235,1081.829 L707.235,1088.333 L706.251,1088.333 Q704.387,1088.333 703.473,1089.018 Q702.559,1089.704 701.188,1092.235 L700.134,1094.134 L699.044,1096.102 Q697.145,1099.512 693.278,1100.778 Q696.653,1101.622 698.516,1103.309 Q700.38,1104.997 702.876,1109.391 L704.036,1111.466 L706.005,1114.665 L708.114,1118.216 Q708.466,1118.778 709.626,1120.43 L698.622,1120.43 Q697.954,1119.235 697.743,1118.848 L696.126,1115.86 Q691.766,1107.774 688.356,1104.399 L684.876,1104.399 L684.876,1120.43 z" fill="#34343B"/>
  </g>
  <defs/>
</svg>
