<?xml version="1.0" encoding="UTF-8"?>
<!DOCTYPE svg PUBLIC "-//W3C//DTD SVG 1.1//EN" "http://www.w3.org/Graphics/SVG/1.1/DTD/svg11.dtd">
<svg version="1.1" xmlns="http://www.w3.org/2000/svg" xmlns:xlink="http://www.w3.org/1999/xlink" x="0px" y="0px" width="600" height="800" viewBox="0, 0, 600, 800">
  <g id="layer2">
    <path d="M312.143,268.708 C312.143,268.708 328.483,244.687 337.126,233.018 C348.726,217.355 357.262,198.235 373.172,186.977 C382.6,180.307 396.084,170.003 406.007,175.914 C416.795,182.339 415.531,200.863 412.431,213.031 C405.198,241.423 357.826,281.912 357.826,281.912" fill-opacity="0" stroke="#000000" stroke-width="1"/>
    <path d="M376.022,548.161 C371.572,541.734 403.051,522.436 419.679,526.457 C429.544,528.843 441.257,535.16 444.916,544.628 C450.336,558.654 441.614,575.589 433.559,588.285 C427.929,597.162 419.048,602.108 409.08,605.446 C400.854,608.2 383.339,607.212 383.339,607.212" fill-opacity="0" stroke="#000000" stroke-width="1"/>
    <path d="M399.227,329.731 C539.233,302.391 496.05,170.618 370.388,287.962 C282.392,238.151 223.16,295.313 263.254,366.489 C266.397,373.65 267.827,378.669 257.11,379.565 C237.75,373.191 211.703,383.999 211.434,407.112 C209.591,425.785 227.003,429.379 237.909,437.87 C204.656,465.465 164.791,563.094 231.471,610.79 C214.791,603.704 188.529,625.916 205.832,640.378 C222.69,652.26 243.212,639.531 261.107,643.441 C263.349,662.63 285.606,660.798 299.985,658.384 C309.799,657.119 312.005,652.016 319.94,650.713 C437.479,631.41 356.529,534.788 365.11,483.191 C409.033,467.756 414.056,429.409 379.955,394.85 C411.846,375.759 400.167,331.571 399.225,329.728 z" fill-opacity="0" stroke="#000000" stroke-width="1"/>
    <path d="M373.167,440.727 C346.968,425.369 318.613,432.305 318.562,449.828 C318.471,480.735 348.432,482.145 365.315,482.841" fill-opacity="0" stroke="#000000" stroke-width="1"/>
    <path d="M250.583,397.538 C250.583,397.538 287.22,408.305 275.922,429.836 C267.695,445.518 236.663,438.402 236.663,438.402" fill-opacity="0" stroke="#000000" stroke-width="1"/>
    <path d="M392.443,302.964 C419.702,286.469 448.699,261.28 470.604,271.557" fill-opacity="0" stroke="#000000" stroke-width="1"/>
    <g>
      <path d="M230.685,610.343 L266.643,628.545" fill="#FFFFFF"/>
      <path d="M230.685,610.343 L266.643,628.545" fill-opacity="0" stroke="#000000" stroke-width="1"/>
    </g>
    <g>
      <path d="M261.097,642.254 C268.512,605.569 297.793,618.932 315.911,624.815" fill="#FFFFFF"/>
      <path d="M261.097,642.254 C268.512,605.569 297.793,618.932 315.911,624.815" fill-opacity="0" stroke="#000000" stroke-width="1"/>
    </g>
    <path d="M306.066,318.312 C306.066,321.663 303.27,324.38 299.821,324.38 C296.371,324.38 293.575,321.663 293.575,318.312 C293.575,314.961 296.371,312.245 299.821,312.245 C303.27,312.245 306.066,314.961 306.066,318.312 z" fill-opacity="0" stroke="#000000" stroke-width="1"/>
    <path d="M271.442,293.326 C278.368,290.337 284.143,291.566 288.216,299.037" fill-opacity="0" stroke="#000000" stroke-width="1"/>
    <path d="M339.617,315.09 C348.984,313.274 356.251,314.726 357.105,326.154" fill-opacity="0" stroke="#000000" stroke-width="1"/>
    <path d="M284.642,344.372 C315.891,350.141 308.325,355.392 322.474,349.369" fill-opacity="0" stroke="#000000" stroke-width="1"/>
    <g>
      <path d="M255.755,306.526 L244.692,298.674" fill="#FFFFFF"/>
      <path d="M255.755,306.526 L244.692,298.674" fill-opacity="0" stroke="#000000" stroke-width="1"/>
    </g>
    <g>
      <path d="M253.607,317.606 L235.406,317.606" fill="#FFFFFF"/>
      <path d="M253.607,317.606 L235.406,317.606" fill-opacity="0" stroke="#000000" stroke-width="1"/>
    </g>
    <g>
      <path d="M251.827,330.805 L236.837,334.374" fill="#FFFFFF"/>
      <path d="M251.827,330.805 L236.837,334.374" fill-opacity="0" stroke="#000000" stroke-width="1"/>
    </g>
    <path d="M357.105,326.154 C347.446,326.154 339.617,321.2 339.617,315.09" fill-opacity="0" stroke="#000000" stroke-width="1"/>
    <path d="M288.216,299.037 C278.952,299.037 278.282,305.584 271.442,293.326" fill-opacity="0" stroke="#000000" stroke-width="1"/>
    <path d="M55.679,763.088 L49.711,736.288 L52.917,735.954 L56.499,752.281 L57.024,755.002 L57.126,754.991 L57.181,752.21 L58.305,735.391 L61.527,735.055 L66.577,751.902 L67.173,754.477 L67.258,754.468 L67.206,751.819 L67.444,734.438 L70.206,734.15 L69.762,761.618 L66.421,761.967 L61.006,743.934 L60.342,741.211 L60.257,741.22 L60.221,744.016 L58.987,762.743 z M76.242,760.942 L73.297,732.724 L76.554,732.384 L77.906,745.342 Q79.069,742.946 80.905,741.462 Q82.741,739.977 84.719,739.771 Q86.39,739.597 87.85,740.298 Q89.311,740.998 89.966,742.154 Q90.505,743.028 90.776,744.051 Q91.046,745.075 91.386,748.331 L92.525,759.243 L89.268,759.583 L88.089,748.279 Q87.793,745.448 87.427,744.582 Q87.061,743.715 86.276,743.211 Q85.491,742.707 84.638,742.796 Q82.916,742.976 81.125,744.808 Q79.334,746.641 78.31,749.213 L79.498,760.603 z M103.198,758.13 L101.444,741.318 L96.022,741.884 L95.739,739.173 L104.418,738.267 L106.172,755.079 L111.611,754.511 L111.894,757.222 z M99.879,731.605 Q99.765,730.514 100.459,729.89 Q101.152,729.266 101.817,729.197 Q102.499,729.126 103.306,729.593 Q104.113,730.06 104.227,731.152 Q104.341,732.243 103.647,732.867 Q102.954,733.491 102.272,733.562 Q101.607,733.631 100.8,733.164 Q99.993,732.696 99.879,731.605 z M135.461,753.971 Q133.259,755.166 132.247,755.461 Q131.235,755.756 130.28,755.856 Q128.234,756.069 126.455,755.462 Q124.677,754.855 123.655,753.401 Q122.633,751.948 122.297,748.726 L121.477,740.865 L116.583,741.376 L116.3,738.665 L121.194,738.154 L120.374,730.294 L123.613,729.956 L124.433,737.816 L133.129,736.909 L133.412,739.62 L124.716,740.527 L125.531,748.336 Q125.778,750.706 126.442,751.62 Q127.106,752.533 128.091,752.887 Q129.076,753.241 130.338,753.109 Q132.708,752.862 135.162,751.106 z M156.805,751.227 Q153.095,753.492 149.617,753.855 Q146.974,754.131 144.757,753.035 Q142.54,751.939 141.032,749.632 Q139.524,747.325 139.234,744.545 Q138.955,741.868 139.892,739.28 Q140.828,736.692 142.816,735.097 Q144.804,733.502 147.43,733.228 Q150.908,732.865 153.273,735.126 Q155.637,737.387 156.178,742.571 L156.251,743.27 L142.781,744.675 Q142.993,746.704 144.02,748.286 Q145.047,749.868 146.516,750.568 Q147.985,751.268 149.741,751.085 Q152.895,750.755 156.496,748.26 z M142.732,742.216 L152.467,741.2 L152.417,740.722 Q152.168,738.335 150.844,737.043 Q149.52,735.75 147.576,735.953 Q145.599,736.16 144.3,737.752 Q143.001,739.344 142.732,742.216 z M185.661,737.874 L186.864,749.4 L183.335,749.769 L180.504,722.642 L187.751,721.885 Q191.297,721.515 193.052,722.065 Q194.807,722.614 195.881,723.984 Q196.955,725.355 197.131,727.043 Q197.296,728.628 196.848,730.278 Q196.399,731.928 195.456,733.293 Q194.513,734.658 192.601,735.995 L201.783,747.844 L197.572,748.283 L189.191,737.506 z M185.377,735.146 L190.321,734.63 Q191.898,733.552 192.609,732.522 Q193.32,731.491 193.627,730.382 Q193.933,729.272 193.823,728.215 Q193.624,726.306 192.117,725.325 Q190.61,724.345 186.961,724.726 L184.318,725.001 z M217.302,741.795 Q216.056,744.39 214.097,745.852 Q212.138,747.315 210.399,747.496 Q207.944,747.752 205.78,745.841 Q203.615,743.93 203.165,739.616 Q202.811,736.223 203.821,733.429 Q204.831,730.635 206.843,728.856 Q208.855,727.078 212.043,726.745 Q212.981,726.647 214.861,726.658 Q215.154,726.662 215.722,726.654 L218.979,726.314 L220.418,740.108 Q220.786,743.638 221.749,745.76 L218.356,746.115 Q217.814,744.551 217.302,741.795 z M216.898,737.924 L216.025,729.553 Q214.237,729.274 212.754,729.429 Q209.753,729.742 207.993,732.278 Q206.232,734.815 206.65,738.821 Q206.953,741.72 208.198,743.081 Q209.443,744.442 210.841,744.296 Q212.358,744.138 214.031,742.412 Q215.704,740.686 216.898,737.924 z M227.825,729.821 Q229.069,727.209 231.029,725.755 Q232.988,724.301 234.727,724.12 Q237.183,723.864 239.356,725.774 Q241.528,727.685 241.977,731.981 Q242.331,735.374 241.313,738.178 Q240.296,740.981 238.283,742.751 Q236.27,744.521 233.082,744.854 Q232.161,744.95 230.266,744.958 Q229.972,744.954 229.404,744.962 L226.165,745.3 L223.221,717.081 L226.46,716.744 z M228.229,733.692 L229.102,742.063 Q230.921,742.321 232.405,742.167 Q235.355,741.859 237.134,739.338 Q238.913,736.817 238.494,732.793 Q238.189,729.877 236.936,728.517 Q235.682,727.157 234.284,727.303 Q232.766,727.461 231.095,729.195 Q229.423,730.93 228.229,733.692 z M249.308,727.58 Q250.552,724.968 252.512,723.514 Q254.472,722.06 256.211,721.878 Q258.666,721.622 260.839,723.533 Q263.012,725.443 263.46,729.74 Q263.814,733.133 262.797,735.936 Q261.779,738.74 259.766,740.51 Q257.753,742.28 254.565,742.612 Q253.644,742.708 251.749,742.717 Q251.456,742.713 250.888,742.72 L247.648,743.058 L244.704,714.84 L247.944,714.502 z M249.712,731.45 L250.585,739.822 Q252.405,740.08 253.888,739.925 Q256.838,739.617 258.617,737.096 Q260.397,734.575 259.977,730.551 Q259.673,727.636 258.419,726.276 Q257.165,724.916 255.767,725.061 Q254.25,725.22 252.578,726.954 Q250.906,728.688 249.712,731.45 z M274.844,740.221 L273.089,723.409 L267.667,723.975 L267.385,721.264 L276.063,720.358 L277.817,737.17 L283.256,736.602 L283.539,739.313 z M271.524,713.696 Q271.411,712.605 272.104,711.981 Q272.797,711.357 273.462,711.288 Q274.144,711.217 274.951,711.684 Q275.758,712.151 275.872,713.243 Q275.986,714.334 275.293,714.958 Q274.6,715.582 273.918,715.653 Q273.253,715.722 272.445,715.255 Q271.638,714.787 271.524,713.696 z M307.106,736.062 Q304.904,737.257 303.892,737.552 Q302.88,737.847 301.925,737.947 Q299.879,738.16 298.101,737.553 Q296.322,736.946 295.3,735.492 Q294.278,734.039 293.942,730.817 L293.122,722.956 L288.229,723.467 L287.946,720.756 L292.839,720.245 L292.019,712.385 L295.259,712.047 L296.079,719.907 L304.774,719 L305.057,721.711 L296.362,722.618 L297.176,730.427 Q297.424,732.797 298.088,733.711 Q298.752,734.624 299.737,734.978 Q300.722,735.332 301.983,735.2 Q304.353,734.953 306.807,733.197 z M349.851,731.602 Q347.649,732.797 346.637,733.092 Q345.625,733.387 344.67,733.487 Q342.624,733.7 340.846,733.093 Q339.068,732.486 338.046,731.032 Q337.023,729.579 336.687,726.357 L335.867,718.497 L330.974,719.007 L330.691,716.296 L335.584,715.786 L334.764,707.925 L338.004,707.587 L338.824,715.448 L347.52,714.54 L347.802,717.251 L339.107,718.159 L339.921,725.968 Q340.169,728.338 340.833,729.251 Q341.497,730.164 342.482,730.518 Q343.467,730.872 344.728,730.74 Q347.098,730.493 349.552,728.737 z M363.187,731.555 Q358.993,731.992 356.163,729.323 Q353.334,726.654 352.869,722.204 Q352.403,717.736 354.622,714.558 Q356.842,711.379 361.036,710.941 Q365.213,710.505 368.033,713.158 Q370.852,715.812 371.318,720.279 Q371.782,724.729 369.573,727.924 Q367.364,731.119 363.187,731.555 z M362.904,728.844 Q365.496,728.573 366.827,726.383 Q368.158,724.193 367.788,720.647 Q367.42,717.118 365.665,715.25 Q363.911,713.382 361.319,713.652 Q358.693,713.926 357.362,716.116 Q356.031,718.306 356.399,721.835 Q356.769,725.382 358.524,727.25 Q360.278,729.118 362.904,728.844 z M402.38,726.914 L400.795,711.722 L396.447,712.176 L396.164,709.465 L400.512,709.011 L400.418,708.108 Q400.014,704.237 400.69,702.296 Q401.367,700.356 403.067,698.972 Q404.767,697.588 407.784,697.273 Q410.052,697.037 412.438,697.27 L412.76,700.356 Q410.149,699.784 408.188,699.989 Q406.637,700.151 405.504,700.855 Q404.371,701.559 403.833,702.934 Q403.296,704.308 403.62,707.411 L403.751,708.673 L411.509,707.864 L411.792,710.575 L404.034,711.384 L405.619,726.576 z M427.415,724.853 Q423.221,725.291 420.392,722.622 Q417.562,719.952 417.098,715.502 Q416.632,711.035 418.851,707.856 Q421.07,704.677 425.265,704.24 Q429.442,703.804 432.261,706.457 Q435.08,709.11 435.546,713.577 Q436.011,718.027 433.802,721.223 Q431.593,724.418 427.415,724.853 z M427.133,722.142 Q429.724,721.872 431.056,719.682 Q432.387,717.492 432.017,713.946 Q431.649,710.416 429.894,708.548 Q428.139,706.68 425.547,706.951 Q422.922,707.225 421.59,709.415 Q420.259,711.605 420.627,715.134 Q420.997,718.68 422.752,720.548 Q424.507,722.416 427.133,722.142 z M446.046,722.358 L443.386,696.868 L437.538,697.478 L437.253,694.75 L446.341,693.802 L449.002,719.309 L455.106,718.672 L455.389,721.383 z M467.529,720.117 L464.869,694.626 L459.021,695.237 L458.736,692.508 L467.824,691.56 L470.486,717.068 L476.59,716.431 L476.873,719.142 z M491.866,718.129 Q487.671,718.567 484.842,715.897 Q482.012,713.228 481.548,708.778 Q481.082,704.31 483.301,701.132 Q485.52,697.953 489.715,697.515 Q493.892,697.079 496.711,699.732 Q499.53,702.386 499.996,706.853 Q500.461,711.303 498.252,714.498 Q496.043,717.693 491.866,718.129 z M491.583,715.418 Q494.174,715.148 495.506,712.958 Q496.837,710.768 496.467,707.221 Q496.099,703.692 494.344,701.824 Q492.589,699.956 489.998,700.226 Q487.372,700.5 486.04,702.69 Q484.709,704.88 485.077,708.409 Q485.447,711.956 487.202,713.824 Q488.957,715.692 491.583,715.418 z M506.063,716.096 L500.854,696.904 L503.872,696.589 L506.971,708.28 L507.736,710.992 L507.926,708.18 L509.806,695.97 L512.721,695.666 L517.474,707.184 L518.376,709.882 L518.48,707.079 L519.115,694.999 L521.622,694.738 L520.487,714.591 L517.452,714.908 L512.39,702.733 L511.505,700.033 L511.42,700.042 L511.161,702.844 L509.234,715.765 z" fill="#34343B"/>
    <path d="M452.571,593.559 C489.553,593.559 577.444,656.575 542.055,697.301" fill-opacity="0" stroke="#000000" stroke-width="1"/>
    <path d="M479.722,626.707 C474.526,608.012 475.545,606.383 452.571,593.559" fill-opacity="0" stroke="#000000" stroke-width="1"/>
    <path d="M452.571,593.559 C483.514,588.865 486.234,588.474 505.828,579.716" fill-opacity="0" stroke="#000000" stroke-width="1"/>
  </g>
  <defs/>
</svg>
