<?xml version="1.0" encoding="UTF-8"?>
<!DOCTYPE svg PUBLIC "-//W3C//DTD SVG 1.1//EN" "http://www.w3.org/Graphics/SVG/1.1/DTD/svg11.dtd">
<svg version="1.1" xmlns="http://www.w3.org/2000/svg" xmlns:xlink="http://www.w3.org/1999/xlink" x="0" y="0" width="1775" height="2445" viewBox="0, 0, 1775, 2445">
  <g id="black">
    <path d="M339.5,304.747 L1439.5,303.34" fill-opacity="0" stroke="#000000" stroke-width="25"/>
    <path d="M339.5,334.747 L1439.5,333.34" fill-opacity="0" stroke="#000000" stroke-width="25"/>
    <path d="M339.5,364.747 L1439.5,363.34" fill-opacity="0" stroke="#000000" stroke-width="25"/>
    <path d="M339.5,394.747 L1439.5,393.34" fill-opacity="0" stroke="#000000" stroke-width="25"/>
    <path d="M339.5,424.747 L1439.5,423.34" fill-opacity="0" stroke="#000000" stroke-width="25"/>
    <path d="M339.5,454.747 L1439.5,453.34" fill-opacity="0" stroke="#000000" stroke-width="25"/>
    <path d="M339.5,484.747 L1439.5,483.34" fill-opacity="0" stroke="#000000" stroke-width="25"/>
    <path d="M339.5,514.747 L1439.5,513.339" fill-opacity="0" stroke="#000000" stroke-width="25"/>
    <path d="M339.5,544.747 L1439.5,543.339" fill-opacity="0" stroke="#000000" stroke-width="25"/>
    <path d="M339.5,574.747 L1439.5,573.34" fill-opacity="0" stroke="#000000" stroke-width="25"/>
    <path d="M339.5,604.747 L1439.5,603.34" fill-opacity="0" stroke="#000000" stroke-width="25"/>
    <path d="M339.5,634.747 L1439.5,633.34" fill-opacity="0" stroke="#000000" stroke-width="25"/>
    <path d="M339.5,664.747 L1439.5,663.34" fill-opacity="0" stroke="#000000" stroke-width="25"/>
    <path d="M339.5,694.747 L1439.5,693.34" fill-opacity="0" stroke="#000000" stroke-width="25"/>
    <path d="M339.5,724.747 L1439.5,723.34" fill-opacity="0" stroke="#000000" stroke-width="25"/>
    <path d="M339.5,754.747 L1439.5,753.34" fill-opacity="0" stroke="#000000" stroke-width="25"/>
    <path d="M339.5,784.747 L1439.5,783.34" fill-opacity="0" stroke="#000000" stroke-width="25"/>
    <path d="M339.5,814.747 L1439.5,813.34" fill-opacity="0" stroke="#000000" stroke-width="25"/>
    <path d="M339.5,844.747 L1439.5,843.34" fill-opacity="0" stroke="#000000" stroke-width="25"/>
    <path d="M339.5,874.747 L1439.5,873.34" fill-opacity="0" stroke="#000000" stroke-width="25"/>
    <path d="M339.5,904.747 L1439.5,903.34" fill-opacity="0" stroke="#000000" stroke-width="25"/>
    <path d="M339.5,934.747 L1439.5,933.34" fill-opacity="0" stroke="#000000" stroke-width="25"/>
    <path d="M339.5,964.747 L1439.5,963.34" fill-opacity="0" stroke="#000000" stroke-width="25"/>
    <path d="M339.5,994.747 L1439.5,993.34" fill-opacity="0" stroke="#000000" stroke-width="25"/>
    <path d="M339.5,1024.747 L1439.5,1023.34" fill-opacity="0" stroke="#000000" stroke-width="25"/>
    <path d="M339.5,1054.747 L1439.5,1053.339" fill-opacity="0" stroke="#000000" stroke-width="25"/>
    <path d="M339.5,1084.747 L1439.5,1083.339" fill-opacity="0" stroke="#000000" stroke-width="25"/>
    <path d="M339.5,1114.747 L1439.5,1113.339" fill-opacity="0" stroke="#000000" stroke-width="25"/>
    <path d="M339.5,1144.747 L1439.5,1143.339" fill-opacity="0" stroke="#000000" stroke-width="25"/>
    <path d="M339.5,1174.747 L1439.5,1173.339" fill-opacity="0" stroke="#000000" stroke-width="25"/>
    <path d="M339.5,1204.747 L1439.5,1203.339" fill-opacity="0" stroke="#000000" stroke-width="25"/>
    <path d="M339.5,1234.747 L1439.5,1233.339" fill-opacity="0" stroke="#000000" stroke-width="25"/>
    <path d="M339.5,1264.747 L1439.5,1263.339" fill-opacity="0" stroke="#000000" stroke-width="25"/>
    <path d="M339.5,1294.747 L1439.5,1293.339" fill-opacity="0" stroke="#000000" stroke-width="25"/>
    <path d="M339.5,1324.747 L1439.5,1323.339" fill-opacity="0" stroke="#000000" stroke-width="25"/>
    <path d="M339.5,1354.747 L1439.5,1353.339" fill-opacity="0" stroke="#000000" stroke-width="25"/>
    <path d="M339.5,1384.747 L1439.5,1383.339" fill-opacity="0" stroke="#000000" stroke-width="25"/>
    <path d="M339.5,1414.747 L1439.5,1413.339" fill-opacity="0" stroke="#000000" stroke-width="25"/>
    <path d="M339.5,1444.747 L1439.5,1443.339" fill-opacity="0" stroke="#000000" stroke-width="25"/>
    <path d="M339.5,1474.747 L1439.5,1473.339" fill-opacity="0" stroke="#000000" stroke-width="25"/>
    <path d="M339.5,1504.747 L1439.5,1503.339" fill-opacity="0" stroke="#000000" stroke-width="25"/>
    <path d="M339.5,1534.747 L1439.5,1533.339" fill-opacity="0" stroke="#000000" stroke-width="25"/>
    <path d="M339.5,1564.747 L1439.5,1563.339" fill-opacity="0" stroke="#000000" stroke-width="25"/>
    <path d="M339.5,1594.747 L1439.5,1593.339" fill-opacity="0" stroke="#000000" stroke-width="25"/>
    <path d="M339.5,1624.747 L1439.5,1623.339" fill-opacity="0" stroke="#000000" stroke-width="25"/>
    <path d="M339.5,1654.747 L1439.5,1653.339" fill-opacity="0" stroke="#000000" stroke-width="25"/>
    <path d="M339.5,1684.747 L1439.5,1683.339" fill-opacity="0" stroke="#000000" stroke-width="25"/>
    <path d="M339.5,1714.747 L1439.5,1713.339" fill-opacity="0" stroke="#000000" stroke-width="25"/>
    <path d="M339.5,1744.747 L1439.5,1743.339" fill-opacity="0" stroke="#000000" stroke-width="25"/>
    <path d="M339.5,1774.747 L1439.5,1773.339" fill-opacity="0" stroke="#000000" stroke-width="25"/>
    <path d="M339.5,1804.747 L1439.5,1803.339" fill-opacity="0" stroke="#000000" stroke-width="25"/>
    <path d="M339.5,1834.747 L1439.5,1833.339" fill-opacity="0" stroke="#000000" stroke-width="25"/>
    <path d="M339.5,1864.747 L1439.5,1863.339" fill-opacity="0" stroke="#000000" stroke-width="25"/>
    <path d="M339.5,1894.747 L1439.5,1893.339" fill-opacity="0" stroke="#000000" stroke-width="25"/>
    <path d="M339.5,1924.747 L1439.5,1923.339" fill-opacity="0" stroke="#000000" stroke-width="25"/>
    <path d="M339.5,1954.747 L1439.5,1953.339" fill-opacity="0" stroke="#000000" stroke-width="25"/>
    <path d="M339.5,1984.747 L1439.5,1983.339" fill-opacity="0" stroke="#000000" stroke-width="25"/>
    <path d="M339.5,2013.907 L1439.5,2012.5" fill-opacity="0" stroke="#000000" stroke-width="25"/>
    <path d="M339.5,2043.907 L1439.5,2042.5" fill-opacity="0" stroke="#000000" stroke-width="25"/>
    <path d="M339.5,2073.907 L1439.5,2072.5" fill-opacity="0" stroke="#000000" stroke-width="25"/>
    <path d="M339.5,2103.907 L1439.5,2102.5" fill-opacity="0" stroke="#000000" stroke-width="25"/>
    <path d="M339.5,2133.907 L1439.5,2132.5" fill-opacity="0" stroke="#000000" stroke-width="25"/>
  </g>
</svg>
