<?xml version="1.0" encoding="UTF-8" standalone="no"?>
<!-- Created with Inkscape (http://www.inkscape.org/) -->

<svg
   xmlns:dc="http://purl.org/dc/elements/1.1/"
   xmlns:cc="http://creativecommons.org/ns#"
   xmlns:rdf="http://www.w3.org/1999/02/22-rdf-syntax-ns#"
   xmlns:svg="http://www.w3.org/2000/svg"
   xmlns="http://www.w3.org/2000/svg"
   xmlns:xlink="http://www.w3.org/1999/xlink"
   xmlns:sodipodi="http://sodipodi.sourceforge.net/DTD/sodipodi-0.dtd"
   xmlns:inkscape="http://www.inkscape.org/namespaces/inkscape"
   width="323.7648"
   height="662.97729"
   id="svg5601"
   version="1.1"
   inkscape:version="0.48.4 r9939"
   sodipodi:docname="Новый документ 7">
  <defs
     id="defs5603">
    <linearGradient
       inkscape:collect="always"
       xlink:href="#linearGradient3788"
       id="linearGradient5535"
       gradientUnits="userSpaceOnUse"
       gradientTransform="matrix(-0.98389138,0.17876734,0.17876734,0.98389138,2464.9905,537.20561)"
       x1="-75.128181"
       y1="604.375"
       x2="315"
       y2="604.375" />
    <linearGradient
       id="linearGradient3788">
      <stop
         style="stop-color:#ff6600;stop-opacity:1;"
         offset="0"
         id="stop3790" />
      <stop
         style="stop-color:#ffde00;stop-opacity:1;"
         offset="1"
         id="stop3792" />
    </linearGradient>
    <linearGradient
       inkscape:collect="always"
       xlink:href="#linearGradient3788"
       id="linearGradient5532"
       gradientUnits="userSpaceOnUse"
       gradientTransform="matrix(-0.98389138,0.17876734,0.17876734,0.98389138,2464.9905,537.20561)"
       x1="767"
       y1="606.375"
       x2="380"
       y2="607.375" />
    <linearGradient
       id="linearGradient5624">
      <stop
         style="stop-color:#ff6600;stop-opacity:1;"
         offset="0"
         id="stop5626" />
      <stop
         style="stop-color:#ffde00;stop-opacity:1;"
         offset="1"
         id="stop5628" />
    </linearGradient>
    <linearGradient
       inkscape:collect="always"
       xlink:href="#linearGradient3788"
       id="linearGradient5529"
       gradientUnits="userSpaceOnUse"
       gradientTransform="matrix(-0.98389138,0.17876734,0.17876734,0.98389138,2464.9905,537.20561)"
       x1="347"
       y1="1019.3762"
       x2="346"
       y2="648.375" />
    <linearGradient
       id="linearGradient5631">
      <stop
         style="stop-color:#ff6600;stop-opacity:1;"
         offset="0"
         id="stop5633" />
      <stop
         style="stop-color:#ffde00;stop-opacity:1;"
         offset="1"
         id="stop5635" />
    </linearGradient>
    <linearGradient
       inkscape:collect="always"
       xlink:href="#linearGradient3788"
       id="linearGradient5526"
       gradientUnits="userSpaceOnUse"
       gradientTransform="matrix(-0.98389138,0.17876734,0.17876734,0.98389138,2464.9905,537.20561)"
       x1="349"
       y1="186.375"
       x2="348"
       y2="563.375" />
    <linearGradient
       id="linearGradient5638">
      <stop
         style="stop-color:#ff6600;stop-opacity:1;"
         offset="0"
         id="stop5640" />
      <stop
         style="stop-color:#ffde00;stop-opacity:1;"
         offset="1"
         id="stop5642" />
    </linearGradient>
  </defs>
  <sodipodi:namedview
     id="base"
     pagecolor="#ffffff"
     bordercolor="#666666"
     borderopacity="1.0"
     inkscape:pageopacity="0.0"
     inkscape:pageshadow="2"
     inkscape:zoom="0.7"
     inkscape:cx="365.21011"
     inkscape:cy="319.5606"
     inkscape:document-units="px"
     inkscape:current-layer="layer1"
     showgrid="false"
     fit-margin-top="0"
     fit-margin-left="0"
     fit-margin-right="0"
     fit-margin-bottom="0"
     inkscape:window-width="1920"
     inkscape:window-height="1056"
     inkscape:window-x="0"
     inkscape:window-y="24"
     inkscape:window-maximized="1" />
  <metadata
     id="metadata5606">
    <rdf:RDF>
      <cc:Work
         rdf:about="">
        <dc:format>image/svg+xml</dc:format>
        <dc:type
           rdf:resource="http://purl.org/dc/dcmitype/StillImage" />
        <dc:title></dc:title>
      </cc:Work>
    </rdf:RDF>
  </metadata>
  <g
     inkscape:label="Layer 1"
     inkscape:groupmode="layer"
     id="layer1"
     transform="translate(-275.25599,-189.85698)">
    <g
       transform="matrix(0.33395304,0,0,0.33395304,-297.21684,-57.594789)"
       id="g5582">
      <path
         style="fill:#87de87;fill-opacity:1;stroke:#ffffff;stroke-width:20;stroke-miterlimit:4;stroke-opacity:1;stroke-dasharray:none"
         d="m 2011.6453,2363.2305 c 0,0 -10.7862,87.6768 -8.5303,133.3522 2.7611,55.9066 60.0608,159.1314 60.0608,159.1314 0,0 -202.5016,-69.0037 -265.1844,-148.6197 -54.1155,-68.7344 -83.1364,-166.0221 -70.998,-252.6567 13.2066,-94.259 149.8191,-243.0778 149.8191,-243.0778 0,0 -20.1784,168.5283 14.4211,241.2976 23.3994,49.2133 120.4117,110.573 120.4117,110.573 z"
         id="path4879"
         inkscape:connector-curvature="0"
         sodipodi:nodetypes="cscaacac" />
      <path
         style="fill:#87de87;fill-opacity:1;stroke:#ffffff;stroke-width:20;stroke-miterlimit:4;stroke-opacity:1;stroke-dasharray:none"
         d="m 2182.9219,2141.2681 c 0,0 130.26,17.8293 184,-12 60.984,-33.8502 84.4853,-159.6569 84.4853,-159.6569 0,0 16.8119,218.4611 -45.4853,289.6569 -93.6978,107.0818 -363,86 -363,86 18.2622,-65.4178 63.0831,-133.25 140,-204 z"
         id="path4881"
         inkscape:connector-curvature="0"
         sodipodi:nodetypes="cscscc" />
      <path
         style="font-size:medium;font-style:normal;font-variant:normal;font-weight:normal;font-stretch:normal;text-indent:0;text-align:start;text-decoration:none;line-height:normal;letter-spacing:normal;word-spacing:normal;text-transform:none;direction:ltr;block-progression:tb;writing-mode:lr-tb;text-anchor:start;baseline-shift:baseline;color:#000000;fill:#87de87;fill-opacity:1;stroke:#ffffff;stroke-width:20;stroke-miterlimit:4;stroke-opacity:1;stroke-dasharray:none;marker:none;visibility:visible;display:inline;overflow:visible;enable-background:accumulate;font-family:Sans;-inkscape-font-specification:Sans"
         d="m 2127.8007,1306.9143 -24.0861,35.8332 c 110.3625,15.8612 212.4618,86.2357 266.0747,183.428 53.6127,97.1922 58.4085,220.6061 12.522,321.6306 -41.7541,91.9267 -121.234,163.815 -199.0248,236.4988 -77.9433,72.8266 -158.9203,153.4391 -193.6744,259.4697 -21.0331,64.1698 -23.034,134.0843 -5.7297,199.3454 17.3045,65.261 53.6991,125.1134 103.8192,170.6412 l 43.4382,-26.7051 c -44.851,-40.7415 -77.7091,-94.7769 -93.1944,-153.1773 -15.4851,-58.4003 -13.6614,-121.4779 5.1606,-178.9017 31.2325,-95.2866 106.6998,-172.0803 183.9604,-244.2688 77.4135,-72.3316 161.3992,-146.9542 207.2968,-248.0032 50.8144,-111.8737 45.5581,-246.2881 -13.8122,-353.9182 -59.3704,-107.63 -170.5357,-184.3081 -292.7503,-201.8726 z"
         id="path4883"
         inkscape:connector-curvature="0"
         sodipodi:nodetypes="ccsssssccsssssc" />
      <g
         id="g5559">
        <g
           style="fill:#f76300;fill-opacity:1"
           transform="matrix(-1.0031377,-0.08250874,-0.08250874,1.0031377,322.82154,601.0102)"
           id="g4885">
          <path
             inkscape:connector-curvature="0"
             id="path4887"
             d="m -1883.788,111.83226 c -56.9977,-98.722928 -183.2342,-132.547895 -281.9572,-75.550178 -98.723,56.99769 -132.5479,183.234198 -75.5501,281.957158 56.9976,98.72292 183.2342,132.5479 281.9572,75.55018 98.7229,-56.99772 132.5478,-183.23423 75.5501,-281.95716 z"
             style="fill:#f76300;fill-opacity:1;fill-rule:nonzero;stroke:#ffffff;stroke-width:20.4363327;stroke-linecap:butt;stroke-linejoin:round;stroke-miterlimit:4;stroke-opacity:1;stroke-dasharray:none;stroke-dashoffset:0"
             sodipodi:nodetypes="sssss" />
          <path
             style="fill:#f76300;fill-opacity:1;fill-rule:nonzero;stroke:#ffffff;stroke-width:20.4363327;stroke-linecap:butt;stroke-linejoin:round;stroke-miterlimit:4;stroke-opacity:1;stroke-dasharray:none;stroke-dashoffset:0"
             d="m -1633.4429,545.44265 c -56.9977,-98.72293 -183.2343,-132.54789 -281.9572,-75.55017 -98.7229,56.99771 -132.5478,183.23422 -75.5501,281.95715 56.9976,98.72293 183.2342,132.54789 281.9571,75.55018 98.723,-56.99772 132.5478,-183.23422 75.5502,-281.95716 z"
             id="path4889"
             inkscape:connector-curvature="0"
             sodipodi:nodetypes="sssss" />
          <path
             style="fill:#f76300;fill-opacity:1;fill-rule:nonzero;stroke:#ffffff;stroke-width:20.4363327;stroke-linecap:butt;stroke-linejoin:round;stroke-miterlimit:4;stroke-opacity:1;stroke-dasharray:none;stroke-dashoffset:0"
             d="m -2257.3777,378.25982 c -98.7231,56.99769 -132.5481,183.2342 -75.5503,281.95715 56.9977,98.72294 183.2343,132.54789 281.9572,75.55018 98.7229,-56.99771 132.5478,-183.23422 75.5501,-281.95716 -56.9977,-98.72292 -183.2341,-132.54789 -281.957,-75.55017 z"
             id="path4891"
             inkscape:connector-curvature="0"
             sodipodi:nodetypes="sssss" />
          <path
             inkscape:connector-curvature="0"
             id="path4893"
             d="m -1823.7674,127.91474 c -98.7229,56.99771 -132.5479,183.23423 -75.5501,281.95715 56.9976,98.72293 183.2341,132.5479 281.957,75.55017 98.7229,-56.9977 132.548,-183.23422 75.5502,-281.95715 -56.9977,-98.72292 -183.2342,-132.547887 -281.9571,-75.55017 z"
             style="fill:#f76300;fill-opacity:1;fill-rule:nonzero;stroke:#ffffff;stroke-width:20.4363327;stroke-linecap:butt;stroke-linejoin:round;stroke-miterlimit:4;stroke-opacity:1;stroke-dasharray:none;stroke-dashoffset:0"
             sodipodi:nodetypes="sssss" />
        </g>
        <path
           sodipodi:nodetypes="cscccc"
           inkscape:connector-curvature="0"
           id="path4895"
           d="m 2435.5813,951.51194 c 109.7643,-19.94356 214.9135,52.87066 234.8571,162.63506 19.9435,109.7644 -52.8707,214.9135 -162.6351,234.8571 -288.6562,22.2045 -280.2587,-353.12493 -72.222,-397.49216 z m -114.6255,264.94296 c 216.7163,264.1718 108.3582,132.0859 0,0 z"
           style="fill:url(#linearGradient5535);fill-opacity:1;fill-rule:nonzero;stroke:#ffffff;stroke-width:20;stroke-linecap:butt;stroke-linejoin:round;stroke-miterlimit:4;stroke-opacity:1;stroke-dasharray:none;stroke-dashoffset:0" />
        <path
           sodipodi:nodetypes="sssss"
           style="fill:url(#linearGradient5532);fill-opacity:1;fill-rule:nonzero;stroke:#ffffff;stroke-width:20;stroke-linecap:butt;stroke-linejoin:round;stroke-miterlimit:4;stroke-opacity:1;stroke-dasharray:none;stroke-dashoffset:0"
           d="m 1953.4745,1039.1079 c 109.7644,-19.9435 214.9135,52.8707 234.8571,162.6351 19.9435,109.7644 -52.8707,214.9135 -162.6351,234.8571 -109.7644,19.9435 -214.9135,-52.8707 -234.857,-162.6351 -19.9436,-109.7644 52.8706,-214.9135 162.635,-234.8571 z"
           id="path4897"
           inkscape:connector-curvature="0" />
        <path
           sodipodi:nodetypes="sssss"
           style="fill:url(#linearGradient5529);fill-opacity:1;fill-rule:nonzero;stroke:#ffffff;stroke-width:20;stroke-linecap:butt;stroke-linejoin:round;stroke-miterlimit:4;stroke-opacity:1;stroke-dasharray:none;stroke-dashoffset:0"
           d="m 2473.1829,1398.9984 c 19.9436,109.7644 -52.8706,214.9135 -162.635,234.8571 -109.7644,19.9435 -214.9135,-52.8707 -234.857,-162.6351 -19.9436,-109.7644 52.8706,-214.9135 162.635,-234.857 109.7644,-19.9436 214.9134,52.8706 234.857,162.635 z"
           id="path4899"
           inkscape:connector-curvature="0" />
        <path
           sodipodi:nodetypes="sssss"
           inkscape:connector-curvature="0"
           id="path4901"
           d="m 2385.587,916.89161 c 19.9435,109.76439 -52.8707,214.91349 -162.6351,234.85709 -109.7644,19.9436 -214.9135,-52.8706 -234.8571,-162.63509 -19.9435,-109.76442 52.8707,-214.91351 162.6351,-234.85707 109.7644,-19.94355 214.9135,52.87064 234.8571,162.63507 z"
           style="fill:url(#linearGradient5526);fill-opacity:1;fill-rule:nonzero;stroke:#ffffff;stroke-width:20;stroke-linecap:butt;stroke-linejoin:round;stroke-miterlimit:4;stroke-opacity:1;stroke-dasharray:none;stroke-dashoffset:0" />
        <path
           style="fill:#ffac3b;fill-opacity:1;fill-rule:nonzero;stroke:#ffffff;stroke-width:20;stroke-linecap:butt;stroke-linejoin:round;stroke-miterlimit:4;stroke-opacity:1;stroke-dasharray:none;stroke-dashoffset:0"
           d="m 2183.5885,951.88398 c 134.0441,-24.35503 262.452,64.56552 286.807,198.60962 24.355,134.0441 -64.5655,262.452 -198.6096,286.807 -134.044,24.3551 -262.4519,-64.5655 -286.807,-198.6096 -24.3551,-134.0441 64.5655,-262.45199 198.6096,-286.80702 z m 12.2254,67.28542 c -96.8834,17.6032 -161.1526,110.4129 -143.5495,207.2962 17.6032,96.8834 110.4127,161.1527 207.2962,143.5496 96.8833,-17.6032 161.1526,-110.4128 143.5494,-207.2962 -17.6031,-96.8834 -110.4127,-161.1527 -207.2961,-143.5496 z"
           id="path4903"
           inkscape:connector-curvature="0" />
        <path
           sodipodi:nodetypes="sssss"
           inkscape:connector-curvature="0"
           id="path4905"
           d="m 2183.5885,951.88398 c 134.0441,-24.35503 262.452,64.56552 286.807,198.60962 24.355,134.0441 -64.5655,262.452 -198.6096,286.807 -134.044,24.3551 -262.4519,-64.5655 -286.807,-198.6096 -24.3551,-134.0441 64.5655,-262.45199 198.6096,-286.80702 z"
           style="fill:#ffac3b;fill-opacity:1;fill-rule:nonzero;stroke:#ffffff;stroke-width:20;stroke-linecap:butt;stroke-linejoin:round;stroke-miterlimit:4;stroke-opacity:1;stroke-dasharray:none;stroke-dashoffset:0" />
        <path
           transform="matrix(-1.7642704,-0.1451124,-0.1451124,1.7642704,-1144.5636,140.70199)"
           d="m -1829.9923,437.17929 c 0,64.82703 -52.5527,117.37972 -117.3798,117.37972 -64.827,0 -117.3797,-52.55269 -117.3797,-117.37972 0,-64.82703 52.5527,-117.37972 117.3797,-117.37972 64.8271,0 117.3798,52.55269 117.3798,117.37972 z"
           sodipodi:ry="117.37972"
           sodipodi:rx="117.37972"
           sodipodi:cy="437.17929"
           sodipodi:cx="-1947.3721"
           id="path4907"
           style="fill:#ffff08;fill-opacity:1;fill-rule:nonzero;stroke:none"
           sodipodi:type="arc" />
        <path
           sodipodi:type="arc"
           style="fill:#ffda08;fill-opacity:1;fill-rule:nonzero;stroke:#ffffff;stroke-width:14.37802124;stroke-miterlimit:4;stroke-opacity:1;stroke-dasharray:none"
           id="path4909"
           sodipodi:cx="-1947.3721"
           sodipodi:cy="437.17929"
           sodipodi:rx="117.37972"
           sodipodi:ry="117.37972"
           d="m -1829.9923,437.17929 c 0,64.82703 -52.5527,117.37972 -117.3798,117.37972 -64.827,0 -117.3797,-52.55269 -117.3797,-117.37972 0,-64.82703 52.5527,-117.37972 117.3797,-117.37972 64.8271,0 117.3798,52.55269 117.3798,117.37972 z"
           transform="matrix(-1.3863305,-0.11402659,-0.11402659,1.3863305,-422.16385,366.46517)" />
      </g>
    </g>
  </g>
</svg>
