<?xml version="1.0" encoding="UTF-8"?>
<!DOCTYPE svg PUBLIC "-//W3C//DTD SVG 1.1//EN" "http://www.w3.org/Graphics/SVG/1.1/DTD/svg11.dtd">
<svg version="1.1" xmlns="http://www.w3.org/2000/svg" xmlns:xlink="http://www.w3.org/1999/xlink" x="0" y="0" width="1775" height="2445" viewBox="0, 0, 1775, 2445">
  <g id="black">
    <path d="M783.148,659.684 C783.148,659.684 845.216,568.441 878.046,524.111 C922.111,464.615 954.535,391.986 1014.971,349.221 C1050.785,323.88 1102.005,284.743 1139.701,307.195 C1180.679,331.602 1175.878,401.968 1164.103,448.188 C1136.625,556.039 956.681,709.843 956.681,709.843" fill-opacity="0" stroke="#000000" stroke-width="1"/>
    <path d="M1025.796,1721.222 C1008.896,1696.809 1128.47,1623.502 1191.636,1638.779 C1229.109,1647.842 1273.601,1671.838 1287.499,1707.8 C1308.089,1761.081 1274.957,1825.411 1244.361,1873.64 C1222.972,1907.359 1189.24,1926.148 1151.375,1938.827 C1120.126,1949.291 1053.594,1945.537 1053.594,1945.537" fill-opacity="0" stroke="#000000" stroke-width="1"/>
    <path d="M1113.944,891.489 C1645.776,787.634 1481.742,287.076 1004.399,732.823 C670.133,543.61 445.134,760.749 597.433,1031.12 C609.371,1058.321 614.805,1077.387 574.094,1080.789 C500.556,1056.58 401.609,1097.631 400.588,1185.432 C393.588,1256.362 459.731,1270.012 501.159,1302.268 C374.84,1407.092 223.411,1777.947 476.703,1959.129 C413.341,1932.21 313.58,2016.586 379.309,2071.522 C443.349,2116.655 521.304,2068.303 589.276,2083.155 C597.797,2156.051 682.34,2149.087 736.96,2139.921 C774.24,2135.114 782.622,2115.729 812.762,2110.78 C1259.249,2037.458 951.749,1670.424 984.347,1474.425 C1151.194,1415.793 1170.273,1270.129 1040.738,1138.85 C1161.88,1066.333 1117.517,898.477 1113.935,891.476 z" fill-opacity="0" stroke="#000000" stroke-width="1"/>
    <path d="M1014.951,1313.12 C915.434,1254.78 807.723,1281.131 807.529,1347.691 C807.184,1465.098 920.996,1470.454 985.126,1473.095" fill-opacity="0" stroke="#000000" stroke-width="1"/>
    <path d="M549.301,1149.062 C549.301,1149.062 688.471,1189.963 645.558,1271.752 C614.303,1331.32 496.423,1304.289 496.423,1304.289" fill-opacity="0" stroke="#000000" stroke-width="1"/>
    <path d="M1088.177,789.812 C1191.722,727.15 1301.87,631.469 1385.079,670.507" fill-opacity="0" stroke="#000000" stroke-width="1"/>
    <g>
      <path d="M473.214,1956.93 L609.808,2026.072" fill="#FFFFFF"/>
      <path d="M473.714,1957.43 L610.308,2026.572" fill-opacity="0" stroke="#000000" stroke-width="1"/>
    </g>
    <g>
      <path d="M588.742,2078.147 C616.905,1938.797 728.135,1989.557 796.958,2011.906" fill="#FFFFFF"/>
      <path d="M589.242,2078.647 C617.405,1939.297 728.635,1990.057 797.458,2012.406" fill-opacity="0" stroke="#000000" stroke-width="1"/>
    </g>
    <path d="M760.062,848.113 C760.062,860.842 749.441,871.159 736.338,871.159 C723.235,871.159 712.613,860.842 712.613,848.113 C712.613,835.384 723.235,825.067 736.338,825.067 C749.441,825.067 760.062,835.384 760.062,848.113 z" fill-opacity="0" stroke="#000000" stroke-width="1"/>
    <path d="M628.539,753.2 C654.847,741.844 676.784,746.516 692.256,774.892" fill-opacity="0" stroke="#000000" stroke-width="1"/>
    <path d="M887.507,835.873 C923.091,828.976 950.694,834.491 953.938,877.9" fill-opacity="0" stroke="#000000" stroke-width="1"/>
    <path d="M678.679,947.106 C797.381,969.018 768.641,988.966 822.389,966.086" fill-opacity="0" stroke="#000000" stroke-width="1"/>
    <g>
      <path d="M568.448,802.842 L526.422,773.015" fill="#FFFFFF"/>
      <path d="M568.948,803.342 L526.922,773.515" fill-opacity="0" stroke="#000000" stroke-width="1"/>
    </g>
    <g>
      <path d="M560.29,844.929 L491.148,844.929" fill="#FFFFFF"/>
      <path d="M560.79,845.429 L491.648,845.429" fill-opacity="0" stroke="#000000" stroke-width="1"/>
    </g>
    <g>
      <path d="M553.526,895.068 L496.586,908.626" fill="#FFFFFF"/>
      <path d="M554.026,895.568 L497.086,909.126" fill-opacity="0" stroke="#000000" stroke-width="1"/>
    </g>
    <path d="M953.938,877.9 C917.248,877.9 887.507,859.083 887.507,835.873" fill-opacity="0" stroke="#000000" stroke-width="1"/>
    <path d="M692.256,774.892 C657.066,774.892 654.522,799.762 628.539,753.2" fill-opacity="0" stroke="#000000" stroke-width="1"/>
  </g>
</svg>
