<?xml version="1.0" encoding="UTF-8"?>
<!DOCTYPE svg PUBLIC "-//W3C//DTD SVG 1.1//EN" "http://www.w3.org/Graphics/SVG/1.1/DTD/svg11.dtd">
<svg version="1.1" xmlns="http://www.w3.org/2000/svg" xmlns:xlink="http://www.w3.org/1999/xlink" x="0" y="0" width="1200" height="1300" viewBox="0, 0, 1200, 1300">
  <g id="black">
    <path d="M307.201,690.221 C307.201,690.221 278.368,732.607 263.117,753.2 C242.647,780.838 227.585,814.577 199.51,834.443 C182.873,846.215 159.079,864.396 141.568,853.966 C122.532,842.628 124.762,809.94 130.232,788.469 C142.997,738.368 226.588,666.92 226.588,666.92" fill-opacity="0" stroke="#000000" stroke-width="1"/>
    <path d="M194.481,197.094 C202.332,208.435 146.785,242.489 117.442,235.392 C100.034,231.182 79.366,220.035 72.91,203.329 C63.345,178.578 78.736,148.694 92.949,126.29 C102.885,110.626 118.555,101.898 136.145,96.008 C150.661,91.147 181.568,92.891 181.568,92.891" fill-opacity="0" stroke="#000000" stroke-width="1"/>
    <path d="M153.533,582.538 C-93.524,630.783 -17.324,863.312 204.421,656.245 C359.701,744.142 464.222,643.272 393.473,517.674 C387.927,505.038 385.403,496.181 404.315,494.601 C438.476,505.847 484.441,486.777 484.915,445.99 C488.167,413.04 457.441,406.699 438.196,391.715 C496.876,343.02 567.221,170.743 449.557,86.577 C478.991,99.082 525.334,59.886 494.8,34.366 C465.051,13.4 428.838,35.861 397.262,28.962 C393.304,-4.901 354.03,-1.666 328.657,2.592 C311.339,4.825 307.445,13.83 293.444,16.129 C86.033,50.19 228.879,220.692 213.736,311.741 C136.229,338.978 127.366,406.645 187.54,467.629 C131.265,501.316 151.873,579.292 153.537,582.544 z" fill-opacity="0" stroke="#000000" stroke-width="1"/>
    <path d="M199.519,386.674 C245.749,413.775 295.785,401.534 295.875,370.614 C296.035,316.074 243.165,313.586 213.374,312.359" fill-opacity="0" stroke="#000000" stroke-width="1"/>
    <path d="M415.832,462.885 C415.832,462.885 351.182,443.885 371.117,405.891 C385.636,378.219 440.396,390.776 440.396,390.776" fill-opacity="0" stroke="#000000" stroke-width="1"/>
    <path d="M165.503,629.771 C117.402,658.88 66.234,703.328 27.58,685.193" fill-opacity="0" stroke="#000000" stroke-width="1"/>
    <g>
      <path d="M450.945,87.366 L387.492,55.247" fill="#FFFFFF"/>
      <path d="M450.945,87.366 L387.492,55.247" fill-opacity="0" stroke="#000000" stroke-width="1"/>
    </g>
    <g>
      <path d="M397.278,31.056 C384.195,95.79 332.524,72.21 300.553,61.828" fill="#FFFFFF"/>
      <path d="M397.278,31.056 C384.195,95.79 332.524,72.21 300.553,61.828" fill-opacity="0" stroke="#000000" stroke-width="1"/>
    </g>
    <path d="M317.925,602.688 C317.925,596.775 322.859,591.982 328.946,591.982 C335.033,591.982 339.967,596.775 339.967,602.688 C339.967,608.601 335.033,613.394 328.946,613.394 C322.859,613.394 317.925,608.601 317.925,602.688 z" fill-opacity="0" stroke="#000000" stroke-width="1"/>
    <path d="M379.023,646.779 C366.802,652.054 356.611,649.884 349.424,636.702" fill-opacity="0" stroke="#000000" stroke-width="1"/>
    <path d="M258.722,608.374 C242.192,611.578 229.369,609.016 227.862,588.851" fill-opacity="0" stroke="#000000" stroke-width="1"/>
    <path d="M355.731,556.702 C300.589,546.523 313.94,537.256 288.972,547.885" fill-opacity="0" stroke="#000000" stroke-width="1"/>
    <g>
      <path d="M406.705,623.486 L426.228,637.342" fill="#FFFFFF"/>
      <path d="M406.705,623.486 L426.228,637.342" fill-opacity="0" stroke="#000000" stroke-width="1"/>
    </g>
    <g>
      <path d="M410.495,603.935 L442.614,603.935" fill="#FFFFFF"/>
      <path d="M410.495,603.935 L442.614,603.935" fill-opacity="0" stroke="#000000" stroke-width="1"/>
    </g>
    <g>
      <path d="M413.637,580.643 L440.088,574.345" fill="#FFFFFF"/>
      <path d="M413.637,580.643 L440.088,574.345" fill-opacity="0" stroke="#000000" stroke-width="1"/>
    </g>
    <path d="M227.862,588.851 C244.906,588.851 258.722,597.592 258.722,608.374" fill-opacity="0" stroke="#000000" stroke-width="1"/>
    <path d="M349.424,636.702 C365.771,636.702 366.953,625.149 379.023,646.779" fill-opacity="0" stroke="#000000" stroke-width="1"/>
  </g>
</svg>
