<?xml version="1.0" encoding="UTF-8"?>
<!DOCTYPE svg PUBLIC "-//W3C//DTD SVG 1.1//EN" "http://www.w3.org/Graphics/SVG/1.1/DTD/svg11.dtd">
<svg version="1.1" xmlns="http://www.w3.org/2000/svg" xmlns:xlink="http://www.w3.org/1999/xlink" x="0" y="0" width="1200" height="1300" viewBox="0, 0, 1200, 1300">
  <g id="black">
    <path d="M477.199,371.292 C477.199,371.292 506.032,328.906 521.283,308.313 C541.753,280.675 556.815,246.936 584.89,227.07 C601.527,215.298 625.321,197.117 642.832,207.547 C661.868,218.885 659.638,251.573 654.168,273.044 C641.403,323.145 557.812,394.593 557.812,394.593" fill-opacity="0" stroke="#000000" stroke-width="1"/>
    <path d="M589.919,864.419 C582.068,853.078 637.615,819.024 666.958,826.121 C684.366,830.331 705.034,841.478 711.49,858.184 C721.055,882.935 705.664,912.819 691.451,935.223 C681.515,950.887 665.845,959.615 648.255,965.505 C633.739,970.366 602.832,968.622 602.832,968.622" fill-opacity="0" stroke="#000000" stroke-width="1"/>
    <path d="M630.867,478.975 C877.924,430.73 801.724,198.201 579.979,405.268 C424.699,317.371 320.178,418.241 390.927,543.839 C396.473,556.475 398.997,565.332 380.085,566.912 C345.924,555.666 299.959,574.736 299.485,615.523 C296.233,648.473 326.959,654.814 346.204,669.798 C287.524,718.493 217.179,890.77 334.843,974.936 C305.409,962.431 259.066,1001.627 289.6,1027.147 C319.349,1048.113 355.562,1025.652 387.138,1032.551 C391.096,1066.414 430.37,1063.179 455.743,1058.921 C473.061,1056.688 476.955,1047.683 490.956,1045.384 C698.367,1011.323 555.521,840.821 570.664,749.772 C648.171,722.535 657.034,654.868 596.86,593.884 C653.135,560.197 632.527,482.221 630.863,478.969 z" fill-opacity="0" stroke="#000000" stroke-width="1"/>
    <path d="M584.881,674.839 C538.651,647.738 488.615,659.979 488.525,690.899 C488.365,745.439 541.235,747.927 571.026,749.154" fill-opacity="0" stroke="#000000" stroke-width="1"/>
    <path d="M368.568,598.628 C368.568,598.628 433.218,617.628 413.283,655.622 C398.764,683.294 344.004,670.737 344.004,670.737" fill-opacity="0" stroke="#000000" stroke-width="1"/>
    <path d="M618.897,431.742 C666.998,402.633 718.166,358.185 756.82,376.32" fill-opacity="0" stroke="#000000" stroke-width="1"/>
    <g>
      <path d="M333.455,974.147 L396.908,1006.266" fill="#FFFFFF"/>
      <path d="M333.455,974.147 L396.908,1006.266" fill-opacity="0" stroke="#000000" stroke-width="1"/>
    </g>
    <g>
      <path d="M387.122,1030.457 C400.205,965.723 451.876,989.303 483.847,999.685" fill="#FFFFFF"/>
      <path d="M387.122,1030.457 C400.205,965.723 451.876,989.303 483.847,999.685" fill-opacity="0" stroke="#000000" stroke-width="1"/>
    </g>
    <path d="M466.475,458.825 C466.475,464.738 461.541,469.531 455.454,469.531 C449.367,469.531 444.433,464.738 444.433,458.825 C444.433,452.912 449.367,448.119 455.454,448.119 C461.541,448.119 466.475,452.912 466.475,458.825 z" fill-opacity="0" stroke="#000000" stroke-width="1"/>
    <path d="M405.377,414.734 C417.598,409.459 427.789,411.629 434.976,424.811" fill-opacity="0" stroke="#000000" stroke-width="1"/>
    <path d="M525.678,453.139 C542.208,449.935 555.031,452.497 556.538,472.662" fill-opacity="0" stroke="#000000" stroke-width="1"/>
    <path d="M428.669,504.811 C483.811,514.99 470.46,524.257 495.428,513.628" fill-opacity="0" stroke="#000000" stroke-width="1"/>
    <g>
      <path d="M377.695,438.027 L358.172,424.171" fill="#FFFFFF"/>
      <path d="M377.695,438.027 L358.172,424.171" fill-opacity="0" stroke="#000000" stroke-width="1"/>
    </g>
    <g>
      <path d="M373.905,457.578 L341.786,457.578" fill="#FFFFFF"/>
      <path d="M373.905,457.578 L341.786,457.578" fill-opacity="0" stroke="#000000" stroke-width="1"/>
    </g>
    <g>
      <path d="M370.763,480.87 L344.312,487.168" fill="#FFFFFF"/>
      <path d="M370.763,480.87 L344.312,487.168" fill-opacity="0" stroke="#000000" stroke-width="1"/>
    </g>
    <path d="M556.538,472.662 C539.494,472.662 525.678,463.921 525.678,453.139" fill-opacity="0" stroke="#000000" stroke-width="1"/>
    <path d="M434.976,424.811 C418.629,424.811 417.447,436.364 405.377,414.734" fill-opacity="0" stroke="#000000" stroke-width="1"/>
  </g>
</svg>
