<?xml version="1.0" encoding="UTF-8"?>
<!DOCTYPE svg PUBLIC "-//W3C//DTD SVG 1.1//EN" "http://www.w3.org/Graphics/SVG/1.1/DTD/svg11.dtd">
<svg version="1.1" xmlns="http://www.w3.org/2000/svg" xmlns:xlink="http://www.w3.org/1999/xlink" x="0px" y="0px" width="612" height="792" viewBox="0, 0, 612, 792">
  <g id="Layer 1">
    <path d="M200.675,127.379 L200.675,75.348 L208.058,75.348 L208.058,97.285 L232.808,97.285 L232.808,75.348 L240.191,75.348 L240.191,127.379 L232.808,127.379 L232.808,102.805 L208.058,102.805 L208.058,127.379 z M281.781,126.148 Q274.82,128.258 269.863,128.258 Q261.425,128.258 256.099,122.65 Q250.773,117.043 250.773,108.113 Q250.773,99.43 255.466,93.875 Q260.16,88.32 267.472,88.32 Q274.398,88.32 278.177,93.242 Q281.956,98.164 281.956,107.234 L281.921,109.379 L257.839,109.379 Q259.351,122.984 271.163,122.984 Q275.488,122.984 281.781,120.664 z M258.156,104.176 L274.995,104.176 Q274.995,93.523 267.05,93.523 Q259.07,93.523 258.156,104.176 z M293.91,127.379 L293.91,71.867 L300.835,71.867 L300.835,127.379 z M314.722,127.379 L314.722,71.867 L321.648,71.867 L321.648,127.379 z M350.476,128.258 Q342.285,128.258 337.398,122.826 Q332.511,117.395 332.511,108.289 Q332.511,99.078 337.415,93.717 Q342.32,88.355 350.722,88.355 Q359.124,88.355 364.029,93.717 Q368.933,99.078 368.933,108.219 Q368.933,117.57 364.011,122.914 Q359.089,128.258 350.476,128.258 z M350.581,123.055 Q361.585,123.055 361.585,108.219 Q361.585,93.559 350.722,93.559 Q339.894,93.559 339.894,108.289 Q339.894,123.055 350.581,123.055 z" fill="#34343B"/>
  </g>
  <defs/>
</svg>
