<?xml version="1.0"?>
<svg xmlns:rdf="http://www.w3.org/1999/02/22-rdf-syntax-ns#" xmlns="http://www.w3.org/2000/svg" xmlns:cc="http://web.resource.org/cc/" xmlns:dc="http://purl.org/dc/elements/1.1/" xmlns:sodipodi="http://inkscape.sourceforge.net/DTD/sodipodi-0.dtd" xmlns:svg="http://www.w3.org/2000/svg" id="svg1389" space="preserve" sodipodi:version="0.32" viewBox="-0.312 -0.661 510 454" version="1.0" sodipodi:docname="Barn.svg" sodipodi:docbase="C:\foo\wikipedia\transfer">
  <sodipodi:namedview id="base" bordercolor="#666666" borderopacity="1.0" borderlayer="top" pagecolor="#ffffff"/>
  <path id="path1399" d="m393.74 331.02l13.24 34.42c2.5 5.73 5 11.03 7.79 16.33 1.77 3.53 4.27 6.76 7.21 9.56l21.18 21.18c1.77 2.06 3.39 3.82 5.15 5.74 1.33 1.47 2.65 3.23 3.68 5 1.03 2.35 2.06 4.71 2.79 7.06 0.45 1.47 0.74 2.94 0.74 4.41 0 1.62-0.29 3.24-0.88 4.86-1.03 3.09-2.21 6.03-3.53 9.12-2.21 5-6.48 8.68-11.62 10.29-1.62 0.45-3.24 1.18-4.71 2.06-1.47 0.89-2.5 2.5-2.8 4.12l-1.03 6.62h28.1l39.86-36.92-45.01-70.46-8.09-13.24-0.73-4.12-5.01-23.54-6.32-32.21-6.77-53.84c6.62 3.68 12.21 8.83 16.48 15l8.97 12.65c2.21 2.8 3.83 6.04 4.86 9.42l10.73 37.22c3.24 7.06 8.98 12.65 16.33 15.59 2.65 1.03 5.44 1.62 8.24 1.62 1.62 0 2.94-0.15 4.41-0.44 4.86-0.89 8.24-5.15 8.24-10.15 0-4.12-2.5-7.95-6.47-9.57-1.62-0.73-3.39-1.61-4.71-2.79-2.5-2.21-4.12-5.15-4.41-8.39l-4.86-43.83c-0.14-3.39-1.32-6.62-3.38-9.12l-24.57-29.57-22.8-25.45c-3.97-4.56-8.82-8.53-14.27-11.47l-20.88-11.48c-1.47-1.32-2.8-2.64-3.98-4.11-2.5-3.39-2.94-7.8-1.17-11.48l10.74-22.36c1.91-2.94 3.09-6.18 3.23-9.56 0.15-1.32 0.15-2.5 0.15-3.82 0-12.8-4.56-25.305-12.95-35.161-3.38-4.119-8.09-7.061-13.38-8.238-3.83-0.882-7.5-1.323-11.48-1.323-13.38 0-26.33 5.442-35.89 15.004-2.79 2.942-4.41 6.619-4.41 10.591l-0.3 14.567v0.58c0 1.03 0.15 2.06 0.45 3.09l7.79 24.42c0.59 0.88 1.18 1.77 1.77 2.5 4.56 5.15 9.56 9.71 15 13.54 1.47 1.17 2.5 3.09 2.5 5.14 0 1.62-0.73 3.24-1.91 4.42-3.09 2.94-6.18 6.03-9.27 9.27-7.06 7.35-12.35 16.03-15.59 25.3l-7.21 20.88-12.65 36.49-9.27 0.73c-0.88-2.5-2.35-4.71-4.56-6.18l-0.73-0.59c3.82-20.3 5.74-40.45 5.74-60.89v-7.51l-0.3-11.62c-0.29-2.94-1.47-5.88-3.53-7.94-2.94-2.94-6.03-6.33-8.97-9.71-10.15-11.77-21.63-22.51-33.98-32.22-5-3.97-10.45-8.23-15.89-12.35-9.27-7.21-17.36-11.476-25.89-14.271l-12.65-4.118c-2.21-1.471-4.12-3.384-5.59-5.59-3.09-4.413-2.06-10.591 2.5-13.681 8.68-6.031 12.06-8.384 15.3-10.738 1.03-0.588 3.82-4.413 5-8.679 1.18-3.677 2.06-7.355 2.65-11.032 0.44-3.678 0.73-7.503 0.73-11.18 0-11.327-2.64-22.36-7.64-32.362-3.68-7.355-11.18-11.915-19.42-11.915h-0.59c-5.74 0-11.77 0-17.51-0.148h-1.17c-2.21 0-4.12 0.148-6.18 0.589 3.24-0.736 0.59-0.147-1.91 0.441-10.74 2.354-14.71 4.119-18.39 6.4726-2.5 1.6181-4.41 3.6775-6.03 6.0311-1.03 1.471-2.06 2.7949-3.24 3.9717-2.35 2.3536-3.53 5.4428-3.68 8.8256l-0.44 25.596v1.912c0 6.326 1.18 12.504 3.83 18.241 1.17 2.942 3.23 5.443 5.88 7.061 2.94 1.912 5.59 3.677 8.24 5.737 1.91 1.324 3.24 3.677 3.53 6.325v1.03c0 5.589-3.38 10.444-8.53 12.356-3.39 1.03-6.62 2.501-9.71 3.972s-6.62 3.089-10.15 4.854c-3.24 1.324-6.03 3.089-8.68 4.859-2.94 2.05-5.3 4.7-6.91 7.64l-42.957 78.56-41.188 29.42c-5.148 4.12-10.591 7.94-16.328 11.32-2.9421 1.77-5.4428 4.12-7.3551 7.06-0.5884 0.89-0.7355 1.77-0.7355 2.65 0 1.33 0.2942 2.36 1.0297 3.39 3.6775 4.41 8.0909 8.23 13.239 11.03 2.648 1.62 5.737 2.35 8.826 2.5h0.442c3.53 0 6.472-2.65 6.766-6.33l0.441-6.62c-0.294-1.17 0.295-2.35 1.471-2.79l51.044-16.77 26.915-34.13c-5.44 13.98-11.76 28.25-18.824 41.93-8.385 16.47-19.27 31.03-32.362 43.54l-3.972 3.82c10.886 10.15 23.389 18.39 36.922 24.27l3.678 1.62c-5.884 11.92-9.562 25.01-10.886 38.54-0.588 5.59-1.029 11.33-1.323 17.21-0.589 9.86-2.06 19.57-4.413 29.28-1.913 7.5-4.119 15-6.62 22.5-1.471 4.56-4.119 8.68-7.502 12.07-4.56 4.26-9.709 7.79-15.446 10.15-9.414 3.82-19.417 6.17-29.714 7.06-2.06 0.29-3.825 0.58-5.59 1.32-2.059 0.88-3.972 2.06-5.884 3.24-1.765 1.47-2.942 3.23-3.3833 5.44l-1.1768 5.88 81.2 17.07c4.707-4.12 7.502-10.01 7.502-16.33v-0.59c-0.147-4.71-0.294-9.56-0.589-14.56-0.441-5.74 0.883-10.3 3.678-14.12 6.475-9.27 12.355-17.95 17.945-26.78 5.89-9.26 10.45-20.15 13.09-31.62 1.62-7.21 2.5-14.71 2.5-22.22 0-4.85 0.74-9.85 2.06-14.71 1.03-4.11 3.09-7.94 6.03-11.03l3.39-3.82c10.15 2.35 20.44 3.38 30.74 3.38h3.24l4.41-0.15v1.18c0 8.97 1.77 17.8 5.3 26.18 4.85 11.77 10.44 23.39 16.91 34.28 3.68 6.32 6.33 13.68 7.65 21.33 0.89 6.03 1.91 11.77 3.24 17.36 0.29 1.47 0.59 3.08 0.59 4.56 0 1.91-0.3 3.67-0.89 5.59-1.17 4.26-3.67 7.94-7.35 10.29-4.12 2.8-8.83 5.74-13.53 8.53-5.3 2.95-10.01 6.77-14.13 11.18-1.76 1.77-2.64 4.12-2.64 6.48v3.23h78.99c0.88-3.09 1.32-6.32 1.32-9.56 0-5-1.03-10-2.94-14.56l-6.32-14.86c-1.47-2.5-2.21-5.29-2.5-8.24l-1.92-23.24-0.44-11.77-0.15-10c0.15-1.18 0.15-2.35 0.15-3.38 0-3.53-0.44-7.06-1.17-10.59-0.59-2.65-1.18-5.45-1.77-8.24-0.88-4.41-2.35-8.39-4.56-12.06-4.27-7.21-6.77-15.3-7.21-23.69l-0.29-6.76c16.33-4.12 32.07-11.04 46.33-20.16l4.71-2.94-12.06-20.15-8.24-17.07-13.83-33.83-7.79-24.12-9.42-36.78 41.49 25.01c1.17 1.18 1.91 2.5 2.06 3.97l2.64 20.59 1.03 11.92 0.59 16.62c0.15 1.03 0.15 2.06 0.15 3.09 0 2.65-0.44 5.3-1.33 7.8-1.47 3.68-2.5 7.79-2.94 11.91v1.03c0 1.92 0.59 3.83 1.77 5.45 3.23 4.41 7.65 7.94 12.65 10.29 0.59 0.15 1.18 0.3 1.91 0.3 0.59 0 1.47-0.15 2.06-0.59 0.74-0.44 1.62-0.59 2.5-0.44 0.74 0.14 1.32 0.14 2.06 0.14h0.44c1.18 0 2.5 0.3 3.53 0.74 9.12 3.82 18.98 5.88 28.98 5.88h4.56l15.15-32.51c0.88 10.3 1.33 20.45 1.33 30.45 0 13.24-0.74 26.48-2.21 39.72-0.88 8.24-2.65 15.89-5.44 23.39l-3.39 8.83-5.88 17.65-9.12 32.8-4.85 17.21c-2.21 3.53-5.3 6.77-8.83 8.98-2.5 1.61-5 2.79-7.65 3.82-2.8 1.03-5.88 2.06-8.97 3.09l-9.56 3.09c-2.51 1.03-4.12 3.38-4.42 6.03l-0.88 6.91 62.08 11.18 16.32-52.81 7.36-21.18 3.09-7.35 12.35-25.45 14.57-26.77z"/>
  <metadata>
    <rdf:RDF>
      <cc:Work>
        <dc:format>image/svg+xml</dc:format>
        <dc:type rdf:resource="http://purl.org/dc/dcmitype/StillImage"/>
        <cc:license rdf:resource="http://creativecommons.org/licenses/publicdomain/"/>
        <dc:publisher>
          <cc:Agent rdf:about="http://openclipart.org/">
            <dc:title>Openclipart</dc:title>
          </cc:Agent>
        </dc:publisher>
        <dc:title>Children</dc:title>
        <dc:date>2006-10-10T04:29:54</dc:date>
        <dc:description>Two children walking, holding hands.</dc:description>
        <dc:source>http://openclipart.org/detail/474/children-by-liftarn</dc:source>
        <dc:creator>
          <cc:Agent>
            <dc:title>liftarn</dc:title>
          </cc:Agent>
        </dc:creator>
        <dc:subject>
          <rdf:Bag>
            <rdf:li>black</rdf:li>
            <rdf:li>boy</rdf:li>
            <rdf:li>child</rdf:li>
            <rdf:li>clip art</rdf:li>
            <rdf:li>clipart</rdf:li>
            <rdf:li>girl</rdf:li>
            <rdf:li>how i did it</rdf:li>
            <rdf:li>image</rdf:li>
            <rdf:li>media</rdf:li>
            <rdf:li>people</rdf:li>
            <rdf:li>public domain</rdf:li>
            <rdf:li>roadsign</rdf:li>
            <rdf:li>sign</rdf:li>
            <rdf:li>silhouette</rdf:li>
            <rdf:li>svg</rdf:li>
            <rdf:li>walking</rdf:li>
          </rdf:Bag>
        </dc:subject>
      </cc:Work>
      <cc:License rdf:about="http://creativecommons.org/licenses/publicdomain/">
        <cc:permits rdf:resource="http://creativecommons.org/ns#Reproduction"/>
        <cc:permits rdf:resource="http://creativecommons.org/ns#Distribution"/>
        <cc:permits rdf:resource="http://creativecommons.org/ns#DerivativeWorks"/>
      </cc:License>
    </rdf:RDF>
  </metadata>
</svg>
