<?xml version="1.0" encoding="UTF-8"?>
<!DOCTYPE svg PUBLIC "-//W3C//DTD SVG 1.1//EN" "http://www.w3.org/Graphics/SVG/1.1/DTD/svg11.dtd">
<svg version="1.1" xmlns="http://www.w3.org/2000/svg" xmlns:xlink="http://www.w3.org/1999/xlink" x="0px" y="0px" width="1200" height="1300" viewBox="0, 0, 1200, 1300">
  <g id="yellow">
    <path d="M634.671,260.871 C634.671,260.871 668.615,210.971 686.57,186.728 C710.669,154.19 728.401,114.469 761.453,91.082 C781.039,77.224 809.051,55.819 829.666,68.098 C852.077,81.446 849.452,119.929 843.012,145.207 C827.984,204.189 729.574,288.302 729.574,288.302" fill-opacity="0" stroke="#000000" stroke-width="1"/>
    <path d="M767.373,841.416 C758.13,828.066 823.524,787.974 858.069,796.329 C878.563,801.286 902.896,814.409 910.496,834.077 C921.757,863.215 903.637,898.396 886.904,924.772 C875.207,943.213 856.759,953.489 836.051,960.423 C818.962,966.145 782.575,964.092 782.575,964.092" fill-opacity="0" stroke="#000000" stroke-width="1"/>
    <path d="M815.581,387.643 C1106.435,330.845 1016.725,57.096 755.671,300.87 C572.864,197.391 449.814,316.142 533.106,464.006 C539.635,478.882 542.606,489.309 520.342,491.169 C480.124,477.929 426.011,500.38 425.453,548.398 C421.625,587.188 457.798,594.654 480.454,612.294 C411.372,669.622 328.556,872.439 467.079,971.526 C432.427,956.803 377.869,1002.948 413.816,1032.992 C448.838,1057.675 491.471,1031.232 528.645,1039.354 C533.304,1079.22 579.541,1075.412 609.412,1070.398 C629.8,1067.77 634.383,1057.169 650.867,1054.462 C895.046,1014.362 726.878,813.636 744.705,706.446 C835.952,674.38 846.387,594.717 775.544,522.923 C841.796,483.263 817.534,391.465 815.576,387.636 z" fill-opacity="0" stroke="#000000" stroke-width="1"/>
    <path d="M761.443,618.229 C707.017,586.324 648.111,600.734 648.005,637.136 C647.816,701.344 710.059,704.274 745.131,705.718" fill-opacity="0" stroke="#000000" stroke-width="1"/>
    <path d="M506.783,528.508 C506.783,528.508 582.893,550.876 559.424,595.605 C542.331,628.183 477.865,613.4 477.865,613.4" fill-opacity="0" stroke="#000000" stroke-width="1"/>
    <path d="M801.488,332.037 C858.117,297.768 918.355,245.44 963.861,266.79" fill-opacity="0" stroke="#000000" stroke-width="1"/>
    <g>
      <path d="M465.445,970.596 L540.146,1008.409" fill="#FFFFFF"/>
      <path d="M465.445,970.596 L540.146,1008.409" fill-opacity="0" stroke="#000000" stroke-width="1"/>
    </g>
    <g>
      <path d="M528.626,1036.889 C544.029,960.679 604.859,988.439 642.498,1000.662" fill="#FFFFFF"/>
      <path d="M528.626,1036.889 C544.029,960.679 604.859,988.439 642.498,1000.662" fill-opacity="0" stroke="#000000" stroke-width="1"/>
    </g>
    <path d="M622.046,363.921 C622.046,370.882 616.237,376.526 609.071,376.526 C601.905,376.526 596.096,370.883 596.096,363.921 C596.096,356.96 601.905,351.317 609.071,351.317 C616.237,351.317 622.046,356.96 622.046,363.921 z" fill-opacity="0" stroke="#000000" stroke-width="1"/>
    <path d="M550.117,312.015 C564.505,305.804 576.502,308.358 584.963,323.877" fill-opacity="0" stroke="#000000" stroke-width="1"/>
    <path d="M691.745,357.227 C711.204,353.456 726.301,356.472 728.075,380.211" fill-opacity="0" stroke="#000000" stroke-width="1"/>
    <path d="M577.538,418.059 C642.455,430.043 626.738,440.952 656.132,428.439" fill-opacity="0" stroke="#000000" stroke-width="1"/>
    <g>
      <path d="M517.528,339.436 L494.544,323.125" fill="#FFFFFF"/>
      <path d="M517.528,339.436 L494.544,323.125" fill-opacity="0" stroke="#000000" stroke-width="1"/>
    </g>
    <g>
      <path d="M513.065,362.453 L475.253,362.453" fill="#FFFFFF"/>
      <path d="M513.065,362.453 L475.253,362.453" fill-opacity="0" stroke="#000000" stroke-width="1"/>
    </g>
    <g>
      <path d="M509.366,389.875 L478.226,397.289" fill="#FFFFFF"/>
      <path d="M509.366,389.875 L478.226,397.289" fill-opacity="0" stroke="#000000" stroke-width="1"/>
    </g>
    <path d="M728.074,380.211 C708.01,380.211 691.744,369.921 691.744,357.227" fill-opacity="0" stroke="#000000" stroke-width="1"/>
    <path d="M584.963,323.877 C565.718,323.877 564.326,337.479 550.116,312.015" fill-opacity="0" stroke="#000000" stroke-width="1"/>
    <path d="M926.4,935.728 C1003.228,935.728 1185.814,1066.64 1112.298,1151.245" fill-opacity="0" stroke="#000000" stroke-width="1"/>
    <path d="M982.803,1004.591 C972.011,965.754 974.126,962.369 926.4,935.728" fill-opacity="0" stroke="#000000" stroke-width="1"/>
    <path d="M926.4,935.728 C990.682,925.976 996.331,925.164 1037.037,906.97" fill-opacity="0" stroke="#000000" stroke-width="1"/>
    <path d="M233.387,1171.708 Q208.994,1168.421 196.441,1151.106 Q183.888,1133.792 187.33,1108.241 Q190.812,1082.401 207.553,1069.181 Q224.295,1055.961 249.266,1059.326 Q274.093,1062.671 286.774,1079.855 Q299.456,1097.04 296.003,1122.663 Q292.473,1148.865 275.705,1162.008 Q258.937,1175.151 233.387,1171.708 z M235.666,1156.981 Q249.997,1158.912 259.874,1148.783 Q269.75,1138.655 272.344,1119.401 Q274.861,1100.727 267.986,1088.304 Q261.111,1075.882 247.286,1074.019 Q233.317,1072.137 223.436,1082.302 Q213.554,1092.467 211.009,1111.358 Q208.483,1130.105 215.27,1142.626 Q222.058,1155.148 235.666,1156.981 z M308.806,1179.143 L319.515,1099.669 L340.939,1102.556 L336.804,1133.245 L365.395,1137.098 L369.53,1106.408 L390.955,1109.295 L380.246,1188.769 L358.821,1185.882 L363.59,1150.488 L335,1146.636 L330.231,1182.03 z M431.833,1213.923 L436.163,1181.786 L443.474,1182.771 Q452.545,1173.97 458.314,1160.414 Q464.083,1146.858 466.561,1128.473 L467.75,1119.643 L526.885,1127.611 L518.098,1192.826 L531.489,1194.63 L527.159,1226.767 L506.602,1223.997 L509.011,1206.119 L454.798,1198.814 L452.389,1216.692 z M497.542,1190.056 L504.496,1138.448 L484.881,1135.805 L484.764,1136.674 Q482.872,1150.716 478.125,1162.973 Q473.378,1175.23 465.839,1185.784 z M581.438,1217.72 Q562.836,1215.214 553.387,1202.481 Q543.938,1189.748 546.503,1170.712 Q549.097,1151.459 561.637,1141.8 Q574.177,1132.14 593.141,1134.696 Q612.177,1137.26 621.713,1149.894 Q631.249,1162.528 628.674,1181.637 Q626.041,1201.18 613.475,1210.762 Q600.908,1220.344 581.438,1217.72 z M583.604,1204.379 Q602.061,1206.865 605.874,1178.565 Q607.62,1165.609 603.749,1157.423 Q599.877,1149.237 591.336,1148.086 Q582.868,1146.945 576.968,1153.814 Q571.068,1160.683 569.303,1173.784 Q567.557,1186.74 571.382,1194.994 Q575.208,1203.247 583.604,1204.379 z M642.988,1224.171 L653.696,1144.697 L685.11,1148.93 Q701.106,1151.085 708.531,1156.692 Q715.955,1162.298 714.736,1171.346 Q713.751,1178.656 708.74,1183.029 Q703.729,1187.402 694.765,1188.847 Q704.629,1192.755 709.052,1198.768 Q713.474,1204.78 712.391,1212.814 Q710.928,1223.672 702.69,1227.389 Q694.451,1231.105 677.224,1228.784 z M664.783,1213.917 L670.212,1214.648 Q682.372,1216.286 686.529,1214.967 Q690.686,1213.648 691.466,1207.858 Q692.315,1201.561 687.962,1197.769 Q683.609,1193.976 674.055,1192.689 L667.758,1191.84 z M669.386,1179.753 L675.684,1180.601 Q683.79,1181.694 688.245,1179.53 Q692.701,1177.367 693.432,1171.939 Q694.008,1167.668 690.314,1164.997 Q686.621,1162.325 678.659,1161.252 L672,1160.355 z M764.199,1242.346 Q745.597,1239.839 736.148,1227.107 Q726.699,1214.374 729.264,1195.338 Q731.858,1176.084 744.398,1166.425 Q756.938,1156.766 775.902,1159.321 Q794.938,1161.886 804.474,1174.52 Q814.01,1187.154 811.435,1206.262 Q808.802,1225.805 796.236,1235.387 Q783.669,1244.969 764.199,1242.346 z M766.365,1229.004 Q784.822,1231.491 788.636,1203.19 Q790.381,1190.234 786.51,1182.048 Q782.638,1173.862 774.098,1172.711 Q765.629,1171.57 759.729,1178.44 Q753.829,1185.309 752.064,1198.41 Q750.318,1211.366 754.144,1219.619 Q757.969,1227.873 766.365,1229.004 z M814.603,1247.295 L816.534,1232.964 Q826.45,1234.3 831.224,1222.931 Q836.376,1210.949 840.287,1181.925 L841.886,1170.054 L902.324,1178.198 L891.616,1257.672 L870.191,1254.785 L878.978,1189.57 L860.014,1187.015 L859.839,1188.318 Q854.816,1225.594 845.422,1237.888 Q836.027,1250.182 814.603,1247.295 z M983.466,1267.321 Q967.589,1269.751 953.909,1267.907 Q934.004,1265.225 924.017,1252.383 Q914.03,1239.541 916.663,1219.999 Q919.15,1201.542 931.198,1191.705 Q943.246,1181.869 960.545,1184.2 Q977.989,1186.55 984.541,1198.635 Q991.092,1210.719 987.884,1234.532 L938.593,1227.891 Q937.702,1250.911 960.502,1253.983 Q971.286,1255.436 985.494,1252.266 z M939.932,1215.764 L968.45,1219.607 Q971.19,1199.268 958.089,1197.503 Q944.771,1195.708 939.932,1215.764 z M1005.253,1272.983 L1015.962,1193.509 L1037.387,1196.396 L1033.251,1227.086 L1061.842,1230.938 L1065.977,1200.248 L1087.402,1203.135 L1076.693,1282.609 L1055.269,1279.722 L1060.038,1244.328 L1031.447,1240.476 L1026.678,1275.87 z" fill="#34343B"/>
  </g>
  <defs/>
</svg>
