<?xml version="1.0" encoding="UTF-8"?>
<!DOCTYPE svg PUBLIC "-//W3C//DTD SVG 1.1//EN" "http://www.w3.org/Graphics/SVG/1.1/DTD/svg11.dtd">
<svg version="1.1" xmlns="http://www.w3.org/2000/svg" xmlns:xlink="http://www.w3.org/1999/xlink" x="0" y="0" width="130.68" height="141.57" viewBox="0, 0, 396, 429">
  <g id="black">
    <path d="M209.441,86.087 C209.441,86.087 220.643,69.62 226.568,61.62 C234.521,50.883 240.372,37.775 251.28,30.057 C257.743,25.484 266.987,18.42 273.79,22.472 C281.185,26.877 280.319,39.577 278.194,47.918 C273.235,67.382 240.76,95.14 240.76,95.14" fill-opacity="0" stroke="#000000" stroke-width="0.33"/>
    <path d="M253.233,277.667 C250.183,273.262 271.763,260.031 283.163,262.789 C289.926,264.424 297.956,268.755 300.464,275.245 C304.18,284.861 298.2,296.471 292.678,305.175 C288.818,311.26 282.73,314.651 275.897,316.939 C270.257,318.828 258.25,318.151 258.25,318.151" fill-opacity="0" stroke="#000000" stroke-width="0.33"/>
    <path d="M269.142,127.922 C365.123,109.179 335.519,18.842 249.371,99.287 C189.045,65.139 148.439,104.327 175.925,153.122 C178.079,158.031 179.06,161.472 171.713,162.086 C158.441,157.717 140.584,165.125 140.4,180.971 C139.136,193.772 151.073,196.236 158.55,202.057 C135.753,220.975 108.424,287.905 154.136,320.603 C142.701,315.745 124.697,330.973 136.559,340.887 C148.116,349.033 162.185,340.307 174.453,342.987 C175.99,356.143 191.248,354.886 201.106,353.231 C207.834,352.364 209.346,348.866 214.786,347.972 C295.365,334.74 239.87,268.5 245.753,233.127 C275.864,222.545 279.308,196.257 255.93,172.564 C277.793,159.477 269.786,129.183 269.14,127.92 z" fill-opacity="0" stroke="#000000" stroke-width="0.33"/>
    <path d="M251.276,204.016 C233.316,193.487 213.877,198.242 213.842,210.255 C213.779,231.444 234.319,232.41 245.893,232.887" fill-opacity="0" stroke="#000000" stroke-width="0.33"/>
    <path d="M167.238,174.408 C167.238,174.408 192.355,181.789 184.61,196.55 C178.969,207.3 157.695,202.422 157.695,202.422" fill-opacity="0" stroke="#000000" stroke-width="0.33"/>
    <path d="M264.491,109.572 C283.179,98.264 303.057,80.995 318.074,88.041" fill-opacity="0" stroke="#000000" stroke-width="0.33"/>
    <g>
      <path d="M153.597,320.297 L178.248,332.775" fill="#FFFFFF"/>
      <path d="M153.597,320.297 L178.248,332.775" fill-opacity="0" stroke="#000000" stroke-width="0.33"/>
    </g>
    <g>
      <path d="M174.447,342.173 C179.529,317.024 199.604,326.185 212.024,330.218" fill="#FFFFFF"/>
      <path d="M174.447,342.173 C179.529,317.024 199.604,326.185 212.024,330.218" fill-opacity="0" stroke="#000000" stroke-width="0.33"/>
    </g>
    <path d="M205.275,120.094 C205.275,122.391 203.358,124.253 200.993,124.253 C198.629,124.253 196.712,122.391 196.712,120.094 C196.712,117.797 198.629,115.935 200.993,115.935 C203.358,115.935 205.275,117.797 205.275,120.094 z" fill-opacity="0" stroke="#000000" stroke-width="0.33"/>
    <path d="M181.538,102.965 C186.287,100.915 190.246,101.758 193.038,106.88" fill-opacity="0" stroke="#000000" stroke-width="0.33"/>
    <path d="M228.276,117.885 C234.697,116.64 239.679,117.636 240.265,125.47" fill-opacity="0" stroke="#000000" stroke-width="0.33"/>
    <path d="M190.587,137.96 C212.01,141.914 206.823,145.514 216.524,141.385" fill-opacity="0" stroke="#000000" stroke-width="0.33"/>
    <g>
      <path d="M170.784,112.014 L163.2,106.631" fill="#FFFFFF"/>
      <path d="M170.784,112.014 L163.2,106.631" fill-opacity="0" stroke="#000000" stroke-width="0.33"/>
    </g>
    <g>
      <path d="M169.312,119.61 L156.833,119.61" fill="#FFFFFF"/>
      <path d="M169.312,119.61 L156.833,119.61" fill-opacity="0" stroke="#000000" stroke-width="0.33"/>
    </g>
    <g>
      <path d="M168.091,128.659 L157.815,131.105" fill="#FFFFFF"/>
      <path d="M168.091,128.659 L157.815,131.105" fill-opacity="0" stroke="#000000" stroke-width="0.33"/>
    </g>
    <path d="M240.265,125.47 C233.643,125.47 228.276,122.074 228.276,117.885" fill-opacity="0" stroke="#000000" stroke-width="0.33"/>
    <path d="M193.038,106.88 C186.687,106.88 186.228,111.368 181.538,102.965" fill-opacity="0" stroke="#000000" stroke-width="0.33"/>
    <path d="M305.712,308.79 C331.065,308.79 391.319,351.991 367.058,379.911" fill-opacity="0" stroke="#000000" stroke-width="0.33"/>
    <path d="M324.325,331.515 C320.764,318.699 321.462,317.582 305.712,308.79" fill-opacity="0" stroke="#000000" stroke-width="0.33"/>
    <path d="M305.712,308.79 C326.925,305.572 328.789,305.304 342.222,299.3" fill-opacity="0" stroke="#000000" stroke-width="0.33"/>
    <path d="M77.018,386.664 Q68.968,385.579 64.826,379.865 Q60.683,374.151 61.819,365.72 Q62.968,357.192 68.493,352.83 Q74.017,348.467 82.258,349.577 Q90.451,350.681 94.635,356.352 Q98.82,362.023 97.681,370.479 Q96.516,379.125 90.983,383.463 Q85.449,387.8 77.018,386.664 z M77.77,381.804 Q82.499,382.441 85.758,379.099 Q89.018,375.756 89.874,369.402 Q90.704,363.24 88.435,359.14 Q86.167,355.041 81.604,354.426 Q76.995,353.805 73.734,357.16 Q70.473,360.514 69.633,366.748 Q68.799,372.935 71.039,377.067 Q73.279,381.199 77.77,381.804 z M101.906,389.117 L105.44,362.891 L112.51,363.844 L111.145,373.971 L120.58,375.242 L121.945,365.115 L129.015,366.067 L125.481,392.294 L118.411,391.341 L119.985,379.661 L110.55,378.39 L108.976,390.07 z M142.505,400.594 L143.934,389.989 L146.346,390.314 Q149.34,387.41 151.244,382.937 Q153.148,378.463 153.965,372.396 L154.358,369.482 L173.872,372.112 L170.972,393.632 L175.391,394.228 L173.962,404.833 L167.179,403.919 L167.974,398.019 L150.083,395.609 L149.288,401.508 z M164.189,392.718 L166.484,375.688 L160.011,374.816 L159.972,375.102 Q159.348,379.736 157.781,383.781 Q156.215,387.826 153.727,391.309 z M191.874,401.848 Q185.736,401.021 182.618,396.819 Q179.499,392.617 180.346,386.335 Q181.202,379.981 185.34,376.794 Q189.478,373.606 195.736,374.45 Q202.018,375.296 205.165,379.465 Q208.312,383.634 207.462,389.94 Q206.594,396.389 202.447,399.551 Q198.3,402.713 191.874,401.848 z M192.589,397.445 Q198.68,398.266 199.939,388.926 Q200.515,384.651 199.237,381.949 Q197.959,379.248 195.141,378.868 Q192.346,378.492 190.399,380.759 Q188.452,383.026 187.87,387.349 Q187.294,391.624 188.556,394.348 Q189.819,397.072 192.589,397.445 z M212.186,403.977 L215.72,377.75 L226.086,379.147 Q231.365,379.858 233.815,381.708 Q236.265,383.558 235.863,386.544 Q235.538,388.956 233.884,390.4 Q232.231,391.843 229.272,392.32 Q232.528,393.609 233.987,395.593 Q235.446,397.577 235.089,400.229 Q234.606,403.812 231.888,405.038 Q229.169,406.265 223.484,405.499 z M219.378,400.592 L221.17,400.834 Q225.183,401.375 226.555,400.939 Q227.926,400.504 228.184,398.593 Q228.464,396.515 227.027,395.264 Q225.591,394.012 222.438,393.587 L220.36,393.307 z M220.898,389.318 L222.976,389.598 Q225.651,389.959 227.121,389.245 Q228.591,388.531 228.833,386.74 Q229.023,385.331 227.804,384.449 Q226.585,383.567 223.958,383.213 L221.76,382.917 z M252.186,409.974 Q246.047,409.147 242.929,404.945 Q239.811,400.743 240.657,394.461 Q241.513,388.108 245.651,384.92 Q249.79,381.733 256.048,382.576 Q262.33,383.422 265.476,387.592 Q268.623,391.761 267.774,398.067 Q266.905,404.516 262.758,407.678 Q258.611,410.84 252.186,409.974 z M252.901,405.571 Q258.991,406.392 260.25,397.053 Q260.826,392.777 259.548,390.076 Q258.271,387.375 255.452,386.995 Q252.658,386.618 250.711,388.885 Q248.764,391.152 248.181,395.475 Q247.605,399.751 248.867,402.474 Q250.13,405.198 252.901,405.571 z M268.819,411.607 L269.456,406.878 Q272.728,407.319 274.304,403.567 Q276.004,399.613 277.295,390.035 L277.823,386.118 L297.767,388.805 L294.233,415.032 L287.163,414.079 L290.063,392.558 L283.805,391.715 L283.747,392.145 Q282.089,404.446 278.989,408.503 Q275.889,412.56 268.819,411.607 z M324.544,418.216 Q319.304,419.018 314.79,418.409 Q308.221,417.524 304.926,413.287 Q301.63,409.049 302.499,402.6 Q303.32,396.509 307.295,393.263 Q311.271,390.017 316.98,390.786 Q322.736,391.562 324.898,395.55 Q327.061,399.537 326.002,407.396 L309.736,405.204 Q309.442,412.801 316.966,413.814 Q320.524,414.294 325.213,413.248 z M310.177,401.202 L319.588,402.47 Q320.493,395.758 316.169,395.176 Q311.775,394.584 310.177,401.202 z M331.734,420.085 L335.267,393.858 L342.338,394.811 L340.973,404.938 L350.408,406.21 L351.772,396.082 L358.843,397.035 L355.309,423.261 L348.239,422.308 L349.812,410.628 L340.378,409.357 L338.804,421.037 z" fill="#43444C"/>
  </g>
</svg>
